<svg width="1368" height="537" viewBox="0 0 1368 537" fill="none" xmlns="http://www.w3.org/2000/svg">
<path d="M250.995 447.345V345.1H251.788V447.345H250.995Z" fill="#8C0505" stroke="#C6F6D5"/>
<path d="M251.788 529.081H250.995V526.496H251.788V529.081ZM251.788 520.119H250.995V517.534H251.788V520.119ZM251.788 511.156H250.995V508.572H251.788V511.156ZM251.788 502.194H250.995V499.609H251.788V502.194ZM251.788 493.232H250.995V490.647H251.788V493.232ZM251.788 484.27H250.995V481.685H251.788V484.27ZM251.788 475.307H250.995V472.723H251.788V475.307ZM251.788 466.345H250.995V463.76H251.788V466.345ZM251.788 457.383H250.995V455.246H251.788V457.383Z" fill="#8C0505" stroke="#C6F6D5"/>
<path d="M92.7075 74.3349H91.915V71.75H92.7075V74.3349ZM92.7075 65.3726H91.915V62.7877H92.7075V65.3726ZM92.7075 56.4104H91.915V53.8255H92.7075V56.4104ZM92.7075 47.4481H91.915V44.8632H92.7075V47.4481ZM92.7075 38.4859H91.915V35.9009H92.7075V38.4859ZM92.7075 29.5236H91.915V26.9387H92.7075V29.5236ZM92.7075 20.5613H91.915V17.9764H92.7075V20.5613ZM92.7075 11.5991H91.915V9.01415H92.7075V11.5991ZM92.7075 2.63679H91.915V0.5H92.7075V2.63679Z" fill="#8C0505" stroke="#C6F6D5"/>
<path d="M256.692 349.256L256.142 349.806L251.835 345.499L251.484 345.149L251.131 345.496L246.645 349.899L246.094 349.348L251.479 343.964L256.692 349.256Z" fill="#8C0505" stroke="#C6F6D5"/>
<path d="M1146.67 339.261H1145.88V336.676H1146.67V339.261ZM1146.67 330.299H1145.88V327.714H1146.67V330.299ZM1146.67 321.337H1145.88V318.752H1146.67V321.337ZM1146.67 312.374H1145.88V309.789H1146.67V312.374ZM1146.67 303.412H1145.88V300.827H1146.67V303.412ZM1146.67 294.45H1145.88V291.865H1146.67V294.45ZM1146.67 285.487H1145.88V282.903H1146.67V285.487ZM1146.67 276.525H1145.88V273.94H1146.67V276.525ZM1146.67 267.563H1145.88V264.978H1146.67V267.563ZM1146.67 258.601H1145.88V256.016H1146.67V258.601ZM1146.67 249.638H1145.88V247.054H1146.67V249.638ZM1146.67 240.676H1145.88V238.091H1146.67V240.676ZM1146.67 231.714H1145.88V229.129H1146.67V231.714ZM1146.67 222.752H1145.88V220.167H1146.67V222.752ZM1146.67 213.789H1145.88V211.204H1146.67V213.789ZM1146.67 204.827H1145.88V203.049H1146.67V204.827Z" fill="#8C0505" stroke="#C6F6D5"/>
<path d="M1362.66 536.431H1361.87V533.846H1362.66V536.431ZM1362.66 527.469H1361.87V524.884H1362.66V527.469ZM1362.66 518.506H1361.87V515.922H1362.66V518.506ZM1362.66 509.544H1361.87V506.959H1362.66V509.544ZM1362.66 500.582H1361.87V497.997H1362.66V500.582ZM1362.66 491.62H1361.87V489.035H1362.66V491.62ZM1362.66 482.657H1361.87V480.073H1362.66V482.657ZM1362.66 473.695H1361.87V471.11H1362.66V473.695ZM1362.66 464.733H1361.87V462.148H1362.66V464.733ZM1362.66 455.771H1361.87V453.186H1362.66V455.771ZM1362.66 446.808H1361.87V444.223H1362.66V446.808ZM1362.66 437.846H1361.87V435.261H1362.66V437.846ZM1362.66 428.884H1361.87V426.299H1362.66V428.884ZM1362.66 419.922H1361.87V417.337H1362.66V419.922ZM1362.66 410.959H1361.87V408.374H1362.66V410.959ZM1362.66 401.997H1361.87V400.219H1362.66V401.997Z" fill="#8C0505" stroke="#C6F6D5"/>
<path d="M1284.69 152.845H1283.9V150.26H1284.69V152.845ZM1284.69 143.883H1283.9V141.298H1284.69V143.883ZM1284.69 134.921H1283.9V132.336H1284.69V134.921ZM1284.69 125.958H1283.9V123.373H1284.69V125.958ZM1284.69 116.996H1283.9V114.411H1284.69V116.996ZM1284.69 108.034H1283.9V105.449H1284.69V108.034ZM1284.69 99.0715H1283.9V96.4866H1284.69V99.0715ZM1284.69 90.1092H1283.9V87.5243H1284.69V90.1092ZM1284.69 81.1469H1283.9V78.562H1284.69V81.1469ZM1284.69 72.1847H1283.9V69.5998H1284.69V72.1847ZM1284.69 63.2224H1283.9V60.6375H1284.69V63.2224ZM1284.69 54.2602H1283.9V51.6753H1284.69V54.2602ZM1284.69 45.2979H1283.9V42.713H1284.69V45.2979ZM1284.69 36.3356H1283.9V33.7507H1284.69V36.3356ZM1284.69 27.3734H1283.9V24.7885H1284.69V27.3734ZM1284.69 18.4111H1283.9V16.6328H1284.69V18.4111Z" fill="#8C0505" stroke="#C6F6D5"/>
<path d="M1107.07 201.692V130.725H1107.86V201.692H1107.07Z" fill="#8C0505" stroke="#C6F6D5"/>
<path d="M874.321 508.828V437.861H875.113V508.828H874.321Z" fill="#8C0505" stroke="#C6F6D5"/>
<path d="M1112.77 104.588L1112.22 105.138L1107.91 100.831L1107.56 100.478L1107.2 100.831L1102.79 105.24L1102.18 104.668L1107.55 99.2957L1112.77 104.588Z" fill="#8C0505" stroke="#C6F6D5"/>
<path d="M1367.3 389.588L1366.75 390.138L1362.44 385.831L1362.08 385.478L1361.73 385.831L1357.32 390.24L1356.71 389.668L1362.08 384.296L1367.3 389.588Z" fill="#8C0505" stroke="#C6F6D5"/>
<path d="M6.66977 338.365H5.87732V335.78H6.66977V338.365ZM6.66977 329.402H5.87732V326.817H6.66977V329.402ZM6.66977 320.44H5.87732V317.855H6.66977V320.44ZM6.66977 311.478H5.87732V308.893H6.66977V311.478ZM6.66977 302.516H5.87732V299.931H6.66977V302.516ZM6.66977 293.553H5.87732V290.968H6.66977V293.553ZM6.66977 284.591H5.87732V282.006H6.66977V284.591ZM6.66977 275.629H5.87732V273.044H6.66977V275.629ZM6.66977 266.666H5.87732V264.082H6.66977V266.666ZM6.66977 257.704H5.87732V255.119H6.66977V257.704ZM6.66977 248.742H5.87732V246.157H6.66977V248.742ZM6.66977 239.78H5.87732V237.195H6.66977V239.78ZM6.66977 230.817H5.87732V228.233H6.66977V230.817ZM6.66977 221.855H5.87732V219.27H6.66977V221.855ZM6.66977 212.893H5.87732V210.308H6.66977V212.893ZM6.66977 203.931H5.87732V202.152H6.66977V203.931Z" fill="#8C0505" stroke="#C6F6D5"/>
<path d="M11.305 191.522L10.7547 192.072L6.44788 187.765L6.09433 187.411L5.74077 187.765L1.33236 192.173L0.719509 191.601L6.09166 186.229L11.305 191.522Z" fill="#8C0505" stroke="#C6F6D5"/>
<path d="M288.726 153.114V95.0527H289.519V153.114H288.726Z" fill="#8C0505" stroke="#C6F6D5"/>
<path d="M5.87732 382.19V356.303H6.66977V382.19H5.87732Z" fill="#8C0505" stroke="#C6F6D5"/>
<path d="M284.462 80.939L283.915 80.3914L289.212 75.0938L294.42 80.3018L293.873 80.8494L289.566 76.5426L289.212 76.189L288.859 76.5426L284.462 80.939Z" fill="#8C0505" stroke="#C6F6D5"/>
<path d="M308.788 195.772H307.995V193.188H308.788V195.772ZM308.788 186.81H307.995V184.225H308.788V186.81ZM308.788 177.848H307.995V175.263H308.788V177.848ZM308.788 168.886H307.995V166.301H308.788V168.886Z" fill="#8C0505" stroke="#C6F6D5"/>
<path d="M228.41 506.496V429.703H229.203V506.496H228.41Z" fill="#8C0505" stroke="#C6F6D5"/>
<path d="M341.736 134.426C343.89 135.57 345.686 136.759 346.386 137.245C346.545 138.395 346.876 141.897 345.748 145.964C344.487 150.514 341.397 155.809 334.065 159.345C327.359 156.545 324.204 151.791 322.769 147.314C321.373 142.959 321.607 138.858 321.868 137.1C321.892 137.08 321.919 137.058 321.95 137.033C322.161 136.863 322.482 136.63 322.9 136.354C323.733 135.803 324.894 135.112 326.205 134.435C327.516 133.759 328.958 133.106 330.354 132.625C331.762 132.139 333.062 131.85 334.105 131.85C336.225 131.85 339.136 133.046 341.736 134.426Z" stroke="#C6F6D5" stroke-width="2"/>
<path d="M185.075 390.746C187.23 391.89 189.025 393.08 189.725 393.566C189.884 394.715 190.215 398.217 189.088 402.285C187.827 406.835 184.736 412.129 177.405 415.665C170.699 412.866 167.543 408.112 166.108 403.634C164.712 399.28 164.946 395.178 165.208 393.421C165.231 393.401 165.259 393.378 165.29 393.353C165.501 393.183 165.822 392.951 166.24 392.674C167.072 392.124 168.234 391.432 169.544 390.756C170.855 390.079 172.298 389.426 173.693 388.945C175.102 388.459 176.401 388.17 177.445 388.17C179.564 388.17 182.476 389.367 185.075 390.746Z" stroke="#C6F6D5" stroke-width="2"/>
<path d="M1116.25 231.217C1118.41 232.361 1120.2 233.55 1120.9 234.036C1121.06 235.186 1121.39 238.688 1120.27 242.755C1119.01 247.305 1115.92 252.6 1108.58 256.136C1101.88 253.336 1098.72 248.582 1097.29 244.105C1095.89 239.75 1096.13 235.649 1096.39 233.892C1096.41 233.872 1096.44 233.849 1096.47 233.824C1096.68 233.654 1097 233.421 1097.42 233.145C1098.25 232.594 1099.41 231.903 1100.72 231.226C1102.03 230.55 1103.48 229.897 1104.87 229.416C1106.28 228.93 1107.58 228.641 1108.62 228.641C1110.74 228.641 1113.66 229.837 1116.25 231.217Z" stroke="#C6F6D5" stroke-width="2"/>
<path d="M100.83 91.4066C102.984 92.5503 104.78 93.7398 105.48 94.2258C105.639 95.3755 105.97 98.877 104.843 102.945C103.582 107.495 100.491 112.789 93.1596 116.325C86.4534 113.526 83.2979 108.772 81.8627 104.294C80.467 99.9399 80.701 95.8381 80.9626 94.081C80.9861 94.061 81.0133 94.0384 81.0444 94.0133C81.2554 93.8431 81.5767 93.6109 81.9947 93.3343C82.8268 92.7837 83.9884 92.0923 85.2988 91.4159C86.61 90.7391 88.0523 90.0865 89.4481 89.6051C90.8567 89.1194 92.1558 88.8301 93.1997 88.8301C95.3191 88.8301 98.2307 90.0268 100.83 91.4066Z" stroke="#C6F6D5" stroke-width="2"/>
<path d="M1020.05 436.321V378.26H1020.84V436.321H1020.05Z" fill="#8C0505" stroke="#C6F6D5"/>
<path d="M1015.78 364.146L1015.24 363.598L1020.53 358.301L1025.74 363.509L1025.19 364.056L1020.89 359.75L1020.53 359.396L1020.18 359.75L1015.78 364.146Z" fill="#8C0505" stroke="#C6F6D5"/>
<path d="M1040.11 478.981H1039.32V476.397H1040.11V478.981ZM1040.11 470.019H1039.32V467.434H1040.11V470.019ZM1040.11 461.057H1039.32V458.472H1040.11V461.057ZM1040.11 452.095H1039.32V449.51H1040.11V452.095Z" fill="#8C0505" stroke="#C6F6D5"/>
<path d="M1073.06 417.633C1075.21 418.777 1077.01 419.966 1077.71 420.452C1077.87 421.602 1078.2 425.104 1077.07 429.171C1075.81 433.722 1072.72 439.016 1065.39 442.552C1058.68 439.752 1055.52 434.998 1054.09 430.521C1052.69 426.166 1052.93 422.065 1053.19 420.308C1053.21 420.288 1053.24 420.265 1053.27 420.24C1053.48 420.07 1053.8 419.837 1054.22 419.561C1055.05 419.01 1056.21 418.319 1057.53 417.642C1058.84 416.966 1060.28 416.313 1061.67 415.832C1063.08 415.346 1064.38 415.057 1065.43 415.057C1067.55 415.057 1070.46 416.253 1073.06 417.633Z" stroke="#C6F6D5" stroke-width="2"/>
</svg>
