<svg width="1440" height="679" viewBox="0 0 1440 679" fill="none" xmlns="http://www.w3.org/2000/svg">
<path fill-rule="evenodd" clip-rule="evenodd" d="M754.206 345.028C748.974 334.208 743.388 323.125 737.493 311.612H731.153V285.172L699.79 258.384L668.427 285.172V311.612H650.802V193.875H588.055V258.384H540.029V115.972H528.645V80.7124H525.623V115.972H477.282V222.188H463.779V159.682H401.033V218.551H355.891V153.258H320.838V26.788L289.494 0L258.131 26.788V97.1336H212.695V122.31H165.336V153.236H149.929V93.4094H87.1823V223.56H69.2239V159.682H57.8404V124.423H54.8179V159.682H6.49699V258.384H-17.899V245.339L-49.2624 218.551L-80.6259 245.339V258.384H-104.433C-96.2683 283.778 -101.136 312.962 -121.018 335.111C-136.11 351.924 -151.105 369.783 -164 387.75V465H0V679C103.548 673.373 392.516 662.118 720 662.118C1047.48 662.118 1336.45 673.373 1440 679V465H1619.77C1614.06 460.009 1623.46 455.352 1635.43 449.419C1651.67 441.37 1672.65 430.974 1667.09 414.212C1656 380.781 1640.32 348.39 1621.49 311.612H1615.15V285.172L1583.79 258.384L1552.43 285.172V311.612H1534.8V193.875H1472.06V258.384H1424.03V115.972H1412.65V80.7124H1409.62V115.972H1361.28V222.188H1347.78V159.682H1285.03V218.551H1239.89V153.258H1204.84V26.788L1173.49 0L1142.13 26.788V97.1336H1096.69V122.31H1049.34V153.236H1033.93V93.4094H971.182V223.56H953.224V159.682H941.84V124.423H938.818V159.682H890.497V258.384H866.101V245.339L834.738 218.551L803.374 245.339V258.384H779.567C787.732 283.778 782.864 312.962 762.982 335.111C760.048 338.38 757.118 341.688 754.206 345.028Z" fill="#F7FAFC"/>
</svg>
