<svg width="390" height="257" viewBox="0 0 390 257" fill="none" xmlns="http://www.w3.org/2000/svg">
<g filter="url(#filter0_d)">
<path d="M185.068 183.452L185.518 182.986C186.083 183.126 186.683 183.255 187.314 183.351L186.943 183.814C186.313 183.718 185.676 183.601 185.068 183.452ZM188.965 184.014L189.25 183.532C189.903 183.575 190.586 183.586 191.268 183.596L191.026 184.087C190.344 184.076 189.618 184.057 188.965 184.014ZM193.229 183.977L193.398 183.509C194.104 183.466 194.803 183.402 195.531 183.306L195.441 183.771C194.669 183.858 193.934 183.934 193.229 183.977ZM197.662 183.471L197.716 183.018C198.438 182.901 199.153 182.763 199.904 182.614L199.893 183.077C199.135 183.205 198.384 183.355 197.662 183.471ZM202.09 182.578L202.065 182.127C202.774 181.968 203.511 181.777 204.243 181.565L204.304 182.005C203.573 182.217 202.828 182.387 202.09 182.578ZM194.196 145.792C194.062 145.376 193.929 144.959 193.831 144.532L194.562 144.32C194.66 144.748 194.793 145.164 194.927 145.58L194.196 145.792ZM194.633 147.029L195.351 146.775C195.521 147.18 195.654 147.596 195.86 147.989L195.142 148.242C194.936 147.849 194.766 147.445 194.633 147.029ZM193.569 143.216C193.507 142.776 193.519 142.314 193.566 141.839L194.288 141.722C194.234 142.176 194.216 142.618 194.27 143.036L193.569 143.216ZM195.688 149.444L196.399 149.17C196.605 149.563 196.811 149.956 197.047 150.317L196.343 150.612C196.1 150.23 195.894 149.837 195.688 149.444ZM206.534 181.358L206.436 180.93C206.835 180.802 207.197 180.686 207.595 180.558C207.921 180.453 208.247 180.348 208.61 180.232L208.743 180.648C208.417 180.753 208.055 180.869 207.729 180.974C207.337 181.123 206.939 181.251 206.534 181.358ZM197.033 151.767L197.738 151.472C197.98 151.853 198.252 152.202 198.53 152.572L197.833 152.888C197.554 152.518 197.312 152.137 197.033 151.767ZM193.896 140.379C194.059 139.89 194.301 139.4 194.55 138.93L195.239 138.961C194.984 139.41 194.778 139.889 194.609 140.357L193.896 140.379ZM198.691 153.943L199.346 153.618C199.654 153.956 199.932 154.325 200.277 154.651L199.622 154.976C199.314 154.639 198.999 154.281 198.691 153.943ZM200.625 155.985L201.273 155.639C201.618 155.965 201.962 156.29 202.342 156.604L201.701 156.971C201.32 156.657 200.969 156.311 200.625 155.985ZM195.556 137.459C195.957 136.963 196.37 136.509 196.863 136.052L197.434 136.213C196.971 136.637 196.557 137.092 196.187 137.555L195.556 137.459ZM202.8 157.904L203.441 157.537C203.815 157.83 204.195 158.144 204.606 158.426L204.007 158.802C203.597 158.52 203.18 158.218 202.8 157.904ZM210.734 179.504C211.451 179.251 212.163 178.977 212.831 178.693L213.037 179.086C212.326 179.36 211.615 179.635 210.903 179.909L210.734 179.504ZM205.208 159.679L205.806 159.303C206.216 159.584 206.662 159.854 207.073 160.136L206.481 160.532C206.071 160.251 205.661 159.969 205.208 159.679ZM198.477 134.731C199.062 134.313 199.697 133.926 200.374 133.548L200.719 133.873C200.107 134.207 199.508 134.583 198.952 134.968L198.477 134.731ZM207.856 161.33L208.448 160.934C208.887 161.183 209.334 161.453 209.816 161.711L209.231 162.128C208.778 161.838 208.295 161.579 207.856 161.33ZM214.908 177.82C215.606 177.504 216.303 177.188 216.929 176.896L217.237 177.233C216.582 177.558 215.884 177.874 215.18 178.169L214.908 177.82ZM210.658 162.841L211.207 162.435C211.683 162.672 212.159 162.91 212.635 163.147L212.086 163.553C211.617 163.337 211.141 163.099 210.658 162.841ZM202.461 132.579C202.853 132.431 203.245 132.282 203.643 132.154C204.005 132.038 204.331 131.933 204.7 131.837L204.762 132.277C204.429 132.361 204.103 132.465 203.777 132.57C203.415 132.686 203.023 132.835 202.667 132.972L202.461 132.579ZM213.629 164.251L214.171 163.825C214.683 164.051 215.159 164.288 215.664 164.493L215.122 164.92C214.616 164.715 214.104 164.489 213.629 164.251ZM218.887 175.9C219.295 175.677 219.666 175.466 220.038 175.254C220.272 175.111 220.505 174.967 220.775 174.811L221.185 175.093C220.952 175.237 220.682 175.392 220.448 175.536C220.077 175.747 219.669 175.97 219.261 176.193L218.887 175.9ZM216.694 165.586L217.237 165.159C217.742 165.364 218.254 165.59 218.796 165.783L218.289 166.198C217.712 166.016 217.2 165.791 216.694 165.586ZM206.9 131.843L206.954 131.389C207.676 131.272 208.447 131.185 209.195 131.152L209.026 131.619C208.32 131.662 207.585 131.738 206.9 131.843ZM219.812 166.834L220.312 166.398C220.853 166.592 221.359 166.797 221.9 166.99L221.401 167.426C220.902 167.242 220.361 167.048 219.812 166.834ZM222.535 173.696C223.127 173.299 223.682 172.914 224.231 172.508L224.707 172.746C224.158 173.151 223.573 173.569 222.981 173.965L222.535 173.696ZM211.097 131.597L211.345 131.127C212.028 131.138 212.724 131.19 213.39 131.274L213.063 131.746C212.396 131.662 211.743 131.619 211.097 131.597ZM223.069 168.015L223.568 167.579C224.11 167.773 224.651 167.966 225.193 168.159L224.693 168.595C224.152 168.402 223.574 168.22 223.069 168.015ZM225.865 171.249C226.371 170.834 226.871 170.398 227.37 169.962L227.912 170.156C227.412 170.592 226.913 171.027 226.377 171.475L225.865 171.249ZM226.318 169.175L226.818 168.74C227.359 168.933 227.901 169.126 228.472 169.287L227.972 169.723C227.438 169.551 226.86 169.369 226.318 169.175ZM214.976 131.981L215.383 131.506C215.977 131.614 216.621 131.752 217.228 131.901L216.778 132.367C216.171 132.218 215.57 132.089 214.976 131.981ZM228.746 168.648C229.203 168.203 229.616 167.749 229.994 167.307L230.594 167.435C230.188 167.91 229.774 168.364 229.317 168.809L228.746 168.648ZM229.633 170.292L230.133 169.856C230.674 170.049 231.246 170.21 231.787 170.404L231.288 170.839C230.746 170.646 230.175 170.485 229.633 170.292ZM218.485 132.829L218.941 132.384C219.291 132.478 219.648 132.593 219.968 132.72C220.19 132.787 220.375 132.865 220.596 132.932L220.096 133.367C219.875 133.301 219.69 133.222 219.469 133.156C219.191 133.038 218.842 132.944 218.485 132.829ZM231.142 165.905C231.477 165.453 231.841 164.969 232.132 164.508L232.792 164.572C232.464 165.044 232.143 165.538 231.772 166.001L231.142 165.905ZM232.942 171.387L233.442 170.951L234.647 171.345C234.782 171.393 234.954 171.43 235.096 171.499L234.639 171.944C234.468 171.907 234.326 171.838 234.19 171.79L232.942 171.387ZM221.698 134.001L222.241 133.574C222.753 133.8 223.265 134.026 223.741 134.263L223.192 134.669C222.716 134.432 222.204 134.206 221.698 134.001ZM232.957 163.096C233.206 162.626 233.455 162.156 233.661 161.676L234.373 161.654C234.167 162.134 233.925 162.624 233.64 163.106L232.957 163.096ZM236.353 172.427L236.809 171.982C237.374 172.122 237.981 172.271 238.582 172.4L238.168 172.854C237.525 172.716 236.924 172.588 236.353 172.427ZM224.589 135.414L225.181 135.017C225.628 135.287 226.074 135.557 226.52 135.827L225.922 136.203C225.475 135.933 225.065 135.651 224.589 135.414ZM234.212 160.283C234.382 159.815 234.508 159.338 234.642 158.882L235.377 158.807C235.25 159.284 235.123 159.761 234.954 160.228L234.212 160.283ZM227.122 137.08L227.764 136.713C228.144 137.027 228.525 137.341 228.905 137.655L228.257 138.001C227.877 137.687 227.496 137.373 227.122 137.08ZM234.913 157.487C234.967 157.033 235.021 156.58 235.075 156.126L235.79 155.989C235.743 156.463 235.695 156.937 235.641 157.391L234.913 157.487ZM240.007 173.228L240.413 172.753C241.007 172.861 241.644 172.977 242.275 173.073L241.904 173.537C241.274 173.441 240.607 173.356 240.007 173.228ZM229.218 139.001L229.872 138.676C230.181 139.013 230.495 139.371 230.81 139.729L230.112 140.045C229.834 139.675 229.519 139.317 229.218 139.001ZM235.116 154.759C235.098 154.329 235.073 153.878 235.048 153.427L235.786 153.236C235.847 153.675 235.872 154.126 235.86 154.589L235.116 154.759ZM230.934 141.112L231.639 140.817C231.875 141.178 232.123 141.58 232.366 141.961L231.661 142.256C231.412 141.854 231.17 141.473 230.934 141.112ZM234.835 152.141C234.774 151.701 234.676 151.273 234.615 150.834L235.346 150.622C235.444 151.05 235.505 151.489 235.566 151.929L234.835 152.141ZM232.266 143.393L232.977 143.119C233.183 143.512 233.353 143.917 233.523 144.321L232.805 144.575C232.635 144.17 232.466 143.766 232.266 143.393ZM234.366 149.56C234.268 149.132 234.171 148.704 234.074 148.276L234.805 148.064C234.902 148.492 235 148.92 235.097 149.348L234.366 149.56ZM233.315 145.788L234.039 145.556C234.173 145.972 234.343 146.376 234.44 146.804L233.716 147.037C233.582 146.621 233.448 146.205 233.315 145.788ZM243.831 173.813L244.195 173.329C244.818 173.404 245.485 173.489 246.145 173.553L245.817 174.025C245.121 173.973 244.461 173.909 243.831 173.813ZM247.803 174.237L248.131 173.764C248.79 173.828 249.48 173.859 250.133 173.902L249.848 174.384C249.152 174.332 248.456 174.28 247.803 174.237ZM251.843 174.5L252.128 174.019C252.818 174.05 253.5 174.06 254.19 174.091L253.941 174.561C253.215 174.542 252.533 174.532 251.843 174.5ZM255.989 174.593L256.238 174.123C256.841 174.135 257.474 174.116 258.071 174.108L258.351 174.11L258.145 174.589L257.865 174.587C257.232 174.607 256.629 174.594 255.989 174.593ZM260.239 174.513L260.409 174.046C261.114 174.003 261.82 173.96 262.555 173.885L262.428 174.362C261.729 174.425 260.987 174.48 260.239 174.513ZM264.656 174.082L264.746 173.617C265.475 173.521 266.196 173.404 266.911 173.266L266.857 173.72C266.149 173.879 265.384 173.986 264.656 174.082ZM235.742 73.943L235.662 73.6932L236.387 73.4606L236.46 73.6895C236.567 74.0225 236.674 74.3554 236.781 74.6884L236.056 74.921C235.956 74.6088 235.849 74.2759 235.742 73.943ZM235.298 72.4331C235.2 72.0052 235.096 71.5566 235.005 71.1496L235.737 70.9378C235.827 71.3448 235.931 71.7935 236.029 72.2213L235.298 72.4331ZM236.543 76.1879L237.261 75.9345C237.431 76.339 237.601 76.7436 237.77 77.1481L237.053 77.4016C236.883 76.997 236.713 76.5925 236.543 76.1879ZM234.749 69.8545C234.688 69.4151 234.627 68.9757 234.566 68.5362L235.304 68.3452C235.358 68.7639 235.419 69.2033 235.481 69.6428L234.749 69.8545ZM237.635 78.592L238.346 78.3177C238.552 78.7107 238.758 79.1036 238.957 79.4757L238.246 79.7499C238.047 79.3778 237.841 78.9849 237.635 78.592ZM234.455 67.1946C234.43 66.7435 234.441 66.2808 234.416 65.8298L235.167 65.6804C235.15 66.1223 235.174 66.5734 235.199 67.0244L234.455 67.1946ZM238.943 80.9262L239.648 80.6312C239.89 81.0125 240.132 81.3938 240.368 81.7543L239.664 82.0493C239.428 81.6888 239.186 81.3075 238.943 80.9262ZM269.118 173.293L269.093 172.842C269.837 172.671 270.546 172.513 271.277 172.301L271.338 172.741C270.6 172.932 269.862 173.123 269.118 173.293ZM240.39 83.1932L241.095 82.8982C241.337 83.2794 241.609 83.6283 241.888 83.998L241.19 84.3138C240.905 83.9233 240.662 83.542 240.39 83.1932ZM234.493 64.4508C234.541 63.9765 234.588 63.5022 234.642 63.0486L235.364 62.9317C235.31 63.3852 235.256 63.8388 235.208 64.3131L234.493 64.4508ZM242.012 85.3812L242.71 85.0653C242.988 85.435 243.26 85.7838 243.532 86.1327L242.834 86.4485C242.562 86.0997 242.291 85.7508 242.012 85.3812ZM234.913 61.6532C235.04 61.1764 235.16 60.6788 235.293 60.2228L235.999 60.1799C235.866 60.6359 235.732 61.0919 235.612 61.5895L234.913 61.6532ZM243.736 87.5135L244.39 87.1884C244.705 87.5465 244.977 87.8953 245.285 88.2325L244.63 88.5576C244.322 88.2203 244.014 87.8831 243.736 87.5135ZM245.568 89.6109L246.223 89.2858C246.531 89.6231 246.882 89.9695 247.19 90.3067L246.541 90.6525C246.22 90.2737 245.912 89.9364 245.568 89.6109ZM235.868 58.7759C236.067 58.2759 236.316 57.8058 236.564 57.3357L237.247 57.3461C236.992 57.7954 236.786 58.2746 236.58 58.7538L235.868 58.7759ZM247.568 91.6085L248.216 91.2626C248.56 91.5882 248.904 91.9138 249.249 92.2394L248.601 92.5853C248.263 92.2805 247.912 91.9341 247.568 91.6085ZM273.568 172.094L273.434 171.677L273.507 171.654C274.195 171.433 274.876 171.191 275.558 170.95L275.764 171.342C275.089 171.605 274.365 171.838 273.676 172.059L273.568 172.094ZM237.455 55.879C237.776 55.3857 238.183 54.9108 238.554 54.4474L239.191 54.5643C238.813 55.0068 238.443 55.4702 238.115 55.9427L237.455 55.879ZM249.64 93.5828L250.288 93.237C250.633 93.5626 251.013 93.8766 251.357 94.2022L250.716 94.5688C250.365 94.2224 250.021 93.8968 249.64 93.5828ZM251.851 95.4899L252.492 95.1232C252.873 95.4372 253.217 95.7628 253.591 96.0559L252.949 96.4226C252.569 96.1086 252.188 95.7947 251.851 95.4899ZM254.084 97.3437L254.726 96.977C255.106 97.291 255.48 97.5841 255.861 97.8981L255.219 98.2647C254.845 97.9716 254.465 97.6576 254.084 97.3437ZM239.91 53.0709C240.403 52.6143 240.902 52.1785 241.445 51.7519L241.957 51.9777C241.451 52.3927 240.944 52.8077 240.452 53.2643L239.91 53.0709ZM277.642 170.097C278.31 169.813 279.001 169.477 279.656 169.152L279.964 169.489C279.309 169.814 278.618 170.151 277.914 170.446L277.642 170.097ZM256.39 99.1742L257.032 98.8076C257.412 99.1215 257.822 99.403 258.203 99.717L257.561 100.084C257.145 99.7813 256.771 99.4882 256.39 99.1742ZM258.732 100.993L259.374 100.626L260.545 101.536L259.903 101.903L258.732 100.993ZM243.157 50.4904C243.749 50.0938 244.341 49.6971 244.976 49.3097L245.386 49.5912C244.788 49.967 244.189 50.3428 243.597 50.7395L243.157 50.4904ZM281.528 168.138C281.696 168.038 281.9 167.926 282.068 167.827C282.505 167.571 282.9 167.307 283.331 167.031L283.777 167.301C283.346 167.577 282.915 167.853 282.484 168.129C282.28 168.24 282.119 168.361 281.915 168.472L281.528 168.138ZM261.068 102.791L261.709 102.425L262.88 103.334L262.239 103.701L261.068 102.791ZM263.446 104.598L264.088 104.232C264.462 104.525 264.878 104.827 265.259 105.141L264.617 105.508C264.237 105.194 263.82 104.892 263.446 104.598ZM246.944 48.2189C247.592 47.8731 248.283 47.5364 248.974 47.1998L249.282 47.537C248.627 47.862 247.936 48.1987 247.324 48.5329L246.944 48.2189ZM265.782 106.397L266.423 106.03C266.804 106.344 267.214 106.625 267.594 106.939L266.953 107.306C266.572 106.992 266.162 106.71 265.782 106.397ZM285.014 165.802C285.563 165.396 286.062 164.96 286.526 164.536L287.067 164.729C286.568 165.165 286.032 165.613 285.49 166.039L285.014 165.802ZM268.088 108.227L268.729 107.86C269.11 108.174 269.484 108.468 269.864 108.781L269.223 109.148C268.842 108.834 268.461 108.52 268.088 108.227ZM270.357 110.069L270.999 109.703C271.379 110.017 271.76 110.33 272.134 110.624L271.492 110.99C271.118 110.697 270.738 110.383 270.357 110.069ZM287.909 163.243C288.329 162.809 288.743 162.355 289.149 161.88L289.786 161.997C289.379 162.472 288.966 162.926 288.516 163.392L287.909 163.243ZM251.031 46.2639C251.736 45.9689 252.44 45.6738 253.158 45.4204L253.364 45.8133C252.653 46.0876 251.942 46.3618 251.273 46.6452L251.031 46.2639ZM272.598 111.944L273.239 111.577C273.62 111.891 273.964 112.217 274.344 112.531L273.703 112.897C273.352 112.551 272.978 112.258 272.598 111.944ZM274.802 113.83L275.45 113.484C275.794 113.81 276.175 114.124 276.519 114.449L275.871 114.795C275.526 114.47 275.146 114.156 274.802 113.83ZM290.262 160.49C290.596 160.039 290.924 159.566 291.209 159.084L291.898 159.116C291.577 159.609 291.249 160.081 290.921 160.554L290.262 160.49ZM276.94 115.76L277.588 115.414C277.932 115.74 278.276 116.066 278.621 116.391L277.973 116.737C277.628 116.412 277.284 116.086 276.94 115.76ZM255.341 44.6277C255.703 44.5114 256.029 44.4068 256.391 44.2904C256.79 44.1625 257.152 44.0462 257.551 43.9183L257.648 44.3461C257.286 44.4624 256.924 44.5787 256.525 44.7066C256.199 44.8113 255.837 44.9276 255.511 45.0323L255.341 44.6277ZM279.005 117.714L279.654 117.368C279.998 117.694 280.342 118.019 280.657 118.377L280.009 118.723C279.658 118.377 279.313 118.051 279.005 117.714ZM291.998 157.683C292.246 157.213 292.459 156.755 292.701 156.264L293.413 156.242C293.207 156.721 292.965 157.212 292.717 157.682L291.998 157.683ZM280.969 119.723L281.624 119.398C281.932 119.735 282.283 120.082 282.591 120.419L281.936 120.744C281.622 120.386 281.313 120.049 280.969 119.723ZM293.246 154.85C293.415 154.382 293.585 153.914 293.711 153.438L294.446 153.362C294.32 153.839 294.157 154.328 293.987 154.795L293.246 154.85ZM282.903 121.765L283.558 121.44C283.866 121.777 284.181 122.135 284.489 122.472L283.834 122.797C283.483 122.451 283.175 122.114 282.903 121.765ZM284.693 123.853L285.354 123.549C285.633 123.918 285.941 124.256 286.219 124.625L285.522 124.941C285.279 124.56 284.964 124.202 284.693 123.853ZM294.062 152.04C294.152 151.575 294.243 151.109 294.333 150.644L295.061 150.548C294.971 151.013 294.887 151.499 294.797 151.964L294.062 152.04ZM259.812 43.7431L259.751 43.3037C260.489 43.1127 261.227 42.9217 261.971 42.7515L261.996 43.2026C261.252 43.3728 260.55 43.5522 259.812 43.7431ZM286.38 125.997L287.078 125.681C287.356 126.051 287.628 126.4 287.87 126.781L287.173 127.097C286.93 126.715 286.658 126.367 286.38 125.997ZM294.489 149.263C294.543 148.809 294.554 148.347 294.572 147.905L295.324 147.755C295.312 148.218 295.301 148.681 295.247 149.134L294.489 149.263ZM287.965 128.197L288.67 127.902C288.912 128.283 289.191 128.653 289.426 129.013L288.722 129.308C288.443 128.938 288.201 128.557 287.965 128.197ZM289.406 130.443L290.11 130.148C290.352 130.529 290.558 130.922 290.765 131.315L290.053 131.589C289.854 131.217 289.612 130.836 289.406 130.443ZM294.583 146.57C294.565 146.14 294.54 145.689 294.515 145.237L295.26 145.067C295.285 145.518 295.346 145.958 295.335 146.42L294.583 146.57ZM290.672 132.768L291.383 132.494C291.589 132.887 291.795 133.279 291.965 133.684L291.254 133.958C291.084 133.554 290.878 133.161 290.672 132.768ZM294.332 143.919C294.271 143.48 294.209 143.04 294.112 142.612L294.85 142.421C294.911 142.861 295.008 143.289 295.07 143.728L294.332 143.919ZM291.829 135.128L292.547 134.874C292.717 135.279 292.886 135.684 293.056 136.088L292.338 136.341C292.169 135.937 291.999 135.532 291.829 135.128ZM293.863 141.338C293.765 140.91 293.668 140.483 293.534 140.066L294.265 139.855C294.363 140.282 294.496 140.699 294.594 141.126L293.863 141.338ZM292.775 137.578L293.5 137.346C293.6 137.658 293.694 137.949 293.794 138.261L293.901 138.594L293.176 138.827L293.069 138.494C293.005 138.17 292.869 137.87 292.775 137.578ZM264.164 42.7361L264.175 42.2734C264.926 42.1241 265.641 41.9863 266.399 41.8578L266.345 42.3113C265.63 42.449 264.915 42.5868 264.164 42.7361ZM268.553 41.9697L268.644 41.5045C269.365 41.3876 270.13 41.2799 270.858 41.1837L270.768 41.6489C270.003 41.7566 269.282 41.8736 268.553 41.9697ZM272.894 41.4254L273.02 40.9486C273.755 40.8733 274.454 40.8096 275.196 40.7551L275.033 41.2435C274.328 41.2864 273.622 41.3293 272.894 41.4254ZM277.215 41.0709L277.385 40.6032C278.09 40.5604 278.839 40.5267 279.551 40.5046L279.345 40.9839C278.626 40.9851 277.921 41.028 277.215 41.0709ZM281.439 40.9085L281.645 40.4292C282.357 40.4072 283.04 40.4176 283.758 40.4163L283.51 40.8864C282.834 40.8968 282.115 40.8981 281.439 40.9085ZM285.571 40.9591L285.856 40.4774C286.545 40.5086 287.228 40.519 287.917 40.5502L287.632 41.0319C286.943 41.0007 286.254 40.9695 285.571 40.9591ZM289.628 41.1487L289.919 40.6878C290.572 40.7306 291.268 40.7826 291.928 40.8462L291.6 41.3187C290.977 41.2435 290.288 41.2123 289.628 41.1487ZM293.586 41.5304L293.914 41.0579C294.574 41.1215 295.204 41.2176 295.871 41.302L295.5 41.7654C294.906 41.6577 294.246 41.5941 293.586 41.5304ZM297.463 42.0303L297.834 41.567C298.464 41.663 299.101 41.7799 299.731 41.876L299.36 42.3393C298.724 42.2224 298.093 42.1264 297.463 42.0303ZM301.222 42.6599L301.629 42.185C302.265 42.3019 302.866 42.4304 303.467 42.5589L303.053 43.013C302.459 42.9053 301.822 42.7885 301.222 42.6599ZM304.869 43.4402L305.282 42.986C305.883 43.1145 306.49 43.2638 307.098 43.4131L306.648 43.8789C306.077 43.718 305.469 43.5687 304.869 43.4402ZM308.42 44.2969L308.877 43.8519C309.448 44.0128 310.055 44.1621 310.627 44.3231L310.17 44.7681C309.563 44.6188 308.992 44.4578 308.42 44.2969ZM311.854 45.2833L312.31 44.8384C312.882 44.9993 313.459 45.1811 313.994 45.3536L313.502 45.8102C312.996 45.6052 312.425 45.4443 311.854 45.2833ZM315.228 46.3347L315.728 45.8989C316.269 46.0923 316.847 46.274 317.389 46.4674L316.889 46.9032C316.341 46.689 315.763 46.5073 315.228 46.3347ZM318.507 47.4625L319.007 47.0268C319.548 47.2201 320.09 47.4135 320.638 47.6277L320.139 48.0635C319.591 47.8493 319.049 47.6559 318.507 47.4625ZM321.691 48.6669L322.197 48.2519C322.739 48.4453 323.251 48.6711 323.756 48.8762L323.214 49.3028C322.745 49.0861 322.197 48.8719 321.691 48.6669ZM324.78 49.9478L325.322 49.5212C325.834 49.747 326.34 49.952 326.852 50.1778L326.309 50.6045C325.797 50.3786 325.321 50.1412 324.78 49.9478ZM327.839 51.2611L328.381 50.8345C328.893 51.0603 329.369 51.2978 329.881 51.5236L329.339 51.9502C328.827 51.7244 328.315 51.4986 327.839 51.2611ZM330.802 52.6509L331.351 52.2451C331.827 52.4826 332.339 52.7084 332.822 52.9667L332.273 53.3725C331.754 53.1258 331.278 52.8884 330.802 52.6509ZM333.7 54.0848L334.249 53.679C334.725 53.9165 335.208 54.1747 335.683 54.4122L335.134 54.818C334.652 54.5597 334.176 54.3223 333.7 54.0848ZM336.532 55.5628L337.081 55.157C337.564 55.4153 338.04 55.6527 338.486 55.9226L337.901 56.34C337.491 56.0585 337.008 55.8003 336.532 55.5628Z" fill="#001C91"/>
<path d="M357.66 84.7677L334.514 71.4081L313.012 59.0111L386 41.707L357.66 84.7677Z" fill="url(#paint0_linear)"/>
<path d="M386 41.707L329.509 68.5201L336.3 85.8007L336.817 72.6759L386 41.707Z" fill="url(#paint1_linear)"/>
<path d="M345.417 77.7003L336.817 72.6758L336.3 85.8006L345.417 77.7003Z" fill="#001C91"/>
<g clip-path="url(#clip0)">
<path d="M157.541 183.934H98.1042C99.4896 183.934 100.607 197.558 100.607 214.341C100.607 231.135 99.4934 244.759 98.1042 244.759H157.541C156.159 244.759 155.038 231.135 155.038 214.341C155.046 197.558 156.159 183.934 157.541 183.934Z" fill="#BFBEBE"/>
<path d="M118.919 183.934H98.1082C99.4935 183.934 100.611 197.558 100.611 214.341C100.611 231.135 99.4973 244.759 98.1082 244.759H118.919C120.304 244.759 121.422 231.135 121.422 214.341C121.422 197.558 120.304 183.934 118.919 183.934Z" fill="#AEAEAE"/>
<path d="M251.509 183.583C251.509 199.287 239.674 212.011 225.099 212.011H30.5732C15.9828 212.011 4.15137 199.287 4.15137 183.583V39.5414C4.15137 23.8645 15.9828 11.1328 30.5732 11.1328H225.099C239.674 11.1328 251.509 23.8529 251.509 39.5414V183.583Z" fill="#D1D2D2"/>
<path d="M54.1739 183.583V39.5414C54.1739 23.8645 66.0053 11.1328 80.5918 11.1328H30.5576C15.9672 11.1328 4.13574 23.8529 4.13574 39.5414V183.583C4.13574 199.287 15.9672 212.011 30.5576 212.011H80.5918C66.0053 212.011 54.1739 199.283 54.1739 183.579" fill="#C6C5C5"/>
<path d="M251.509 143.347C251.509 159.024 239.674 171.752 225.099 171.752H30.5731C15.9827 171.752 4.15125 159.035 4.15125 143.347V39.4368C4.15125 23.7327 15.9827 11.0127 30.5731 11.0127H225.099C239.674 11.0127 251.509 23.7327 251.509 39.4368V143.347Z" fill="#CBD5E0"/>
<path d="M4.13977 136.009H251.513V180.118H4.13977V136.009Z" fill="#CBD5E0"/>
<path d="M231.975 30.7363H23.6699C21.9509 30.7363 20.519 31.687 20.519 32.8318V168.224C20.519 169.372 21.9509 170.319 23.6699 170.319H231.975C232.879 170.319 233.573 170.134 234.084 169.807C234.119 169.784 234.152 169.757 234.181 169.728L234.201 169.707C234.21 169.699 234.209 169.699 234.218 169.691C234.269 169.651 234.324 169.589 234.38 169.556C234.596 169.426 234.779 169.247 234.913 169.032C235.065 168.789 235.149 168.51 235.157 168.224V82.1559V32.8589C235.142 31.7142 233.694 30.7635 231.975 30.7635" fill="#444A52"/>
<path d="M173.656 243.408C173.656 246.132 172.345 248.347 170.734 248.347H84.938C83.3121 248.347 82.0005 246.132 82.0005 243.408C82.0005 240.68 83.3121 238.468 84.938 238.468H170.734C172.345 238.456 173.656 240.676 173.656 243.408Z" fill="#D1D2D2"/>
<path d="M112.407 243.408C112.407 240.68 113.719 238.468 115.329 238.468H83.801C82.1867 238.468 80.879 240.68 80.879 243.408C80.879 246.132 82.1906 248.347 83.801 248.347H115.329C113.719 248.347 112.407 246.132 112.407 243.408Z" fill="#C6C5C5"/>
<ellipse cx="38.1241" cy="50.2379" rx="3.79156" ry="3.79156" fill="#DA507A"/>
<ellipse cx="38.1241" cy="90.9976" rx="3.79156" ry="3.79156" fill="#48BB78"/>
<ellipse cx="38.1241" cy="140.288" rx="3.79156" ry="3.79156" fill="#F7C243"/>
<ellipse cx="38.1241" cy="152.611" rx="3.79156" ry="3.79156" fill="#F7C243"/>
<rect x="43.8114" y="46.4463" width="166.829" height="7.58313" rx="2" fill="#4A5568"/>
<rect x="43.8114" y="87.2061" width="166.829" height="7.58313" rx="2" fill="#4A5568"/>
<rect x="43.8114" y="136.496" width="166.829" height="7.58313" rx="2" fill="#4A5568"/>
<rect x="43.8114" y="99.5283" width="166.829" height="7.58312" rx="2" fill="#4A5568"/>
<rect x="43.8114" y="111.852" width="93.8412" height="7.58313" rx="2" fill="#4A5568"/>
<rect x="43.8114" y="124.174" width="93.8412" height="7.58312" rx="2" fill="#4A5568"/>
<rect x="43.8114" y="58.7695" width="147.871" height="7.58313" rx="2" fill="#4A5568"/>
<rect x="43.8114" y="148.819" width="147.871" height="7.58313" rx="2" fill="#4A5568"/>
<rect x="43.8114" y="71.0918" width="157.35" height="7.58312" rx="2" fill="#4A5568"/>
</g>
</g>
<defs>
<filter id="filter0_d" x="0" y="0" width="390" height="256.347" filterUnits="userSpaceOnUse" color-interpolation-filters="sRGB">
<feFlood flood-opacity="0" result="BackgroundImageFix"/>
<feColorMatrix in="SourceAlpha" type="matrix" values="0 0 0 0 0 0 0 0 0 0 0 0 0 0 0 0 0 0 127 0"/>
<feOffset dy="4"/>
<feGaussianBlur stdDeviation="2"/>
<feColorMatrix type="matrix" values="0 0 0 0 0 0 0 0 0 0 0 0 0 0 0 0 0 0 0.25 0"/>
<feBlend mode="normal" in2="BackgroundImageFix" result="effect1_dropShadow"/>
<feBlend mode="normal" in="SourceGraphic" in2="effect1_dropShadow" result="shape"/>
</filter>
<linearGradient id="paint0_linear" x1="373.728" y1="7.15096" x2="330.187" y2="79.5277" gradientUnits="userSpaceOnUse">
<stop stop-color="#001C91"/>
<stop stop-color="#001C91"/>
<stop offset="0.302083" stop-color="#4D69DD"/>
<stop offset="0.6785" stop-color="#CBD0E7"/>
<stop offset="1" stop-color="#CBD0E7"/>
</linearGradient>
<linearGradient id="paint1_linear" x1="357.759" y1="47.4967" x2="357.759" y2="81.3923" gradientUnits="userSpaceOnUse">
<stop stop-color="#001C91"/>
<stop offset="1" stop-color="#7D8BC5"/>
</linearGradient>
<clipPath id="clip0">
<rect width="248.347" height="248.347" fill="white" transform="translate(4)"/>
</clipPath>
</defs>
</svg>
