<svg width="144" height="211" viewBox="0 0 144 211" fill="none" xmlns="http://www.w3.org/2000/svg">
<path d="M90.5884 92.0192C79.0508 82.959 55.391 87.7664 49.2069 97.8129C46.3763 102.374 51.4221 112.42 55.7602 115.687C61.6982 120.155 70.3745 120.155 77.6663 118.46C84.8657 116.796 91.9421 113.376 96.3418 108.137C101.326 102.158 95.9418 96.2412 90.5884 92.0192Z" fill="#F9B77B"/>
<path d="M64.4673 93.219C64.375 95.7152 67.6363 100.276 75.1742 99.7214C80.1277 99.3516 82.989 96.0542 83.4505 93.9278C84.8043 87.9492 64.7134 87.2713 64.4673 93.219Z" fill="#F5EBDC"/>
<path d="M64.0674 82.7117C65.3596 89.1833 75.0512 91.9877 80.4662 86.6871C82.0661 85.1154 82.5891 82.0645 83.6044 81.0167C88.6502 75.9011 84.9274 71.1244 84.1582 68.6899C82.5891 63.7283 72.1591 62.8038 68.7132 65.0842C58.8986 71.5867 62.2829 73.7439 64.0674 82.7117Z" fill="#4A6190"/>
<path d="M65.7596 73.9285C65.3288 73.5279 63.6982 73.004 62.6829 73.7128C61.8214 74.2983 61.7599 75.192 61.8829 75.9008C62.006 76.6404 62.5598 77.5958 63.9443 77.5958C67.0518 77.5958 66.4672 74.5757 65.7596 73.9285Z" fill="#F5EBDC"/>
<path d="M85.3581 74.2074C85.0812 73.6218 83.3275 73.0055 82.1275 73.7143C81.143 74.2998 81.2661 77.5972 82.8352 77.5972C84.4966 77.5972 86.2195 75.9023 85.3581 74.2074Z" fill="#F5EBDC"/>
<path d="M80.743 93.1886C80.7122 85.9157 80.8045 84.4365 80.743 81.5397C80.6507 77.9957 66.7133 78.7661 66.8671 82.5874C66.9594 85.3918 67.3286 90.415 67.1748 92.5106C66.8363 96.9483 80.743 97.9961 80.743 93.1886Z" fill="#F5EBDC"/>
<path d="M66.8364 81.0488V82.8362C68.2824 86.1953 70.6207 90.2015 73.7589 89.8934C77.1741 89.5544 79.82 87.3972 81.0815 85.24L80.7123 81.7884L66.8364 81.0488Z" fill="#E2CFB5"/>
<path d="M81.3584 63.6662C79.5124 61.1392 72.9282 57.7493 68.6824 62.3103C65.175 66.0392 63.6981 72.6032 64.1596 77.0409C64.6519 81.7868 68.1594 88.1968 73.7589 88.1968C79.6662 88.1968 82.466 82.7729 83.2044 78.3661C84.0659 73.2504 84.312 67.7341 81.3584 63.6662Z" fill="#F5EBDC"/>
<path d="M83.789 74.8854C82.5276 74.5772 80.8046 74.2999 80.8046 70.6326C80.8046 66.8421 75.4512 68.5679 75.4512 65.9176C75.4512 63.2673 73.6051 57.1347 79.7278 57.4428C87.4503 57.8435 83.6967 60.3705 87.1118 63.0824C90.1885 65.517 86.958 75.625 83.789 74.8854Z" fill="#4A6190"/>
<path d="M78.5586 66.6251C78.2817 70.1383 75.9742 68.0427 74.9897 70.2924C74.3128 71.8024 74.1589 72.2647 70.7438 72.542C67.8825 72.7886 66.4057 70.354 63.8828 75.0998C62.6521 77.4111 56.1603 75.3464 59.2985 70.1999C61.4522 66.6867 56.1911 60.6157 63.1136 59.0441C69.2978 57.6265 68.744 49.8914 74.7435 54.3907C77.3279 56.3322 80.7431 55.4076 81.2661 57.8114C81.8814 60.8315 78.9278 61.9101 78.5586 66.6251Z" fill="#4A6190"/>
<path d="M104.864 98.9822C100.865 90.7232 90.9884 90.5999 86.1887 89.6754C87.9732 92.2332 83.512 101.971 75.1742 102.372C70.713 102.588 59.8215 101.016 62.4982 89.0898C53.3296 90.0144 43.6996 91.5244 40.1921 98.1501C31.1467 115.254 45.1764 164.099 47.8839 173.776C50.0068 181.326 91.3576 183.76 97.6032 175.748C102.064 170.047 114.987 119.815 104.864 98.9822Z" fill="#F78775"/>
<path d="M73.8204 83.3286C73.6665 83.3286 73.5435 83.3286 73.3896 83.2978L73.4204 82.9896C74.3434 83.082 75.3895 82.8047 75.4203 82.8047L75.5126 83.1129C75.451 83.1129 74.6511 83.3286 73.8204 83.3286Z" fill="#131A6D"/>
<path d="M48.6839 147.519C38.9923 148.999 9.91754 150.416 9.91754 150.416C9.91754 150.416 62.4367 192.297 73.9128 192.297C86.5887 192.297 135.262 161.387 135.262 161.387C135.262 161.387 104.434 152.512 94.8343 149.707C83.5736 146.41 60.283 145.732 48.6839 147.519Z" fill="#3D517D"/>
<path d="M52.6528 165.887L53.022 165.548C56.0372 162.99 56.1295 158.367 53.2374 155.656C48.1301 150.848 38.5 143.175 38.2231 138.706C37.977 134.607 40.9614 123.729 40.9614 123.729C40.9614 123.729 42.8997 99.9072 46.1302 92.8809C25.8856 110.693 16.4709 125.023 19.5168 142.774C21.0859 151.988 37.3309 162.22 45.0841 166.626C47.5147 167.982 50.5299 167.674 52.6528 165.887Z" fill="#F5EBDC"/>
<path d="M90.4653 165.64C90.4653 165.64 96.1264 159.138 98.034 155.656C112.156 130.046 100.126 100.708 97.634 92.8809C118.125 101.047 122.309 124.13 120.74 142.034C120.155 148.814 109.356 163.175 101.418 166.472C98.8339 167.551 92.5883 167.428 90.4653 165.64Z" fill="#F5EBDC"/>
<path d="M47.2071 113.375L36.5309 125.887L38.4077 137.844C38.4385 137.813 53.2066 135.902 47.2071 113.375Z" fill="#E0695C"/>
<path d="M31.0237 129.493C24.378 125.456 19.5476 124.254 19.5476 124.254C19.5476 124.254 34.9618 94.9161 46.8686 92.4199C44.315 96.7651 51.4221 119.508 42.4997 131.958C40.9306 134.146 34.5619 131.65 31.0237 129.493Z" fill="#F78775"/>
<path d="M96.6495 107.98L107.449 125.7L101.388 139.137C101.388 139.137 90.4654 127.858 96.6495 107.98Z" fill="#E0695C"/>
<path d="M111.848 132.081C118.494 128.044 122.894 125.425 122.894 125.425C122.894 125.425 114.217 95.1008 97.1418 92.2656C99.6954 96.6109 91.4191 120.648 100.372 133.098C101.911 135.286 108.31 134.239 111.848 132.081Z" fill="#F78775"/>
<path d="M66.9902 203.608C66.9902 203.608 58.8369 204.564 55.9448 204.564C51.299 204.564 45.9456 204.564 41.0536 202.437C39.8537 201.913 40.0999 200.034 41.3305 199.633C42.7458 199.201 52.8681 195.627 54.8988 195.288C60.0061 194.394 65.1441 194.733 65.1441 194.733L66.9902 203.608Z" fill="#F5EBDC"/>
<path d="M38.6538 130.016L106.403 132.112C107.695 132.143 108.679 133.314 108.464 134.577L101.326 178.553L36.3771 175.564L36.4078 132.112C36.4386 130.972 37.4539 129.986 38.6538 130.016Z" fill="#494949"/>
<path d="M48.7454 197.721C48.7454 197.721 87.3886 181.696 107.233 163.946C113.817 158.06 135.047 154.423 139.908 163.638C142.554 168.63 140.215 174.732 134.8 180.957C122.371 195.256 54.468 208.939 54.468 208.939L48.7454 197.721Z" fill="#4A6190"/>
<path d="M8.04073 150.509C2.07195 151.618 -4.17374 155.902 3.70259 168.259C8.84067 176.333 25.4548 189.677 36.7155 194.362C47.0532 198.676 76.5279 205.363 76.5279 205.363L82.0044 195.779C82.0044 195.779 49.7299 176.272 24.4703 156.333C19.4245 152.388 13.2403 149.553 8.04073 150.509Z" fill="#4A6190"/>
<path d="M32.5928 197.784C31.6698 197.969 30.8083 199.695 30.8083 199.695C30.8083 199.695 38.0385 207.184 41.0844 208.694C41.8844 209.094 43.4843 209.433 45.0534 209.711C45.3303 209.741 46.1302 209.402 46.4071 209.433C46.8994 209.495 46.7763 209.957 47.2071 210.019C48.2839 210.173 49.0838 210.234 49.1146 210.173C52.8374 207.091 53.1143 204.841 53.1143 204.841C53.1143 204.841 48.1916 196.952 45.6379 197.476C39.5769 198.74 34.5926 197.384 32.5928 197.784Z" fill="#161711"/>
<path d="M76.4049 205.888L82.6198 209.277L87.1117 203.792C87.1117 203.792 86.6195 202.867 86.9887 202.405C87.2964 202.005 88.4963 202.128 88.927 201.604C89.8808 200.464 90.9268 199.169 91.3268 198.676C92.1575 197.659 100.342 187.675 100.342 187.675C100.342 187.675 99.4185 186.503 98.7724 186.473C98.434 186.473 97.3571 187.089 96.6803 187.551C93.5728 189.739 84.4658 195.779 80.5892 194.978C75.8818 193.992 76.4049 205.888 76.4049 205.888Z" fill="#161711"/>
<path d="M132.165 6.65761C118.201 -0.696923 104.237 -1.40579 91.7905 1.85058C79.3437 5.10696 74.5925 8.11965 76.3547 22.873C78.1169 37.6264 83.0465 45.9999 90.0952 45.7341C110.215 44.9366 115.301 44.4936 125.874 45.3575L122.506 53L131.027 45.7784C141.6 46.1771 143.206 41.348 143.875 37.5599C143.853 37.5599 146.128 14.0121 132.165 6.65761Z" fill="url(#paint0_linear)"/>
<path d="M101.2 32H102.3V17.6316H101.2C100.617 17.6316 100.057 17.8645 99.6444 18.279C99.2318 18.6936 99 19.2558 99 19.8421V29.7895C99 30.3757 99.2318 30.938 99.6444 31.3526C100.057 31.7671 100.617 32 101.2 32ZM118.8 17.6316H111.1L112.334 13.9091C112.444 13.5768 112.474 13.2231 112.422 12.8769C112.369 12.5308 112.235 12.2021 112.032 11.918C111.828 11.634 111.56 11.4026 111.25 11.243C110.939 11.0834 110.596 11.0001 110.248 11H110L104.5 17.0104V32H116.6L120.903 22.4992L121 22.0526V19.8421C121 19.2558 120.768 18.6936 120.356 18.279C119.943 17.8645 119.383 17.6316 118.8 17.6316Z" fill="white"/>
<defs>
<linearGradient id="paint0_linear" x1="110" y1="0" x2="110" y2="45.8806" gradientUnits="userSpaceOnUse">
<stop stop-color="#A3BFFA"/>
<stop offset="1" stop-color="#6289DA"/>
</linearGradient>
</defs>
</svg>
