<svg width="1440" height="682" viewBox="0 0 1440 682" fill="none" xmlns="http://www.w3.org/2000/svg">
<path d="M720 31.828C485.419 31.828 142.258 10.6093 0 0V592C103.548 581.391 392.516 560.172 720 560.172C1047.48 560.172 1336.45 581.391 1440 592V0C1299 27.301 954.581 31.828 720 31.828Z" fill="#F7FAFC"/>
<g style="mix-blend-mode:overlay">
<path fill-rule="evenodd" clip-rule="evenodd" d="M1437.75 476.692C1453.64 507.697 1466.87 535.003 1476.23 563.185C1480.92 577.316 1463.22 586.08 1449.51 592.865C1439.41 597.867 1431.48 601.793 1436.3 606H677V540.878C687.882 525.731 700.535 510.676 713.272 496.502C730.05 477.83 734.158 453.228 727.268 431.821H747.358V420.823L773.825 398.241L800.292 420.823V431.821H820.879V348.614H861.656V318.89H864.207V348.614H873.813V402.463H888.968V292.745H941.919V343.18H954.92V317.109H994.886V295.885H1033.23V236.583L1059.7 214L1086.15 236.583V343.198H1115.73V398.241H1153.82V348.614H1206.77V401.307H1218.17V311.766H1258.96V282.041H1261.51V311.766H1271.12V431.821H1311.65V377.439H1364.6V476.692H1379.47V454.403L1405.94 431.821L1432.4 454.403V476.692H1437.75ZM652.346 570.835C665.973 597.489 677.315 620.964 685.339 645.192C689.362 657.34 674.182 664.875 662.43 670.708C653.768 675.008 646.968 678.383 651.096 682H0V626.015C9.331 612.993 20.1817 600.051 31.1033 587.865C45.4904 571.813 49.0126 550.663 43.1044 532.259H60.3319V522.805L83.0274 503.391L105.723 522.805V532.259H123.377V460.727H158.343V435.173H160.53V460.727H168.767V507.021H181.763V412.697H227.168V456.055H238.317V433.642H272.587V415.396H305.466V364.414L328.161 345L350.843 364.414V456.071H376.208V503.391H408.874V460.727H454.279V506.026H464.05V429.049H499.031V403.495H501.218V429.049H509.455V532.259H544.209V485.507H589.614V570.835H602.368V551.673L625.063 532.259L647.759 551.673V570.835H652.346Z" fill="white"/>
</g>
</svg>
