<svg width="300" height="141" viewBox="0 0 300 141" fill="none" xmlns="http://www.w3.org/2000/svg">
<path d="M11.52 35.39C14.37 35.39 16.62 34.25 18.39 32.21L16.53 30.02C15.21 31.46 13.68 32.36 11.64 32.36C7.74 32.36 5.28 29.15 5.28 23.9C5.28 18.71 7.92 15.53 11.73 15.53C13.53 15.53 14.91 16.34 16.05 17.51L17.94 15.29C16.59 13.82 14.43 12.5 11.67 12.5C6.09 12.5 1.71 16.82 1.71 24.02C1.71 31.25 5.97 35.39 11.52 35.39ZM28.6045 35.39C32.6845 35.39 36.3745 32.24 36.3745 26.75C36.3745 21.26 32.6845 18.08 28.6045 18.08C24.5245 18.08 20.8345 21.26 20.8345 26.75C20.8345 32.24 24.5245 35.39 28.6045 35.39ZM28.6045 32.57C26.0245 32.57 24.4045 30.26 24.4045 26.75C24.4045 23.27 26.0245 20.93 28.6045 20.93C31.2145 20.93 32.8345 23.27 32.8345 26.75C32.8345 30.26 31.2145 32.57 28.6045 32.57ZM40.4323 35H43.8823V23.3C45.3223 21.83 46.3723 21.05 47.9023 21.05C49.8523 21.05 50.6923 22.19 50.6923 25.04V35H54.1423V24.62C54.1423 20.42 52.5823 18.08 49.0723 18.08C46.8223 18.08 45.1423 19.31 43.6123 20.78H43.5223L43.2523 18.5H40.4323V35ZM59.153 35H62.603V23.3C64.043 21.83 65.093 21.05 66.623 21.05C68.573 21.05 69.413 22.19 69.413 25.04V35H72.863V24.62C72.863 20.42 71.303 18.08 67.793 18.08C65.543 18.08 63.863 19.31 62.333 20.78H62.243L61.973 18.5H59.153V35ZM84.7437 35.39C86.9037 35.39 88.7937 34.67 90.3237 33.65L89.1237 31.46C87.9237 32.24 86.6637 32.69 85.1937 32.69C82.3437 32.69 80.3637 30.8 80.0937 27.65H90.8037C90.8937 27.23 90.9837 26.57 90.9837 25.88C90.9837 21.23 88.6137 18.08 84.2337 18.08C80.3937 18.08 76.7037 21.41 76.7037 26.75C76.7037 32.21 80.2737 35.39 84.7437 35.39ZM80.0637 25.25C80.3937 22.37 82.2237 20.78 84.2937 20.78C86.6937 20.78 87.9837 22.43 87.9837 25.25H80.0637ZM101.557 35.39C103.447 35.39 105.397 34.7 106.927 33.35L105.487 31.07C104.497 31.91 103.267 32.57 101.887 32.57C99.1566 32.57 97.2366 30.26 97.2366 26.75C97.2366 23.27 99.2166 20.93 102.007 20.93C103.117 20.93 104.047 21.41 104.947 22.22L106.657 19.97C105.457 18.92 103.927 18.08 101.827 18.08C97.4766 18.08 93.6666 21.26 93.6666 26.75C93.6666 32.24 97.0866 35.39 101.557 35.39ZM115.562 35.39C116.762 35.39 117.872 35.09 118.802 34.79L118.172 32.24C117.692 32.45 116.972 32.63 116.402 32.63C114.692 32.63 114.002 31.61 114.002 29.63V21.26H118.292V18.5H114.002V13.94H111.122L110.732 18.5L108.152 18.68V21.26H110.552V29.6C110.552 33.08 111.842 35.39 115.562 35.39Z" fill="white"/>
<path d="M22.632 136.926C37.966 136.926 47.642 129.874 47.642 120.608C47.642 112.572 41.574 109.128 30.504 109.128H22.714C17.302 109.128 15.498 107.816 15.498 105.356C15.498 103.47 16.236 102.486 17.466 101.42C19.434 102.076 21.566 102.486 23.37 102.486C33.21 102.486 41.082 97.238 41.082 86.906C41.082 84.036 40.18 81.494 39.032 79.936H46.822V71.08H30.258C28.372 70.424 25.912 69.932 23.37 69.932C13.612 69.932 4.838 75.754 4.838 86.496C4.838 91.908 7.79 96.254 10.988 98.55V98.878C8.2 100.846 5.822 104.044 5.822 107.488C5.822 111.26 7.626 113.638 10.004 115.196V115.606C5.822 117.984 3.444 121.264 3.444 125.118C3.444 133.236 11.808 136.926 22.632 136.926ZM23.37 95.024C19.352 95.024 16.154 91.99 16.154 86.496C16.154 81.166 19.27 78.132 23.37 78.132C27.47 78.132 30.586 81.166 30.586 86.496C30.586 91.99 27.388 95.024 23.37 95.024ZM24.436 129.3C17.794 129.3 13.53 127.086 13.53 123.232C13.53 121.346 14.432 119.542 16.482 117.902C18.122 118.312 20.09 118.558 22.878 118.558H28.454C33.374 118.558 36.08 119.378 36.08 122.658C36.08 126.266 31.324 129.3 24.436 129.3ZM55.4057 117H67.4597V71.08H55.4057V117ZM61.4737 63.7C65.5737 63.7 68.4437 61.076 68.4437 57.058C68.4437 53.122 65.5737 50.498 61.4737 50.498C57.2917 50.498 54.4217 53.122 54.4217 57.058C54.4217 61.076 57.2917 63.7 61.4737 63.7ZM97.12 118.148C101.138 118.148 104.336 117.246 106.796 116.426L104.828 107.652C103.598 108.144 101.794 108.636 100.318 108.636C96.218 108.636 94.086 106.176 94.086 100.928V80.592H105.402V71.08H94.086V58.698H84.082L82.688 71.08L75.554 71.654V80.592H82.032V100.928C82.032 111.178 86.214 118.148 97.12 118.148ZM132.738 118.148C137.822 118.148 143.398 116.426 147.826 112.572L142.988 104.618C140.446 106.75 137.33 108.308 134.05 108.308C127.49 108.308 122.652 102.732 122.652 94.04C122.652 85.43 127.408 79.772 134.46 79.772C137.002 79.772 139.134 80.838 141.43 82.806L147.17 75.016C143.808 72.146 139.462 69.932 133.804 69.932C121.34 69.932 110.352 78.788 110.352 94.04C110.352 109.292 120.028 118.148 132.738 118.148ZM173.17 118.148C184.65 118.148 195.228 109.292 195.228 94.04C195.228 78.788 184.65 69.932 173.17 69.932C161.69 69.932 151.112 78.788 151.112 94.04C151.112 109.292 161.69 118.148 173.17 118.148ZM173.17 108.308C166.938 108.308 163.412 102.732 163.412 94.04C163.412 85.43 166.938 79.772 173.17 79.772C179.402 79.772 182.928 85.43 182.928 94.04C182.928 102.732 179.402 108.308 173.17 108.308ZM221.466 118.148C226.222 118.148 230.814 115.524 234.176 112.244H234.504L235.406 117H245.164V51.564H233.192V67.718L233.602 74.934C230.322 71.9 227.124 69.932 221.958 69.932C212.036 69.932 202.688 79.116 202.688 94.04C202.688 109.128 210.068 118.148 221.466 118.148ZM224.582 108.226C218.514 108.226 215.07 103.47 215.07 93.958C215.07 84.774 219.416 79.854 224.582 79.854C227.452 79.854 230.404 80.756 233.192 83.298V103.47C230.486 106.914 227.78 108.226 224.582 108.226ZM278.091 118.148C283.749 118.148 289.571 116.18 294.081 113.064L289.981 105.684C286.701 107.734 283.421 108.882 279.649 108.882C272.843 108.882 267.923 104.946 266.939 97.402H295.229C295.557 96.336 295.803 94.122 295.803 91.826C295.803 79.198 289.243 69.932 276.615 69.932C265.709 69.932 255.213 79.198 255.213 94.04C255.213 109.21 265.217 118.148 278.091 118.148ZM266.775 89.366C267.677 82.724 271.941 79.28 276.779 79.28C282.683 79.28 285.471 83.216 285.471 89.366H266.775Z" fill="#F7C243"/>
<circle cx="126" cy="33" r="3" fill="white"/>
</svg>
