<svg width="65" height="26" viewBox="0 0 65 26" fill="none" xmlns="http://www.w3.org/2000/svg">
<path d="M0 5C0 2.23858 2.23858 0 5 0H59.3333C62.0947 0 64.3333 2.23858 64.3333 5V21C64.3333 23.7614 62.0947 26 59.3333 26H5C2.23857 26 0 23.7614 0 21V5Z" fill="#F7C243"/>
<path fill-rule="evenodd" clip-rule="evenodd" d="M22.2222 17.2C22.2222 15.2778 22.2222 10.2222 22.2222 10.2222C22.1888 9.35555 21.8444 8.58888 21.1777 7.93332C20.511 7.27777 19.7555 6.92221 18.8888 6.88888C18.8888 6.88888 17.7555 6.88888 17.7777 6.88888V4.66666L14.4444 7.99999L17.7777 11.3333V9.1111H18.8888C19.1888 9.13332 19.4222 9.23332 19.6555 9.45555C19.8888 9.67777 19.9888 9.92221 19.9999 10.2222V17.2C19.3444 17.5778 18.8888 18.2889 18.8888 19.1111C18.8888 20.3444 19.8777 21.3333 21.111 21.3333C22.3444 21.3333 23.3333 20.3444 23.3333 19.1111C23.3333 18.3 22.8777 17.5778 22.2222 17.2V17.2ZM21.1112 20.4445C20.3778 20.4445 19.7778 19.8334 19.7778 19.1112C19.7778 18.3889 20.3889 17.7778 21.1112 17.7778C21.8334 17.7778 22.4445 18.3889 22.4445 19.1112C22.4445 19.8334 21.8334 20.4445 21.1112 20.4445V20.4445ZM14.4444 7.99992C14.4444 6.76659 13.4556 5.7777 12.2222 5.7777C10.9889 5.7777 10 6.76659 10 7.99992C10 8.81103 10.4556 9.53326 11.1111 9.91103C11.1111 11.6333 11.1111 16.0888 11.1111 17.1999C10.4556 17.5777 10 18.2888 10 19.111C10 20.3444 10.9889 21.3333 12.2222 21.3333C13.4556 21.3333 14.4444 20.3444 14.4444 19.111C14.4444 18.2999 13.9889 17.5777 13.3333 17.1999V9.91103C13.9889 9.53326 14.4444 8.82214 14.4444 7.99992V7.99992ZM13.5555 19.1112C13.5555 19.8445 12.9444 20.4445 12.2222 20.4445C11.5 20.4445 10.8889 19.8334 10.8889 19.1112C10.8889 18.3889 11.5 17.7778 12.2222 17.7778C12.9444 17.7778 13.5555 18.3889 13.5555 19.1112V19.1112ZM12.2222 9.33304C11.4889 9.33304 10.8889 8.72193 10.8889 7.99971C10.8889 7.27748 11.5 6.66637 12.2222 6.66637C12.9444 6.66637 13.5555 7.27748 13.5555 7.99971C13.5555 8.72193 12.9444 9.33304 12.2222 9.33304V9.33304Z" fill="white"/>
<path d="M31.7773 11.524C31.7773 10.208 32.9953 9.438 34.7593 9.438C36.5373 9.438 37.7553 10.208 37.7553 11.524C37.7553 12.84 36.5373 13.61 34.7593 13.61C32.9953 13.61 31.7773 12.84 31.7773 11.524ZM35.6833 17.208V15.024C37.9653 14.758 39.5753 13.442 39.5753 11.524C39.5753 9.368 37.5173 7.968 34.7593 7.968C32.0153 7.968 29.9573 9.368 29.9573 11.524C29.9573 13.442 31.5673 14.744 33.8353 15.024V17.208H28.9353V18.706H40.6113V17.208H35.6833ZM48.9542 11.482H46.3082V9.312H48.9542V11.482ZM44.4742 11.482H42.9202V12.938H52.3282V11.482H50.7882V9.312H52.4262V7.856H42.8362V9.312H44.4742V11.482ZM45.0762 16.284H43.2282V19.98H52.1602V18.51H45.0762V16.284ZM41.8142 13.96V15.43H53.4622V13.96H41.8142Z" fill="white"/>
</svg>
