<svg width="114" height="26" viewBox="0 0 114 26" fill="none" xmlns="http://www.w3.org/2000/svg">
<path d="M0 5C0 2.23858 2.23858 0 5 0H109C111.761 0 114 2.23858 114 5V21C114 23.7614 111.761 26 109 26H5C2.23858 26 0 23.7614 0 21V5Z" fill="#2E76DF"/>
<path d="M28.4054 13.7071L29.1125 13L28.4054 12.2929L25.4117 9.29918L25.6475 9.06172L29.585 12.9992L25.6458 16.9299L25.4142 16.6983L28.4054 13.7071ZM12.5946 12.2929L11.8875 13L12.5946 13.7071L15.5883 16.7008L15.3525 16.9383L11.415 13.0008L15.3542 9.07011L15.5858 9.30167L12.5946 12.2929Z" fill="#0E305E" stroke="white" stroke-width="2"/>
<line x1="22.0115" y1="7.91961" x2="19.1282" y2="18.016" stroke="white" stroke-width="2"/>
<path d="M37.526 11.748L37.764 13.302L45.156 12.91C45.086 13.68 44.946 14.534 44.722 15.486L46.542 15.71C47.144 12.882 47.13 11.076 47.13 9.522V8.388H37.918V9.858H45.31C45.31 10.362 45.31 10.908 45.268 11.496L37.526 11.748ZM42.58 17.222V14.142H40.732V17.222H36.602V18.72H48.264V17.222H42.58ZM59.9109 13.26H52.6869V9.872H59.8129V8.374H50.8389V14.73H59.9109V13.26ZM49.4809 17.152V18.664H61.1569V17.152H49.4809ZM64.9358 13.386H69.1218V8.402H63.0318V9.872H67.2318V11.93H63.0458V17.236H64.2078C66.5458 17.236 68.4358 17.152 70.5358 16.788L70.3398 15.29C68.5198 15.598 66.8958 15.696 64.9358 15.71V13.386ZM71.2358 7.296V20.232H73.0838V7.296H71.2358ZM83.7087 11.93H78.4027V10.642H83.7087V11.93ZM85.5287 7.772H83.7087V9.186H78.4027V7.772H76.5687V13.4H85.5287V7.772ZM86.9147 14.618H75.2387V16.102H77.8427V20.218H79.6907V16.102H82.4487V20.218H84.3107V16.102H86.9147V14.618ZM92.4095 12.658C94.8455 12.448 96.4275 11.538 97.1135 10.32C97.7995 11.538 99.3815 12.448 101.804 12.658L102.448 11.23C100.04 11.02 98.7795 10.18 98.4575 9.312H101.888V7.842H92.3535V9.312H95.7695C95.4475 10.18 94.1875 11.02 91.7935 11.23L92.4095 12.658ZM99.6895 17.88C99.6895 18.524 98.8075 18.804 97.0855 18.804C95.3635 18.804 94.4815 18.524 94.4815 17.88C94.4815 17.222 95.3635 16.942 97.0855 16.942C98.8075 16.942 99.6895 17.222 99.6895 17.88ZM102.938 14.632V13.162H91.2895V14.632H96.1895V15.57C93.9495 15.752 92.6195 16.55 92.6195 17.88C92.6195 19.364 94.2995 20.204 97.0855 20.204C99.8715 20.204 101.566 19.364 101.566 17.88C101.566 16.564 100.25 15.766 98.0375 15.584V14.632H102.938Z" fill="white"/>
</svg>
