<svg width="66" height="26" viewBox="0 0 66 26" fill="none" xmlns="http://www.w3.org/2000/svg">
<path d="M0 5C0 2.23858 2.23858 0 5 0H61C63.7614 0 66 2.23858 66 5V21C66 23.7614 63.7614 26 61 26H5C2.23858 26 0 23.7614 0 21V5Z" fill="#444A52"/>
<path fill-rule="evenodd" clip-rule="evenodd" d="M15.3571 18.5L10 13.2115L11.5 11.7308L15.3571 15.5385L23.5 7.5L25 8.98077L15.3571 18.5Z" fill="white"/>
<path d="M31.722 12.672C34.158 12.434 35.74 11.538 36.426 10.306C37.098 11.538 38.694 12.434 41.116 12.672L41.76 11.216C39.352 11.02 38.092 10.18 37.77 9.312H41.2V7.842H31.666V9.312H35.082C34.76 10.18 33.5 11.02 31.092 11.216L31.722 12.672ZM36.398 18.832C34.662 18.832 33.794 18.566 33.794 17.936C33.794 17.32 34.662 17.04 36.398 17.04C38.134 17.04 39.002 17.32 39.002 17.936C39.002 18.566 38.134 18.832 36.398 18.832ZM36.398 15.654C33.598 15.654 31.932 16.48 31.932 17.936C31.932 19.392 33.598 20.204 36.398 20.204C39.198 20.204 40.878 19.392 40.878 17.936C40.878 16.48 39.198 15.654 36.398 15.654ZM37.336 13.484V11.944H35.488V13.484H30.602V14.954H42.25V13.484H37.336ZM48.2549 15.304H50.5089V17.278H48.2549V15.304ZM52.3289 17.278V15.304H54.1349V13.834H46.6589V12.42H53.8409V8.136H44.8109V9.606H52.0209V10.978H44.8249V15.304H46.4349V17.278H43.4669V18.79H55.1569V17.278H52.3289Z" fill="white"/>
</svg>
