<svg width="84" height="26" viewBox="0 0 84 26" fill="none" xmlns="http://www.w3.org/2000/svg">
<path d="M0 5C0 2.23858 2.23858 0 5 0H79C81.7614 0 84 2.23858 84 5V21C84 23.7614 81.7614 26 79 26H5C2.23858 26 0 23.7614 0 21V5Z" fill="#DA507A"/>
<path d="M23.9091 10L20.8182 13H23.1364C23.1364 14.1935 22.6479 15.3381 21.7784 16.182C20.9089 17.0259 19.7296 17.5 18.5 17.5C17.7273 17.5 16.9777 17.3125 16.3364 16.975L15.2082 18.07C16.1586 18.655 17.2868 19 18.5 19C20.1395 19 21.7119 18.3679 22.8712 17.2426C24.0305 16.1174 24.6818 14.5913 24.6818 13H27L23.9091 10ZM13.8636 13C13.8636 11.8065 14.3521 10.6619 15.2216 9.81802C16.0911 8.97411 17.2704 8.5 18.5 8.5C19.2727 8.5 20.0223 8.6875 20.6636 9.025L21.7918 7.93C20.8414 7.345 19.7132 7 18.5 7C16.8605 7 15.2881 7.63214 14.1288 8.75736C12.9695 9.88258 12.3182 11.4087 12.3182 13H10L13.0909 16L16.1818 13" fill="white"/>
<path d="M42.01 7.296V12.238H40.96V7.506H39.238V15.85C37.334 14.856 36.69 12.714 36.69 10.46V10.11H38.622V8.612H32.784V10.11H34.898V10.46C34.898 12.938 34.282 15.22 32.364 16.34L33.47 17.74C34.674 17.012 35.43 15.808 35.85 14.324C36.298 15.612 37.054 16.648 38.202 17.264L39.238 15.878V19.616H40.96V13.75H42.01V20.19H43.76V7.296H42.01ZM51.4948 11.524C51.4948 10.208 52.7128 9.438 54.4768 9.438C56.2548 9.438 57.4728 10.208 57.4728 11.524C57.4728 12.84 56.2548 13.61 54.4768 13.61C52.7128 13.61 51.4948 12.84 51.4948 11.524ZM55.4008 17.208V15.024C57.6828 14.758 59.2928 13.442 59.2928 11.524C59.2928 9.368 57.2348 7.968 54.4768 7.968C51.7328 7.968 49.6748 9.368 49.6748 11.524C49.6748 13.442 51.2848 14.744 53.5528 15.024V17.208H48.6528V18.706H60.3288V17.208H55.4008ZM68.6717 11.482H66.0257V9.312H68.6717V11.482ZM64.1917 11.482H62.6377V12.938H72.0457V11.482H70.5057V9.312H72.1437V7.856H62.5537V9.312H64.1917V11.482ZM64.7937 16.284H62.9457V19.98H71.8777V18.51H64.7937V16.284ZM61.5317 13.96V15.43H73.1797V13.96H61.5317Z" fill="white"/>
</svg>
