<svg width="135" height="26" viewBox="0 0 135 26" fill="none" xmlns="http://www.w3.org/2000/svg">
<path d="M0 5C0 2.23858 2.23858 0 5 0H130C132.761 0 135 2.23858 135 5V21C135 23.7614 132.761 26 130 26H5C2.23857 26 0 23.7614 0 21V5Z" fill="#718096"/>
<path d="M20.9091 10.7528C22.6036 10.7528 26 11.5942 26 13.2697V15.0674H21.6364V13.2697C21.6364 12.191 21.0473 11.3928 20.2109 10.7888L20.9091 10.7528ZM15.0909 10.7528C16.7855 10.7528 20.1818 11.5942 20.1818 13.2697V15.0674H10V13.2697C10 11.5942 13.3964 10.7528 15.0909 10.7528ZM15.0909 9.31461C14.5123 9.31461 13.9573 9.08732 13.5481 8.68275C13.139 8.27817 12.9091 7.72946 12.9091 7.1573C12.9091 6.58515 13.139 6.03643 13.5481 5.63186C13.9573 5.22729 14.5123 5 15.0909 5C15.6696 5 16.2245 5.22729 16.6337 5.63186C17.0429 6.03643 17.2727 6.58515 17.2727 7.1573C17.2727 7.72946 17.0429 8.27817 16.6337 8.68275C16.2245 9.08732 15.6696 9.31461 15.0909 9.31461V9.31461ZM20.9091 9.31461C20.3304 9.31461 19.7755 9.08732 19.3663 8.68275C18.9571 8.27817 18.7273 7.72946 18.7273 7.1573C18.7273 6.58515 18.9571 6.03643 19.3663 5.63186C19.7755 5.22729 20.3304 5 20.9091 5C21.4877 5 22.0427 5.22729 22.4519 5.63186C22.861 6.03643 23.0909 6.58515 23.0909 7.1573C23.0909 7.72946 22.861 8.27817 22.4519 8.68275C22.0427 9.08732 21.4877 9.31461 20.9091 9.31461V9.31461ZM15.8182 16.3258V17.9438H20.1818V16.3258L22.5455 18.6629L20.1818 21V19.382H15.8182V21L13.4545 18.6629L15.8182 16.3258Z" fill="white"/>
<path d="M34.178 13.386H38.364V8.402H32.274V9.872H36.474V11.93H32.288V17.236H33.45C35.788 17.236 37.678 17.152 39.778 16.788L39.582 15.29C37.762 15.598 36.138 15.696 34.178 15.71V13.386ZM40.478 7.296V20.232H42.326V7.296H40.478ZM52.9509 11.93H47.6449V10.642H52.9509V11.93ZM54.7709 7.772H52.9509V9.186H47.6449V7.772H45.8109V13.4H54.7709V7.772ZM56.1569 14.618H44.4809V16.102H47.0849V20.218H48.9329V16.102H51.6909V20.218H53.5529V16.102H56.1569V14.618ZM60.8878 15.738C59.9498 15.738 59.3198 14.716 59.3198 12.798C59.3198 10.894 59.9498 9.872 60.8878 9.872C61.8398 9.872 62.4698 10.894 62.4698 12.798C62.4698 14.716 61.8398 15.738 60.8878 15.738ZM66.3338 7.296V11.944H64.1778C63.9258 9.62 62.6238 8.206 60.8878 8.206C58.9698 8.206 57.5558 9.97 57.5558 12.798C57.5558 15.64 58.9698 17.418 60.8878 17.418C62.6798 17.418 63.9958 15.906 64.1918 13.442H66.3338V20.232H68.1818V7.296H66.3338ZM75.4966 10.082H77.1486V15.542H75.4966V10.082ZM73.7746 16.984H78.8566V8.626H73.7746V16.984ZM82.7206 7.296V12.224H81.6426V7.506H79.9206V19.616H81.6426V13.708H82.7206V20.19H84.4706V7.296H82.7206ZM96.9995 7.31H95.1375V15.08H96.9995V7.31ZM94.3395 13.246C92.3235 12.728 91.3715 11.412 91.2875 10.11H93.8775V8.654H91.2875V7.324H89.4395V8.654H86.8355V10.11H89.4395C89.3695 11.538 88.4315 12.952 86.4015 13.526L87.2695 14.968C88.7955 14.534 89.8315 13.61 90.4055 12.42C91.0075 13.484 92.0295 14.296 93.4995 14.688L94.3395 13.246ZM92.6455 18.79C90.9655 18.79 90.0695 18.468 90.0695 17.754C90.0695 17.054 90.9655 16.718 92.6455 16.718C94.3115 16.718 95.2075 17.054 95.2075 17.754C95.2075 18.468 94.3115 18.79 92.6455 18.79ZM92.6455 15.304C89.9155 15.304 88.2355 16.214 88.2355 17.754C88.2355 19.322 89.9155 20.204 92.6455 20.204C95.3615 20.204 97.0415 19.322 97.0415 17.754C97.0415 16.214 95.3615 15.304 92.6455 15.304ZM101.52 10.446C101.52 9.662 102.122 9.214 103.004 9.214C103.886 9.214 104.516 9.662 104.516 10.446C104.516 11.23 103.886 11.678 103.004 11.678C102.122 11.678 101.52 11.23 101.52 10.446ZM106.868 13.638C105.944 13.778 104.936 13.848 103.942 13.904V12.98C105.314 12.672 106.224 11.706 106.224 10.446C106.224 8.906 104.88 7.828 103.004 7.828C101.142 7.828 99.7984 8.906 99.7984 10.446C99.7984 11.72 100.722 12.686 102.094 12.98V13.974C101.03 14.002 100.008 14.002 99.1264 14.002L99.3504 15.472C101.478 15.472 104.376 15.43 106.98 14.94L106.868 13.638ZM102.654 16.312H100.806V19.98H109.822V18.51H102.654V16.312ZM109.388 11.356V7.31H107.54V17.152H109.388V12.882H111.012V11.356H109.388ZM116.821 15.304H119.075V17.278H116.821V15.304ZM120.895 17.278V15.304H122.701V13.834H115.225V12.42H122.407V8.136H113.377V9.606H120.587V10.978H113.391V15.304H115.001V17.278H112.033V18.79H123.723V17.278H120.895Z" fill="white"/>
</svg>
