<svg width="20" height="20" viewBox="0 0 20 20" fill="none" xmlns="http://www.w3.org/2000/svg">
<path d="M10 0C4.47715 0 0 4.47715 0 10C0 15.5229 4.47715 20 10 20C15.5229 20 20 15.5229 20 10C20 4.47715 15.5229 0 10 0ZM9.92798 4.57763C11.2784 4.58407 12.5128 5.44523 13.0371 6.64673C13.2165 7.06522 13.3118 7.49512 13.3118 7.96143V9.15042H14.95V15.4224H5.05005V9.15038H6.5564C6.54275 8.31028 6.52547 7.34922 6.82007 6.6467C7.3929 5.38155 8.57753 4.5712 9.92798 4.57763ZM9.85473 6.5747C9.10672 6.59043 8.6134 7.15925 8.54123 7.9614V9.15038H11.3269V7.94922C11.2926 7.18853 10.7168 6.59565 9.92795 6.5747C9.90355 6.57413 9.87914 6.57413 9.85473 6.5747Z" fill="#A0AEC0"/>
</svg>
