<svg width="118" height="26" viewBox="0 0 118 26" fill="none" xmlns="http://www.w3.org/2000/svg">
<path d="M0 5C0 2.23858 2.23858 0 5 0H113C115.761 0 118 2.23858 118 5V21C118 23.7614 115.761 26 113 26H5C2.23858 26 0 23.7614 0 21V5Z" fill="#A0AEC0"/>
<path d="M16 6C16.7956 6 17.5587 6.295 18.1213 6.8201C18.6839 7.3452 19 8.05739 19 8.8C19 9.54261 18.6839 10.2548 18.1213 10.7799C17.5587 11.305 16.7956 11.6 16 11.6C15.2044 11.6 14.4413 11.305 13.8787 10.7799C13.3161 10.2548 13 9.54261 13 8.8C13 8.05739 13.3161 7.3452 13.8787 6.8201C14.4413 6.295 15.2044 6 16 6V6ZM16 13C19.315 13 22 14.253 22 15.8V17.2H10V15.8C10 14.253 12.685 13 16 13ZM12.25 18.6H13.75V20H12.25V18.6ZM15.25 18.6H16.75V20H15.25V18.6ZM18.25 18.6H19.75V20H18.25V18.6Z" fill="white"/>
<path d="M30.178 13.386H34.364V8.402H28.274V9.872H32.474V11.93H28.288V17.236H29.45C31.788 17.236 33.678 17.152 35.778 16.788L35.582 15.29C33.762 15.598 32.138 15.696 30.178 15.71V13.386ZM36.478 7.296V20.232H38.326V7.296H36.478ZM48.9509 11.93H43.6449V10.642H48.9509V11.93ZM50.7709 7.772H48.9509V9.186H43.6449V7.772H41.8109V13.4H50.7709V7.772ZM52.1569 14.618H40.4809V16.102H43.0849V20.218H44.9329V16.102H47.6909V20.218H49.5529V16.102H52.1569V14.618ZM56.8878 15.738C55.9498 15.738 55.3198 14.716 55.3198 12.798C55.3198 10.894 55.9498 9.872 56.8878 9.872C57.8398 9.872 58.4698 10.894 58.4698 12.798C58.4698 14.716 57.8398 15.738 56.8878 15.738ZM62.3338 7.296V11.944H60.1778C59.9258 9.62 58.6238 8.206 56.8878 8.206C54.9698 8.206 53.5558 9.97 53.5558 12.798C53.5558 15.64 54.9698 17.418 56.8878 17.418C58.6798 17.418 59.9958 15.906 60.1918 13.442H62.3338V20.232H64.1818V7.296H62.3338ZM68.3247 10.082H69.9767V15.542H68.3247V10.082ZM66.6027 16.984H71.6847V8.626H66.6027V16.984ZM75.5487 7.296V12.224H74.4707V7.506H72.7487V19.616H74.4707V13.708H75.5487V20.19H77.2987V7.296H75.5487ZM89.8276 7.31H87.9656V15.08H89.8276V7.31ZM87.1676 13.246C85.1516 12.728 84.1996 11.412 84.1156 10.11H86.7056V8.654H84.1156V7.324H82.2676V8.654H79.6636V10.11H82.2676C82.1976 11.538 81.2596 12.952 79.2296 13.526L80.0976 14.968C81.6236 14.534 82.6596 13.61 83.2336 12.42C83.8356 13.484 84.8576 14.296 86.3276 14.688L87.1676 13.246ZM85.4736 18.79C83.7936 18.79 82.8976 18.468 82.8976 17.754C82.8976 17.054 83.7936 16.718 85.4736 16.718C87.1396 16.718 88.0356 17.054 88.0356 17.754C88.0356 18.468 87.1396 18.79 85.4736 18.79ZM85.4736 15.304C82.7436 15.304 81.0636 16.214 81.0636 17.754C81.0636 19.322 82.7436 20.204 85.4736 20.204C88.1896 20.204 89.8696 19.322 89.8696 17.754C89.8696 16.214 88.1896 15.304 85.4736 15.304ZM96.2884 12.658C98.7244 12.448 100.306 11.538 100.992 10.32C101.678 11.538 103.26 12.448 105.682 12.658L106.326 11.23C103.918 11.02 102.658 10.18 102.336 9.312H105.766V7.842H96.2324V9.312H99.6484C99.3264 10.18 98.0664 11.02 95.6724 11.23L96.2884 12.658ZM103.568 17.88C103.568 18.524 102.686 18.804 100.964 18.804C99.2424 18.804 98.3604 18.524 98.3604 17.88C98.3604 17.222 99.2424 16.942 100.964 16.942C102.686 16.942 103.568 17.222 103.568 17.88ZM106.816 14.632V13.162H95.1684V14.632H100.068V15.57C97.8284 15.752 96.4984 16.55 96.4984 17.88C96.4984 19.364 98.1784 20.204 100.964 20.204C103.75 20.204 105.444 19.364 105.444 17.88C105.444 16.564 104.128 15.766 101.916 15.584V14.632H106.816Z" fill="white"/>
</svg>
