<svg width="34" height="34" viewBox="0 0 34 34" fill="none" xmlns="http://www.w3.org/2000/svg">
<path d="M30.5288 3.36574L33.5866 0.338135L30.5288 3.36574Z" fill="white"/>
<path d="M30.5287 16.2089V26.3393C30.5287 27.3029 30.1421 28.227 29.454 28.9083C28.7659 29.5897 27.8325 29.9724 26.8594 29.9724H6.72708C5.75391 29.9724 4.82062 29.5897 4.13249 28.9083C3.44437 28.227 3.05776 27.3029 3.05776 26.3393V3.36584H17.576L15.1298 5.78793L17.2947 7.92541L21.8874 3.37795L24.9452 0.350342H0V26.3514C0 28.1179 0.708729 29.8121 1.9703 31.0613C3.23187 32.3104 4.94294 33.0121 6.72708 33.0121H26.8777C28.6619 33.0121 30.3729 32.3104 31.6345 31.0613C32.896 29.8121 33.6048 28.1179 33.6048 26.3514V13.1813L30.5287 16.2089Z" fill="white"/>
<path d="M29.2627 0.338214L26.205 3.36582L12.6897 16.7418C12.4116 17.0277 12.258 17.4103 12.262 17.8072C12.2661 18.2041 12.4274 18.5836 12.7113 18.8639C12.9952 19.1442 13.3789 19.3028 13.7798 19.3057C14.1806 19.3086 14.5666 19.1554 14.8546 18.8793L30.5287 3.35976L33.5864 0.332153L29.2627 0.338214Z" fill="white"/>
<path d="M26.205 3.36584L12.6897 16.7479L26.205 3.36584Z" fill="white"/>
<path d="M26.2051 3.36574L29.2628 0.338135L26.2051 3.36574Z" fill="white"/>
<path d="M29.8928 10.4201C29.7507 10.2791 29.582 10.1673 29.3963 10.0909C29.2105 10.0146 29.0114 9.97534 28.8103 9.97534C28.6092 9.97534 28.4101 10.0146 28.2244 10.0909C28.0386 10.1673 27.8699 10.2791 27.7279 10.4201L19.8511 18.2192L22.016 20.3748L29.8928 12.5757C30.0377 12.4353 30.1529 12.2676 30.2316 12.0826C30.3102 11.8975 30.3507 11.6987 30.3507 11.4979C30.3507 11.2971 30.3102 11.0983 30.2316 10.9132C30.1529 10.7282 30.0377 10.5605 29.8928 10.4201Z" fill="white"/>
<path d="M9.44852 19.9571C9.23423 20.1686 9.08813 20.4383 9.02875 20.7321C8.96937 21.0259 8.99936 21.3305 9.11494 21.6074C9.23052 21.8843 9.42648 22.121 9.67801 22.2875C9.92953 22.4541 10.2253 22.543 10.5279 22.543C10.8305 22.543 11.1263 22.4541 11.3778 22.2875C11.6293 22.121 11.8253 21.8843 11.9409 21.6074C12.0564 21.3305 12.0864 21.0259 12.0271 20.7321C11.9677 20.4383 11.8216 20.1686 11.6073 19.9571C11.3207 19.6742 10.9326 19.5154 10.5279 19.5154C10.1233 19.5154 9.73511 19.6742 9.44852 19.9571Z" fill="white"/>
<path d="M30.5287 8.31296C30.5377 8.66147 30.6678 8.99624 30.8972 9.26071C31.1266 9.52519 31.4412 9.70316 31.7878 9.76456C32.1344 9.82596 32.4918 9.76704 32.7996 9.59773C33.1074 9.42843 33.3467 9.15912 33.4772 8.83531C33.6076 8.5115 33.6212 8.15303 33.5156 7.82046C33.41 7.48788 33.1917 7.20157 32.8976 7.00991C32.6035 6.81825 32.2516 6.73298 31.9013 6.7685C31.5511 6.80402 31.2239 6.95815 30.9751 7.20486C30.697 7.48256 30.5372 7.85538 30.5287 8.24636V8.31296Z" fill="white"/>
</svg>
