<svg xmlns="http://www.w3.org/2000/svg" xmlns:xlink="http://www.w3.org/1999/xlink" viewBox="0 0 1128 312"><defs><svg id="adjustments" x="0" y="0" viewBox="0 0 24 24"><path fill="none" stroke-linejoin="round" stroke-linecap="round" stroke-width="2" stroke="currentColor" d="M12 6V4m0 2a2 2 0 100 4v0m0-4a2 2 0 110 4v0m-6 8a2 2 0 100-4v0m0 4a2 2 0 110-4v0m0 4v2m0-6V4m6 6v10m6-2a2 2 0 100-4v0m0 4a2 2 0 110-4v0m0 4v2m0-6V4"/></svg><svg id="annotation" x="48" y="0" viewBox="0 0 24 24"><path fill="none" stroke-linejoin="round" stroke-linecap="round" stroke-width="2" stroke="currentColor" d="M7 8h10M7 12h4m1 8l-4-4H5a2 2 0 01-2-2v0-8a2 2 0 012-2v0h14a2 2 0 012 2v8a2 2 0 01-2 2v0h-3l-4 4z"/></svg><svg id="archive" x="96" y="0" viewBox="0 0 24 24"><path fill="none" stroke-linejoin="round" stroke-linecap="round" stroke-width="2" stroke="currentColor" d="M5 8h14M5 8a2 2 0 110-4v0h14a2 2 0 110 4v0M5 8v10a2 2 0 002 2v0h10a2 2 0 002-2v0V8m-9 4h4"/></svg><svg id="arrow-circle-down" x="144" y="0" viewBox="0 0 24 24"><path fill="none" stroke-linejoin="round" stroke-linecap="round" stroke-width="2" stroke="currentColor" d="M15 13l-3 3m0 0l-3-3m3 3V8m0 13c-4.971 0-9-4.029-9-9s4.029-9 9-9v0c4.971 0 9 4.029 9 9s-4.029 9-9 9v0z"/></svg><svg id="arrow-circle-left" x="192" y="0" viewBox="0 0 24 24"><path fill="none" stroke-linejoin="round" stroke-linecap="round" stroke-width="2" stroke="currentColor" d="M11 15l-3-3m0 0l3-3m-3 3h8M3 12c0-4.971 4.029-9 9-9s9 4.029 9 9v0c0 4.971-4.029 9-9 9s-9-4.029-9-9v0z"/></svg><svg id="arrow-circle-right" x="240" y="0" viewBox="0 0 24 24"><path fill="none" stroke-linejoin="round" stroke-linecap="round" stroke-width="2" stroke="currentColor" d="M13 9l3 3m0 0l-3 3m3-3H8m13 0c0 4.971-4.029 9-9 9s-9-4.029-9-9v0c0-4.971 4.029-9 9-9s9 4.029 9 9v0z"/></svg><svg id="arrow-circle-up" x="288" y="0" viewBox="0 0 24 24"><path fill="none" stroke-linejoin="round" stroke-linecap="round" stroke-width="2" stroke="currentColor" d="M9 11l3-3m0 0l3 3m-3-3v8m0-13c4.971 0 9 4.029 9 9s-4.029 9-9 9v0c-4.971 0-9-4.029-9-9s4.029-9 9-9v0z"/></svg><svg id="arrow-down" x="336" y="0" viewBox="0 0 24 24"><path fill="none" stroke-linejoin="round" stroke-linecap="round" stroke-width="2" stroke="currentColor" d="M19 14l-7 7m0 0l-7-7m7 7V3"/></svg><svg id="arrow-left" x="384" y="0" viewBox="0 0 24 24"><path fill="none" stroke-linejoin="round" stroke-linecap="round" stroke-width="2" stroke="currentColor" d="M10 19l-7-7m0 0l7-7m-7 7h18"/></svg><svg id="arrow-narrow-down" x="432" y="0" viewBox="0 0 24 24"><path fill="none" stroke-linejoin="round" stroke-linecap="round" stroke-width="2" stroke="currentColor" d="M16 17l-4 4m0 0l-4-4m4 4V3"/></svg><svg id="arrow-narrow-left" x="480" y="0" viewBox="0 0 24 24"><path fill="none" stroke-linejoin="round" stroke-linecap="round" stroke-width="2" stroke="currentColor" d="M7 16l-4-4m0 0l4-4m-4 4h18"/></svg><svg id="arrow-narrow-right" x="528" y="0" viewBox="0 0 24 24"><path fill="none" stroke-linejoin="round" stroke-linecap="round" stroke-width="2" stroke="currentColor" d="M17 8l4 4m0 0l-4 4m4-4H3"/></svg><svg id="arrow-narrow-up" x="576" y="0" viewBox="0 0 24 24"><path fill="none" stroke-linejoin="round" stroke-linecap="round" stroke-width="2" stroke="currentColor" d="M8 7l4-4m0 0l4 4m-4-4v18"/></svg><svg id="arrow-right" x="624" y="0" viewBox="0 0 24 24"><path fill="none" stroke-linejoin="round" stroke-linecap="round" stroke-width="2" stroke="currentColor" d="M14 5l7 7m0 0l-7 7m7-7H3"/></svg><svg id="arrow-up" x="672" y="0" viewBox="0 0 24 24"><path fill="none" stroke-linejoin="round" stroke-linecap="round" stroke-width="2" stroke="currentColor" d="M5 10l7-7m0 0l7 7m-7-7v18"/></svg><svg id="at-symbol" x="720" y="0" viewBox="0 0 24 24"><path fill="none" stroke-linejoin="round" stroke-linecap="round" stroke-width="2" stroke="currentColor" d="M16 12a4 4 0 00-8 0v0a4 4 0 008 0v0zm0 0v1.5a2.5 2.5 0 105 0v0V12c0-4.971-4.029-9-9-9s-9 4.029-9 9a9 9 0 009 9v0m4.5-1.206a8.856 8.856 0 01-4.491 1.207H12h0"/></svg><svg id="badge-check" x="768" y="0" viewBox="0 0 24 24"><path fill="none" stroke-linejoin="round" stroke-linecap="round" stroke-width="2" stroke="currentColor" d="M9 12l2 2 4-4M7.835 4.697a3.414 3.414 0 001.951-.81l-.005.004c.593-.508 1.37-.818 2.219-.818s1.626.309 2.224.821l-.005-.004c.526.45 1.197.744 1.934.805l.012.001a3.423 3.423 0 013.137 3.126l.001.012c.061.749.356 1.42.81 1.951l-.004-.005c.508.593.818 1.37.818 2.219s-.309 1.626-.821 2.224l.004-.005a3.405 3.405 0 00-.805 1.934l-.001.012a3.423 3.423 0 01-3.126 3.137l-.012.001a3.414 3.414 0 00-1.951.81l.005-.004c-.593.508-1.37.818-2.219.818s-1.626-.309-2.224-.821l.005.004a3.405 3.405 0 00-1.934-.805l-.012-.001a3.423 3.423 0 01-3.137-3.126l-.001-.012a3.42 3.42 0 00-.81-1.951l.004.005c-.508-.593-.818-1.37-.818-2.219s.309-1.626.821-2.224l-.004.005c.45-.526.744-1.197.805-1.934l.001-.012a3.423 3.423 0 013.126-3.137l.012-.001z"/></svg><svg id="ban" x="816" y="0" viewBox="0 0 24 24"><path fill="none" stroke-linejoin="round" stroke-linecap="round" stroke-width="2" stroke="currentColor" d="M18.364 18.364A8.972 8.972 0 0021 12a9 9 0 00-9-9 8.972 8.972 0 00-6.364 2.636v0m12.728 12.728A8.972 8.972 0 0112 21a9 9 0 01-9-9 8.972 8.972 0 012.636-6.364v0m12.728 12.728L5.636 5.636"/></svg><svg id="bell" x="864" y="0" viewBox="0 0 24 24"><path fill="none" stroke-linejoin="round" stroke-linecap="round" stroke-width="2" stroke="currentColor" d="M15 17h5l-1.405-1.405A2.025 2.025 0 0118 14.158s0 0 0 0v0-3.159a6.005 6.005 0 00-3.958-5.645L14 5.341V5a2 2 0 10-4 0v.341C7.67 6.165 6 8.388 6 11v3.159c0 .538-.214 1.055-.595 1.436L4 17h5m6 0v1a3 3 0 11-6 0v0-1m6 0H9"/></svg><svg id="book-open" x="912" y="0" viewBox="0 0 24 24"><path fill="none" stroke-linejoin="round" stroke-linecap="round" stroke-width="2" stroke="currentColor" d="M12 6.253v13m0-13C10.832 5.477 9.246 5 7.5 5S4.168 5.477 3 6.253v13C4.168 18.477 5.754 18 7.5 18s3.332.477 4.5 1.253m0-13C13.168 5.477 14.754 5 16.5 5c1.747 0 3.332.477 4.5 1.253v13C19.832 18.477 18.247 18 16.5 18c-1.746 0-3.332.477-4.5 1.253"/></svg><svg id="bookmark" x="960" y="0" viewBox="0 0 24 24"><path fill="none" stroke-linejoin="round" stroke-linecap="round" stroke-width="2" stroke="currentColor" d="M5 5a2 2 0 012-2v0h10a2 2 0 012 2v16l-7-3.5L5 21V5z"/></svg><svg id="briefcase" x="1008" y="0" viewBox="0 0 24 24"><path fill="none" stroke-linejoin="round" stroke-linecap="round" stroke-width="2" stroke="currentColor" d="M21 13.255C18.346 14.359 15.262 15 12.029 15h-.031H12c-3.183 0-6.22-.62-9-1.745M16 6V4a2 2 0 00-2-2v0h-4a2 2 0 00-2 2v2m4 6h.01M5 20h14a2 2 0 002-2v0V8a2 2 0 00-2-2v0H5a2 2 0 00-2 2v10a2 2 0 002 2v0z"/></svg><svg id="calendar" x="1056" y="0" viewBox="0 0 24 24"><path fill="none" stroke-linejoin="round" stroke-linecap="round" stroke-width="2" stroke="currentColor" d="M8 7V3m8 4V3m-9 8h10M5 21h14a2 2 0 002-2v0V7a2 2 0 00-2-2v0H5a2 2 0 00-2 2v12a2 2 0 002 2v0z"/></svg><svg id="camera" x="1104" y="0" viewBox="0 0 24 24"><path fill="none" stroke-linejoin="round" stroke-linecap="round" stroke-width="2" stroke="currentColor" d="M3 9a2 2 0 012-2v0h.93s0 0 0 0c.691 0 1.3-.35 1.659-.883l.005-.007.812-1.22A2 2 0 0110.07 4s0 0 0 0h3.86s0 0 0 0c.691 0 1.3.35 1.659.883l.005.007.812 1.22A2 2 0 0018.07 7s0 0 0 0H19a2 2 0 012 2v9a2 2 0 01-2 2v0H5a2 2 0 01-2-2v0-9z"/><path fill="none" stroke-linejoin="round" stroke-linecap="round" stroke-width="2" stroke="currentColor" d="M15 13a3 3 0 11-6 0v0a3 3 0 116 0v0z"/></svg><svg id="cash" x="0" y="48" viewBox="0 0 24 24"><path fill="none" stroke-linejoin="round" stroke-linecap="round" stroke-width="2" stroke="currentColor" d="M17 9V7a2 2 0 00-2-2v0H5a2 2 0 00-2 2v6a2 2 0 002 2v0h2m2 4h10a2 2 0 002-2v0-6a2 2 0 00-2-2v0H9a2 2 0 00-2 2v6a2 2 0 002 2v0zm7-5a2 2 0 11-4 0v0a2 2 0 114 0v0z"/></svg><svg id="chart-pie" x="48" y="48" viewBox="0 0 24 24"><path fill="none" stroke-linejoin="round" stroke-linecap="round" stroke-width="2" stroke="currentColor" d="M11 3.055C6.478 3.575 2.999 7.381 2.999 12a9.001 9.001 0 0017.942 1.041l.004-.042H11V3.054z"/><path fill="none" stroke-linejoin="round" stroke-linecap="round" stroke-width="2" stroke="currentColor" d="M20.488 9H15V3.512c2.569.93 4.558 2.919 5.468 5.425l.02.063z"/></svg><svg id="chat-alt" x="96" y="48" viewBox="0 0 24 24"><path fill="none" stroke-linejoin="round" stroke-linecap="round" stroke-width="2" stroke="currentColor" d="M8 10h.01M12 10h.01M16 10h.01M9 16H5a2 2 0 01-2-2v0-8a2 2 0 012-2v0h14a2 2 0 012 2v8a2 2 0 01-2 2v0h-5l-5 5v-5z"/></svg><svg id="chat" x="144" y="48" viewBox="0 0 24 24"><path fill="none" stroke-linejoin="round" stroke-linecap="round" stroke-width="2" stroke="currentColor" d="M8 12h.01M12 12h.01M16 12h.01M21 12c0 4.418-4.03 8-9 8h-.034a9.814 9.814 0 01-4.28-.975l.059.026L3 20l1.395-3.72C3.512 15.042 3 13.574 3 12c0-4.418 4.03-8 9-8s9 3.582 9 8z"/></svg><svg id="check-circle" x="192" y="48" viewBox="0 0 24 24"><path fill="none" stroke-linejoin="round" stroke-linecap="round" stroke-width="2" stroke="currentColor" d="M9 12l2 2 4-4m6 2c0 4.971-4.029 9-9 9s-9-4.029-9-9v0c0-4.971 4.029-9 9-9s9 4.029 9 9v0z"/></svg><svg id="check" x="240" y="48" viewBox="0 0 24 24"><path fill="none" stroke-linejoin="round" stroke-linecap="round" stroke-width="2" stroke="currentColor" d="M5 13l4 4L19 7"/></svg><svg id="cheveron-down" x="288" y="48" viewBox="0 0 24 24"><path fill="none" stroke-linejoin="round" stroke-linecap="round" stroke-width="2" stroke="currentColor" d="M19 9l-7 7-7-7"/></svg><svg id="cheveron-left" x="336" y="48" viewBox="0 0 24 24"><path fill="none" stroke-linejoin="round" stroke-linecap="round" stroke-width="2" stroke="currentColor" d="M15 19l-7-7 7-7"/></svg><svg id="cheveron-right" x="384" y="48" viewBox="0 0 24 24"><path fill="none" stroke-linejoin="round" stroke-linecap="round" stroke-width="2" stroke="currentColor" d="M9 5l7 7-7 7"/></svg><svg id="cheveron-up" x="432" y="48" viewBox="0 0 24 24"><path fill="none" stroke-linejoin="round" stroke-linecap="round" stroke-width="2" stroke="currentColor" d="M5 15l7-7 7 7"/></svg><svg id="clipboard-check" x="480" y="48" viewBox="0 0 24 24"><path fill="none" stroke-linejoin="round" stroke-linecap="round" stroke-width="2" stroke="currentColor" d="M9 5H7a2 2 0 00-2 2v12a2 2 0 002 2v0h10a2 2 0 002-2v0V7a2 2 0 00-2-2v0h-2M9 5a2 2 0 002 2v0h2a2 2 0 002-2v0M9 5a2 2 0 012-2v0h2a2 2 0 012 2v0m-6 9l2 2 4-4"/></svg><svg id="clipboard-copy" x="528" y="48" viewBox="0 0 24 24"><path fill="none" stroke-linejoin="round" stroke-linecap="round" stroke-width="2" stroke="currentColor" d="M8 5H6a2 2 0 00-2 2v12a2 2 0 002 2v0h10a2 2 0 002-2v0-1M8 5a2 2 0 002 2v0h2a2 2 0 002-2v0M8 5a2 2 0 012-2v0h2a2 2 0 012 2v0m0 0h2a2 2 0 012 2v3m2 4H10m0 0l3-3m-3 3l3 3"/></svg><svg id="clipboard-list" x="576" y="48" viewBox="0 0 24 24"><path fill="none" stroke-linejoin="round" stroke-linecap="round" stroke-width="2" stroke="currentColor" d="M9 5H7a2 2 0 00-2 2v12a2 2 0 002 2v0h10a2 2 0 002-2v0V7a2 2 0 00-2-2v0h-2M9 5a2 2 0 002 2v0h2a2 2 0 002-2v0M9 5a2 2 0 012-2v0h2a2 2 0 012 2v0m-3 7h3m-3 4h3m-6-4h.01M9 16h.01"/></svg><svg id="clipboard" x="624" y="48" viewBox="0 0 24 24"><path fill="none" stroke-linejoin="round" stroke-linecap="round" stroke-width="2" stroke="currentColor" d="M9 5H7a2 2 0 00-2 2v12a2 2 0 002 2v0h10a2 2 0 002-2v0V7a2 2 0 00-2-2v0h-2M9 5a2 2 0 002 2v0h2a2 2 0 002-2v0M9 5a2 2 0 012-2v0h2a2 2 0 012 2v0"/></svg><svg id="clock" x="672" y="48" viewBox="0 0 24 24"><path fill="none" stroke-linejoin="round" stroke-linecap="round" stroke-width="2" stroke="currentColor" d="M12 8v4l3 3m6-3c0 4.971-4.029 9-9 9s-9-4.029-9-9v0c0-4.971 4.029-9 9-9s9 4.029 9 9v0z"/></svg><svg id="cloud-download" x="720" y="48" viewBox="0 0 24 24"><path fill="none" stroke-linejoin="round" stroke-linecap="round" stroke-width="2" stroke="currentColor" d="M8 16h-.003a5 5 0 01-.944-9.911l.031-.005C7.535 3.747 9.564 2.006 12 2.006s4.465 1.741 4.911 4.047l.005.031c2.332.455 4.068 2.482 4.068 4.914A5.002 5.002 0 0116.001 16H16m-7 3l3 3m0 0l3-3m-3 3V10"/></svg><svg id="cloud-upload" x="768" y="48" viewBox="0 0 24 24"><path fill="none" stroke-linejoin="round" stroke-linecap="round" stroke-width="2" stroke="currentColor" d="M8 17h-.003a5 5 0 01-.944-9.911l.031-.005C7.535 4.747 9.564 3.006 12 3.006s4.465 1.741 4.911 4.047l.005.031c2.332.455 4.068 2.482 4.068 4.914A5.002 5.002 0 0116.001 17H16m-7-5l3-3m0 0l3 3m-3-3v12"/></svg><svg id="code" x="816" y="48" viewBox="0 0 24 24"><path fill="none" stroke-linejoin="round" stroke-linecap="round" stroke-width="2" stroke="currentColor" d="M10 20l4-16m4 4l4 4-4 4M6 16l-4-4 4-4"/></svg><svg id="cog" x="864" y="48" viewBox="0 0 24 24"><path fill="none" stroke-linejoin="round" stroke-linecap="round" stroke-width="2" stroke="currentColor" d="M10.325 4.317c.426-1.756 2.924-1.756 3.35 0a1.727 1.727 0 002.581 1.062l-.007.004c1.543-.94 3.31.826 2.37 2.37a1.725 1.725 0 001.053 2.57l.012.003c1.756.426 1.756 2.924 0 3.35a1.727 1.727 0 00-1.062 2.581l-.004-.007c.94 1.543-.826 3.31-2.37 2.37a1.725 1.725 0 00-2.57 1.053l-.003.012c-.426 1.756-2.924 1.756-3.35 0a1.727 1.727 0 00-2.581-1.062l.007-.004c-1.543.94-3.31-.826-2.37-2.37a1.725 1.725 0 00-1.053-2.57l-.012-.003c-1.756-.426-1.756-2.924 0-3.35a1.727 1.727 0 001.062-2.581l.004.007c-.94-1.543.826-3.31 2.37-2.37.996.608 2.296.07 2.572-1.065z"/><path fill="none" stroke-linejoin="round" stroke-linecap="round" stroke-width="2" stroke="currentColor" d="M15 12a3 3 0 11-6 0v0a3 3 0 116 0v0z"/></svg><svg id="collection" x="912" y="48" viewBox="0 0 24 24"><path fill="none" stroke-linejoin="round" stroke-linecap="round" stroke-width="2" stroke="currentColor" d="M19 11H5m14 0a2 2 0 012 2v6a2 2 0 01-2 2v0H5a2 2 0 01-2-2v0-6a2 2 0 012-2v0m14 0V9a2 2 0 00-2-2v0M5 11V9a2 2 0 012-2v0m0 0V5a2 2 0 012-2v0h6a2 2 0 012 2v2M7 7h10"/></svg><svg id="color-swatch" x="960" y="48" viewBox="0 0 24 24"><path fill="none" stroke-linejoin="round" stroke-linecap="round" stroke-width="2" stroke="currentColor" d="M7 21a4 4 0 01-4-4v0V5a2 2 0 012-2v0h4a2 2 0 012 2v12a4 4 0 01-4 4v0zm0 0h12a2 2 0 002-2v0-4a2 2 0 00-2-2v0h-2.343M11 7.343l1.657-1.657c.362-.362.862-.586 1.414-.586s1.052.224 1.414.586l2.829 2.829c.362.362.586.862.586 1.414s-.224 1.052-.586 1.414l-8.486 8.485M7 17h.01"/></svg><svg id="credit-card" x="1008" y="48" viewBox="0 0 24 24"><path fill="none" stroke-linejoin="round" stroke-linecap="round" stroke-width="2" stroke="currentColor" d="M3 10h18M7 15h1m4 0h1m-7 4h12a3 3 0 003-3v0-8a3 3 0 00-3-3v0H6a3 3 0 00-3 3v8a3 3 0 003 3v0z"/></svg><svg id="currency-dollar" x="1056" y="48" viewBox="0 0 24 24"><path fill="none" stroke-linejoin="round" stroke-linecap="round" stroke-width="2" stroke="currentColor" d="M12 8c-1.657 0-3 .895-3 2s1.343 2 3 2 3 .895 3 2-1.343 2-3 2m0-8c1.11 0 2.08.402 2.599 1M12 8V7m0 1v8m0 0v1m0-1c-1.11 0-2.08-.402-2.599-1M21 12c0 4.971-4.029 9-9 9s-9-4.029-9-9v0c0-4.971 4.029-9 9-9s9 4.029 9 9v0z"/></svg><svg id="currency-euro" x="1104" y="48" viewBox="0 0 24 24"><path fill="none" stroke-linejoin="round" stroke-linecap="round" stroke-width="2" stroke="currentColor" d="M14.121 15.536c-1.171 1.952-3.07 1.952-4.242 0-1.172-1.953-1.172-5.119 0-7.072 1.171-1.952 3.07-1.952 4.242 0M8 10.5h4m-4 3h4m9-1.5c0 4.971-4.029 9-9 9s-9-4.029-9-9v0c0-4.971 4.029-9 9-9s9 4.029 9 9v0z"/></svg><svg id="currency-pound" x="0" y="96" viewBox="0 0 24 24"><path fill="none" stroke-linejoin="round" stroke-linecap="round" stroke-width="2" stroke="currentColor" d="M15 9a2 2 0 10-4 0v5a2 2 0 01-2 2v0h6m-6-4h4m8 0c0 4.971-4.029 9-9 9s-9-4.029-9-9v0c0-4.971 4.029-9 9-9s9 4.029 9 9v0z"/></svg><svg id="currency-rupee" x="48" y="96" viewBox="0 0 24 24"><path fill="none" stroke-linejoin="round" stroke-linecap="round" stroke-width="2" stroke="currentColor" d="M9 8h6m-5 0a3 3 0 110 6v0H9l3 3m-3-6h6m6 1c0 4.971-4.029 9-9 9s-9-4.029-9-9v0c0-4.971 4.029-9 9-9s9 4.029 9 9v0z"/></svg><svg id="currency-yen" x="96" y="96" viewBox="0 0 24 24"><path fill="none" stroke-linejoin="round" stroke-linecap="round" stroke-width="2" stroke="currentColor" d="M9 8l3 5m0 0l3-5m-3 5v4m-3-5h6m-6 3h6m6-3c0 4.971-4.029 9-9 9s-9-4.029-9-9v0c0-4.971 4.029-9 9-9s9 4.029 9 9v0z"/></svg><svg id="cursor-click" x="144" y="96" viewBox="0 0 24 24"><path fill="none" stroke-linejoin="round" stroke-linecap="round" stroke-width="2" stroke="currentColor" d="M15 15l-2 5L9 9l11 4-5 2zm0 0l5 5M7.188 2.239l.777 2.897M5.136 7.965l-2.898-.777M13.95 4.05l-2.122 2.122m-5.657 5.656l-2.12 2.122"/></svg><svg id="document-add" x="192" y="96" viewBox="0 0 24 24"><path fill="none" stroke-linejoin="round" stroke-linecap="round" stroke-width="2" stroke="currentColor" d="M9 13h6m-3-3v6m5 5H7a2 2 0 01-2-2v0V5a2 2 0 012-2v0h5.586c.276 0 .526.112.707.293l5.414 5.414a.997.997 0 01.293.707V19a2 2 0 01-2 2v0z"/></svg><svg id="document-download" x="240" y="96" viewBox="0 0 24 24"><path fill="none" stroke-linejoin="round" stroke-linecap="round" stroke-width="2" stroke="currentColor" d="M12 10v6m0 0l-3-3m3 3l3-3m2 8H7a2 2 0 01-2-2v0V5a2 2 0 012-2v0h5.586c.276 0 .526.112.707.293l5.414 5.414a.997.997 0 01.293.707V19a2 2 0 01-2 2v0z"/></svg><svg id="document-duplicate" x="288" y="96" viewBox="0 0 24 24"><path fill="none" stroke-linejoin="round" stroke-linecap="round" stroke-width="2" stroke="currentColor" d="M8 7v8a2 2 0 002 2v0h6M8 7V5a2 2 0 012-2v0h4.586c.276 0 .526.112.707.293l4.414 4.414a.997.997 0 01.293.707V15a2 2 0 01-2 2v0h-2M8 7H6a2 2 0 00-2 2v10a2 2 0 002 2v0h8a2 2 0 002-2v0-2"/></svg><svg id="document-remove" x="336" y="96" viewBox="0 0 24 24"><path fill="none" stroke-linejoin="round" stroke-linecap="round" stroke-width="2" stroke="currentColor" d="M9 13h6m2 8H7a2 2 0 01-2-2v0V5a2 2 0 012-2v0h5.586c.276 0 .526.112.707.293l5.414 5.414a.997.997 0 01.293.707V19a2 2 0 01-2 2v0z"/></svg><svg id="document-report" x="384" y="96" viewBox="0 0 24 24"><path fill="none" stroke-linejoin="round" stroke-linecap="round" stroke-width="2" stroke="currentColor" d="M9 17v-2m3 2v-4m3 4v-6m2 10H7a2 2 0 01-2-2v0V5a2 2 0 012-2v0h5.586c.276 0 .526.112.707.293l5.414 5.414a.997.997 0 01.293.707V19a2 2 0 01-2 2v0z"/></svg><svg id="document" x="432" y="96" viewBox="0 0 24 24"><path fill="none" stroke-linejoin="round" stroke-linecap="round" stroke-width="2" stroke="currentColor" d="M7 21h10a2 2 0 002-2v0-9.586a.997.997 0 00-.293-.707l-5.414-5.414A.997.997 0 0012.586 3H7a2 2 0 00-2 2v14a2 2 0 002 2v0z"/></svg><svg id="dots-circle-horizontal" x="480" y="96" viewBox="0 0 24 24"><path fill="none" stroke-linejoin="round" stroke-linecap="round" stroke-width="2" stroke="currentColor" d="M8 12h.01M12 12h.01M16 12h.01M21 12c0 4.971-4.029 9-9 9s-9-4.029-9-9v0c0-4.971 4.029-9 9-9s9 4.029 9 9v0z"/></svg><svg id="dots-horizontal" x="528" y="96" viewBox="0 0 24 24"><path fill="none" stroke-linejoin="round" stroke-linecap="round" stroke-width="2" stroke="currentColor" d="M5 12h.01M12 12h.01M19 12h.01M6 12a1 1 0 01-2 0v0a1 1 0 012 0v0zm7 0a1 1 0 01-2 0v0a1 1 0 012 0v0zm7 0a1 1 0 01-2 0v0a1 1 0 012 0v0z"/></svg><svg id="dots-vertical" x="576" y="96" viewBox="0 0 24 24"><path fill="none" stroke-linejoin="round" stroke-linecap="round" stroke-width="2" stroke="currentColor" d="M12 5v.01M12 12v.01M12 19v.01M12 6a1 1 0 010-2v0a1 1 0 010 2v0zm0 7a1 1 0 010-2v0a1 1 0 010 2v0zm0 7a1 1 0 010-2v0a1 1 0 010 2v0z"/></svg><svg id="download" x="624" y="96" viewBox="0 0 24 24"><path fill="none" stroke-linejoin="round" stroke-linecap="round" stroke-width="2" stroke="currentColor" d="M4 16v1a3 3 0 003 3v0h10a3 3 0 003-3v0-1m-4-4l-4 4m0 0l-4-4m4 4V4"/></svg><svg id="duplicate" x="672" y="96" viewBox="0 0 24 24"><path fill="none" stroke-linejoin="round" stroke-linecap="round" stroke-width="2" stroke="currentColor" d="M8 16H6a2 2 0 01-2-2v0-8a2 2 0 012-2v0h8a2 2 0 012 2v2m-6 12h8a2 2 0 002-2v0-8a2 2 0 00-2-2v0h-8a2 2 0 00-2 2v8a2 2 0 002 2v0z"/></svg><svg id="emoji-happy" x="720" y="96" viewBox="0 0 24 24"><path fill="none" stroke-linejoin="round" stroke-linecap="round" stroke-width="2" stroke="currentColor" d="M14.828 14.828c-.724.724-1.724 1.171-2.828 1.171s-2.104-.448-2.828-1.171h0M9 10h.01M15 10h.01M21 12c0 4.971-4.029 9-9 9s-9-4.029-9-9v0c0-4.971 4.029-9 9-9s9 4.029 9 9v0z"/></svg><svg id="emoji-sad" x="768" y="96" viewBox="0 0 24 24"><path fill="none" stroke-linejoin="round" stroke-linecap="round" stroke-width="2" stroke="currentColor" d="M9.172 16.172c.724-.724 1.724-1.171 2.828-1.171s2.104.448 2.828 1.171h0M9 10h.01M15 10h.01M21 12c0 4.971-4.029 9-9 9s-9-4.029-9-9v0c0-4.971 4.029-9 9-9s9 4.029 9 9v0z"/></svg><svg id="exclamation-circle" x="816" y="96" viewBox="0 0 24 24"><path fill="none" stroke-linejoin="round" stroke-linecap="round" stroke-width="2" stroke="currentColor" d="M12 8v4m0 4h.01M21 12c0 4.971-4.029 9-9 9s-9-4.029-9-9v0c0-4.971 4.029-9 9-9s9 4.029 9 9v0z"/></svg><svg id="exclamation" x="864" y="96" viewBox="0 0 24 24"><path fill="none" stroke-linejoin="round" stroke-linecap="round" stroke-width="2" stroke="currentColor" d="M12 9v2m0 4h.01m-6.938 4h13.856c1.54 0 2.502-1.667 1.732-3L13.732 4c-.77-1.333-2.694-1.333-3.464 0L3.34 16c-.77 1.333.192 3 1.732 3z"/></svg><svg id="external-link" x="912" y="96" viewBox="0 0 24 24"><path fill="none" stroke-linejoin="round" stroke-linecap="round" stroke-width="2" stroke="currentColor" d="M10 6H6a2 2 0 00-2 2v10a2 2 0 002 2v0h10a2 2 0 002-2v0-4M14 4h6m0 0v6m0-6L10 14"/></svg><svg id="eye" x="960" y="96" viewBox="0 0 24 24"><path fill="none" stroke-linejoin="round" stroke-linecap="round" stroke-width="2" stroke="currentColor" d="M15 12a3 3 0 11-6 0v0a3 3 0 116 0v0z"/><path fill="none" stroke-linejoin="round" stroke-linecap="round" stroke-width="2" stroke="currentColor" d="M2.458 12C3.732 7.943 7.523 5 12 5c4.478 0 8.268 2.943 9.542 7-1.274 4.057-5.064 7-9.542 7s-8.268-2.943-9.542-7z"/></svg><svg id="filter" x="1008" y="96" viewBox="0 0 24 24"><path fill="none" stroke-linejoin="round" stroke-linecap="round" stroke-width="2" stroke="currentColor" d="M3 4a1 1 0 011-1v0h16a1 1 0 011 1v2.586a.997.997 0 01-.293.707l-6.414 6.414a.997.997 0 00-.293.707V17l-4 4v-6.586a.997.997 0 00-.293-.707L3.293 7.293A.997.997 0 013 6.586V4z"/></svg><svg id="flag" x="1056" y="96" viewBox="0 0 24 24"><path fill="none" stroke-linejoin="round" stroke-linecap="round" stroke-width="2" stroke="currentColor" d="M3 21v-4m0 0V5a2 2 0 012-2v0h6.5l1 1H21l-3 6 3 6h-8.5l-1-1H5a2 2 0 00-2 2v0zm9-13.5V9"/></svg><svg id="folder" x="1104" y="96" viewBox="0 0 24 24"><path fill="none" stroke-linejoin="round" stroke-linecap="round" stroke-width="2" stroke="currentColor" d="M3 7v10a2 2 0 002 2v0h14a2 2 0 002-2v0-8a2 2 0 00-2-2v0h-6l-2-2H5a2 2 0 00-2 2v0z"/></svg><svg id="globe-alt" x="0" y="144" viewBox="0 0 24 24"><path fill="none" stroke-linejoin="round" stroke-linecap="round" stroke-width="2" stroke="currentColor" d="M21 12a9 9 0 01-9 9v0m9-9a9 9 0 00-9-9v0m9 9H3m9 9a9 9 0 01-9-9v0m9 9c1.657 0 3-4.03 3-9s-1.343-9-3-9m0 18c-1.657 0-3-4.03-3-9s1.343-9 3-9m-9 9a9 9 0 019-9v0"/></svg><svg id="globe" x="48" y="144" viewBox="0 0 24 24"><path fill="none" stroke-linejoin="round" stroke-linecap="round" stroke-width="2" stroke="currentColor" d="M3.055 11H5a2 2 0 012 2v1a2 2 0 002 2v0a2 2 0 012 2v2.945M8 3.935V5.5A2.5 2.5 0 0010.5 8v0h.5a2 2 0 012 2v0a2 2 0 104 0v0a2 2 0 012-2v0h1.064M15 20.488V18a2 2 0 012-2v0h3.064M21 12c0 4.971-4.029 9-9 9s-9-4.029-9-9v0c0-4.971 4.029-9 9-9s9 4.029 9 9v0z"/></svg><svg id="hashtag" x="96" y="144" viewBox="0 0 24 24"><path fill="none" stroke-linejoin="round" stroke-linecap="round" stroke-width="2" stroke="currentColor" d="M7 20l4-16m2 16l4-16M6 9h14M4 15h14"/></svg><svg id="heart" x="144" y="144" viewBox="0 0 24 24"><path fill="none" stroke-linejoin="round" stroke-linecap="round" stroke-width="2" stroke="currentColor" d="M4.318 6.318C3.504 7.132 3 8.257 3 9.5s.504 2.368 1.318 3.182L12 20.364l7.682-7.682a4.5 4.5 0 00-6.364-6.364L12 7.636l-1.318-1.318C9.868 5.504 8.743 5 7.5 5s-2.368.504-3.182 1.318v0z"/></svg><svg id="home" x="192" y="144" viewBox="0 0 24 24"><path fill="none" stroke-linejoin="round" stroke-linecap="round" stroke-width="2" stroke="currentColor" d="M3 12l2-2m0 0l7-7 7 7M5 10v10a1 1 0 001 1v0h3m10-11l2 2m-2-2v10a1 1 0 01-1 1v0h-3m-6 0a1 1 0 001-1v0-4a1 1 0 011-1v0h2a1 1 0 011 1v4a1 1 0 001 1v0m-6 0h6"/></svg><svg id="inbox-in" x="240" y="144" viewBox="0 0 24 24"><path fill="none" stroke-linejoin="round" stroke-linecap="round" stroke-width="2" stroke="currentColor" d="M8 4H6a2 2 0 00-2 2v12a2 2 0 002 2v0h12a2 2 0 002-2v0V6a2 2 0 00-2-2v0h-2m-4-1v8m0 0l3-3m-3 3L9 8m-5 5h2.586c.276 0 .526.112.707.293l2.414 2.414a.997.997 0 00.707.293h3.172a.997.997 0 00.707-.293l2.414-2.414a.997.997 0 01.707-.293H20"/></svg><svg id="inbox" x="288" y="144" viewBox="0 0 24 24"><path fill="none" stroke-linejoin="round" stroke-linecap="round" stroke-width="2" stroke="currentColor" d="M20 13V6a2 2 0 00-2-2v0H6a2 2 0 00-2 2v7m16 0v5a2 2 0 01-2 2v0H6a2 2 0 01-2-2v0-5m16 0h-2.586a.997.997 0 00-.707.293l-2.414 2.414a.997.997 0 01-.707.293h-3.172a.997.997 0 01-.707-.293l-2.414-2.414A.997.997 0 006.586 13H4"/></svg><svg id="information-circle" x="336" y="144" viewBox="0 0 24 24"><path fill="none" stroke-linejoin="round" stroke-linecap="round" stroke-width="2" stroke="currentColor" d="M13 16h-1v-4h-1m1-4h.01M21 12c0 4.971-4.029 9-9 9s-9-4.029-9-9v0c0-4.971 4.029-9 9-9s9 4.029 9 9v0z"/></svg><svg id="key" x="384" y="144" viewBox="0 0 24 24"><path fill="none" stroke-linejoin="round" stroke-linecap="round" stroke-width="2" stroke="currentColor" d="M15 7a2 2 0 012 2v0m4 0v.002a6 6 0 01-7.786 5.73l.043.011L11 17H9v2H7v2H4a1 1 0 01-1-1v0-2.586c0-.276.112-.526.293-.707l5.964-5.964A6 6 0 1121 9v0z"/></svg><svg id="light-bulb" x="432" y="144" viewBox="0 0 24 24"><path fill="none" stroke-linejoin="round" stroke-linecap="round" stroke-width="2" stroke="currentColor" d="M9.663 17h4.673M12 3v1m6.364 1.636l-.707.707M21 12h-1M4 12H3m3.343-5.657l-.707-.707m2.828 9.9a5 5 0 117.072 0h0l-.548.547A3.366 3.366 0 0014 18.469s0 0 0 0V19a2 2 0 11-4 0v0-.531c0-.895-.356-1.754-.988-2.386l-.548-.547z"/></svg><svg id="lightning-bolt" x="480" y="144" viewBox="0 0 24 24"><path fill="none" stroke-linejoin="round" stroke-linecap="round" stroke-width="2" stroke="currentColor" d="M13 10V3L4 14h7v7l9-11h-7z"/></svg><svg id="link" x="528" y="144" viewBox="0 0 24 24"><path fill="none" stroke-linejoin="round" stroke-linecap="round" stroke-width="2" stroke="currentColor" d="M13.828 10.172c-.724-.724-1.724-1.171-2.828-1.171s-2.104.448-2.828 1.171l-4 4a4 4 0 105.655 5.657l.001-.001 1.102-1.101m-.758-4.899c.724.724 1.724 1.171 2.828 1.171s2.104-.448 2.828-1.171l4-4a4 4 0 00-5.657-5.655l.001-.001-1.1 1.1"/></svg><svg id="location-marker" x="576" y="144" viewBox="0 0 24 24"><path fill="none" stroke-linejoin="round" stroke-linecap="round" stroke-width="2" stroke="currentColor" d="M17.657 16.657L13.414 20.9c-.362.362-.861.586-1.413.586s-1.052-.224-1.413-.586l-4.244-4.243a8 8 0 1111.314 0v0z"/><path fill="none" stroke-linejoin="round" stroke-linecap="round" stroke-width="2" stroke="currentColor" d="M15 11a3 3 0 11-6 0v0a3 3 0 116 0v0z"/></svg><svg id="lock-closed" x="624" y="144" viewBox="0 0 24 24"><path fill="none" stroke-linejoin="round" stroke-linecap="round" stroke-width="2" stroke="currentColor" d="M12 15v2m-6 4h12a2 2 0 002-2v0-6a2 2 0 00-2-2v0H6a2 2 0 00-2 2v6a2 2 0 002 2v0zm10-10V7a4 4 0 00-8 0v4h8z"/></svg><svg id="lock-open" x="672" y="144" viewBox="0 0 24 24"><path fill="none" stroke-linejoin="round" stroke-linecap="round" stroke-width="2" stroke="currentColor" d="M8 11V7a4 4 0 018 0v0m-4 8v2m-6 4h12a2 2 0 002-2v0-6a2 2 0 00-2-2v0H6a2 2 0 00-2 2v6a2 2 0 002 2v0z"/></svg><svg id="logout" x="720" y="144" viewBox="0 0 24 24"><path fill="none" stroke-linejoin="round" stroke-linecap="round" stroke-width="2" stroke="currentColor" d="M11 16l-4-4m0 0l4-4m-4 4h14m-5 4v1a3 3 0 01-3 3v0H6a3 3 0 01-3-3v0V7a3 3 0 013-3v0h7a3 3 0 013 3v1"/></svg><svg id="mail-open" x="768" y="144" viewBox="0 0 24 24"><path fill="none" stroke-linejoin="round" stroke-linecap="round" stroke-width="2" stroke="currentColor" d="M3 19v-8.93s0 0 0 0c0-.691.35-1.3.883-1.659l.007-.005 7-4.666c.312-.211.696-.336 1.11-.336s.798.126 1.117.341l-.007-.005 7 4.666A2 2 0 0121 10.07s0 0 0 0V19M3 19a2 2 0 002 2v0h14a2 2 0 002-2v0M3 19l6.75-4.5M21 19l-6.75-4.5M3 10l6.75 4.5M21 10l-6.75 4.5m0 0l-1.14.76c-.312.211-.696.336-1.11.336s-.798-.126-1.117-.341l.007.005-1.14-.76"/></svg><svg id="mail" x="816" y="144" viewBox="0 0 24 24"><path fill="none" stroke-linejoin="round" stroke-linecap="round" stroke-width="2" stroke="currentColor" d="M3 8l7.89 5.26c.312.211.696.336 1.11.336s.798-.126 1.117-.341l-.007.005L21 8M5 19h14a2 2 0 002-2v0V7a2 2 0 00-2-2v0H5a2 2 0 00-2 2v10a2 2 0 002 2v0z"/></svg><svg id="menu-alt-1" x="864" y="144" viewBox="0 0 24 24"><path fill="none" stroke-linejoin="round" stroke-linecap="round" stroke-width="2" stroke="currentColor" d="M4 6h16M4 12h8m-8 6h16"/></svg><svg id="menu-alt-2" x="912" y="144" viewBox="0 0 24 24"><path fill="none" stroke-linejoin="round" stroke-linecap="round" stroke-width="2" stroke="currentColor" d="M4 6h16M4 12h16M4 18h7"/></svg><svg id="menu-alt-3" x="960" y="144" viewBox="0 0 24 24"><path fill="none" stroke-linejoin="round" stroke-linecap="round" stroke-width="2" stroke="currentColor" d="M4 6h16M4 12h16m-7 6h7"/></svg><svg id="menu-alt-4" x="1008" y="144" viewBox="0 0 24 24"><path fill="none" stroke-linejoin="round" stroke-linecap="round" stroke-width="2" stroke="currentColor" d="M4 8h16M4 16h16"/></svg><svg id="menu" x="1056" y="144" viewBox="0 0 24 24"><path fill="none" stroke-linejoin="round" stroke-linecap="round" stroke-width="2" stroke="currentColor" d="M4 6h16M4 12h16M4 18h16"/></svg><svg id="microphone" x="1104" y="144" viewBox="0 0 24 24"><path fill="none" stroke-linejoin="round" stroke-linecap="round" stroke-width="2" stroke="currentColor" d="M19 11a7 7 0 01-7 7v0m0 0a7 7 0 01-7-7v0m7 7v4m0 0H8m4 0h4m-4-8a3 3 0 01-3-3v0-6a3 3 0 116 0v6a3 3 0 01-3 3v0z"/></svg><svg id="minus-circle" x="0" y="192" viewBox="0 0 24 24"><path fill="none" stroke-linejoin="round" stroke-linecap="round" stroke-width="2" stroke="currentColor" d="M15 12H9m12 0c0 4.971-4.029 9-9 9s-9-4.029-9-9v0c0-4.971 4.029-9 9-9s9 4.029 9 9v0z"/></svg><svg id="moon" x="48" y="192" viewBox="0 0 24 24"><path fill="none" stroke-linejoin="round" stroke-linecap="round" stroke-width="2" stroke="currentColor" d="M20.354 15.354a8.848 8.848 0 01-3.358.65A9 9 0 018.668 3.586l-.022.06c-3.334 1.369-5.639 4.591-5.639 8.351A9.003 9.003 0 0012 21h.001s0 0 0 0a9.006 9.006 0 008.332-5.586l.022-.06z"/></svg><svg id="office-building" x="96" y="192" viewBox="0 0 24 24"><path fill="none" stroke-linejoin="round" stroke-linecap="round" stroke-width="2" stroke="currentColor" d="M19 21V5a2 2 0 00-2-2v0H7a2 2 0 00-2 2v16m14 0h2m-2 0h-5m-9 0H3m2 0h5M9 7h1m-1 4h1m4-4h1m-1 4h1m-5 10v-5a1 1 0 011-1v0h2a1 1 0 011 1v5m-4 0h4"/></svg><svg id="paper-clip" x="144" y="192" viewBox="0 0 24 24"><path fill="none" stroke-linejoin="round" stroke-linecap="round" stroke-width="2" stroke="currentColor" d="M15.172 7l-6.586 6.586a2 2 0 102.827 2.829l.001-.001 6.414-6.586a4 4 0 00-5.657-5.655l.001-.001-6.415 6.585a6.001 6.001 0 008.486 8.486v0L20.5 13"/></svg><svg id="pencil-alt" x="192" y="192" viewBox="0 0 24 24"><path fill="none" stroke-linejoin="round" stroke-linecap="round" stroke-width="2" stroke="currentColor" d="M11 5H6a2 2 0 00-2 2v11a2 2 0 002 2v0h11a2 2 0 002-2v0-5m-1.414-9.414a2 2 0 112.829 2.827l-.001.001L11.828 15H9v-2.828l8.586-8.586z"/></svg><svg id="pencil" x="240" y="192" viewBox="0 0 24 24"><path fill="none" stroke-linejoin="round" stroke-linecap="round" stroke-width="2" stroke="currentColor" d="M15.232 5.232l3.536 3.536m-2.036-5.036a2.5 2.5 0 113.536 3.536L6.5 21.036H3v-3.572L16.732 3.732z"/></svg><svg id="phone-incoming" x="288" y="192" viewBox="0 0 24 24"><path fill="none" stroke-linejoin="round" stroke-linecap="round" stroke-width="2" stroke="currentColor" d="M21 3l-6 6m0 0V4m0 5h5M5 3a2 2 0 00-2 2v1c0 8.284 6.716 15 15 15h1a2 2 0 002-2v0-3.28a1 1 0 00-.677-.946l-.007-.002-4.493-1.498a1.001 1.001 0 00-1.207.496l-.003.006-1.13 2.257c-2.458-1.129-4.387-3.059-5.488-5.448l-.028-.069 2.257-1.128a1 1 0 00.5-1.217l.002.007-1.498-4.495C9.091 3.283 8.718 3 8.28 3H5z"/></svg><svg id="phone-outgoing" x="336" y="192" viewBox="0 0 24 24"><path fill="none" stroke-linejoin="round" stroke-linecap="round" stroke-width="2" stroke="currentColor" d="M16 3h5m0 0v5m0-5l-6 6M5 3a2 2 0 00-2 2v1c0 8.284 6.716 15 15 15h1a2 2 0 002-2v0-3.28a1 1 0 00-.677-.946l-.007-.002-4.493-1.498a1.001 1.001 0 00-1.207.496l-.003.006-1.13 2.257c-2.458-1.129-4.387-3.059-5.488-5.448l-.028-.069 2.257-1.128a1 1 0 00.5-1.217l.002.007-1.498-4.495C9.091 3.283 8.718 3 8.28 3H5z"/></svg><svg id="phone" x="384" y="192" viewBox="0 0 24 24"><path fill="none" stroke-linejoin="round" stroke-linecap="round" stroke-width="2" stroke="currentColor" d="M3 5a2 2 0 012-2v0h3.28a1 1 0 01.946.677l.002.007 1.498 4.493a1.001 1.001 0 01-.496 1.207l-.006.003-2.257 1.13c1.129 2.458 3.058 4.387 5.447 5.488l.069.028 1.13-2.257a1 1 0 011.217-.5l-.007-.002 4.493 1.498c.401.136.684.51.684.949 0 0 0 0 0 0V19a2 2 0 01-2 2v0h-1C9.716 21 3 14.284 3 6V5z"/></svg><svg id="photograph" x="432" y="192" viewBox="0 0 24 24"><path fill="none" stroke-linejoin="round" stroke-linecap="round" stroke-width="2" stroke="currentColor" d="M4 16l4.586-4.586c.362-.362.862-.586 1.414-.586s1.052.224 1.414.586L16 16m-2-2l1.586-1.586c.362-.362.862-.586 1.414-.586s1.052.224 1.414.586L20 14m-6-6h.01M6 20h12a2 2 0 002-2v0V6a2 2 0 00-2-2v0H6a2 2 0 00-2 2v12a2 2 0 002 2v0z"/></svg><svg id="plus-circle" x="480" y="192" viewBox="0 0 24 24"><path fill="none" stroke-linejoin="round" stroke-linecap="round" stroke-width="2" stroke="currentColor" d="M12 9v3m0 0v3m0-3h3m-3 0H9m12 0c0 4.971-4.029 9-9 9s-9-4.029-9-9v0c0-4.971 4.029-9 9-9s9 4.029 9 9v0z"/></svg><svg id="plus" x="528" y="192" viewBox="0 0 24 24"><path fill="none" stroke-linejoin="round" stroke-linecap="round" stroke-width="2" stroke="currentColor" d="M12 4v16m8-8H4"/></svg><svg id="printer" x="576" y="192" viewBox="0 0 24 24"><path fill="none" stroke-linejoin="round" stroke-linecap="round" stroke-width="2" stroke="currentColor" d="M17 17h2a2 2 0 002-2v0-4a2 2 0 00-2-2v0H5a2 2 0 00-2 2v4a2 2 0 002 2v0h2m2 4h6a2 2 0 002-2v0-4a2 2 0 00-2-2v0H9a2 2 0 00-2 2v4a2 2 0 002 2v0zm8-12V5a2 2 0 00-2-2v0H9a2 2 0 00-2 2v4h10z"/></svg><svg id="qrcode" x="624" y="192" viewBox="0 0 24 24"><path fill="none" stroke-linejoin="round" stroke-linecap="round" stroke-width="2" stroke="currentColor" d="M12 4v1m6 11h2m-6 0h-2v4m0-11v3m0 0h.01M12 12h4.01M16 20h4M4 12h4m12 0h.01M5 8h2a1 1 0 001-1v0-2a1 1 0 00-1-1v0H5a1 1 0 00-1 1v2a1 1 0 001 1v0zm12 0h2a1 1 0 001-1v0-2a1 1 0 00-1-1v0h-2a1 1 0 00-1 1v2a1 1 0 001 1v0zM5 20h2a1 1 0 001-1v0-2a1 1 0 00-1-1v0H5a1 1 0 00-1 1v2a1 1 0 001 1v0z"/></svg><svg id="question-mark-circle" x="672" y="192" viewBox="0 0 24 24"><path fill="none" stroke-linejoin="round" stroke-linecap="round" stroke-width="2" stroke="currentColor" d="M8.228 9c.549-1.165 2.03-2 3.772-2 2.21 0 4 1.343 4 3 0 1.4-1.278 2.575-3.006 2.907-.542.104-.994.54-.994 1.093m0 3h.01M21 12c0 4.971-4.029 9-9 9s-9-4.029-9-9v0c0-4.971 4.029-9 9-9s9 4.029 9 9v0z"/></svg><svg id="receipt-refund" x="720" y="192" viewBox="0 0 24 24"><path fill="none" stroke-linejoin="round" stroke-linecap="round" stroke-width="2" stroke="currentColor" d="M16 15v-1a4 4 0 00-4-4v0H8m0 0l3 3m-3-3l3-3m9 14V5a2 2 0 00-2-2v0H6a2 2 0 00-2 2v16l4-2 4 2 4-2 4 2z"/></svg><svg id="refresh" x="768" y="192" viewBox="0 0 24 24"><path fill="none" stroke-linejoin="round" stroke-linecap="round" stroke-width="2" stroke="currentColor" d="M4 4v5h.582m15.356 2C19.424 7.032 16.066 3.998 12 3.998a8.003 8.003 0 00-7.398 4.949L4.583 9m-.001 0H9m11 11v-5h-.581m0 0c-1.221 2.956-4.081 4.998-7.417 4.998a8.004 8.004 0 01-7.935-6.958L4.063 13m15.356 2H15"/></svg><svg id="reply" x="816" y="192" viewBox="0 0 24 24"><path fill="none" stroke-linejoin="round" stroke-linecap="round" stroke-width="2" stroke="currentColor" d="M3 10h10a8 8 0 018 8v2M3 10l6 6m-6-6l6-6"/></svg><svg id="scale" x="864" y="192" viewBox="0 0 24 24"><path fill="none" stroke-linejoin="round" stroke-linecap="round" stroke-width="2" stroke="currentColor" d="M3 6l3 1m0 0l-3 9c.825.624 1.869 1 3 1s2.175-.376 3.013-1.009L9 16M6 7l3 9M6 7l6-2m6 2l3-1m-3 1l-3 9c.825.624 1.869 1 3 1s2.175-.376 3.013-1.009L21 16m-3-9l3 9m-3-9l-6-2m0-2v2m0 16V5m0 16H9m3 0h3"/></svg><svg id="search" x="912" y="192" viewBox="0 0 24 24"><path fill="none" stroke-linejoin="round" stroke-linecap="round" stroke-width="2" stroke="currentColor" d="M21 21l-6-6m2-5a7 7 0 11-14 0v0a7 7 0 1114 0v0z"/></svg><svg id="selector" x="960" y="192" viewBox="0 0 24 24"><path fill="none" stroke-linejoin="round" stroke-linecap="round" stroke-width="2" stroke="currentColor" d="M8 9l4-4 4 4m0 6l-4 4-4-4"/></svg><svg id="share" x="1008" y="192" viewBox="0 0 24 24"><path fill="none" stroke-linejoin="round" stroke-linecap="round" stroke-width="2" stroke="currentColor" d="M8.684 13.342C8.886 12.938 9 12.482 9 12s-.114-.938-.316-1.342m0 2.684a3 3 0 11-.008-2.701l.008.017m0 2.684l6.632 3.316m-6.632-6l6.632-3.316m0 0a3 3 0 105.359-2.701l.008.017a3 3 0 10-5.358 2.701l-.008-.017zm0 9.316a3.002 3.002 0 005.36 2.701l.008-.017a3.002 3.002 0 00-5.36-2.701l-.008.017z"/></svg><svg id="shield-check" x="1056" y="192" viewBox="0 0 24 24"><path fill="none" stroke-linejoin="round" stroke-linecap="round" stroke-width="2" stroke="currentColor" d="M9 12l2 2 4-4m5.618-4.016a11.912 11.912 0 01-8.629-3.049l.011.01a11.9 11.9 0 01-8.649 3.039l.031.001A11.719 11.719 0 003 8.991v.01V9c0 5.591 3.824 10.29 9 11.622 5.176-1.332 9-6.03 9-11.622 0-1.042-.133-2.052-.382-3.016z"/></svg><svg id="shield-exclamation" x="1104" y="192" viewBox="0 0 24 24"><path fill="none" stroke-linejoin="round" stroke-linecap="round" stroke-width="2" stroke="currentColor" d="M20.618 5.984a11.912 11.912 0 01-8.629-3.049l.011.01a11.9 11.9 0 01-8.649 3.039l.031.001A11.719 11.719 0 003 8.991v.01V9c0 5.591 3.824 10.29 9 11.622 5.176-1.332 9-6.03 9-11.622 0-1.042-.133-2.052-.382-3.016zM12 9v2m0 4h.01"/></svg><svg id="shopping-cart" x="0" y="240" viewBox="0 0 24 24"><path fill="none" stroke-linejoin="round" stroke-linecap="round" stroke-width="2" stroke="currentColor" d="M3 3h2l.4 2M7 13h10l4-8H5.4M7 13L5.4 5M7 13l-2.293 2.293c-.63.63-.184 1.707.707 1.707H17m0 0a2 2 0 100 4v0a2 2 0 100-4v0zm-8 2a2 2 0 11-4 0v0a2 2 0 114 0v0z"/></svg><svg id="sort-ascending" x="48" y="240" viewBox="0 0 24 24"><path fill="none" stroke-linejoin="round" stroke-linecap="round" stroke-width="2" stroke="currentColor" d="M3 4h13M3 8h9m-9 4h6m4 0l4-4m0 0l4 4m-4-4v12"/></svg><svg id="sort-descending" x="96" y="240" viewBox="0 0 24 24"><path fill="none" stroke-linejoin="round" stroke-linecap="round" stroke-width="2" stroke="currentColor" d="M3 4h13M3 8h9m-9 4h9m5-4v12m0 0l-4-4m4 4l4-4"/></svg><svg id="sparkles" x="144" y="240" viewBox="0 0 24 24"><path fill="none" stroke-linejoin="round" stroke-linecap="round" stroke-width="2" stroke="currentColor" d="M5 3v4M3 5h4M6 17v4m-2-2h4m5-16l2.286 6.857L21 12l-5.714 2.143L13 21l-2.286-6.857L5 12l5.714-2.143L13 3z"/></svg><svg id="speakerphone" x="192" y="240" viewBox="0 0 24 24"><path fill="none" stroke-linejoin="round" stroke-linecap="round" stroke-width="2" stroke="currentColor" d="M11 5.882V19.24a1.76 1.76 0 01-3.413.604l-.004-.012-2.147-6.15M18 13a3 3 0 100-6v0M5.436 13.683a4.008 4.008 0 01-2.435-3.682A4 4 0 017 6h1.832c4.1 0 7.625-1.234 9.168-3v14c-1.543-1.766-5.067-3-9.168-3H6.994a3.982 3.982 0 01-1.584-.327l.026.01z"/></svg><svg id="sun" x="240" y="240" viewBox="0 0 24 24"><path fill="none" stroke-linejoin="round" stroke-linecap="round" stroke-width="2" stroke="currentColor" d="M12 3v1m0 16v1m9-9h-1M4 12H3m15.364 6.364l-.707-.707M6.343 6.343l-.707-.707m12.728 0l-.707.707M6.343 17.657l-.707.707M16 12a4 4 0 01-8 0v0a4 4 0 018 0v0z"/></svg><svg id="switch-horizontal" x="288" y="240" viewBox="0 0 24 24"><path fill="none" stroke-linejoin="round" stroke-linecap="round" stroke-width="2" stroke="currentColor" d="M8 7h12m0 0l-4-4m4 4l-4 4m0 6H4m0 0l4 4m-4-4l4-4"/></svg><svg id="switch-vertical" x="336" y="240" viewBox="0 0 24 24"><path fill="none" stroke-linejoin="round" stroke-linecap="round" stroke-width="2" stroke="currentColor" d="M7 16V4m0 0L3 8m4-4l4 4m6 0v12m0 0l4-4m-4 4l-4-4"/></svg><svg id="tag" x="384" y="240" viewBox="0 0 24 24"><path fill="none" stroke-linejoin="round" stroke-linecap="round" stroke-width="2" stroke="currentColor" d="M7 7h.01M7 3h5a1.99 1.99 0 011.414.586l7 7c.362.362.586.862.586 1.414s-.224 1.052-.586 1.414l-7 7c-.362.362-.862.586-1.414.586s-1.052-.224-1.414-.586l-7-7A1.987 1.987 0 013 12.002V12v0-5a4 4 0 014-4v0z"/></svg><svg id="template" x="432" y="240" viewBox="0 0 24 24"><path fill="none" stroke-linejoin="round" stroke-linecap="round" stroke-width="2" stroke="currentColor" d="M4 5a1 1 0 011-1v0h14a1 1 0 011 1v2a1 1 0 01-1 1v0H5a1 1 0 01-1-1v0-2zm0 8a1 1 0 011-1v0h6a1 1 0 011 1v6a1 1 0 01-1 1v0H5a1 1 0 01-1-1v0-6zm12 0a1 1 0 011-1v0h2a1 1 0 011 1v6a1 1 0 01-1 1v0h-2a1 1 0 01-1-1v0-6z"/></svg><svg id="ticket" x="480" y="240" viewBox="0 0 24 24"><path fill="none" stroke-linejoin="round" stroke-linecap="round" stroke-width="2" stroke="currentColor" d="M15 5v2m0 4v2m0 4v2M5 5a2 2 0 00-2 2v3a2 2 0 110 4v3a2 2 0 002 2v0h14a2 2 0 002-2v0-3a2 2 0 110-4v0-3a2 2 0 00-2-2v0H5z"/></svg><svg id="translate" x="528" y="240" viewBox="0 0 24 24"><path fill="none" stroke-linejoin="round" stroke-linecap="round" stroke-width="2" stroke="currentColor" d="M3 5h12M9 3v2m1.048 9.5a18.042 18.042 0 01-3.591-5.383L6.412 9m6.088 9h7M11 21l5-10 5 10M12.751 5C11.783 10.77 8.07 15.61 3 18.129"/></svg><svg id="trash" x="576" y="240" viewBox="0 0 24 24"><path fill="none" stroke-linejoin="round" stroke-linecap="round" stroke-width="2" stroke="currentColor" d="M19 7l-.867 12.142A2 2 0 0116.138 21s0 0 0 0H7.862s0 0 0 0a2 2 0 01-1.995-1.851v-.007L5 7m5 4v6m4-6v6m1-10V4a1 1 0 00-1-1v0h-4a1 1 0 00-1 1v3M4 7h16"/></svg><svg id="trending-down" x="624" y="240" viewBox="0 0 24 24"><path fill="none" stroke-linejoin="round" stroke-linecap="round" stroke-width="2" stroke="currentColor" d="M13 17h8m0 0V9m0 8l-8-8-4 4-6-6"/></svg><svg id="trending-up" x="672" y="240" viewBox="0 0 24 24"><path fill="none" stroke-linejoin="round" stroke-linecap="round" stroke-width="2" stroke="currentColor" d="M13 7h8m0 0v8m0-8l-8 8-4-4-6 6"/></svg><svg id="upload" x="720" y="240" viewBox="0 0 24 24"><path fill="none" stroke-linejoin="round" stroke-linecap="round" stroke-width="2" stroke="currentColor" d="M4 16v1a3 3 0 003 3v0h10a3 3 0 003-3v0-1m-4-8l-4-4m0 0L8 8m4-4v12"/></svg><svg id="user-add" x="768" y="240" viewBox="0 0 24 24"><path fill="none" stroke-linejoin="round" stroke-linecap="round" stroke-width="2" stroke="currentColor" d="M18 9v3m0 0v3m0-3h3m-3 0h-3m-2-5a4 4 0 01-8 0v0a4 4 0 018 0v0zM3 20a6 6 0 1112 0v1H3v-1z"/></svg><svg id="user-circle" x="816" y="240" viewBox="0 0 24 24"><path fill="none" stroke-linejoin="round" stroke-linecap="round" stroke-width="2" stroke="currentColor" d="M5.121 17.804C7.093 16.669 9.458 16 11.979 16h.022H12c2.5 0 4.847.655 6.879 1.804M15 10a3 3 0 11-6 0v0a3 3 0 116 0v0zm6 2c0 4.971-4.029 9-9 9s-9-4.029-9-9v0c0-4.971 4.029-9 9-9s9 4.029 9 9v0z"/></svg><svg id="user-group" x="864" y="240" viewBox="0 0 24 24"><path fill="none" stroke-linejoin="round" stroke-linecap="round" stroke-width="2" stroke="currentColor" d="M17 20h5v-2a3 3 0 00-5.351-1.863l-.005.006M17 20H7m10 0v-2c0-.656-.126-1.283-.356-1.857M7 20H2v-2a3 3 0 015.351-1.863l.005.006M7 20v-2c0-.656.126-1.283.356-1.857m0 0c.758-1.858 2.551-3.144 4.644-3.144s3.886 1.286 4.632 3.11l.012.033M15 7a3 3 0 11-6 0v0a3 3 0 116 0v0zm6 3a2 2 0 11-4 0v0a2 2 0 114 0v0zM7 10a2 2 0 11-4 0v0a2 2 0 114 0v0z"/></svg><svg id="user-remove" x="912" y="240" viewBox="0 0 24 24"><path fill="none" stroke-linejoin="round" stroke-linecap="round" stroke-width="2" stroke="currentColor" d="M13 7a4 4 0 01-8 0v0a4 4 0 018 0v0zm-4 7a6 6 0 00-6 6v1h12v-1a6 6 0 00-6-6v0zm12-2h-6"/></svg><svg id="user" x="960" y="240" viewBox="0 0 24 24"><path fill="none" stroke-linejoin="round" stroke-linecap="round" stroke-width="2" stroke="currentColor" d="M16 7a4 4 0 01-8 0v0a4 4 0 018 0v0zm-4 7a7 7 0 00-7 7v0h14a7 7 0 00-7-7v0z"/></svg><svg id="users" x="1008" y="240" viewBox="0 0 24 24"><path fill="none" stroke-linejoin="round" stroke-linecap="round" stroke-width="2" stroke="currentColor" d="M12 4.354a4 4 0 11.004 5.296L12 9.646M15 21H3v-1a6 6 0 1112 0v1zm0 0h6v-1.001a6 6 0 00-9.028-5.181l.028-.015M13 7a4 4 0 01-8 0v0a4 4 0 018 0v0z"/></svg><svg id="view-boards" x="1056" y="240" viewBox="0 0 24 24"><path fill="none" stroke-linejoin="round" stroke-linecap="round" stroke-width="2" stroke="currentColor" d="M9 17V7m0 10a2 2 0 01-2 2v0H5a2 2 0 01-2-2v0V7a2 2 0 012-2v0h2a2 2 0 012 2v0m0 10a2 2 0 002 2v0h2a2 2 0 002-2v0M9 7a2 2 0 012-2v0h2a2 2 0 012 2v0m0 10V7m0 10a2 2 0 002 2v0h2a2 2 0 002-2v0V7a2 2 0 00-2-2v0h-2a2 2 0 00-2 2v0"/></svg><svg id="view-list" x="1104" y="240" viewBox="0 0 24 24"><path fill="none" stroke-linejoin="round" stroke-linecap="round" stroke-width="2" stroke="currentColor" d="M4 6h16M4 10h16M4 14h16M4 18h16"/></svg><svg id="volume-off" x="0" y="288" viewBox="0 0 24 24"><path fill="none" stroke-linejoin="round" stroke-linecap="round" stroke-width="2" stroke="currentColor" d="M5.586 15H4a1 1 0 01-1-1v0-4a1 1 0 011-1v0h1.586l4.707-4.707C10.923 3.663 12 4.109 12 5v14c0 .891-1.077 1.337-1.707.707L5.586 15zM17 14l2-2m0 0l2-2m-2 2l-2-2m2 2l2 2"/></svg><svg id="volume-up" x="48" y="288" viewBox="0 0 24 24"><path fill="none" stroke-linejoin="round" stroke-linecap="round" stroke-width="2" stroke="currentColor" d="M15.536 8.464c.905.905 1.465 2.155 1.465 3.536s-.56 2.631-1.465 3.536h0m2.828-9.9C19.993 7.265 21 9.515 21 12s-1.007 4.735-2.636 6.364v0M5.586 15H4a1 1 0 01-1-1v0-4a1 1 0 011-1v0h1.586l4.707-4.707C10.923 3.663 12 4.109 12 5v14c0 .891-1.077 1.337-1.707.707L5.586 15z"/></svg><svg id="x-circle" x="96" y="288" viewBox="0 0 24 24"><path fill="none" stroke-linejoin="round" stroke-linecap="round" stroke-width="2" stroke="currentColor" d="M10 14l2-2m0 0l2-2m-2 2l-2-2m2 2l2 2m7-2c0 4.971-4.029 9-9 9s-9-4.029-9-9v0c0-4.971 4.029-9 9-9s9 4.029 9 9v0z"/></svg><svg id="x" x="144" y="288" viewBox="0 0 24 24"><path fill="none" stroke-linejoin="round" stroke-linecap="round" stroke-width="2" stroke="currentColor" d="M6 18L18 6M6 6l12 12"/></svg><svg id="zoom-in" x="192" y="288" viewBox="0 0 24 24"><path fill="none" stroke-linejoin="round" stroke-linecap="round" stroke-width="2" stroke="currentColor" d="M21 21l-6-6m2-5a7 7 0 11-14 0v0a7 7 0 1114 0v0zm-7-3v3m0 0v3m0-3h3m-3 0H7"/></svg><svg id="zoom-out" x="240" y="288" viewBox="0 0 24 24"><path fill="none" stroke-linejoin="round" stroke-linecap="round" stroke-width="2" stroke="currentColor" d="M21 21l-6-6m2-5a7 7 0 11-14 0v0a7 7 0 1114 0v0zm-4 0H7"/></svg></defs></svg>
