<svg width="15" height="15" viewBox="0 0 15 15" fill="none" xmlns="http://www.w3.org/2000/svg">
<path d="M7.5 0C3.358 0 0 3.358 0 7.5C0 11.642 3.358 15 7.5 15C11.642 15 15 11.642 15 7.5C15 3.358 11.642 0 7.5 0ZM8.75 12.4375H6.25V6.4375H8.75V12.4375ZM7.5 5.0625C7.16848 5.0625 6.85054 4.9308 6.61612 4.69638C6.3817 4.46196 6.25 4.14402 6.25 3.8125C6.25 3.48098 6.3817 3.16304 6.61612 2.92862C6.85054 2.6942 7.16848 2.5625 7.5 2.5625C7.83152 2.5625 8.14946 2.6942 8.38388 2.92862C8.6183 3.16304 8.75 3.48098 8.75 3.8125C8.75 4.14402 8.6183 4.46196 8.38388 4.69638C8.14946 4.9308 7.83152 5.0625 7.5 5.0625Z" fill="#F7C243"/>
</svg>
