<svg width="43" height="48" viewBox="0 0 43 48" fill="none" xmlns="http://www.w3.org/2000/svg">
<path d="M21.5 48.0004C33.3741 48.0004 43 38.9432 43 27.7707C43 16.5982 33.3741 7.54102 21.5 7.54102C9.62588 7.54102 0 16.5982 0 27.7707C0 38.9432 9.62588 48.0004 21.5 48.0004Z" fill="#48BB78"/>
<path fill-rule="evenodd" clip-rule="evenodd" d="M14.2679 46.8257C16.5282 47.5853 18.9625 48 21.5 48C23.9864 48 26.3739 47.6017 28.5955 46.8711L28.2092 40.8271H14.6412L14.2679 46.8257Z" fill="#D4D4D4"/>
<path fill-rule="evenodd" clip-rule="evenodd" d="M36.1614 23.4561C33.4727 23.2936 34.379 25.408 34.2064 27.9381C34.0336 30.4682 32.8471 32.4562 35.5364 32.6184C38.2251 32.7809 38.8687 30.7601 39.0417 28.23C39.2135 25.7004 38.8503 23.6186 36.1614 23.4561Z" fill="#A3A3A3"/>
<path fill-rule="evenodd" clip-rule="evenodd" d="M28.5029 45.5514L28.2089 40.8271H14.6412L14.4872 43.3002C16.6967 45.9319 27.2764 46.6735 28.5029 45.5512V45.5514Z" fill="#A3A3A3"/>
<path fill-rule="evenodd" clip-rule="evenodd" d="M6.68915 23.4561C9.37791 23.2936 8.47162 25.408 8.64395 27.9381C8.8168 30.4682 10.0035 32.4562 7.31422 32.6184C4.62545 32.7809 3.98187 30.7601 3.80886 28.23C3.63602 25.6999 3.99988 23.6186 6.68915 23.4561V23.4561Z" fill="#BFBFBF"/>
<path fill-rule="evenodd" clip-rule="evenodd" d="M21.4253 5.63379C13.1244 5.63379 6.39539 11.9653 6.39539 19.7756V36.7429C6.39539 38.6111 8.8667 43.631 21.4253 43.631C33.9838 43.631 36.4551 38.6116 36.4551 36.743V19.7757C36.4551 11.9653 29.7262 5.63379 21.4253 5.63379V5.63379Z" fill="#D4D4D4"/>
<path fill-rule="evenodd" clip-rule="evenodd" d="M21.4253 43.631C33.9838 43.631 36.4552 38.6116 36.4552 36.743V19.7757C36.4552 11.9653 29.7262 5.63379 21.4253 5.63379V43.631Z" fill="#B3B3B3"/>
<path d="M8.37852 16.916C8.24345 17.392 8.13801 17.8751 8.06274 18.3628" stroke="#F0F0F0" stroke-width="3.238"/>
<path d="M14.8828 9.09082C12.5881 10.2893 10.7118 12.0901 9.48151 14.2746" stroke="#F0F0F0" stroke-width="3.238"/>
<path fill-rule="evenodd" clip-rule="evenodd" d="M34.8782 21.0119C32.8397 20.8635 29.7206 20.8035 25.8829 21.4554C24.4151 21.7047 23.3626 22.6485 21.4253 22.6485C19.4875 22.6485 18.4354 21.7047 16.9677 21.4554C13.1296 20.8035 10.0108 20.8635 7.97202 21.0119C6.23752 21.138 3.72161 21.4622 3.80879 22.3254C3.85877 22.8208 3.91027 22.9277 4.01176 23.4151C4.11189 23.8983 4.87126 23.8372 5.13129 24.4087C5.41067 25.0225 6.18939 27.6649 6.38849 28.2617C6.78904 29.4619 7.61944 30.3628 8.90188 30.777C10.7194 31.3644 12.5707 31.3519 14.4491 31.1067C15.8205 30.9274 16.9456 30.2874 17.8521 29.3006C18.5704 28.5186 19.0817 27.6255 19.4952 26.6757C19.7004 26.2043 19.8749 25.7125 20.1509 25.2799C20.3141 25.0241 20.6282 24.727 20.9111 24.6876C21.1011 24.6613 21.2704 24.6405 21.4248 24.6305C21.5788 24.6405 21.7486 24.6613 21.9386 24.6876C22.222 24.7265 22.5354 25.0237 22.6988 25.2799C22.9751 25.7128 23.1493 26.2043 23.3543 26.6757C23.768 27.6255 24.2791 28.5186 24.9976 29.3005C25.9039 30.2874 27.0295 30.9274 28.4006 31.1067C30.279 31.3524 32.1303 31.3644 33.9478 30.7771C35.2302 30.3628 36.0605 29.4619 36.4612 28.2615C36.6606 27.6644 37.4388 25.0225 37.7187 24.4087C37.9789 23.8374 38.7376 23.8988 38.8383 23.4151C38.9392 22.9279 38.9906 22.8208 39.0407 22.3254C39.1289 21.4627 36.613 21.1383 34.8782 21.0119V21.0119ZM18.1828 25.1758C18.1002 26.8338 17.4238 28.2498 16.0794 29.3473C15.3197 29.9675 14.1772 30.2136 11.8323 30.2136C9.45912 30.2136 8.14049 29.2686 7.83402 28.6438C7.09451 27.1358 6.80907 25.5033 7.09569 23.8399C7.27408 22.8065 7.39846 22.2512 11.0452 22.2512C15.0857 22.2512 16.6925 22.9577 17.1848 23.1815C17.9685 23.5379 18.2227 24.3693 18.1828 25.1758V25.1758ZM35.0157 28.6438C34.7092 29.2686 33.3906 30.2136 31.0172 30.2136C28.6728 30.2136 27.53 29.9676 26.7703 29.3471C25.4263 28.2498 24.75 26.8338 24.6674 25.1758C24.627 24.3698 24.8815 23.5379 25.6649 23.182C26.1572 22.9582 27.7639 22.2516 31.8045 22.2516C35.4507 22.2516 35.5751 22.8065 35.7538 23.8404C36.0406 25.5033 35.7552 27.1358 35.0157 28.644V28.6438Z" fill="#333333"/>
<path opacity="0.5" fill-rule="evenodd" clip-rule="evenodd" d="M18.1826 25.1755C18.1001 26.8335 17.4237 28.2495 16.0793 29.347C15.3196 29.9672 14.1772 30.2133 11.8323 30.2133C9.45909 30.2133 8.14046 29.2683 7.83399 28.6435C7.09448 27.1355 6.80904 25.503 7.09566 23.8396C7.27405 22.8062 7.39843 22.251 11.0452 22.251C15.0857 22.251 16.6925 22.9575 17.1847 23.1812C17.9685 23.5376 18.2226 24.369 18.1828 25.1755H18.1826ZM35.0156 28.6435C34.7092 29.2683 33.3905 30.2133 31.0172 30.2133C28.6727 30.2133 27.53 29.9673 26.7703 29.3469C25.4262 28.2495 24.75 26.8335 24.6674 25.1755C24.627 24.3695 24.8814 23.5376 25.6649 23.1817C26.1572 22.9579 27.7639 22.2513 31.8045 22.2513C35.4507 22.2513 35.5751 22.8062 35.7538 23.8401C36.0406 25.503 35.7551 27.1355 35.0156 28.6437V28.6435Z" fill="white"/>
<path fill-rule="evenodd" clip-rule="evenodd" d="M22.9847 25.4478C22.9847 25.5112 22.9714 25.5739 22.9456 25.6324C22.9198 25.6909 22.8821 25.7441 22.8345 25.7888C22.787 25.8336 22.7305 25.869 22.6684 25.8932C22.6063 25.9174 22.5398 25.9298 22.4726 25.9298H20.527C20.3914 25.9298 20.2612 25.8791 20.1652 25.7887C20.0692 25.6984 20.0152 25.5757 20.0151 25.4478V22.3141C20.0151 22.2508 20.0284 22.1881 20.0541 22.1295C20.0799 22.071 20.1176 22.0179 20.1652 21.9731C20.2127 21.9283 20.2691 21.8928 20.3312 21.8686C20.3933 21.8444 20.4599 21.832 20.527 21.832H22.4726C22.5398 21.832 22.6064 21.8444 22.6685 21.8686C22.7306 21.8928 22.787 21.9283 22.8346 21.973C22.8821 22.0178 22.9199 22.071 22.9456 22.1295C22.9714 22.188 22.9847 22.2508 22.9847 22.3141V25.4478Z" fill="white"/>
<path fill-rule="evenodd" clip-rule="evenodd" d="M32.1193 35.2078C31.0831 33.2432 29.5843 35.6517 21.4248 35.6517C13.2655 35.6517 11.7668 33.2432 10.7305 35.2078C9.60965 37.3333 16.1178 39.5353 21.4248 39.5353C26.7322 39.5353 33.2405 37.3333 32.1193 35.2078Z" fill="white"/>
<path fill-rule="evenodd" clip-rule="evenodd" d="M32.1192 35.2078C31.083 33.2432 29.5843 35.6517 21.4247 35.6517V39.5355C26.7321 39.5355 33.2404 37.3333 32.1192 35.208V35.2078Z" fill="#F0F0F0"/>
<path d="M17.5569 16.9001C20.6128 16.9001 23.0901 14.6669 23.0901 11.912C23.0901 9.1571 20.6128 6.92383 17.5569 6.92383C14.501 6.92383 12.0237 9.1571 12.0237 11.912C12.0237 14.6669 14.501 16.9001 17.5569 16.9001Z" fill="#83BF4F"/>
<path d="M17.5563 11.0928C20.4575 11.0928 22.8094 8.97711 22.8094 6.36722C22.8094 3.75733 20.4575 1.6416 17.5563 1.6416C14.6552 1.6416 12.3033 3.75733 12.3033 6.36722C12.3033 8.97711 14.6552 11.0928 17.5563 11.0928Z" fill="#83BF4F"/>
<path d="M23.3002 9.7794C26.2981 9.7794 28.7283 7.59021 28.7283 4.8897C28.7283 2.18919 26.2981 0 23.3002 0C20.3023 0 17.872 2.18919 17.872 4.8897C17.872 7.59021 20.3023 9.7794 23.3002 9.7794Z" fill="#83BF4F"/>
<path d="M28.4833 12.7989C30.9976 12.7989 33.0359 10.9624 33.0359 8.69683C33.0359 6.4313 30.9976 4.59473 28.4833 4.59473C25.9689 4.59473 23.9306 6.4313 23.9306 8.69683C23.9306 10.9624 25.9689 12.7989 28.4833 12.7989Z" fill="#83BF4F"/>
<path d="M25.1564 16.6378C27.6707 16.6378 29.709 14.8012 29.709 12.5357C29.709 10.2702 27.6707 8.43359 25.1564 8.43359C22.642 8.43359 20.6037 10.2702 20.6037 12.5357C20.6037 14.8012 22.642 16.6378 25.1564 16.6378Z" fill="#83BF4F"/>
<path d="M20.5103 16.0807C20.6119 15.1103 20.4088 14.0913 20.2057 13.0238C20.0026 11.9563 19.7317 10.8645 19.7317 9.7485C19.6979 8.63247 19.901 7.49218 20.4426 6.44894C20.9504 5.4057 21.729 4.4595 22.643 3.61035C21.8644 4.53229 21.2889 5.527 20.9843 6.57025C20.6796 7.58923 20.6796 8.65673 20.8827 9.67571C21.0858 10.6947 21.492 11.7137 21.9321 12.7569C22.3384 13.8002 22.7784 14.8919 22.88 16.0807H20.5103Z" fill="#947151"/>
<path d="M21.2691 11.2238C21.9695 11.2895 22.7399 11.2567 23.4754 11.191C24.2108 11.1254 24.9462 10.9613 25.6466 10.7316C26.347 10.5019 27.0124 10.1737 27.6078 9.74708C28.2031 9.32046 28.7284 8.79539 29.1136 8.17188C28.7634 8.79539 28.3082 9.3861 27.7128 9.87835C27.1525 10.3706 26.4871 10.7316 25.7517 11.0269C25.0513 11.3223 24.2808 11.5192 23.5454 11.6833C22.775 11.8145 22.0045 11.913 21.199 11.8802L21.2691 11.2238Z" fill="#947151"/>
<path d="M21.059 10.7641C20.5337 10.4688 20.0784 10.1406 19.6582 9.81245C19.238 9.45146 18.8177 9.05766 18.4675 8.66386C17.7671 7.81062 17.2418 6.7933 17.1718 5.74316C17.3469 6.7933 17.9772 7.71217 18.7477 8.43414C19.1329 8.79513 19.5531 9.12329 20.0084 9.41864C20.4637 9.714 20.954 9.97653 21.4092 10.1734L21.059 10.7641" fill="#947151"/>
<path d="M21.6193 14.5047C21.0239 14.4719 20.4636 14.3734 19.9033 14.2422C19.3429 14.1109 18.8176 13.914 18.2923 13.6515C17.2767 13.1264 16.4012 12.3716 15.8759 11.4199C16.5063 12.306 17.4168 12.9623 18.4324 13.3233C18.9227 13.5202 19.483 13.6515 20.0083 13.7499C20.5336 13.8484 21.094 13.8812 21.6193 13.8484V14.5047Z" fill="#947151"/>
<path d="M14.7552 13.0929C14.7552 13.8149 14.1249 14.4056 14.1249 14.4056C14.1249 14.4056 13.4945 13.8149 13.4945 13.0929C13.4945 12.371 14.1249 11.7803 14.1249 11.7803C14.1249 11.7803 14.7552 12.371 14.7552 13.0929Z" fill="#75A843"/>
<path d="M30.9697 10.2707C30.9697 10.9926 30.3394 11.5834 30.3394 11.5834C30.3394 11.5834 29.709 10.9926 29.709 10.2707C29.709 9.54871 30.3394 8.95801 30.3394 8.95801C30.3394 8.95801 30.9697 9.54871 30.9697 10.2707Z" fill="#75A843"/>
<path d="M16.5063 14.7677C16.5063 15.4897 15.8759 16.0804 15.8759 16.0804C15.8759 16.0804 15.2455 15.4897 15.2455 14.7677C15.2455 14.0458 15.8759 13.4551 15.8759 13.4551C15.8759 13.4551 16.5063 14.0458 16.5063 14.7677Z" fill="#75A843"/>
<path d="M14.7552 6.20232C14.7552 6.92429 14.1249 7.51499 14.1249 7.51499C14.1249 7.51499 13.4945 6.92429 13.4945 6.20232C13.4945 5.48035 14.1249 4.88965 14.1249 4.88965C14.1249 4.88965 14.7552 5.48035 14.7552 6.20232Z" fill="#75A843"/>
<path d="M16.5063 4.29802C16.5063 5.01999 15.8759 5.61069 15.8759 5.61069C15.8759 5.61069 15.2455 5.01999 15.2455 4.29802C15.2455 3.57605 15.8759 2.98535 15.8759 2.98535C15.8759 2.98535 16.5063 3.57605 16.5063 4.29802" fill="#75A843"/>
<path d="M25.5065 5.25115C25.5065 5.97312 24.8761 6.56382 24.8761 6.56382C24.8761 6.56382 24.2808 5.97312 24.2808 5.25115C24.2808 4.52918 24.9111 3.93848 24.9111 3.93848C24.9111 3.93848 25.5065 4.52918 25.5065 5.25115Z" fill="#75A843"/>
<path d="M27.2576 3.47869C27.2576 4.20066 26.6272 4.79136 26.6272 4.79136C26.6272 4.79136 25.9968 4.20066 25.9968 3.47869C25.9968 2.75672 26.6272 2.16602 26.6272 2.16602C26.6272 2.16602 27.2576 2.75672 27.2576 3.47869" fill="#75A843"/>
<path d="M19.0978 11.0929C19.0978 11.8149 18.4674 12.4056 18.4674 12.4056C18.4674 12.4056 17.837 11.8149 17.837 11.0929C17.837 10.371 18.4674 9.78027 18.4674 9.78027C18.4674 9.78027 19.0978 10.371 19.0978 11.0929Z" fill="#75A843"/>
<path d="M17.1367 9.41814C17.1367 10.1401 16.5063 10.7308 16.5063 10.7308C16.5063 10.7308 15.8759 10.1401 15.8759 9.41814C15.8759 8.69617 16.5063 8.10547 16.5063 8.10547C16.5063 8.10547 17.1367 8.69617 17.1367 9.41814" fill="#75A843"/>
<path d="M20.4636 6.20232C20.4636 6.92429 19.8332 7.51499 19.8332 7.51499C19.8332 7.51499 19.2029 6.92429 19.2029 6.20232C19.2029 5.48035 19.8332 4.88965 19.8332 4.88965C19.8332 4.88965 20.4636 5.48035 20.4636 6.20232Z" fill="#75A843"/>
<path d="M21.8293 3.93767C21.8293 4.65964 21.199 5.25034 21.199 5.25034C21.199 5.25034 20.5686 4.65964 20.5686 3.93767C20.5686 3.2157 21.199 2.625 21.199 2.625C21.199 2.625 21.8293 3.2157 21.8293 3.93767Z" fill="#75A843"/>
<path d="M23.7205 9.41814C23.7205 10.1401 23.0901 10.7308 23.0901 10.7308C23.0901 10.7308 22.4598 10.1401 22.4598 9.41814C22.4598 8.69617 23.0901 8.10547 23.0901 8.10547C23.0901 8.10547 23.7205 8.69617 23.7205 9.41814" fill="#75A843"/>
<path d="M28.4832 12.4045C28.4832 13.1264 27.8528 13.7171 27.8528 13.7171C27.8528 13.7171 27.2225 13.1264 27.2225 12.4045C27.2225 11.6825 27.8528 11.0918 27.8528 11.0918C27.8528 11.0918 28.4832 11.6825 28.4832 12.4045Z" fill="#75A843"/>
<path d="M27.2576 6.924C27.2576 7.64597 26.6272 8.23667 26.6272 8.23667C26.6272 8.23667 25.9968 7.64597 25.9968 6.924C25.9968 6.20203 26.6272 5.61133 26.6272 5.61133C26.6272 5.61133 27.2576 6.20203 27.2576 6.924Z" fill="#75A843"/>
<path d="M25.1563 13.4543C25.1563 14.1762 24.5259 14.7669 24.5259 14.7669C24.5259 14.7669 23.8956 14.1762 23.8956 13.4543C23.8956 12.7323 24.5259 12.1416 24.5259 12.1416C24.5259 12.1416 25.1563 12.7323 25.1563 13.4543Z" fill="#75A843"/>
<path d="M26.8023 14.9318C26.8023 15.6538 26.1719 16.2445 26.1719 16.2445C26.1719 16.2445 25.5416 15.6538 25.5416 14.9318C25.5416 14.2098 26.1719 13.6191 26.1719 13.6191C26.1719 13.6191 26.8023 14.2098 26.8023 14.9318Z" fill="#75A843"/>
</svg>
