<svg width="43" height="49" viewBox="0 0 43 49" fill="none" xmlns="http://www.w3.org/2000/svg">
<path d="M21.5 48.2558C33.3741 48.2558 43 38.7368 43 26.9946C43 15.2524 33.3741 5.7334 21.5 5.7334C9.62588 5.7334 0 15.2524 0 26.9946C0 38.7368 9.62588 48.2558 21.5 48.2558Z" fill="#6FC0BF"/>
<path fill-rule="evenodd" clip-rule="evenodd" d="M14.2679 47.0212C16.5282 47.8196 18.9625 48.2554 21.5 48.2554C23.9864 48.2554 26.3739 47.8368 28.5955 47.0689L28.2092 40.7168H14.6412L14.2679 47.0212Z" fill="#D4D4D4"/>
<path fill-rule="evenodd" clip-rule="evenodd" d="M36.1614 22.4604C33.4727 22.2896 34.379 24.5118 34.2064 27.171C34.0336 29.8301 32.8471 31.9195 35.5364 32.09C38.2251 32.2608 38.8687 30.1369 39.0417 27.4777C39.2135 24.8192 38.8503 22.6312 36.1614 22.4604Z" fill="#A3A3A3"/>
<path fill-rule="evenodd" clip-rule="evenodd" d="M28.5029 45.6819L28.2089 40.7168H14.6412L14.4872 43.3159C16.6967 46.0819 27.2764 46.8612 28.5029 45.6818V45.6819Z" fill="#A3A3A3"/>
<path fill-rule="evenodd" clip-rule="evenodd" d="M6.68915 22.4604C9.37791 22.2896 8.47162 24.5118 8.64395 27.171C8.8168 29.8301 10.0035 31.9195 7.31422 32.09C4.62545 32.2608 3.98187 30.1369 3.80886 27.4777C3.63602 24.8187 3.99988 22.6312 6.68915 22.4604V22.4604Z" fill="#BFBFBF"/>
<path fill-rule="evenodd" clip-rule="evenodd" d="M21.4253 3.72949C13.1244 3.72949 6.39539 10.3838 6.39539 18.5924V36.4248C6.39539 38.3884 8.8667 43.6642 21.4253 43.6642C33.9838 43.6642 36.4551 38.3889 36.4551 36.425V18.5925C36.4551 10.3838 29.7262 3.72949 21.4253 3.72949V3.72949Z" fill="#D4D4D4"/>
<path fill-rule="evenodd" clip-rule="evenodd" d="M21.4253 43.6642C33.9838 43.6642 36.4552 38.3889 36.4552 36.425V18.5925C36.4552 10.3838 29.7262 3.72949 21.4253 3.72949V43.6642Z" fill="#B3B3B3"/>
<path d="M8.37852 15.5869C8.24345 16.0872 8.13801 16.5949 8.06274 17.1075" stroke="#F0F0F0" stroke-width="3.238"/>
<path d="M14.8828 7.3623C12.5881 8.62191 10.7118 10.5145 9.48151 12.8104" stroke="#F0F0F0" stroke-width="3.238"/>
<path fill-rule="evenodd" clip-rule="evenodd" d="M34.8782 19.8918C32.8397 19.7359 29.7206 19.6728 25.8829 20.358C24.4151 20.62 23.3626 21.6118 21.4253 21.6118C19.4875 21.6118 18.4354 20.62 16.9677 20.358C13.1296 19.6728 10.0108 19.7359 7.97202 19.8918C6.23752 20.0244 3.72161 20.3651 3.80879 21.2723C3.85877 21.793 3.91027 21.9054 4.01176 22.4176C4.11189 22.9254 4.87126 22.8612 5.13129 23.4618C5.41067 24.1069 6.18939 26.884 6.38849 27.5113C6.78904 28.7727 7.61944 29.7195 8.90188 30.1548C10.7194 30.7722 12.5707 30.7591 14.4491 30.5014C15.8205 30.3129 16.9456 29.6403 17.8521 28.6032C18.5704 27.7813 19.0817 26.8427 19.4952 25.8445C19.7004 25.349 19.8749 24.8321 20.1509 24.3774C20.3141 24.1086 20.6282 23.7964 20.9111 23.755C21.1011 23.7273 21.2704 23.7055 21.4248 23.695C21.5788 23.7055 21.7486 23.7273 21.9386 23.755C22.222 23.7959 22.5354 24.1083 22.6988 24.3774C22.9751 24.8324 23.1493 25.349 23.3543 25.8445C23.768 26.8427 24.2791 27.7813 24.9976 28.6031C25.9039 29.6403 27.0295 30.3129 28.4006 30.5014C30.279 30.7596 32.1303 30.7722 33.9478 30.155C35.2302 29.7195 36.0605 28.7727 36.4612 27.5111C36.6606 26.8835 37.4388 24.1069 37.7187 23.4618C37.9789 22.8614 38.7376 22.9259 38.8383 22.4176C38.9392 21.9055 38.9906 21.793 39.0407 21.2723C39.1289 20.3656 36.613 20.0247 34.8782 19.8918V19.8918ZM18.1828 24.268C18.1002 26.0106 17.4238 27.4988 16.0794 28.6523C15.3197 29.3041 14.1772 29.5627 11.8323 29.5627C9.45912 29.5627 8.14049 28.5695 7.83402 27.9129C7.09451 26.328 6.80907 24.6123 7.09569 22.864C7.27408 21.778 7.39846 21.1944 11.0452 21.1944C15.0857 21.1944 16.6925 21.9369 17.1848 22.1721C17.9685 22.5467 18.2227 23.4204 18.1828 24.268V24.268ZM35.0157 27.9129C34.7092 28.5695 33.3906 29.5627 31.0172 29.5627C28.6728 29.5627 27.53 29.3042 26.7703 28.6521C25.4263 27.4988 24.75 26.0106 24.6674 24.268C24.627 23.4209 24.8815 22.5467 25.6649 22.1726C26.1572 21.9374 27.7639 21.1947 31.8045 21.1947C35.4507 21.1947 35.5751 21.778 35.7538 22.8645C36.0406 24.6123 35.7552 26.328 35.0157 27.9131V27.9129Z" fill="#333333"/>
<path opacity="0.5" fill-rule="evenodd" clip-rule="evenodd" d="M18.1826 24.268C18.1001 26.0105 17.4237 27.4987 16.0793 28.6522C15.3196 29.304 14.1772 29.5627 11.8323 29.5627C9.45909 29.5627 8.14046 28.5695 7.83399 27.9129C7.09448 26.3279 6.80904 24.6122 7.09566 22.864C7.27405 21.7779 7.39843 21.1943 11.0452 21.1943C15.0857 21.1943 16.6925 21.9369 17.1847 22.172C17.9685 22.5466 18.2226 23.4204 18.1828 24.268H18.1826ZM35.0156 27.9129C34.7092 28.5695 33.3905 29.5627 31.0172 29.5627C28.6727 29.5627 27.53 29.3042 26.7703 28.652C25.4262 27.4987 24.75 26.0105 24.6674 24.268C24.627 23.4209 24.8814 22.5466 25.6649 22.1725C26.1572 21.9374 27.7639 21.1947 31.8045 21.1947C35.4507 21.1947 35.5751 21.7779 35.7538 22.8645C36.0406 24.6122 35.7551 26.3279 35.0156 27.913V27.9129Z" fill="white"/>
<path fill-rule="evenodd" clip-rule="evenodd" d="M22.9847 24.5541C22.9847 24.6206 22.9714 24.6866 22.9456 24.7481C22.9198 24.8095 22.8821 24.8654 22.8345 24.9124C22.787 24.9595 22.7305 24.9968 22.6684 25.0222C22.6063 25.0476 22.5398 25.0606 22.4726 25.0606H20.527C20.3914 25.0607 20.2612 25.0074 20.1652 24.9124C20.0692 24.8174 20.0152 24.6885 20.0151 24.5541V21.2606C20.0151 21.194 20.0284 21.1281 20.0541 21.0666C20.0799 21.0051 20.1176 20.9492 20.1652 20.9022C20.2127 20.8551 20.2691 20.8178 20.3312 20.7924C20.3933 20.7669 20.4599 20.7539 20.527 20.7539H22.4726C22.5398 20.7538 22.6064 20.7669 22.6685 20.7923C22.7306 20.8178 22.787 20.8551 22.8346 20.9021C22.8821 20.9492 22.9199 21.005 22.9456 21.0666C22.9714 21.1281 22.9847 21.194 22.9847 21.2606V24.5541Z" fill="white"/>
<path fill-rule="evenodd" clip-rule="evenodd" d="M32.1193 34.8116C31.0831 32.7468 29.5843 35.2781 21.4248 35.2781C13.2655 35.2781 11.7668 32.7468 10.7305 34.8116C9.60965 37.0455 16.1178 39.3598 21.4248 39.3598C26.7322 39.3598 33.2405 37.0455 32.1193 34.8116Z" fill="white"/>
<path fill-rule="evenodd" clip-rule="evenodd" d="M32.1192 34.8116C31.083 32.7468 29.5843 35.2781 21.4247 35.2781V39.3599C26.7321 39.3599 33.2404 37.0455 32.1192 34.8117V34.8116Z" fill="#F0F0F0"/>
<path d="M19.5539 2.68768C12.3942 5.4083 17.2939 8.05387 17.8125 9.21745C18.3311 10.381 16.7451 15.3803 23.9532 12.6502C31.4412 9.81811 32.1145 2.37346 32.1145 2.37346C32.1145 2.37346 22.0143 1.73505 19.5539 2.68768Z" fill="#83BF4F"/>
<path d="M19.4787 8.32818L20.9162 7.76421L20.2499 3.30167L21.1961 7.66229L23.6843 6.61044L23.3476 2.92679L23.9158 6.51803L26.0655 5.53275L27.0929 3.17451L26.3937 5.42132L32.1146 2.37435L26.4933 5.6361L29.374 6.5226L26.1651 5.74753L24.0257 6.77766L26.9398 9.57938L23.8044 6.91493L21.3367 8.05649L23.9519 11.7607L21.1052 8.1489L19.6779 8.75773L20.0644 11.7753L19.4464 8.85014L15.6657 10.4374L15.3771 9.83796L19.2369 8.37573L17.4612 5.91258L19.4787 8.32818Z" fill="#699635"/>
</svg>
