<svg width="43" height="48" viewBox="0 0 43 48" fill="none" xmlns="http://www.w3.org/2000/svg">
<path d="M21.5 48.0004C33.3741 48.0004 43 38.9432 43 27.7707C43 16.5982 33.3741 7.54102 21.5 7.54102C9.62588 7.54102 0 16.5982 0 27.7707C0 38.9432 9.62588 48.0004 21.5 48.0004Z" fill="#DA507A"/>
<path fill-rule="evenodd" clip-rule="evenodd" d="M14.2679 46.8257C16.5282 47.5853 18.9625 48 21.5 48C23.9864 48 26.3739 47.6017 28.5955 46.8711L28.2092 40.8271H14.6412L14.2679 46.8257Z" fill="#D4D4D4"/>
<path fill-rule="evenodd" clip-rule="evenodd" d="M36.1614 23.4561C33.4727 23.2936 34.379 25.408 34.2064 27.9381C34.0336 30.4682 32.8471 32.4562 35.5364 32.6184C38.2251 32.7809 38.8687 30.7601 39.0417 28.23C39.2135 25.7004 38.8503 23.6186 36.1614 23.4561Z" fill="#A3A3A3"/>
<path fill-rule="evenodd" clip-rule="evenodd" d="M28.5029 45.5514L28.2089 40.8271H14.6412L14.4872 43.3002C16.6967 45.9319 27.2764 46.6735 28.5029 45.5512V45.5514Z" fill="#A3A3A3"/>
<path fill-rule="evenodd" clip-rule="evenodd" d="M6.68915 23.4561C9.37791 23.2936 8.47162 25.408 8.64395 27.9381C8.8168 30.4682 10.0035 32.4562 7.31422 32.6184C4.62545 32.7809 3.98187 30.7601 3.80886 28.23C3.63602 25.6999 3.99988 23.6186 6.68915 23.4561V23.4561Z" fill="#BFBFBF"/>
<path fill-rule="evenodd" clip-rule="evenodd" d="M21.4253 5.63379C13.1244 5.63379 6.39539 11.9653 6.39539 19.7756V36.7429C6.39539 38.6111 8.8667 43.631 21.4253 43.631C33.9838 43.631 36.4551 38.6116 36.4551 36.743V19.7757C36.4551 11.9653 29.7262 5.63379 21.4253 5.63379V5.63379Z" fill="#D4D4D4"/>
<path fill-rule="evenodd" clip-rule="evenodd" d="M21.4253 43.631C33.9838 43.631 36.4552 38.6116 36.4552 36.743V19.7757C36.4552 11.9653 29.7262 5.63379 21.4253 5.63379V43.631Z" fill="#B3B3B3"/>
<path d="M8.37852 16.916C8.24345 17.392 8.13801 17.8751 8.06274 18.3628" stroke="#F0F0F0" stroke-width="3.238"/>
<path d="M14.8828 9.09082C12.5881 10.2893 10.7118 12.0901 9.48151 14.2746" stroke="#F0F0F0" stroke-width="3.238"/>
<path fill-rule="evenodd" clip-rule="evenodd" d="M34.8782 21.0119C32.8397 20.8635 29.7206 20.8035 25.8829 21.4554C24.4151 21.7047 23.3626 22.6485 21.4253 22.6485C19.4875 22.6485 18.4354 21.7047 16.9677 21.4554C13.1296 20.8035 10.0108 20.8635 7.97202 21.0119C6.23752 21.138 3.72161 21.4622 3.80879 22.3254C3.85877 22.8208 3.91027 22.9277 4.01176 23.4151C4.11189 23.8983 4.87126 23.8372 5.13129 24.4087C5.41067 25.0225 6.18939 27.6649 6.38849 28.2617C6.78904 29.4619 7.61944 30.3628 8.90188 30.777C10.7194 31.3644 12.5707 31.3519 14.4491 31.1067C15.8205 30.9274 16.9456 30.2874 17.8521 29.3006C18.5704 28.5186 19.0817 27.6255 19.4952 26.6757C19.7004 26.2043 19.8749 25.7125 20.1509 25.2799C20.3141 25.0241 20.6282 24.727 20.9111 24.6876C21.1011 24.6613 21.2704 24.6405 21.4248 24.6305C21.5788 24.6405 21.7486 24.6613 21.9386 24.6876C22.222 24.7265 22.5354 25.0237 22.6988 25.2799C22.9751 25.7128 23.1493 26.2043 23.3543 26.6757C23.768 27.6255 24.2791 28.5186 24.9976 29.3005C25.9039 30.2874 27.0295 30.9274 28.4006 31.1067C30.279 31.3524 32.1303 31.3644 33.9478 30.7771C35.2302 30.3628 36.0605 29.4619 36.4612 28.2615C36.6606 27.6644 37.4388 25.0225 37.7187 24.4087C37.9789 23.8374 38.7376 23.8988 38.8383 23.4151C38.9392 22.9279 38.9906 22.8208 39.0407 22.3254C39.1289 21.4627 36.613 21.1383 34.8782 21.0119V21.0119ZM18.1828 25.1758C18.1002 26.8338 17.4238 28.2498 16.0794 29.3473C15.3197 29.9675 14.1772 30.2136 11.8323 30.2136C9.45912 30.2136 8.14049 29.2686 7.83402 28.6438C7.09451 27.1358 6.80907 25.5033 7.09569 23.8399C7.27408 22.8065 7.39846 22.2512 11.0452 22.2512C15.0857 22.2512 16.6925 22.9577 17.1848 23.1815C17.9685 23.5379 18.2227 24.3693 18.1828 25.1758V25.1758ZM35.0157 28.6438C34.7092 29.2686 33.3906 30.2136 31.0172 30.2136C28.6728 30.2136 27.53 29.9676 26.7703 29.3471C25.4263 28.2498 24.75 26.8338 24.6674 25.1758C24.627 24.3698 24.8815 23.5379 25.6649 23.182C26.1572 22.9582 27.7639 22.2516 31.8045 22.2516C35.4507 22.2516 35.5751 22.8065 35.7538 23.8404C36.0406 25.5033 35.7552 27.1358 35.0157 28.644V28.6438Z" fill="#333333"/>
<path opacity="0.5" fill-rule="evenodd" clip-rule="evenodd" d="M18.1826 25.1755C18.1001 26.8335 17.4237 28.2495 16.0793 29.347C15.3196 29.9672 14.1772 30.2133 11.8323 30.2133C9.45909 30.2133 8.14046 29.2683 7.83399 28.6435C7.09448 27.1355 6.80904 25.503 7.09566 23.8396C7.27405 22.8062 7.39843 22.251 11.0452 22.251C15.0857 22.251 16.6925 22.9575 17.1847 23.1812C17.9685 23.5376 18.2226 24.369 18.1828 25.1755H18.1826ZM35.0156 28.6435C34.7092 29.2683 33.3905 30.2133 31.0172 30.2133C28.6727 30.2133 27.53 29.9673 26.7703 29.3469C25.4262 28.2495 24.75 26.8335 24.6674 25.1755C24.627 24.3695 24.8814 23.5376 25.6649 23.1817C26.1572 22.9579 27.7639 22.2513 31.8045 22.2513C35.4507 22.2513 35.5751 22.8062 35.7538 23.8401C36.0406 25.503 35.7551 27.1355 35.0156 28.6437V28.6435Z" fill="white"/>
<path fill-rule="evenodd" clip-rule="evenodd" d="M22.9847 25.4478C22.9847 25.5112 22.9714 25.5739 22.9456 25.6324C22.9198 25.6909 22.8821 25.7441 22.8345 25.7888C22.787 25.8336 22.7305 25.869 22.6684 25.8932C22.6063 25.9174 22.5398 25.9298 22.4726 25.9298H20.527C20.3914 25.9298 20.2612 25.8791 20.1652 25.7887C20.0692 25.6984 20.0152 25.5757 20.0151 25.4478V22.3141C20.0151 22.2508 20.0284 22.1881 20.0541 22.1295C20.0799 22.071 20.1176 22.0179 20.1652 21.9731C20.2127 21.9283 20.2691 21.8928 20.3312 21.8686C20.3933 21.8444 20.4599 21.832 20.527 21.832H22.4726C22.5398 21.832 22.6064 21.8444 22.6685 21.8686C22.7306 21.8928 22.787 21.9283 22.8346 21.973C22.8821 22.0178 22.9199 22.071 22.9456 22.1295C22.9714 22.188 22.9847 22.2508 22.9847 22.3141V25.4478Z" fill="white"/>
<path fill-rule="evenodd" clip-rule="evenodd" d="M32.1193 35.2078C31.0831 33.2432 29.5843 35.6517 21.4248 35.6517C13.2655 35.6517 11.7668 33.2432 10.7305 35.2078C9.60965 37.3333 16.1178 39.5353 21.4248 39.5353C26.7322 39.5353 33.2405 37.3333 32.1193 35.2078Z" fill="white"/>
<path fill-rule="evenodd" clip-rule="evenodd" d="M32.1192 35.2078C31.083 33.2432 29.5843 35.6517 21.4247 35.6517V39.5355C26.7321 39.5355 33.2404 37.3333 32.1192 35.208V35.2078Z" fill="#F0F0F0"/>
<path d="M11.5451 16.9001C14.601 16.9001 17.0783 14.6669 17.0783 11.912C17.0783 9.1571 14.601 6.92383 11.5451 6.92383C8.48915 6.92383 6.01184 9.1571 6.01184 11.912C6.01184 14.6669 8.48915 16.9001 11.5451 16.9001Z" fill="#83BF4F"/>
<path d="M11.5445 11.0928C14.4457 11.0928 16.7976 8.97711 16.7976 6.36722C16.7976 3.75733 14.4457 1.6416 11.5445 1.6416C8.64332 1.6416 6.29144 3.75733 6.29144 6.36722C6.29144 8.97711 8.64332 11.0928 11.5445 11.0928Z" fill="#83BF4F"/>
<path d="M17.2884 9.7794C20.2863 9.7794 22.7166 7.59021 22.7166 4.8897C22.7166 2.18919 20.2863 0 17.2884 0C14.2905 0 11.8602 2.18919 11.8602 4.8897C11.8602 7.59021 14.2905 9.7794 17.2884 9.7794Z" fill="#83BF4F"/>
<path d="M22.4714 12.7989C24.9858 12.7989 27.0241 10.9624 27.0241 8.69683C27.0241 6.4313 24.9858 4.59473 22.4714 4.59473C19.9571 4.59473 17.9188 6.4313 17.9188 8.69683C17.9188 10.9624 19.9571 12.7989 22.4714 12.7989Z" fill="#83BF4F"/>
<path d="M19.1445 16.6378C21.6589 16.6378 23.6972 14.8012 23.6972 12.5357C23.6972 10.2702 21.6589 8.43359 19.1445 8.43359C16.6301 8.43359 14.5919 10.2702 14.5919 12.5357C14.5919 14.8012 16.6301 16.6378 19.1445 16.6378Z" fill="#83BF4F"/>
<path d="M14.4985 16.0807C14.6001 15.1103 14.3969 14.0913 14.1938 13.0238C13.9907 11.9563 13.7199 10.8645 13.7199 9.7485C13.686 8.63247 13.8892 7.49218 14.4308 6.44894C14.9386 5.4057 15.7172 4.4595 16.6312 3.61035C15.8526 4.53229 15.2771 5.527 14.9724 6.57025C14.6678 7.58923 14.6678 8.65673 14.8709 9.67571C15.074 10.6947 15.4802 11.7137 15.9203 12.7569C16.3265 13.8002 16.7666 14.8919 16.8681 16.0807H14.4985Z" fill="#947151"/>
<path d="M15.2572 11.2238C15.9576 11.2895 16.7281 11.2567 17.4635 11.191C18.1989 11.1254 18.9344 10.9613 19.6348 10.7316C20.3352 10.5019 21.0006 10.1737 21.5959 9.74708C22.1913 9.32046 22.7166 8.79539 23.1018 8.17188C22.7516 8.79539 22.2963 9.3861 21.701 9.87835C21.1407 10.3706 20.4753 10.7316 19.7398 11.0269C19.0394 11.3223 18.269 11.5192 17.5336 11.6833C16.7631 11.8145 15.9927 11.913 15.1872 11.8802L15.2572 11.2238Z" fill="#947151"/>
<path d="M15.0472 10.7641C14.5219 10.4688 14.0666 10.1406 13.6464 9.81245C13.2261 9.45146 12.8059 9.05766 12.4557 8.66386C11.7553 7.81062 11.23 6.7933 11.1599 5.74316C11.335 6.7933 11.9654 7.71217 12.7358 8.43414C13.1211 8.79513 13.5413 9.12329 13.9966 9.41864C14.4518 9.714 14.9421 9.97653 15.3974 10.1734L15.0472 10.7641" fill="#947151"/>
<path d="M15.6074 14.5047C15.0121 14.4719 14.4517 14.3734 13.8914 14.2422C13.3311 14.1109 12.8058 13.914 12.2805 13.6515C11.2649 13.1264 10.3894 12.3716 9.86407 11.4199C10.4944 12.306 11.405 12.9623 12.4206 13.3233C12.9108 13.5202 13.4712 13.6515 13.9965 13.7499C14.5218 13.8484 15.0821 13.8812 15.6074 13.8484V14.5047Z" fill="#947151"/>
<path d="M8.7434 13.0929C8.7434 13.8149 8.11303 14.4056 8.11303 14.4056C8.11303 14.4056 7.48267 13.8149 7.48267 13.0929C7.48267 12.371 8.11303 11.7803 8.11303 11.7803C8.11303 11.7803 8.7434 12.371 8.7434 13.0929Z" fill="#75A843"/>
<path d="M24.9579 10.2707C24.9579 10.9926 24.3275 11.5834 24.3275 11.5834C24.3275 11.5834 23.6971 10.9926 23.6971 10.2707C23.6971 9.54871 24.3275 8.95801 24.3275 8.95801C24.3275 8.95801 24.9579 9.54871 24.9579 10.2707Z" fill="#75A843"/>
<path d="M10.4944 14.7677C10.4944 15.4897 9.86407 16.0804 9.86407 16.0804C9.86407 16.0804 9.2337 15.4897 9.2337 14.7677C9.2337 14.0458 9.86407 13.4551 9.86407 13.4551C9.86407 13.4551 10.4944 14.0458 10.4944 14.7677Z" fill="#75A843"/>
<path d="M8.7434 6.20232C8.7434 6.92429 8.11303 7.51499 8.11303 7.51499C8.11303 7.51499 7.48267 6.92429 7.48267 6.20232C7.48267 5.48035 8.11303 4.88965 8.11303 4.88965C8.11303 4.88965 8.7434 5.48035 8.7434 6.20232Z" fill="#75A843"/>
<path d="M10.4944 4.29802C10.4944 5.01999 9.86407 5.61069 9.86407 5.61069C9.86407 5.61069 9.2337 5.01999 9.2337 4.29802C9.2337 3.57605 9.86407 2.98535 9.86407 2.98535C9.86407 2.98535 10.4944 3.57605 10.4944 4.29802" fill="#75A843"/>
<path d="M19.4946 5.25115C19.4946 5.97312 18.8643 6.56382 18.8643 6.56382C18.8643 6.56382 18.2689 5.97312 18.2689 5.25115C18.2689 4.52918 18.8993 3.93848 18.8993 3.93848C18.8993 3.93848 19.4946 4.52918 19.4946 5.25115Z" fill="#75A843"/>
<path d="M21.2457 3.47869C21.2457 4.20066 20.6154 4.79136 20.6154 4.79136C20.6154 4.79136 19.985 4.20066 19.985 3.47869C19.985 2.75672 20.6154 2.16602 20.6154 2.16602C20.6154 2.16602 21.2457 2.75672 21.2457 3.47869" fill="#75A843"/>
<path d="M13.0859 11.0929C13.0859 11.8149 12.4556 12.4056 12.4556 12.4056C12.4556 12.4056 11.8252 11.8149 11.8252 11.0929C11.8252 10.371 12.4556 9.78027 12.4556 9.78027C12.4556 9.78027 13.0859 10.371 13.0859 11.0929Z" fill="#75A843"/>
<path d="M11.1248 9.41814C11.1248 10.1401 10.4944 10.7308 10.4944 10.7308C10.4944 10.7308 9.86407 10.1401 9.86407 9.41814C9.86407 8.69617 10.4944 8.10547 10.4944 8.10547C10.4944 8.10547 11.1248 8.69617 11.1248 9.41814" fill="#75A843"/>
<path d="M14.4518 6.20232C14.4518 6.92429 13.8214 7.51499 13.8214 7.51499C13.8214 7.51499 13.191 6.92429 13.191 6.20232C13.191 5.48035 13.8214 4.88965 13.8214 4.88965C13.8214 4.88965 14.4518 5.48035 14.4518 6.20232Z" fill="#75A843"/>
<path d="M15.8176 3.93767C15.8176 4.65964 15.1872 5.25034 15.1872 5.25034C15.1872 5.25034 14.5568 4.65964 14.5568 3.93767C14.5568 3.2157 15.1872 2.625 15.1872 2.625C15.1872 2.625 15.8176 3.2157 15.8176 3.93767Z" fill="#75A843"/>
<path d="M17.7087 9.41814C17.7087 10.1401 17.0784 10.7308 17.0784 10.7308C17.0784 10.7308 16.448 10.1401 16.448 9.41814C16.448 8.69617 17.0784 8.10547 17.0784 8.10547C17.0784 8.10547 17.7087 8.69617 17.7087 9.41814" fill="#75A843"/>
<path d="M22.4714 12.4045C22.4714 13.1264 21.841 13.7171 21.841 13.7171C21.841 13.7171 21.2106 13.1264 21.2106 12.4045C21.2106 11.6825 21.841 11.0918 21.841 11.0918C21.841 11.0918 22.4714 11.6825 22.4714 12.4045Z" fill="#75A843"/>
<path d="M21.2457 6.924C21.2457 7.64597 20.6154 8.23667 20.6154 8.23667C20.6154 8.23667 19.985 7.64597 19.985 6.924C19.985 6.20203 20.6154 5.61133 20.6154 5.61133C20.6154 5.61133 21.2457 6.20203 21.2457 6.924Z" fill="#75A843"/>
<path d="M19.1445 13.4543C19.1445 14.1762 18.5141 14.7669 18.5141 14.7669C18.5141 14.7669 17.8837 14.1762 17.8837 13.4543C17.8837 12.7323 18.5141 12.1416 18.5141 12.1416C18.5141 12.1416 19.1445 12.7323 19.1445 13.4543Z" fill="#75A843"/>
<path d="M20.7905 14.9318C20.7905 15.6538 20.1601 16.2445 20.1601 16.2445C20.1601 16.2445 19.5297 15.6538 19.5297 14.9318C19.5297 14.2098 20.1601 13.6191 20.1601 13.6191C20.1601 13.6191 20.7905 14.2098 20.7905 14.9318Z" fill="#75A843"/>
<path d="M24.5707 16.9001C27.6266 16.9001 30.1039 14.6669 30.1039 11.912C30.1039 9.1571 27.6266 6.92383 24.5707 6.92383C21.5148 6.92383 19.0375 9.1571 19.0375 11.912C19.0375 14.6669 21.5148 16.9001 24.5707 16.9001Z" fill="#83BF4F"/>
<path d="M24.5701 11.0928C27.4713 11.0928 29.8232 8.97711 29.8232 6.36722C29.8232 3.75733 27.4713 1.6416 24.5701 1.6416C21.669 1.6416 19.3171 3.75733 19.3171 6.36722C19.3171 8.97711 21.669 11.0928 24.5701 11.0928Z" fill="#83BF4F"/>
<path d="M30.314 9.7794C33.3119 9.7794 35.7422 7.59021 35.7422 4.8897C35.7422 2.18919 33.3119 0 30.314 0C27.3161 0 24.8859 2.18919 24.8859 4.8897C24.8859 7.59021 27.3161 9.7794 30.314 9.7794Z" fill="#83BF4F"/>
<path d="M35.497 12.7989C38.0114 12.7989 40.0497 10.9624 40.0497 8.69683C40.0497 6.4313 38.0114 4.59473 35.497 4.59473C32.9827 4.59473 30.9444 6.4313 30.9444 8.69683C30.9444 10.9624 32.9827 12.7989 35.497 12.7989Z" fill="#83BF4F"/>
<path d="M32.1701 16.6378C34.6845 16.6378 36.7228 14.8012 36.7228 12.5357C36.7228 10.2702 34.6845 8.43359 32.1701 8.43359C29.6558 8.43359 27.6175 10.2702 27.6175 12.5357C27.6175 14.8012 29.6558 16.6378 32.1701 16.6378Z" fill="#83BF4F"/>
<path d="M27.5242 16.0807C27.6257 15.1103 27.4226 14.0913 27.2195 13.0238C27.0164 11.9563 26.7456 10.8645 26.7456 9.7485C26.7117 8.63247 26.9149 7.49218 27.4565 6.44894C27.9643 5.4057 28.7429 4.4595 29.6569 3.61035C28.8783 4.53229 28.3028 5.527 27.9981 6.57025C27.6935 7.58923 27.6935 8.65673 27.8966 9.67571C28.0997 10.6947 28.5059 11.7137 28.946 12.7569C29.3522 13.8002 29.7923 14.8919 29.8938 16.0807H27.5242Z" fill="#947151"/>
<path d="M28.2829 11.2238C28.9833 11.2895 29.7537 11.2567 30.4892 11.191C31.2246 11.1254 31.96 10.9613 32.6604 10.7316C33.3608 10.5019 34.0262 10.1737 34.6216 9.74708C35.2169 9.32046 35.7422 8.79539 36.1274 8.17188C35.7772 8.79539 35.322 9.3861 34.7266 9.87835C34.1663 10.3706 33.5009 10.7316 32.7655 11.0269C32.0651 11.3223 31.2946 11.5192 30.5592 11.6833C29.7887 11.8145 29.0183 11.913 28.2128 11.8802L28.2829 11.2238Z" fill="#947151"/>
<path d="M28.0728 10.7641C27.5475 10.4688 27.0922 10.1406 26.672 9.81245C26.2518 9.45146 25.8315 9.05766 25.4813 8.66386C24.7809 7.81062 24.2556 6.7933 24.1855 5.74316C24.3606 6.7933 24.991 7.71217 25.7615 8.43414C26.1467 8.79513 26.5669 9.12329 27.0222 9.41864C27.4775 9.714 27.9678 9.97653 28.423 10.1734L28.0728 10.7641" fill="#947151"/>
<path d="M28.6331 14.5047C28.0377 14.4719 27.4774 14.3734 26.9171 14.2422C26.3567 14.1109 25.8314 13.914 25.3061 13.6515C24.2905 13.1264 23.415 12.3716 22.8897 11.4199C23.5201 12.306 24.4306 12.9623 25.4462 13.3233C25.9365 13.5202 26.4968 13.6515 27.0221 13.7499C27.5474 13.8484 28.1077 13.8812 28.6331 13.8484V14.5047Z" fill="#947151"/>
<path d="M21.7691 13.0929C21.7691 13.8149 21.1387 14.4056 21.1387 14.4056C21.1387 14.4056 20.5084 13.8149 20.5084 13.0929C20.5084 12.371 21.1387 11.7803 21.1387 11.7803C21.1387 11.7803 21.7691 12.371 21.7691 13.0929Z" fill="#75A843"/>
<path d="M37.9836 10.2707C37.9836 10.9926 37.3532 11.5834 37.3532 11.5834C37.3532 11.5834 36.7228 10.9926 36.7228 10.2707C36.7228 9.54871 37.3532 8.95801 37.3532 8.95801C37.3532 8.95801 37.9836 9.54871 37.9836 10.2707Z" fill="#75A843"/>
<path d="M23.5201 14.7677C23.5201 15.4897 22.8897 16.0804 22.8897 16.0804C22.8897 16.0804 22.2593 15.4897 22.2593 14.7677C22.2593 14.0458 22.8897 13.4551 22.8897 13.4551C22.8897 13.4551 23.5201 14.0458 23.5201 14.7677Z" fill="#75A843"/>
<path d="M21.7691 6.20232C21.7691 6.92429 21.1387 7.51499 21.1387 7.51499C21.1387 7.51499 20.5084 6.92429 20.5084 6.20232C20.5084 5.48035 21.1387 4.88965 21.1387 4.88965C21.1387 4.88965 21.7691 5.48035 21.7691 6.20232Z" fill="#75A843"/>
<path d="M23.5201 4.29802C23.5201 5.01999 22.8897 5.61069 22.8897 5.61069C22.8897 5.61069 22.2593 5.01999 22.2593 4.29802C22.2593 3.57605 22.8897 2.98535 22.8897 2.98535C22.8897 2.98535 23.5201 3.57605 23.5201 4.29802" fill="#75A843"/>
<path d="M32.5203 5.25115C32.5203 5.97312 31.8899 6.56382 31.8899 6.56382C31.8899 6.56382 31.2946 5.97312 31.2946 5.25115C31.2946 4.52918 31.9249 3.93848 31.9249 3.93848C31.9249 3.93848 32.5203 4.52918 32.5203 5.25115Z" fill="#75A843"/>
<path d="M34.2714 3.47869C34.2714 4.20066 33.641 4.79136 33.641 4.79136C33.641 4.79136 33.0106 4.20066 33.0106 3.47869C33.0106 2.75672 33.641 2.16602 33.641 2.16602C33.641 2.16602 34.2714 2.75672 34.2714 3.47869" fill="#75A843"/>
<path d="M26.1116 11.0929C26.1116 11.8149 25.4813 12.4056 25.4813 12.4056C25.4813 12.4056 24.8509 11.8149 24.8509 11.0929C24.8509 10.371 25.4813 9.78027 25.4813 9.78027C25.4813 9.78027 26.1116 10.371 26.1116 11.0929Z" fill="#75A843"/>
<path d="M24.1504 9.41814C24.1504 10.1401 23.5201 10.7308 23.5201 10.7308C23.5201 10.7308 22.8897 10.1401 22.8897 9.41814C22.8897 8.69617 23.5201 8.10547 23.5201 8.10547C23.5201 8.10547 24.1504 8.69617 24.1504 9.41814" fill="#75A843"/>
<path d="M27.4775 6.20232C27.4775 6.92429 26.8471 7.51499 26.8471 7.51499C26.8471 7.51499 26.2167 6.92429 26.2167 6.20232C26.2167 5.48035 26.8471 4.88965 26.8471 4.88965C26.8471 4.88965 27.4775 5.48035 27.4775 6.20232Z" fill="#75A843"/>
<path d="M28.8432 3.93767C28.8432 4.65964 28.2128 5.25034 28.2128 5.25034C28.2128 5.25034 27.5825 4.65964 27.5825 3.93767C27.5825 3.2157 28.2128 2.625 28.2128 2.625C28.2128 2.625 28.8432 3.2157 28.8432 3.93767Z" fill="#75A843"/>
<path d="M30.7344 9.41814C30.7344 10.1401 30.104 10.7308 30.104 10.7308C30.104 10.7308 29.4736 10.1401 29.4736 9.41814C29.4736 8.69617 30.104 8.10547 30.104 8.10547C30.104 8.10547 30.7344 8.69617 30.7344 9.41814" fill="#75A843"/>
<path d="M35.497 12.4045C35.497 13.1264 34.8666 13.7171 34.8666 13.7171C34.8666 13.7171 34.2363 13.1264 34.2363 12.4045C34.2363 11.6825 34.8666 11.0918 34.8666 11.0918C34.8666 11.0918 35.497 11.6825 35.497 12.4045Z" fill="#75A843"/>
<path d="M34.2714 6.924C34.2714 7.64597 33.641 8.23667 33.641 8.23667C33.641 8.23667 33.0106 7.64597 33.0106 6.924C33.0106 6.20203 33.641 5.61133 33.641 5.61133C33.641 5.61133 34.2714 6.20203 34.2714 6.924Z" fill="#75A843"/>
<path d="M32.1701 13.4543C32.1701 14.1762 31.5397 14.7669 31.5397 14.7669C31.5397 14.7669 30.9094 14.1762 30.9094 13.4543C30.9094 12.7323 31.5397 12.1416 31.5397 12.1416C31.5397 12.1416 32.1701 12.7323 32.1701 13.4543Z" fill="#75A843"/>
<path d="M33.8161 14.9318C33.8161 15.6538 33.1857 16.2445 33.1857 16.2445C33.1857 16.2445 32.5554 15.6538 32.5554 14.9318C32.5554 14.2098 33.1857 13.6191 33.1857 13.6191C33.1857 13.6191 33.8161 14.2098 33.8161 14.9318Z" fill="#75A843"/>
</svg>
