<svg width="43" height="49" viewBox="0 0 43 49" fill="none" xmlns="http://www.w3.org/2000/svg">
<path d="M21.5 48.0091C33.3741 48.0091 43 38.95 43 27.7751C43 16.6001 33.3741 7.54102 21.5 7.54102C9.62588 7.54102 0 16.6001 0 27.7751C0 38.95 9.62588 48.0091 21.5 48.0091Z" fill="#7F9CF5"/>
<path fill-rule="evenodd" clip-rule="evenodd" d="M14.2679 46.8338C16.5282 47.5936 18.9625 48.0084 21.5 48.0084C23.9864 48.0084 26.3739 47.61 28.5955 46.8792L28.2092 40.834H14.6412L14.2679 46.8338Z" fill="#D4D4D4"/>
<path fill-rule="evenodd" clip-rule="evenodd" d="M36.1614 23.46C33.4727 23.2974 34.379 25.4123 34.2064 27.943C34.0336 30.4736 32.8471 32.4621 35.5364 32.6243C38.2251 32.7868 38.8687 30.7656 39.0417 28.2349C39.2135 25.7048 38.8503 23.6225 36.1614 23.46Z" fill="#A3A3A3"/>
<path fill-rule="evenodd" clip-rule="evenodd" d="M28.5029 45.5592L28.2089 40.834H14.6412L14.4872 43.3076C16.6967 45.9399 27.2764 46.6816 28.5029 45.5591V45.5592Z" fill="#A3A3A3"/>
<path fill-rule="evenodd" clip-rule="evenodd" d="M6.68915 23.46C9.37791 23.2974 8.47162 25.4123 8.64395 27.943C8.8168 30.4736 10.0035 32.4621 7.31422 32.6243C4.62545 32.7868 3.98187 30.7656 3.80886 28.2349C3.63602 25.7043 3.99988 23.6225 6.68915 23.46V23.46Z" fill="#BFBFBF"/>
<path fill-rule="evenodd" clip-rule="evenodd" d="M21.4253 5.63379C13.1244 5.63379 6.39539 11.9666 6.39539 19.7786V36.7496C6.39539 38.6183 8.8667 43.6392 21.4253 43.6392C33.9838 43.6392 36.4551 38.6187 36.4551 36.7497V19.7788C36.4551 11.9666 29.7262 5.63379 21.4253 5.63379V5.63379Z" fill="#D4D4D4"/>
<path fill-rule="evenodd" clip-rule="evenodd" d="M21.4253 43.6392C33.9838 43.6392 36.4552 38.6187 36.4552 36.7497V19.7788C36.4552 11.9666 29.7262 5.63379 21.4253 5.63379V43.6392Z" fill="#B3B3B3"/>
<path d="M8.37852 16.9189C8.24345 17.3951 8.13801 17.8783 8.06274 18.366" stroke="#F0F0F0" stroke-width="3.238"/>
<path d="M14.8828 9.0918C12.5881 10.2905 10.7118 12.0917 9.48151 14.2767" stroke="#F0F0F0" stroke-width="3.238"/>
<path fill-rule="evenodd" clip-rule="evenodd" d="M34.8782 21.0148C32.8397 20.8664 29.7206 20.8064 25.8829 21.4585C24.4151 21.7078 23.3626 22.6518 21.4253 22.6518C19.4875 22.6518 18.4354 21.7078 16.9677 21.4585C13.1296 20.8064 10.0108 20.8664 7.97202 21.0148C6.23752 21.141 3.72161 21.4653 3.80879 22.3286C3.85877 22.8241 3.91027 22.9311 4.01176 23.4186C4.11189 23.9019 4.87126 23.8408 5.13129 24.4123C5.41067 25.0263 6.18939 27.6692 6.38849 28.2662C6.78904 29.4666 7.61944 30.3677 8.90188 30.782C10.7194 31.3696 12.5707 31.3571 14.4491 31.1118C15.8205 30.9325 16.9456 30.2923 17.8521 29.3054C18.5704 28.5232 19.0817 27.6299 19.4952 26.6799C19.7004 26.2083 19.8749 25.7164 20.1509 25.2837C20.3141 25.0279 20.6282 24.7307 20.9111 24.6914C21.1011 24.665 21.2704 24.6442 21.4248 24.6342C21.5788 24.6442 21.7486 24.665 21.9386 24.6914C22.222 24.7303 22.5354 25.0276 22.6988 25.2837C22.9751 25.7168 23.1493 26.2083 23.3543 26.6799C23.768 27.6299 24.2791 28.5232 24.9976 29.3052C25.9039 30.2923 27.0295 30.9325 28.4006 31.1118C30.279 31.3575 32.1303 31.3696 33.9478 30.7822C35.2302 30.3677 36.0605 29.4666 36.4612 28.266C36.6606 27.6688 37.4388 25.0263 37.7187 24.4123C37.9789 23.8409 38.7376 23.9024 38.8383 23.4186C38.9392 22.9313 38.9906 22.8241 39.0407 22.3286C39.1289 21.4658 36.613 21.1413 34.8782 21.0148V21.0148ZM18.1828 25.1796C18.1002 26.838 17.4238 28.2543 16.0794 29.352C15.3197 29.9723 14.1772 30.2185 11.8323 30.2185C9.45912 30.2185 8.14049 29.2733 7.83402 28.6484C7.09451 27.14 6.80907 25.5072 7.09569 23.8435C7.27408 22.8098 7.39846 22.2545 11.0452 22.2545C15.0857 22.2545 16.6925 22.9611 17.1848 23.1849C17.9685 23.5414 18.2227 24.373 18.1828 25.1796V25.1796ZM35.0157 28.6484C34.7092 29.2733 33.3906 30.2185 31.0172 30.2185C28.6728 30.2185 27.53 29.9725 26.7703 29.3519C25.4263 28.2543 24.75 26.838 24.6674 25.1796C24.627 24.3735 24.8815 23.5414 25.6649 23.1854C26.1572 22.9616 27.7639 22.2548 31.8045 22.2548C35.4507 22.2548 35.5751 22.8098 35.7538 23.8439C36.0406 25.5072 35.7552 27.14 35.0157 28.6486V28.6484Z" fill="#333333"/>
<path opacity="0.5" fill-rule="evenodd" clip-rule="evenodd" d="M18.1826 25.1791C18.1001 26.8374 17.4237 28.2537 16.0793 29.3515C15.3196 29.9718 14.1772 30.218 11.8323 30.218C9.45909 30.218 8.14046 29.2728 7.83399 28.6478C7.09448 27.1395 6.80904 25.5067 7.09566 23.8429C7.27405 22.8093 7.39843 22.2539 11.0452 22.2539C15.0857 22.2539 16.6925 22.9606 17.1847 23.1844C17.9685 23.5409 18.2226 24.3724 18.1828 25.1791H18.1826ZM35.0156 28.6478C34.7092 29.2728 33.3905 30.218 31.0172 30.218C28.6727 30.218 27.53 29.9719 26.7703 29.3513C25.4262 28.2537 24.75 26.8374 24.6674 25.1791C24.627 24.3729 24.8814 23.5409 25.6649 23.1848C26.1572 22.961 27.7639 22.2542 31.8045 22.2542C35.4507 22.2542 35.5751 22.8093 35.7538 23.8434C36.0406 25.5067 35.7551 27.1395 35.0156 28.648V28.6478Z" fill="white"/>
<path fill-rule="evenodd" clip-rule="evenodd" d="M22.9847 25.4515C22.9847 25.5149 22.9714 25.5776 22.9456 25.6361C22.9198 25.6947 22.8821 25.7478 22.8345 25.7926C22.787 25.8373 22.7305 25.8728 22.6684 25.897C22.6063 25.9212 22.5398 25.9336 22.4726 25.9336H20.527C20.3914 25.9337 20.2612 25.8829 20.1652 25.7925C20.0692 25.7021 20.0152 25.5795 20.0151 25.4515V22.3172C20.0151 22.2538 20.0284 22.1911 20.0541 22.1325C20.0799 22.074 20.1176 22.0208 20.1652 21.9761C20.2127 21.9313 20.2691 21.8958 20.3312 21.8716C20.3933 21.8474 20.4599 21.8349 20.527 21.835H22.4726C22.5398 21.8349 22.6064 21.8473 22.6685 21.8715C22.7306 21.8957 22.787 21.9312 22.8346 21.976C22.8821 22.0208 22.9199 22.074 22.9456 22.1325C22.9714 22.191 22.9847 22.2538 22.9847 22.3172V25.4515Z" fill="white"/>
<path fill-rule="evenodd" clip-rule="evenodd" d="M32.1193 35.2138C31.0831 33.2488 29.5843 35.6578 21.4248 35.6578C13.2655 35.6578 11.7668 33.2488 10.7305 35.2138C9.60965 37.3398 16.1178 39.5423 21.4248 39.5423C26.7322 39.5423 33.2405 37.3398 32.1193 35.2138Z" fill="white"/>
<path fill-rule="evenodd" clip-rule="evenodd" d="M32.1192 35.2138C31.083 33.2488 29.5843 35.6578 21.4247 35.6578V39.5424C26.7321 39.5424 33.2404 37.3398 32.1192 35.214V35.2138Z" fill="#F0F0F0"/>
<path d="M13.0739 6.42619C7.45935 11.4366 13.0717 12.2587 14.0126 13.179C14.9536 14.0994 15.4364 19.3557 21.0924 14.3198C26.9696 9.0923 24.6747 1.8413 24.6747 1.8413C24.6747 1.8413 14.9964 4.68773 13.0739 6.42619Z" fill="#83BF4F"/>
<path d="M15.218 11.769L16.3384 10.7463L13.9641 6.76516L16.5596 10.5547L18.469 8.71311L16.7083 5.35397L18.6489 8.54691L20.2685 6.88372L20.3014 4.30885L20.5311 6.66656L24.6745 1.83968L20.7084 6.8351L23.7454 6.68762L20.4458 7.05226L18.8534 8.75425L22.6737 10.4016L18.7007 8.95926L16.8457 10.8784L20.7413 13.479L16.6658 11.0446L15.5727 12.1061L17.1185 14.8201L15.3929 12.2723L12.4873 15.0601L11.9825 14.5933L15.011 11.8964L12.3863 10.1797L15.218 11.769Z" fill="#699635"/>
<path d="M25.184 5.90486C18.2953 9.23787 23.4362 11.5026 24.064 12.6334C24.6918 13.7642 23.582 18.9364 30.5181 15.5898C37.7239 12.1174 37.6912 4.55413 37.6912 4.55413C37.6912 4.55413 27.5495 4.74164 25.184 5.90486Z" fill="#83BF4F"/>
<path d="M25.6427 11.5975L27.0241 10.9104L25.9367 6.46481L27.2938 10.7846L29.6777 9.51899L28.993 5.83179L29.9001 9.40674L31.9525 8.23617L32.7547 5.77334L32.2695 8.09677L37.6912 4.55307L32.3893 8.30517L35.3485 8.96209L32.0722 8.44456L30.0343 9.65953L33.2083 12.2452L29.8265 9.81618L27.4715 11.1705L30.4324 14.691L27.2492 11.2828L25.8822 12.0143L26.5537 15.0257L25.6599 12.1265L22.0366 14.0384L21.6918 13.4577L25.4059 11.6653L23.4004 9.32742L25.6427 11.5975Z" fill="#699635"/>
</svg>
