<svg width="43" height="48" viewBox="0 0 43 48" fill="none" xmlns="http://www.w3.org/2000/svg">
<path d="M21.4577 47.9261C33.3084 47.9261 42.9153 38.2798 42.9153 26.3805C42.9153 14.4812 33.3084 4.83496 21.4577 4.83496C9.60693 4.83496 0 14.4812 0 26.3805C0 38.2798 9.60693 47.9261 21.4577 47.9261Z" fill="#7F9CF5"/>
<path fill-rule="evenodd" clip-rule="evenodd" d="M14.2399 46.6749C16.4957 47.4839 18.9252 47.9256 21.4577 47.9256C23.9392 47.9256 26.322 47.5013 28.5392 46.7232L28.1537 40.2861H14.6124L14.2399 46.6749Z" fill="#D4D4D4"/>
<path fill-rule="evenodd" clip-rule="evenodd" d="M36.0902 21.7857C33.4068 21.6127 34.3113 23.8646 34.1391 26.5594C33.9666 29.2539 32.7824 31.3714 35.4664 31.5441C38.1499 31.7172 38.7922 29.5649 38.9649 26.8702C39.1363 24.1761 38.7739 21.9588 36.0902 21.7857Z" fill="#A3A3A3"/>
<path fill-rule="evenodd" clip-rule="evenodd" d="M28.4468 45.3177L28.1534 40.2861H14.6124L14.4587 42.92C16.6638 45.723 27.2227 46.5128 28.4468 45.3175V45.3177Z" fill="#A3A3A3"/>
<path fill-rule="evenodd" clip-rule="evenodd" d="M6.67596 21.7857C9.35943 21.6127 8.45492 23.8646 8.62692 26.5594C8.79942 29.2539 9.98377 31.3714 7.2998 31.5441C4.61633 31.7172 3.97401 29.5649 3.80134 26.8702C3.62884 24.1756 3.99199 21.9588 6.67596 21.7857Z" fill="#BFBFBF"/>
<path fill-rule="evenodd" clip-rule="evenodd" d="M21.3831 2.80371C13.0985 2.80371 6.38281 9.54704 6.38281 17.8654V35.9364C6.38281 37.9262 8.84927 43.2726 21.3831 43.2726C33.9169 43.2726 36.3834 37.9267 36.3834 35.9366V17.8656C36.3834 9.54704 29.6677 2.80371 21.3831 2.80371Z" fill="#D4D4D4"/>
<path fill-rule="evenodd" clip-rule="evenodd" d="M21.3831 43.2726C33.9169 43.2726 36.3834 37.9267 36.3834 35.9366V17.8656C36.3834 9.54704 29.6677 2.80371 21.3831 2.80371V43.2726Z" fill="#B3B3B3"/>
<path d="M8.36266 14.8203C8.22758 15.3273 8.12214 15.8418 8.04688 16.3612" stroke="#F0F0F0" stroke-width="3.238"/>
<path d="M14.8534 6.48633C12.5633 7.76278 10.6907 9.68072 9.46283 12.0073" stroke="#F0F0F0" stroke-width="3.238"/>
<path fill-rule="evenodd" clip-rule="evenodd" d="M34.8095 19.1813C32.775 19.0232 29.6621 18.9593 25.8319 19.6536C24.367 19.9192 23.3166 20.9243 21.3831 20.9243C19.4491 20.9243 18.3991 19.9192 16.9342 19.6536C13.1037 18.9593 9.99109 19.0232 7.95632 19.1813C6.22523 19.3156 3.71427 19.6609 3.80127 20.5802C3.85116 21.1078 3.90256 21.2218 4.00384 21.7408C4.10379 22.2554 4.86166 22.1904 5.12117 22.799C5.4 23.4527 6.17719 26.267 6.3759 26.9027C6.77566 28.1809 7.60442 29.1404 8.88434 29.5815C10.6982 30.2072 12.5459 30.1939 14.4206 29.9327C15.7894 29.7418 16.9122 29.0601 17.8169 28.0092C18.5338 27.1763 19.0441 26.2251 19.4568 25.2135C19.6616 24.7114 19.8357 24.1876 20.1112 23.7269C20.2741 23.4544 20.5876 23.138 20.8699 23.0961C21.0596 23.0681 21.2285 23.0459 21.3826 23.0353C21.5363 23.0459 21.7057 23.0681 21.8954 23.0961C22.1782 23.1375 22.491 23.4541 22.6541 23.7269C22.9299 24.188 23.1037 24.7114 23.3083 25.2135C23.7212 26.2251 24.2313 27.1763 24.9484 28.009C25.8529 29.0601 26.9763 29.7418 28.3447 29.9327C30.2194 30.1944 32.0671 30.2072 33.881 29.5817C35.1609 29.1404 35.9895 28.1809 36.3894 26.9025C36.5884 26.2665 37.3651 23.4527 37.6445 22.799C37.9041 22.1905 38.6613 22.256 38.7618 21.7408C38.8626 21.2219 38.9138 21.1078 38.9639 20.5802C39.0519 19.6614 36.5409 19.316 34.8095 19.1813ZM18.147 23.616C18.0645 25.3819 17.3894 26.89 16.0477 28.0589C15.2895 28.7194 14.1493 28.9815 11.809 28.9815C9.44049 28.9815 8.12445 27.9751 7.81858 27.3096C7.08053 25.7035 6.79565 23.9649 7.0817 22.1933C7.25975 21.0926 7.38388 20.5013 11.0234 20.5013C15.056 20.5013 16.6596 21.2537 17.1509 21.492C17.9332 21.8716 18.1868 22.7571 18.147 23.616ZM34.9467 27.3096C34.6408 27.9751 33.3248 28.9815 30.9561 28.9815C28.6163 28.9815 27.4758 28.7196 26.7176 28.0587C25.3762 26.89 24.7013 25.3819 24.6188 23.616C24.5785 22.7576 24.8325 21.8716 25.6144 21.4925C26.1057 21.2542 27.7093 20.5016 31.7419 20.5016C35.3809 20.5016 35.505 21.0926 35.6834 22.1938C35.9696 23.9649 35.6848 25.7035 34.9467 27.3098V27.3096Z" fill="#333333"/>
<path opacity="0.5" fill-rule="evenodd" clip-rule="evenodd" d="M18.1468 23.6167C18.0645 25.3826 17.3894 26.8907 16.0477 28.0596C15.2895 28.7201 14.1493 28.9822 11.809 28.9822C9.44049 28.9822 8.12446 27.9758 7.81859 27.3103C7.08053 25.7042 6.79566 23.9656 7.08171 22.194C7.25975 21.0933 7.38388 20.502 11.0234 20.502C15.056 20.502 16.6596 21.2544 17.1509 21.4927C17.9332 21.8723 18.1868 22.7578 18.147 23.6167H18.1468ZM34.9467 27.3103C34.6408 27.9758 33.3248 28.9822 30.9561 28.9822C28.6163 28.9822 27.4758 28.7203 26.7176 28.0594C25.3762 26.8907 24.7013 25.3826 24.6188 23.6167C24.5785 22.7583 24.8325 21.8723 25.6144 21.4932C26.1057 21.2549 27.7093 20.5023 31.7419 20.5023C35.3809 20.5023 35.505 21.0933 35.6834 22.1945C35.9697 23.9656 35.6848 25.7042 34.9467 27.3105V27.3103Z" fill="white"/>
<path fill-rule="evenodd" clip-rule="evenodd" d="M22.9395 23.9067C22.9394 23.9741 22.9261 24.0409 22.9004 24.1032C22.8747 24.1656 22.837 24.2222 22.7895 24.2698C22.7421 24.3175 22.6857 24.3553 22.6238 24.381C22.5618 24.4068 22.4954 24.42 22.4283 24.4199H20.4866C20.3512 24.42 20.2213 24.366 20.1255 24.2698C20.0297 24.1735 19.9758 24.0429 19.9756 23.9067V20.5691C19.9757 20.5017 19.9889 20.4349 20.0146 20.3725C20.0403 20.3102 20.078 20.2536 20.1254 20.2059C20.1729 20.1582 20.2292 20.1204 20.2912 20.0946C20.3531 20.0689 20.4196 20.0556 20.4866 20.0557H22.4283C22.4954 20.0556 22.5618 20.0688 22.6238 20.0946C22.6858 20.1204 22.7421 20.1582 22.7896 20.2059C22.8371 20.2535 22.8747 20.3102 22.9004 20.3725C22.9262 20.4348 22.9394 20.5016 22.9395 20.5691V23.9067Z" fill="white"/>
<path fill-rule="evenodd" clip-rule="evenodd" d="M32.0561 34.3019C31.0219 32.2095 29.5261 34.7746 21.3826 34.7746C13.2393 34.7746 11.7436 32.2095 10.7094 34.3019C9.59073 36.5657 16.0861 38.9109 21.3826 38.9109C26.6795 38.9109 33.1751 36.5657 32.0561 34.3019Z" fill="white"/>
<path fill-rule="evenodd" clip-rule="evenodd" d="M32.056 34.3019C31.0218 32.2095 29.526 34.7746 21.3826 34.7746V38.9111C26.6795 38.9111 33.175 36.5657 32.056 34.3021V34.3019Z" fill="#F0F0F0"/>
<path fill-rule="evenodd" clip-rule="evenodd" d="M21.3831 0C18.0983 0 15.7242 1.27538 16.0336 2.83792C16.3434 4.40011 16.9467 7.65313 21.3831 7.65313C25.8195 7.65313 26.4228 4.40011 26.7326 2.83792C27.042 1.27538 24.6679 0 21.3831 0Z" fill="#666666"/>
<path fill-rule="evenodd" clip-rule="evenodd" d="M21.3831 0C24.6677 0 27.042 1.27538 26.7326 2.83792C26.4232 4.40062 25.8195 7.65313 21.3831 7.65313V0Z" fill="#4D4D4D"/>
</svg>
