<svg width="27" height="25" viewBox="0 0 27 25" fill="none" xmlns="http://www.w3.org/2000/svg">
<path d="M13.9988 25C14.1727 25 14.3341 25 14.4955 24.95C15.3027 24.775 15.9732 24.225 16.2837 23.475C16.4078 23.175 16.4823 22.8375 16.4823 22.5H11.5153C11.5153 23.163 11.777 23.7989 12.2427 24.2678C12.7085 24.7366 13.3402 25 13.9988 25ZM22.0702 10.625C22.0702 6.7875 19.4129 3.575 15.8615 2.725V1.875C15.8615 1.37772 15.6652 0.900806 15.3159 0.549175C14.9666 0.197544 14.4928 0 13.9988 0C13.5048 0 13.0311 0.197544 12.6818 0.549175C12.3324 0.900806 12.1362 1.37772 12.1362 1.875V2.725C8.57237 3.575 5.92743 6.7875 5.92743 10.625V17.5L3.44393 20V21.25H24.5537V20L22.0702 17.5V10.625ZM24.5165 10H27C26.8137 5.9875 24.8518 2.4625 21.884 0.1875L20.1083 1.975C22.6414 3.75 24.3302 6.6875 24.5165 10ZM7.88941 1.975L6.1137 0.1875C3.14591 2.4625 1.18393 5.9875 0.960419 10H3.44393C3.66744 6.6875 5.35623 3.75 7.88941 1.975Z" fill="white"/>
</svg>
