<svg width="32" height="25" viewBox="0 0 32 25" fill="none" xmlns="http://www.w3.org/2000/svg">
    <path d="M18.9989 25C19.1727 25 19.3341 25 19.4956 24.95C20.3027 24.775 20.9733 24.225 21.2837 23.475C21.4079 23.175 21.4824 22.8375 21.4824 22.5H16.5154C16.5154 23.163 16.777 23.7989 17.2428 24.2678C17.7085 24.7366 18.3402 25 18.9989 25ZM27.0703 10.625C27.0703 6.7875 24.4129 3.575 20.8615 2.725V1.875C20.8615 1.37772 20.6653 0.900806 20.3159 0.549175C19.9666 0.197544 19.4929 0 18.9989 0C18.5049 0 18.0311 0.197544 17.6818 0.549175C17.3325 0.900806 17.1362 1.37772 17.1362 1.875V2.725C13.5724 3.575 10.9275 6.7875 10.9275 10.625V17.5L8.44396 20V21.25H29.5538V20L27.0703 17.5V10.625ZM29.5165 10H32C31.8138 5.9875 29.8518 2.4625 26.884 0.1875L25.1083 1.975C27.6415 3.75 29.3303 6.6875 29.5165 10ZM12.8894 1.975L11.1137 0.1875C8.14594 2.4625 6.18396 5.9875 5.96045 10H8.44396C8.66747 6.6875 10.3563 3.75 12.8894 1.975Z" fill="white"/>
    <ellipse cx="7.45052" cy="9.5" rx="7.45052" ry="7.5" fill="#F7C243"/>
    <path d="M4.07222 14H5.75222V10.436C5.75222 9.416 5.62022 8.3 5.53622 7.34H5.59622L6.49622 9.248L9.06422 14H10.8642V5.108H9.18422V8.66C9.18422 9.668 9.32823 10.844 9.41222 11.768H9.35222L8.46422 9.848L5.88422 5.108H4.07222V14Z" fill="white"/>
</svg>
