<svg width="27" height="25" viewBox="0 0 27 25" fill="none" xmlns="http://www.w3.org/2000/svg">
<path d="M13.125 25C13.3 25 13.4625 25 13.625 24.95C14.4375 24.775 15.1125 24.225 15.425 23.475C15.55 23.175 15.625 22.8375 15.625 22.5H10.625C10.625 23.163 10.8884 23.7989 11.3572 24.2678C11.8261 24.7366 12.462 25 13.125 25ZM21.25 10.625C21.25 6.7875 18.575 3.575 15 2.725V1.875C15 1.37772 14.8025 0.900806 14.4508 0.549175C14.0992 0.197544 13.6223 0 13.125 0C12.6277 0 12.1508 0.197544 11.7992 0.549175C11.4475 0.900806 11.25 1.37772 11.25 1.875V2.725C7.6625 3.575 5 6.7875 5 10.625V17.5L2.5 20V21.25H23.75V20L21.25 17.5V10.625ZM23.7125 10H26.2125C26.025 5.9875 24.05 2.4625 21.0625 0.1875L19.275 1.975C21.825 3.75 23.525 6.6875 23.7125 10ZM6.975 1.975L5.1875 0.1875C2.2 2.4625 0.225 5.9875 0 10H2.5C2.725 6.6875 4.425 3.75 6.975 1.975Z" fill="#A0AEC0"/>
</svg>
