<svg width="60" height="19" viewBox="0 0 60 19" fill="none" xmlns="http://www.w3.org/2000/svg">
<g clip-path="url(#clip0)">
<path d="M17.273 7.71402H11.291V1.73199C11.291 -0.574727 7.71364 -0.574727 7.71364 1.73199V7.71402H1.73161C-0.574517 7.71402 -0.574517 11.2914 1.73161 11.2914H7.71364V17.2734C7.71364 19.5801 11.291 19.5801 11.291 17.2734V11.2914H17.273C19.5794 11.2914 19.5794 7.71402 17.273 7.71402Z" fill="#F7C243"/>
</g>
<g clip-path="url(#clip1)">
<path d="M37.364 7.71402H31.6968V1.73199C31.6968 -0.574727 28.3078 -0.574727 28.3078 1.73199V7.71402H22.6406C20.4558 7.71402 20.4558 11.2914 22.6406 11.2914H28.3078V17.2734C28.3078 19.5801 31.6968 19.5801 31.6968 17.2734V11.2914H37.364C39.549 11.2914 39.549 7.71402 37.364 7.71402Z" fill="#F7C243"/>
</g>
<g clip-path="url(#clip2)">
<path d="M58.273 7.71402H52.291V1.73199C52.291 -0.574727 48.7136 -0.574727 48.7136 1.73199V7.71402H42.7316C40.4255 7.71402 40.4255 11.2914 42.7316 11.2914H48.7136V17.2734C48.7136 19.5801 52.291 19.5801 52.291 17.2734V11.2914H58.273C60.5794 11.2914 60.5794 7.71402 58.273 7.71402Z" fill="#F7C243"/>
</g>
<defs>
<clipPath id="clip0">
<rect width="19" height="19" fill="white"/>
</clipPath>
<clipPath id="clip1">
<rect width="18" height="19" fill="white" transform="translate(21)"/>
</clipPath>
<clipPath id="clip2">
<rect width="19" height="19" fill="white" transform="translate(41)"/>
</clipPath>
</defs>
</svg>
