<svg width="14" height="18" viewBox="0 0 14 18" fill="none" xmlns="http://www.w3.org/2000/svg">
<path fill-rule="evenodd" clip-rule="evenodd" d="M12.2222 13.2C12.2222 11.2778 12.2222 6.22221 12.2222 6.22221C12.1888 5.35555 11.8444 4.58888 11.1777 3.93332C10.511 3.27777 9.75549 2.92221 8.88882 2.88888C8.88882 2.88888 7.75549 2.88888 7.77771 2.88888V0.666656L4.44438 3.99999L7.77771 7.33332V5.1111H8.88882C9.18882 5.13332 9.42215 5.23332 9.65549 5.45554C9.88882 5.67777 9.98882 5.92221 9.99993 6.22221V13.2C9.34437 13.5778 8.88882 14.2889 8.88882 15.1111C8.88882 16.3444 9.87771 17.3333 11.111 17.3333C12.3444 17.3333 13.3333 16.3444 13.3333 15.1111C13.3333 14.3 12.8777 13.5778 12.2222 13.2ZM11.1112 16.4445C10.3778 16.4445 9.77783 15.8334 9.77783 15.1112C9.77783 14.3889 10.3889 13.7778 11.1112 13.7778C11.8334 13.7778 12.4445 14.3889 12.4445 15.1112C12.4445 15.8334 11.8334 16.4445 11.1112 16.4445ZM4.44444 3.99992C4.44444 2.76659 3.45556 1.7777 2.22222 1.7777C0.988889 1.7777 0 2.76659 0 3.99992C0 4.81103 0.455556 5.53326 1.11111 5.91103C1.11111 7.63326 1.11111 12.0888 1.11111 13.1999C0.455556 13.5777 0 14.2888 0 15.111C0 16.3444 0.988889 17.3333 2.22222 17.3333C3.45556 17.3333 4.44444 16.3444 4.44444 15.111C4.44444 14.2999 3.98889 13.5777 3.33333 13.1999V5.91103C3.98889 5.53326 4.44444 4.82214 4.44444 3.99992ZM3.55554 15.1112C3.55554 15.8445 2.94443 16.4445 2.22221 16.4445C1.49999 16.4445 0.888875 15.8334 0.888875 15.1112C0.888875 14.3889 1.49999 13.7778 2.22221 13.7778C2.94443 13.7778 3.55554 14.3889 3.55554 15.1112ZM2.22221 5.33304C1.48888 5.33304 0.888875 4.72193 0.888875 3.99971C0.888875 3.27748 1.49999 2.66637 2.22221 2.66637C2.94443 2.66637 3.55554 3.27748 3.55554 3.99971C3.55554 4.72193 2.94443 5.33304 2.22221 5.33304Z" fill="white"/>
</svg>
