<svg width="86" height="37" viewBox="0 0 86 37" fill="none" xmlns="http://www.w3.org/2000/svg">
<path d="M70.5 19.0004C75.3922 19.0004 79.3571 15.0355 79.3571 10.1433C79.3571 5.25109 75.3922 1.28613 70.5 1.28613C65.6078 1.28613 61.6429 5.25109 61.6429 10.1433C61.6429 15.0355 65.6078 19.0004 70.5 19.0004ZM77.129 21.2562L73.8214 34.5004L71.6071 25.0897L73.8214 21.2147H67.1786L69.3929 25.0897L67.1786 34.5004L63.871 21.2562C58.9373 21.4915 55 25.5256 55 30.5147V33.3933C55 35.227 56.4877 36.7147 58.3214 36.7147H82.6786C84.5123 36.7147 86 35.227 86 33.3933V30.5147C86 25.5256 82.0627 21.4915 77.129 21.2562Z" fill="#667EEA"/>
<path d="M15.5 18.2861C20.3922 18.2861 24.3571 14.2572 24.3571 9.28613C24.3571 4.31504 20.3922 0.286133 15.5 0.286133C10.6078 0.286133 6.64286 4.31504 6.64286 9.28613C6.64286 14.2572 10.6078 18.2861 15.5 18.2861ZM21.7 20.5361H20.5444C19.0083 21.2533 17.2991 21.6611 15.5 21.6611C13.7009 21.6611 11.9987 21.2533 10.4556 20.5361H9.3C4.16562 20.5361 0 24.7689 0 29.9861V32.9111C0 34.7744 1.48772 36.2861 3.32143 36.2861H27.6786C29.5123 36.2861 31 34.7744 31 32.9111V29.9861C31 24.7689 26.8344 20.5361 21.7 20.5361Z" fill="#667EEA"/>
<path d="M47 20.2861C46.2 20.2861 45.6 20.5861 45 21.0861L41.8 19.2861C41.9 18.9861 42 18.5861 42 18.2861C42 17.9861 41.9 17.5861 41.8 17.2861L45 15.4861C45.6 15.9861 46.2 16.2861 47 16.2861C48.7 16.2861 50 14.9861 50 13.2861C50 11.5861 48.7 10.2861 47 10.2861C45.3 10.2861 44 11.5861 44 13.2861V13.7861L40.5 15.6861C40.1 15.4861 39.6 15.2861 39 15.2861C37.4 15.2861 36 16.5861 36 18.2861C36 19.8861 37.4 21.2861 39 21.2861C39.6 21.2861 40.1 21.0861 40.5 20.8861L44 22.7861V23.2861C44 24.9861 45.3 26.2861 47 26.2861C48.7 26.2861 50 24.9861 50 23.2861C50 21.5861 48.7 20.2861 47 20.2861Z" fill="#4A5568"/>
</svg>
