<svg width="46" height="31" viewBox="0 0 46 31" fill="none" xmlns="http://www.w3.org/2000/svg">
<path d="M7.25 13.2857C9.73203 13.2857 11.75 11.2998 11.75 8.85714C11.75 6.41451 9.73203 4.42857 7.25 4.42857C4.76797 4.42857 2.75 6.41451 2.75 8.85714C2.75 11.2998 4.76797 13.2857 7.25 13.2857ZM38.75 13.2857C41.232 13.2857 43.25 11.2998 43.25 8.85714C43.25 6.41451 41.232 4.42857 38.75 4.42857C36.268 4.42857 34.25 6.41451 34.25 8.85714C34.25 11.2998 36.268 13.2857 38.75 13.2857ZM41 15.5H36.5C35.2625 15.5 34.1445 15.9913 33.3289 16.7871C36.1625 18.3163 38.1734 21.0772 38.6094 24.3571H43.25C44.4945 24.3571 45.5 23.3676 45.5 22.1429V19.9286C45.5 17.4859 43.482 15.5 41 15.5ZM23 15.5C27.3523 15.5 30.875 12.0333 30.875 7.75C30.875 3.46674 27.3523 0 23 0C18.6477 0 15.125 3.46674 15.125 7.75C15.125 12.0333 18.6477 15.5 23 15.5ZM28.4 17.7143H27.8164C26.3539 18.4062 24.7297 18.8214 23 18.8214C21.2703 18.8214 19.6531 18.4062 18.1836 17.7143H17.6C13.1281 17.7143 9.5 21.2848 9.5 25.6857V27.6786C9.5 29.5123 11.0117 31 12.875 31H33.125C34.9883 31 36.5 29.5123 36.5 27.6786V25.6857C36.5 21.2848 32.8719 17.7143 28.4 17.7143ZM12.6711 16.7871C11.8555 15.9913 10.7375 15.5 9.5 15.5H5C2.51797 15.5 0.5 17.4859 0.5 19.9286V22.1429C0.5 23.3676 1.50547 24.3571 2.75 24.3571H7.38359C7.82656 21.0772 9.8375 18.3163 12.6711 16.7871Z" fill="#667EEA"/>
</svg>
