<svg width="17" height="12" viewBox="0 0 17 12" fill="none" xmlns="http://www.w3.org/2000/svg">
<path d="M13.9091 3L10.8182 6H13.1364C13.1364 7.19347 12.6479 8.33807 11.7784 9.18198C10.9089 10.0259 9.72964 10.5 8.5 10.5C7.72727 10.5 6.97773 10.3125 6.33636 9.975L5.20818 11.07C6.15864 11.655 7.28682 12 8.5 12C10.1395 12 11.7119 11.3679 12.8712 10.2426C14.0305 9.11742 14.6818 7.5913 14.6818 6H17L13.9091 3ZM3.86364 6C3.86364 4.80653 4.35211 3.66193 5.2216 2.81802C6.09108 1.97411 7.27036 1.5 8.5 1.5C9.27273 1.5 10.0223 1.6875 10.6636 2.025L11.7918 0.93C10.8414 0.345 9.71318 0 8.5 0C6.86048 0 5.28811 0.632141 4.12879 1.75736C2.96948 2.88258 2.31818 4.4087 2.31818 6H0L3.09091 9L6.18182 6" fill="white"/>
</svg>
