<svg width="12" height="15" viewBox="0 0 12 15" fill="none" xmlns="http://www.w3.org/2000/svg">
<path d="M1.5 0H10.5C10.8978 0 11.2794 0.158035 11.5607 0.43934C11.842 0.720644 12 1.10218 12 1.5V13.5C12 13.8978 11.842 14.2794 11.5607 14.5607C11.2794 14.842 10.8978 15 10.5 15H1.5C1.10218 15 0.720644 14.842 0.43934 14.5607C0.158035 14.2794 0 13.8978 0 13.5V1.5C0 1.10218 0.158035 0.720644 0.43934 0.43934C0.720644 0.158035 1.10218 0 1.5 0ZM6.5625 8.625C8.625 8.625 9.18 7.1025 9.3225 6.3C10.005 6.0825 10.5 5.445 10.5 4.6875C10.5 3.75 9.75 3 8.8125 3C7.875 3 7.125 3.75 7.125 4.6875C7.125 5.3925 7.5525 6 8.1675 6.2475C8.0025 6.75 7.5 7.5 6 7.5C4.965 7.5 4.245 7.7625 3.75 8.13V5.1525C4.4025 4.92 4.875 4.2975 4.875 3.5625C4.875 2.625 4.125 1.875 3.1875 1.875C2.25 1.875 1.5 2.625 1.5 3.5625C1.5 4.2975 1.9725 4.92 2.625 5.1525V9.8475C1.9725 10.08 1.5 10.7025 1.5 11.4375C1.5 12.375 2.25 13.125 3.1875 13.125C4.125 13.125 4.875 12.375 4.875 11.4375C4.875 10.74 4.455 10.125 3.8475 9.885C4.0575 9.375 4.6725 8.625 6.5625 8.625ZM3.1875 10.875C3.33668 10.875 3.47976 10.9343 3.58525 11.0398C3.69074 11.1452 3.75 11.2883 3.75 11.4375C3.75 11.5867 3.69074 11.7298 3.58525 11.8352C3.47976 11.9407 3.33668 12 3.1875 12C3.03832 12 2.89524 11.9407 2.78975 11.8352C2.68426 11.7298 2.625 11.5867 2.625 11.4375C2.625 11.2883 2.68426 11.1452 2.78975 11.0398C2.89524 10.9343 3.03832 10.875 3.1875 10.875ZM3.1875 3C3.33668 3 3.47976 3.05926 3.58525 3.16475C3.69074 3.27024 3.75 3.41332 3.75 3.5625C3.75 3.71168 3.69074 3.85476 3.58525 3.96025C3.47976 4.06574 3.33668 4.125 3.1875 4.125C3.03832 4.125 2.89524 4.06574 2.78975 3.96025C2.68426 3.85476 2.625 3.71168 2.625 3.5625C2.625 3.41332 2.68426 3.27024 2.78975 3.16475C2.89524 3.05926 3.03832 3 3.1875 3ZM8.8125 4.125C8.96168 4.125 9.10476 4.18426 9.21025 4.28975C9.31574 4.39524 9.375 4.53832 9.375 4.6875C9.375 4.83668 9.31574 4.97976 9.21025 5.08525C9.10476 5.19074 8.96168 5.25 8.8125 5.25C8.66332 5.25 8.52024 5.19074 8.41475 5.08525C8.30926 4.97976 8.25 4.83668 8.25 4.6875C8.25 4.53832 8.30926 4.39524 8.41475 4.28975C8.52024 4.18426 8.66332 4.125 8.8125 4.125Z" fill="#2E76DF"/>
</svg>
