<svg width="18" height="12" viewBox="0 0 18 12" fill="none" xmlns="http://www.w3.org/2000/svg">
<path d="M9.03212 8.8307L14.139 5.16263C14.2593 5.09155 14.359 4.99034 14.4282 4.86899C14.4975 4.74763 14.5339 4.61032 14.5339 4.4706C14.5339 4.33088 14.4975 4.19357 14.4282 4.07222C14.359 3.95087 14.2593 3.84966 14.139 3.77858L9.03212 0.110501C8.91038 0.0388972 8.77186 0.000777536 8.63063 1.17693e-05C8.4894 -0.000753998 8.35048 0.0358613 8.22797 0.106141C8.10546 0.176421 8.00373 0.277864 7.9331 0.40017C7.86247 0.522477 7.82546 0.661293 7.82582 0.802528V2.23465C6.14886 2.23465 1.11797 2.23465 0 11.1785C2.79494 6.14757 7.82582 6.70655 7.82582 6.70655V8.13868C7.82582 8.76474 8.50332 9.14262 9.03212 8.83182V8.8307Z" fill="#718096"/>
<path fill-rule="evenodd" clip-rule="evenodd" d="M12.15 0.326304C12.1936 0.267063 12.2484 0.216994 12.3113 0.178966C12.3742 0.140938 12.444 0.115698 12.5167 0.104689C12.5894 0.0936814 12.6636 0.0971225 12.7349 0.114816C12.8063 0.132509 12.8735 0.164106 12.9326 0.207798L17.3967 3.49464C17.5813 3.60987 17.7335 3.77019 17.8391 3.96049C17.9446 4.15079 18 4.36482 18 4.58243C18 4.80005 17.9446 5.01408 17.8391 5.20438C17.7335 5.39468 17.5813 5.55499 17.3967 5.67022L12.9315 8.95707C12.812 9.04182 12.664 9.07626 12.5193 9.05299C12.3747 9.02972 12.245 8.95059 12.1581 8.83263C12.0712 8.71468 12.0341 8.56732 12.0547 8.42228C12.0754 8.27724 12.1522 8.14611 12.2685 8.0571L16.7538 4.7546C16.7689 4.74337 16.7846 4.73292 16.8008 4.7233C16.8251 4.70869 16.8452 4.68804 16.8592 4.66336C16.8731 4.63867 16.8805 4.61079 16.8805 4.58243C16.8805 4.55407 16.8731 4.5262 16.8592 4.50151C16.8452 4.47683 16.8251 4.45618 16.8008 4.44157C16.7846 4.43194 16.7689 4.42149 16.7538 4.41027L12.2685 1.10777C12.1492 1.01984 12.0697 0.888119 12.0475 0.741573C12.0252 0.595028 12.0621 0.445656 12.15 0.326304Z" fill="#718096"/>
</svg>
