<svg width="491" height="47" viewBox="0 0 491 47" fill="none" xmlns="http://www.w3.org/2000/svg">
<rect x="0.5" y="0.5" width="490" height="46" rx="23" fill="url(#paint0_linear)" stroke="#E2E8F0"/>
<path d="M76.9171 29H78.8771L80.2351 23.274C80.4031 22.462 80.5711 21.692 80.7251 20.908H80.7811C80.9211 21.692 81.0751 22.462 81.2571 23.274L82.6431 29H84.6451L86.6751 18.682H85.1211L84.1411 24.058C83.9731 25.136 83.7911 26.242 83.6231 27.362H83.5531C83.3151 26.242 83.0911 25.136 82.8531 24.058L81.5231 18.682H80.0811L78.7511 24.058C78.5131 25.15 78.2751 26.256 78.0511 27.362H77.9951C77.8131 26.256 77.6311 25.15 77.4491 24.058L76.4831 18.682H74.8171L76.9171 29ZM88.2229 29H89.8329V23.54C90.5049 22.854 90.9949 22.49 91.7089 22.49C92.6189 22.49 93.0109 23.022 93.0109 24.352V29H94.6209V24.156C94.6209 22.196 93.8929 21.104 92.2549 21.104C91.2049 21.104 90.4349 21.678 89.7629 22.322L89.8329 20.796V17.842H88.2229V29ZM98.7382 29.182C99.6622 29.182 100.488 28.72 101.188 28.118H101.244L101.37 29H102.686V24.366C102.686 22.322 101.804 21.104 99.8862 21.104C98.6542 21.104 97.5762 21.608 96.7782 22.112L97.3802 23.204C98.0382 22.784 98.7942 22.42 99.6062 22.42C100.74 22.42 101.062 23.204 101.076 24.1C97.8702 24.45 96.4702 25.304 96.4702 26.956C96.4702 28.314 97.4082 29.182 98.7382 29.182ZM99.2282 27.908C98.5422 27.908 98.0242 27.6 98.0242 26.844C98.0242 25.976 98.7942 25.388 101.076 25.122V27.012C100.446 27.586 99.9002 27.908 99.2282 27.908ZM107.329 29.182C107.889 29.182 108.407 29.042 108.841 28.902L108.547 27.712C108.323 27.81 107.987 27.894 107.721 27.894C106.923 27.894 106.601 27.418 106.601 26.494V22.588H108.603V21.3H106.601V19.172H105.257L105.075 21.3L103.871 21.384V22.588H104.991V26.48C104.991 28.104 105.593 29.182 107.329 29.182ZM116.57 29.182C117.452 29.182 118.362 28.86 119.076 28.23L118.404 27.166C117.942 27.558 117.368 27.866 116.724 27.866C115.45 27.866 114.554 26.788 114.554 25.15C114.554 23.526 115.478 22.434 116.78 22.434C117.298 22.434 117.732 22.658 118.152 23.036L118.95 21.986C118.39 21.496 117.676 21.104 116.696 21.104C114.666 21.104 112.888 22.588 112.888 25.15C112.888 27.712 114.484 29.182 116.57 29.182ZM123.377 29.182C125.281 29.182 127.003 27.712 127.003 25.15C127.003 22.588 125.281 21.104 123.377 21.104C121.473 21.104 119.751 22.588 119.751 25.15C119.751 27.712 121.473 29.182 123.377 29.182ZM123.377 27.866C122.173 27.866 121.417 26.788 121.417 25.15C121.417 23.526 122.173 22.434 123.377 22.434C124.595 22.434 125.351 23.526 125.351 25.15C125.351 26.788 124.595 27.866 123.377 27.866ZM131.557 29.182C132.425 29.182 133.223 28.72 133.797 28.132H133.853L133.979 29H135.295V17.842H133.685V20.698L133.755 21.972C133.125 21.44 132.565 21.104 131.683 21.104C129.961 21.104 128.379 22.658 128.379 25.15C128.379 27.712 129.625 29.182 131.557 29.182ZM131.935 27.852C130.731 27.852 130.045 26.886 130.045 25.136C130.045 23.47 130.913 22.448 131.991 22.448C132.565 22.448 133.111 22.63 133.685 23.148V26.914C133.125 27.558 132.579 27.852 131.935 27.852ZM140.921 29.182C141.929 29.182 142.811 28.846 143.525 28.37L142.965 27.348C142.405 27.712 141.817 27.922 141.131 27.922C139.801 27.922 138.877 27.04 138.751 25.57H143.749C143.791 25.374 143.833 25.066 143.833 24.744C143.833 22.574 142.727 21.104 140.683 21.104C138.891 21.104 137.169 22.658 137.169 25.15C137.169 27.698 138.835 29.182 140.921 29.182ZM138.737 24.45C138.891 23.106 139.745 22.364 140.711 22.364C141.831 22.364 142.433 23.134 142.433 24.45H138.737ZM150.596 29.182C151.52 29.182 152.346 28.72 153.046 28.118H153.102L153.228 29H154.544V24.366C154.544 22.322 153.662 21.104 151.744 21.104C150.512 21.104 149.434 21.608 148.636 22.112L149.238 23.204C149.896 22.784 150.652 22.42 151.464 22.42C152.598 22.42 152.92 23.204 152.934 24.1C149.728 24.45 148.328 25.304 148.328 26.956C148.328 28.314 149.266 29.182 150.596 29.182ZM151.086 27.908C150.4 27.908 149.882 27.6 149.882 26.844C149.882 25.976 150.652 25.388 152.934 25.122V27.012C152.304 27.586 151.758 27.908 151.086 27.908ZM156.828 29H158.438V24.198C158.914 22.98 159.67 22.546 160.3 22.546C160.608 22.546 160.804 22.588 161.07 22.672L161.364 21.272C161.126 21.16 160.874 21.104 160.496 21.104C159.67 21.104 158.858 21.692 158.312 22.686H158.27L158.144 21.3H156.828V29ZM165.612 29.182C166.62 29.182 167.502 28.846 168.216 28.37L167.656 27.348C167.096 27.712 166.508 27.922 165.822 27.922C164.492 27.922 163.568 27.04 163.442 25.57H168.44C168.482 25.374 168.524 25.066 168.524 24.744C168.524 22.574 167.418 21.104 165.374 21.104C163.582 21.104 161.86 22.658 161.86 25.15C161.86 27.698 163.526 29.182 165.612 29.182ZM163.428 24.45C163.582 23.106 164.436 22.364 165.402 22.364C166.522 22.364 167.124 23.134 167.124 24.45H163.428ZM173.817 32.22C175.441 32.22 176.253 31.114 176.855 29.462L179.683 21.3H178.115L176.883 25.262C176.687 25.962 176.477 26.732 176.281 27.432H176.211C175.973 26.718 175.735 25.948 175.511 25.262L174.083 21.3H172.431L175.483 28.944L175.329 29.476C175.049 30.302 174.559 30.918 173.719 30.918C173.523 30.918 173.299 30.848 173.159 30.806L172.851 32.066C173.117 32.164 173.425 32.22 173.817 32.22ZM184.08 29.182C185.984 29.182 187.706 27.712 187.706 25.15C187.706 22.588 185.984 21.104 184.08 21.104C182.176 21.104 180.454 22.588 180.454 25.15C180.454 27.712 182.176 29.182 184.08 29.182ZM184.08 27.866C182.876 27.866 182.12 26.788 182.12 25.15C182.12 23.526 182.876 22.434 184.08 22.434C185.298 22.434 186.054 23.526 186.054 25.15C186.054 26.788 185.298 27.866 184.08 27.866ZM191.868 29.182C192.918 29.182 193.674 28.65 194.374 27.838H194.416L194.542 29H195.858V21.3H194.248V26.648C193.604 27.46 193.114 27.796 192.4 27.796C191.49 27.796 191.112 27.264 191.112 25.948V21.3H189.502V26.144C189.502 28.104 190.216 29.182 191.868 29.182ZM203.022 29.182C203.428 29.182 203.694 29.126 203.89 29.056L203.68 27.838C203.54 27.866 203.484 27.866 203.414 27.866C203.218 27.866 203.036 27.712 203.036 27.278V17.842H201.426V27.194C201.426 28.44 201.86 29.182 203.022 29.182ZM208.676 29.182C210.58 29.182 212.302 27.712 212.302 25.15C212.302 22.588 210.58 21.104 208.676 21.104C206.772 21.104 205.05 22.588 205.05 25.15C205.05 27.712 206.772 29.182 208.676 29.182ZM208.676 27.866C207.472 27.866 206.716 26.788 206.716 25.15C206.716 23.526 207.472 22.434 208.676 22.434C209.894 22.434 210.65 23.526 210.65 25.15C210.65 26.788 209.894 27.866 208.676 27.866ZM217.276 29.182C219.18 29.182 220.902 27.712 220.902 25.15C220.902 22.588 219.18 21.104 217.276 21.104C215.372 21.104 213.65 22.588 213.65 25.15C213.65 27.712 215.372 29.182 217.276 29.182ZM217.276 27.866C216.072 27.866 215.316 26.788 215.316 25.15C215.316 23.526 216.072 22.434 217.276 22.434C218.494 22.434 219.25 23.526 219.25 25.15C219.25 26.788 218.494 27.866 217.276 27.866ZM222.795 29H224.377V26.998L225.665 25.514L227.751 29H229.501L226.603 24.436L229.207 21.3H227.415L224.433 25.024H224.377V17.842H222.795V29ZM230.848 29H232.458V21.3H230.848V29ZM231.646 19.858C232.234 19.858 232.654 19.48 232.654 18.892C232.654 18.318 232.234 17.94 231.646 17.94C231.058 17.94 230.652 18.318 230.652 18.892C230.652 19.48 231.058 19.858 231.646 19.858ZM234.867 29H236.477V23.54C237.149 22.854 237.639 22.49 238.353 22.49C239.263 22.49 239.655 23.022 239.655 24.352V29H241.265V24.156C241.265 22.196 240.537 21.104 238.899 21.104C237.849 21.104 237.065 21.678 236.351 22.364H236.309L236.183 21.3H234.867V29ZM246.236 32.458C248.7 32.458 250.268 31.254 250.268 29.77C250.268 28.454 249.316 27.894 247.496 27.894H246.082C245.102 27.894 244.794 27.6 244.794 27.138C244.794 26.76 244.962 26.55 245.214 26.326C245.55 26.48 245.942 26.564 246.292 26.564C247.902 26.564 249.176 25.598 249.176 23.918C249.176 23.33 248.966 22.812 248.672 22.504H250.142V21.3H247.412C247.118 21.188 246.726 21.104 246.292 21.104C244.696 21.104 243.31 22.126 243.31 23.862C243.31 24.786 243.8 25.514 244.332 25.92V25.976C243.898 26.284 243.464 26.802 243.464 27.404C243.464 28.034 243.772 28.44 244.164 28.678V28.748C243.45 29.182 243.044 29.784 243.044 30.428C243.044 31.772 244.388 32.458 246.236 32.458ZM246.292 25.528C245.494 25.528 244.836 24.898 244.836 23.862C244.836 22.826 245.48 22.238 246.292 22.238C247.104 22.238 247.748 22.84 247.748 23.862C247.748 24.898 247.09 25.528 246.292 25.528ZM246.474 31.394C245.2 31.394 244.416 30.946 244.416 30.19C244.416 29.798 244.612 29.406 245.074 29.07C245.396 29.14 245.746 29.182 246.11 29.182H247.272C248.21 29.182 248.714 29.378 248.714 30.022C248.714 30.736 247.818 31.394 246.474 31.394ZM255.108 29H256.718V22.588H258.272V21.3H256.718V20.32C256.718 19.382 257.054 18.934 257.74 18.934C258.006 18.934 258.3 19.004 258.58 19.13L258.902 17.912C258.552 17.772 258.062 17.66 257.544 17.66C255.822 17.66 255.108 18.752 255.108 20.334V21.3L254.058 21.384V22.588H255.108V29ZM262.598 29.182C264.502 29.182 266.224 27.712 266.224 25.15C266.224 22.588 264.502 21.104 262.598 21.104C260.694 21.104 258.972 22.588 258.972 25.15C258.972 27.712 260.694 29.182 262.598 29.182ZM262.598 27.866C261.394 27.866 260.638 26.788 260.638 25.15C260.638 23.526 261.394 22.434 262.598 22.434C263.816 22.434 264.572 23.526 264.572 25.15C264.572 26.788 263.816 27.866 262.598 27.866ZM268.117 29H269.727V24.198C270.203 22.98 270.959 22.546 271.589 22.546C271.897 22.546 272.093 22.588 272.359 22.672L272.653 21.272C272.415 21.16 272.163 21.104 271.785 21.104C270.959 21.104 270.147 21.692 269.601 22.686H269.559L269.433 21.3H268.117V29ZM275.12 25.71H276.534C276.296 23.624 278.788 22.868 278.788 20.824C278.788 19.186 277.668 18.262 276.03 18.262C274.868 18.262 273.93 18.822 273.244 19.606L274.154 20.432C274.616 19.914 275.19 19.578 275.848 19.578C276.73 19.578 277.22 20.152 277.22 20.936C277.22 22.462 274.784 23.358 275.12 25.71ZM275.848 29.182C276.45 29.182 276.926 28.72 276.926 28.062C276.926 27.39 276.45 26.914 275.848 26.914C275.232 26.914 274.77 27.39 274.77 28.062C274.77 28.72 275.232 29.182 275.848 29.182Z" fill="#A0AEC0"/>
<rect x="421" y="10" width="60" height="27" rx="13.5" fill="#CBD5E0"/>
<path d="M435.061 29.156C436.993 29.156 438.169 28.004 438.169 26.588C438.169 25.292 437.413 24.644 436.369 24.2L435.157 23.684C434.437 23.396 433.729 23.108 433.729 22.34C433.729 21.644 434.317 21.212 435.217 21.212C435.997 21.212 436.609 21.512 437.161 22.004L437.893 21.116C437.221 20.432 436.249 20 435.217 20C433.537 20 432.313 21.044 432.313 22.436C432.313 23.72 433.261 24.392 434.113 24.752L435.337 25.28C436.153 25.64 436.753 25.892 436.753 26.696C436.753 27.44 436.153 27.944 435.085 27.944C434.233 27.944 433.369 27.536 432.733 26.9L431.917 27.86C432.721 28.676 433.849 29.156 435.061 29.156ZM442.47 29.156C443.334 29.156 444.09 28.868 444.702 28.46L444.222 27.584C443.742 27.896 443.238 28.076 442.65 28.076C441.51 28.076 440.718 27.32 440.61 26.06H444.894C444.93 25.892 444.966 25.628 444.966 25.352C444.966 23.492 444.018 22.232 442.266 22.232C440.73 22.232 439.254 23.564 439.254 25.7C439.254 27.884 440.682 29.156 442.47 29.156ZM440.598 25.1C440.73 23.948 441.462 23.312 442.29 23.312C443.25 23.312 443.766 23.972 443.766 25.1H440.598ZM447.891 29.156C448.683 29.156 449.391 28.76 449.991 28.244H450.039L450.147 29H451.275V25.028C451.275 23.276 450.519 22.232 448.875 22.232C447.819 22.232 446.895 22.664 446.211 23.096L446.727 24.032C447.291 23.672 447.939 23.36 448.635 23.36C449.607 23.36 449.883 24.032 449.895 24.8C447.147 25.1 445.947 25.832 445.947 27.248C445.947 28.412 446.751 29.156 447.891 29.156ZM448.311 28.064C447.723 28.064 447.279 27.8 447.279 27.152C447.279 26.408 447.939 25.904 449.895 25.676V27.296C449.355 27.788 448.887 28.064 448.311 28.064ZM453.233 29H454.613V24.884C455.021 23.84 455.669 23.468 456.209 23.468C456.473 23.468 456.641 23.504 456.869 23.576L457.121 22.376C456.917 22.28 456.701 22.232 456.377 22.232C455.669 22.232 454.973 22.736 454.505 23.588H454.469L454.361 22.4H453.233V29ZM460.703 29.156C461.459 29.156 462.239 28.88 462.851 28.34L462.275 27.428C461.879 27.764 461.387 28.028 460.835 28.028C459.743 28.028 458.975 27.104 458.975 25.7C458.975 24.308 459.767 23.372 460.883 23.372C461.327 23.372 461.699 23.564 462.059 23.888L462.743 22.988C462.263 22.568 461.651 22.232 460.811 22.232C459.071 22.232 457.547 23.504 457.547 25.7C457.547 27.896 458.915 29.156 460.703 29.156ZM464.214 29H465.594V24.32C466.17 23.732 466.59 23.42 467.202 23.42C467.982 23.42 468.318 23.876 468.318 25.016V29H469.698V24.848C469.698 23.168 469.074 22.232 467.67 22.232C466.77 22.232 466.11 22.724 465.534 23.276L465.594 21.968V19.436H464.214V29Z" fill="white"/>
<path fill-rule="evenodd" clip-rule="evenodd" d="M43.6026 13.0798C43.7965 13.1443 43.9758 13.2464 44.1302 13.3802C44.2846 13.514 44.4112 13.6769 44.5026 13.8597C44.5941 14.0424 44.6486 14.2414 44.6631 14.4452C44.6777 14.649 44.6519 14.8537 44.5873 15.0476L38.365 33.7145C38.2346 34.1061 37.954 34.4298 37.585 34.6144C37.216 34.7991 36.7887 34.8296 36.3972 34.6992C36.0056 34.5688 35.6819 34.2883 35.4973 33.9193C35.3126 33.5502 35.2821 33.1229 35.4125 32.7314L41.6348 14.0645C41.6993 13.8706 41.8014 13.6913 41.9352 13.5369C42.069 13.3824 42.232 13.2559 42.4147 13.1644C42.5974 13.073 42.7964 13.0185 43.0002 13.0039C43.2041 12.9894 43.4087 13.0152 43.6026 13.0798ZM33.3218 18.123C33.6134 18.4147 33.7772 18.8103 33.7772 19.2228C33.7772 19.6352 33.6134 20.0308 33.3218 20.3226L29.7548 23.8895L33.3218 27.4564C33.4704 27.5999 33.5889 27.7716 33.6704 27.9614C33.7519 28.1512 33.7948 28.3553 33.7966 28.5618C33.7984 28.7684 33.7591 28.9732 33.6808 29.1644C33.6026 29.3556 33.4871 29.5293 33.3411 29.6753C33.195 29.8214 33.0213 29.9369 32.8301 30.0151C32.639 30.0933 32.4341 30.1327 32.2276 30.1309C32.021 30.1291 31.8169 30.0862 31.6271 30.0046C31.4373 29.9231 31.2657 29.8046 31.1222 29.656L26.4555 24.9893C26.1638 24.6976 26 24.302 26 23.8895C26 23.477 26.1638 23.0814 26.4555 22.7897L31.1222 18.123C31.4139 17.8313 31.8095 17.6675 32.222 17.6675C32.6345 17.6675 33.0301 17.8313 33.3218 18.123ZM46.678 18.123C46.9697 17.8313 47.3653 17.6675 47.7778 17.6675C48.1903 17.6675 48.5859 17.8313 48.8776 18.123L53.5443 22.7897C53.8359 23.0814 53.9998 23.477 53.9998 23.8895C53.9998 24.302 53.8359 24.6976 53.5443 24.9893L48.8776 29.656C48.7341 29.8046 48.5624 29.9231 48.3726 30.0046C48.1828 30.0862 47.9787 30.1291 47.7722 30.1309C47.5656 30.1327 47.3608 30.0933 47.1696 30.0151C46.9784 29.9369 46.8048 29.8214 46.6587 29.6753C46.5126 29.5293 46.3971 29.3556 46.3189 29.1644C46.2407 28.9732 46.2013 28.7684 46.2031 28.5618C46.2049 28.3553 46.2478 28.1512 46.3294 27.9614C46.4109 27.7716 46.5294 27.5999 46.678 27.4564L50.2449 23.8895L46.678 20.3226C46.3864 20.0308 46.2225 19.6352 46.2225 19.2228C46.2225 18.8103 46.3864 18.4147 46.678 18.123Z" fill="#F7C243"/>
<defs>
<linearGradient id="paint0_linear" x1="-4" y1="20.5" x2="496.5" y2="24" gradientUnits="userSpaceOnUse">
<stop stop-color="#EDF2F7"/>
<stop offset="1" stop-color="white"/>
</linearGradient>
</defs>
</svg>
