<svg width="331" height="47" viewBox="0 0 331 47" fill="none" xmlns="http://www.w3.org/2000/svg">
<rect x="0.5" y="0.5" width="330" height="46" rx="23" fill="url(#paint0_linear)" stroke="#E2E8F0"/>
<path d="M54.3497 29H55.6697L56.9777 23.696C57.1217 23 57.2777 22.364 57.4217 21.692H57.4697C57.6137 22.364 57.7457 23 57.9017 23.696L59.2337 29H60.5657L62.3897 20.192H61.3217L60.3977 24.992C60.2297 25.928 60.0617 26.876 59.8937 27.836H59.8337C59.6297 26.876 59.4257 25.928 59.2097 24.992L57.9857 20.192H56.9657L55.7537 24.992C55.5377 25.94 55.3217 26.888 55.1177 27.836H55.0697C54.9017 26.888 54.7217 25.94 54.5537 24.992L53.6297 20.192H52.4897L54.3497 29ZM63.8169 29H64.9089V24.272C65.5689 23.612 66.0249 23.276 66.6969 23.276C67.5609 23.276 67.9329 23.792 67.9329 25.016V29H69.0249V24.872C69.0249 23.204 68.4009 22.316 67.0329 22.316C66.1449 22.316 65.4729 22.808 64.8729 23.408L64.9089 22.064V19.448H63.8169V29ZM72.606 29.156C73.41 29.156 74.142 28.736 74.766 28.22H74.802L74.898 29H75.798V24.992C75.798 23.384 75.126 22.316 73.542 22.316C72.498 22.316 71.574 22.784 70.974 23.168L71.406 23.924C71.922 23.576 72.606 23.228 73.362 23.228C74.43 23.228 74.706 24.032 74.706 24.872C71.934 25.184 70.698 25.892 70.698 27.308C70.698 28.484 71.514 29.156 72.606 29.156ZM72.918 28.28C72.27 28.28 71.766 27.98 71.766 27.236C71.766 26.396 72.51 25.856 74.706 25.592V27.416C74.07 27.98 73.554 28.28 72.918 28.28ZM79.7556 29.156C80.1516 29.156 80.5836 29.036 80.9556 28.916L80.7396 28.1C80.5236 28.184 80.2236 28.268 79.9956 28.268C79.2396 28.268 78.9876 27.812 78.9876 27.008V23.372H80.7516V22.484H78.9876V20.648H78.0756L77.9436 22.484L76.9236 22.544V23.372H77.8956V26.984C77.8956 28.28 78.3636 29.156 79.7556 29.156ZM87.4786 29.156C88.2586 29.156 89.0026 28.856 89.5906 28.328L89.1106 27.596C88.7026 27.968 88.1746 28.244 87.5746 28.244C86.3746 28.244 85.5586 27.248 85.5586 25.748C85.5586 24.248 86.4226 23.228 87.6106 23.228C88.1266 23.228 88.5226 23.468 88.9066 23.804L89.4706 23.084C89.0026 22.676 88.4146 22.316 87.5626 22.316C85.8946 22.316 84.4186 23.576 84.4186 25.748C84.4186 27.908 85.7506 29.156 87.4786 29.156ZM93.2551 29.156C94.8511 29.156 96.2791 27.908 96.2791 25.748C96.2791 23.576 94.8511 22.316 93.2551 22.316C91.6591 22.316 90.2311 23.576 90.2311 25.748C90.2311 27.908 91.6591 29.156 93.2551 29.156ZM93.2551 28.244C92.1271 28.244 91.3711 27.248 91.3711 25.748C91.3711 24.248 92.1271 23.228 93.2551 23.228C94.3831 23.228 95.1511 24.248 95.1511 25.748C95.1511 27.248 94.3831 28.244 93.2551 28.244ZM100.22 29.156C101 29.156 101.684 28.736 102.2 28.232H102.236L102.332 29H103.22V19.448H102.14V21.956L102.188 23.084C101.612 22.604 101.12 22.316 100.352 22.316C98.8645 22.316 97.5325 23.636 97.5325 25.748C97.5325 27.92 98.5885 29.156 100.22 29.156ZM100.46 28.244C99.3085 28.244 98.6605 27.308 98.6605 25.736C98.6605 24.248 99.4885 23.24 100.544 23.24C101.084 23.24 101.576 23.432 102.14 23.924V27.344C101.588 27.944 101.06 28.244 100.46 28.244ZM108.07 29.156C108.958 29.156 109.654 28.856 110.23 28.484L109.834 27.764C109.354 28.088 108.838 28.28 108.202 28.28C106.966 28.28 106.114 27.392 106.042 26H110.434C110.458 25.844 110.482 25.616 110.482 25.376C110.482 23.516 109.546 22.316 107.89 22.316C106.378 22.316 104.95 23.636 104.95 25.748C104.95 27.896 106.342 29.156 108.07 29.156ZM106.03 25.208C106.162 23.936 106.978 23.192 107.902 23.192C108.922 23.192 109.522 23.9 109.522 25.208H106.03ZM116.27 29.156C117.074 29.156 117.806 28.736 118.43 28.22H118.466L118.562 29H119.462V24.992C119.462 23.384 118.79 22.316 117.206 22.316C116.162 22.316 115.238 22.784 114.638 23.168L115.07 23.924C115.586 23.576 116.27 23.228 117.026 23.228C118.094 23.228 118.37 24.032 118.37 24.872C115.598 25.184 114.362 25.892 114.362 27.308C114.362 28.484 115.178 29.156 116.27 29.156ZM116.582 28.28C115.934 28.28 115.43 27.98 115.43 27.236C115.43 26.396 116.174 25.856 118.37 25.592V27.416C117.734 27.98 117.218 28.28 116.582 28.28ZM121.543 29H122.635V24.812C123.067 23.696 123.739 23.312 124.279 23.312C124.543 23.312 124.699 23.336 124.915 23.42L125.119 22.46C124.915 22.352 124.711 22.316 124.423 22.316C123.691 22.316 123.031 22.844 122.575 23.672H122.539L122.443 22.484H121.543V29ZM128.695 29.156C129.583 29.156 130.279 28.856 130.855 28.484L130.459 27.764C129.979 28.088 129.463 28.28 128.827 28.28C127.591 28.28 126.739 27.392 126.667 26H131.059C131.083 25.844 131.107 25.616 131.107 25.376C131.107 23.516 130.171 22.316 128.515 22.316C127.003 22.316 125.575 23.636 125.575 25.748C125.575 27.896 126.967 29.156 128.695 29.156ZM126.655 25.208C126.787 23.936 127.603 23.192 128.527 23.192C129.547 23.192 130.147 23.9 130.147 25.208H126.655ZM135.503 31.808C136.799 31.808 137.483 30.824 137.927 29.54L140.387 22.484H139.319L138.155 26.108C137.975 26.684 137.783 27.344 137.603 27.932H137.543C137.339 27.344 137.111 26.672 136.919 26.108L135.587 22.484H134.447L137.063 29.012L136.919 29.504C136.655 30.308 136.187 30.908 135.443 30.908C135.275 30.908 135.083 30.848 134.951 30.8L134.735 31.676C134.939 31.76 135.191 31.808 135.503 31.808ZM144.138 29.156C145.734 29.156 147.162 27.908 147.162 25.748C147.162 23.576 145.734 22.316 144.138 22.316C142.542 22.316 141.114 23.576 141.114 25.748C141.114 27.908 142.542 29.156 144.138 29.156ZM144.138 28.244C143.01 28.244 142.254 27.248 142.254 25.748C142.254 24.248 143.01 23.228 144.138 23.228C145.266 23.228 146.034 24.248 146.034 25.748C146.034 27.248 145.266 28.244 144.138 28.244ZM150.779 29.156C151.679 29.156 152.327 28.688 152.939 27.98H152.975L153.059 29H153.971V22.484H152.879V27.104C152.255 27.884 151.787 28.208 151.115 28.208C150.251 28.208 149.891 27.692 149.891 26.48V22.484H148.799V26.612C148.799 28.268 149.411 29.156 150.779 29.156ZM160.008 29.156C160.308 29.156 160.488 29.12 160.644 29.06L160.488 28.22C160.368 28.244 160.32 28.244 160.26 28.244C160.092 28.244 159.948 28.112 159.948 27.776V19.448H158.856V27.704C158.856 28.628 159.192 29.156 160.008 29.156ZM164.81 29.156C166.406 29.156 167.834 27.908 167.834 25.748C167.834 23.576 166.406 22.316 164.81 22.316C163.214 22.316 161.786 23.576 161.786 25.748C161.786 27.908 163.214 29.156 164.81 29.156ZM164.81 28.244C163.682 28.244 162.926 27.248 162.926 25.748C162.926 24.248 163.682 23.228 164.81 23.228C165.938 23.228 166.706 24.248 166.706 25.748C166.706 27.248 165.938 28.244 164.81 28.244ZM172.087 29.156C173.683 29.156 175.111 27.908 175.111 25.748C175.111 23.576 173.683 22.316 172.087 22.316C170.491 22.316 169.063 23.576 169.063 25.748C169.063 27.908 170.491 29.156 172.087 29.156ZM172.087 28.244C170.959 28.244 170.203 27.248 170.203 25.748C170.203 24.248 170.959 23.228 172.087 23.228C173.215 23.228 173.983 24.248 173.983 25.748C173.983 27.248 173.215 28.244 172.087 28.244ZM176.833 29H177.913V27.284L179.137 25.856L181.045 29H182.233L179.773 25.112L181.945 22.484H180.721L177.949 25.928H177.913V19.448H176.833V29ZM183.454 29H184.546V22.484H183.454V29ZM184.006 21.14C184.438 21.14 184.738 20.852 184.738 20.408C184.738 19.988 184.438 19.7 184.006 19.7C183.574 19.7 183.274 19.988 183.274 20.408C183.274 20.852 183.574 21.14 184.006 21.14ZM186.758 29H187.85V24.272C188.51 23.612 188.966 23.276 189.638 23.276C190.502 23.276 190.874 23.792 190.874 25.016V29H191.966V24.872C191.966 23.204 191.342 22.316 189.974 22.316C189.086 22.316 188.414 22.808 187.79 23.42H187.754L187.658 22.484H186.758V29ZM196.29 32C198.306 32 199.59 30.956 199.59 29.744C199.59 28.676 198.822 28.196 197.31 28.196H196.038C195.162 28.196 194.898 27.908 194.898 27.488C194.898 27.128 195.078 26.912 195.318 26.708C195.606 26.852 195.966 26.936 196.29 26.936C197.61 26.936 198.666 26.06 198.666 24.668C198.666 24.104 198.45 23.624 198.138 23.324H199.47V22.484H197.202C196.974 22.4 196.65 22.316 196.29 22.316C194.97 22.316 193.842 23.216 193.842 24.644C193.842 25.424 194.262 26.048 194.694 26.396V26.444C194.358 26.684 193.962 27.116 193.962 27.656C193.962 28.172 194.214 28.52 194.562 28.724V28.772C193.95 29.168 193.602 29.696 193.602 30.248C193.602 31.376 194.694 32 196.29 32ZM196.29 26.192C195.534 26.192 194.898 25.592 194.898 24.644C194.898 23.684 195.522 23.12 196.29 23.12C197.058 23.12 197.682 23.696 197.682 24.644C197.682 25.592 197.034 26.192 196.29 26.192ZM196.446 31.256C195.27 31.256 194.562 30.8 194.562 30.104C194.562 29.72 194.754 29.336 195.222 29C195.51 29.072 195.822 29.108 196.062 29.108H197.19C198.054 29.108 198.522 29.312 198.522 29.912C198.522 30.596 197.694 31.256 196.446 31.256ZM203.72 29H204.812V23.372H206.192V22.484H204.812V21.452C204.812 20.612 205.112 20.168 205.736 20.168C205.964 20.168 206.228 20.228 206.468 20.336L206.708 19.508C206.408 19.376 206.012 19.292 205.616 19.292C204.32 19.292 203.72 20.12 203.72 21.44V22.484L202.832 22.544V23.372H203.72V29ZM209.845 29.156C211.441 29.156 212.869 27.908 212.869 25.748C212.869 23.576 211.441 22.316 209.845 22.316C208.249 22.316 206.821 23.576 206.821 25.748C206.821 27.908 208.249 29.156 209.845 29.156ZM209.845 28.244C208.717 28.244 207.961 27.248 207.961 25.748C207.961 24.248 208.717 23.228 209.845 23.228C210.973 23.228 211.741 24.248 211.741 25.748C211.741 27.248 210.973 28.244 209.845 28.244ZM214.59 29H215.682V24.812C216.114 23.696 216.786 23.312 217.326 23.312C217.59 23.312 217.746 23.336 217.962 23.42L218.166 22.46C217.962 22.352 217.758 22.316 217.47 22.316C216.738 22.316 216.078 22.844 215.622 23.672H215.586L215.49 22.484H214.59V29ZM220.275 26.348H221.247C221.031 24.464 223.191 23.756 223.191 21.992C223.191 20.684 222.303 19.856 220.947 19.856C219.975 19.856 219.207 20.324 218.655 20.96L219.279 21.536C219.699 21.056 220.227 20.768 220.827 20.768C221.679 20.768 222.123 21.344 222.123 22.064C222.123 23.492 219.999 24.26 220.275 26.348ZM220.791 29.156C221.235 29.156 221.595 28.82 221.595 28.328C221.595 27.824 221.235 27.476 220.791 27.476C220.359 27.476 219.999 27.824 219.999 28.328C219.999 28.82 220.359 29.156 220.791 29.156Z" fill="#A0AEC0"/>
<rect x="261" y="10" width="60" height="27" rx="13.5" fill="#CBD5E0"/>
<path d="M275.061 29.156C276.993 29.156 278.169 28.004 278.169 26.588C278.169 25.292 277.413 24.644 276.369 24.2L275.157 23.684C274.437 23.396 273.729 23.108 273.729 22.34C273.729 21.644 274.317 21.212 275.217 21.212C275.997 21.212 276.609 21.512 277.161 22.004L277.893 21.116C277.221 20.432 276.249 20 275.217 20C273.537 20 272.313 21.044 272.313 22.436C272.313 23.72 273.261 24.392 274.113 24.752L275.337 25.28C276.153 25.64 276.753 25.892 276.753 26.696C276.753 27.44 276.153 27.944 275.085 27.944C274.233 27.944 273.369 27.536 272.733 26.9L271.917 27.86C272.721 28.676 273.849 29.156 275.061 29.156ZM282.47 29.156C283.334 29.156 284.09 28.868 284.702 28.46L284.222 27.584C283.742 27.896 283.238 28.076 282.65 28.076C281.51 28.076 280.718 27.32 280.61 26.06H284.894C284.93 25.892 284.966 25.628 284.966 25.352C284.966 23.492 284.018 22.232 282.266 22.232C280.73 22.232 279.254 23.564 279.254 25.7C279.254 27.884 280.682 29.156 282.47 29.156ZM280.598 25.1C280.73 23.948 281.462 23.312 282.29 23.312C283.25 23.312 283.766 23.972 283.766 25.1H280.598ZM287.891 29.156C288.683 29.156 289.391 28.76 289.991 28.244H290.039L290.147 29H291.275V25.028C291.275 23.276 290.519 22.232 288.875 22.232C287.819 22.232 286.895 22.664 286.211 23.096L286.727 24.032C287.291 23.672 287.939 23.36 288.635 23.36C289.607 23.36 289.883 24.032 289.895 24.8C287.147 25.1 285.947 25.832 285.947 27.248C285.947 28.412 286.751 29.156 287.891 29.156ZM288.311 28.064C287.723 28.064 287.279 27.8 287.279 27.152C287.279 26.408 287.939 25.904 289.895 25.676V27.296C289.355 27.788 288.887 28.064 288.311 28.064ZM293.233 29H294.613V24.884C295.021 23.84 295.669 23.468 296.209 23.468C296.473 23.468 296.641 23.504 296.869 23.576L297.121 22.376C296.917 22.28 296.701 22.232 296.377 22.232C295.669 22.232 294.973 22.736 294.505 23.588H294.469L294.361 22.4H293.233V29ZM300.703 29.156C301.459 29.156 302.239 28.88 302.851 28.34L302.275 27.428C301.879 27.764 301.387 28.028 300.835 28.028C299.743 28.028 298.975 27.104 298.975 25.7C298.975 24.308 299.767 23.372 300.883 23.372C301.327 23.372 301.699 23.564 302.059 23.888L302.743 22.988C302.263 22.568 301.651 22.232 300.811 22.232C299.071 22.232 297.547 23.504 297.547 25.7C297.547 27.896 298.915 29.156 300.703 29.156ZM304.214 29H305.594V24.32C306.17 23.732 306.59 23.42 307.202 23.42C307.982 23.42 308.318 23.876 308.318 25.016V29H309.698V24.848C309.698 23.168 309.074 22.232 307.67 22.232C306.77 22.232 306.11 22.724 305.534 23.276L305.594 21.968V19.436H304.214V29Z" fill="white"/>
<path fill-rule="evenodd" clip-rule="evenodd" d="M34.6026 13.0798C34.7965 13.1443 34.9758 13.2464 35.1302 13.3802C35.2846 13.514 35.4112 13.6769 35.5026 13.8597C35.5941 14.0424 35.6486 14.2414 35.6631 14.4452C35.6777 14.649 35.6519 14.8537 35.5873 15.0476L29.365 33.7145C29.2346 34.1061 28.954 34.4298 28.585 34.6144C28.216 34.7991 27.7887 34.8296 27.3972 34.6992C27.0056 34.5688 26.6819 34.2883 26.4973 33.9193C26.3126 33.5502 26.2821 33.1229 26.4125 32.7314L32.6348 14.0645C32.6993 13.8706 32.8014 13.6913 32.9352 13.5369C33.069 13.3824 33.232 13.2559 33.4147 13.1644C33.5974 13.073 33.7964 13.0185 34.0002 13.0039C34.2041 12.9894 34.4087 13.0152 34.6026 13.0798ZM24.3218 18.123C24.6134 18.4147 24.7772 18.8103 24.7772 19.2228C24.7772 19.6352 24.6134 20.0308 24.3218 20.3226L20.7548 23.8895L24.3218 27.4564C24.4704 27.5999 24.5889 27.7716 24.6704 27.9614C24.7519 28.1512 24.7948 28.3553 24.7966 28.5618C24.7984 28.7684 24.7591 28.9732 24.6808 29.1644C24.6026 29.3556 24.4871 29.5293 24.3411 29.6753C24.195 29.8214 24.0213 29.9369 23.8301 30.0151C23.639 30.0933 23.4341 30.1327 23.2276 30.1309C23.021 30.1291 22.8169 30.0862 22.6271 30.0046C22.4373 29.9231 22.2657 29.8046 22.1222 29.656L17.4555 24.9893C17.1638 24.6976 17 24.302 17 23.8895C17 23.477 17.1638 23.0814 17.4555 22.7897L22.1222 18.123C22.4139 17.8313 22.8095 17.6675 23.222 17.6675C23.6345 17.6675 24.0301 17.8313 24.3218 18.123ZM37.678 18.123C37.9697 17.8313 38.3653 17.6675 38.7778 17.6675C39.1903 17.6675 39.5859 17.8313 39.8776 18.123L44.5443 22.7897C44.8359 23.0814 44.9998 23.477 44.9998 23.8895C44.9998 24.302 44.8359 24.6976 44.5443 24.9893L39.8776 29.656C39.7341 29.8046 39.5624 29.9231 39.3726 30.0046C39.1828 30.0862 38.9787 30.1291 38.7722 30.1309C38.5656 30.1327 38.3608 30.0933 38.1696 30.0151C37.9784 29.9369 37.8048 29.8214 37.6587 29.6753C37.5126 29.5293 37.3971 29.3556 37.3189 29.1644C37.2407 28.9732 37.2013 28.7684 37.2031 28.5618C37.2049 28.3553 37.2478 28.1512 37.3294 27.9614C37.4109 27.7716 37.5294 27.5999 37.678 27.4564L41.2449 23.8895L37.678 20.3226C37.3864 20.0308 37.2225 19.6352 37.2225 19.2228C37.2225 18.8103 37.3864 18.4147 37.678 18.123Z" fill="#F7C243"/>
<defs>
<linearGradient id="paint0_linear" x1="-2.69654" y1="20.5" x2="334.717" y2="22.0907" gradientUnits="userSpaceOnUse">
<stop stop-color="#EDF2F7"/>
<stop offset="1" stop-color="white"/>
</linearGradient>
</defs>
</svg>
