<svg width="46" height="52" viewBox="0 0 46 52" fill="none" xmlns="http://www.w3.org/2000/svg">
<path d="M11.664 32.7732L21.9484 38.655V26.885L11.6596 21.0054V32.7754L11.664 32.7732ZM7.23669 35.3036L21.9506 43.7157V51.9935L0 39.4436V14.335L7.23669 18.4729V35.3058V35.3036ZM23 13.3147L12.7178 19.2029L23 25.0869L33.2866 19.2008L23 13.3168V13.3147ZM23 8.26047L35.3745 15.3554L42.6112 11.2176L23 0L1.07785 12.5434L8.30799 16.6747L23 8.26047V8.26047ZM38.7589 35.3036V26.7507L34.336 29.2788V32.7754L24.0516 38.6572V38.668V26.8915L46 14.3415V39.4457L24.0494 52V43.7309L38.7589 35.3079V35.3036Z" fill="#81E6D9"/>
</svg>
