<svg width="16" height="15" viewBox="0 0 16 15" fill="none" xmlns="http://www.w3.org/2000/svg">
<path d="M7.05619 0.69524C7.36878 -0.19743 8.63122 -0.19743 8.94381 0.69524L10.134 4.0942C10.2717 4.48737 10.6387 4.75401 11.0552 4.76345L14.6556 4.84509C15.6012 4.86653 15.9913 6.06718 15.2389 6.64032L12.3741 8.82264C12.0427 9.07507 11.9025 9.50649 12.0222 9.9055L13.0572 13.3549C13.329 14.2608 12.3077 15.0029 11.5301 14.4644L8.56929 12.4142C8.22681 12.1771 7.77319 12.1771 7.43071 12.4142L4.46993 14.4644C3.69234 15.0029 2.67101 14.2608 2.94281 13.3549L3.97776 9.9055C4.09747 9.50649 3.95729 9.07507 3.62591 8.82264L0.761108 6.64032C0.00872517 6.06718 0.398838 4.86653 1.34441 4.84509L4.94482 4.76345C5.36129 4.75401 5.72828 4.48737 5.86596 4.0942L7.05619 0.69524Z" fill="white"/>
</svg>
