<svg width="30" height="30" viewBox="0 0 30 30" fill="none" xmlns="http://www.w3.org/2000/svg">
<path d="M15 28.0993C8.45391 28.0993 1.40625 24.0001 1.40625 15.0001C1.40625 6.0001 8.45391 1.90088 15 1.90088C18.6281 1.90088 21.9867 3.10088 24.4594 5.28291C27.1641 7.66885 28.5938 11.0298 28.5938 15.0001C28.5938 18.9517 27.1641 22.3056 24.4594 24.7009C21.9797 26.8923 18.6211 28.0993 15 28.0993Z" fill="url(#paint0_linear)"/>
<path d="M15 2.36963C18.5133 2.36963 21.7641 3.52979 24.1477 5.63447C26.7492 7.929 28.125 11.1681 28.125 15.0001C28.125 18.8134 26.7492 22.0478 24.1477 24.3493C21.7547 26.4657 18.5063 27.6306 15 27.6306C11.475 27.6306 8.22656 26.4798 5.85 24.3915C3.24844 22.1063 1.875 18.8579 1.875 15.0001C1.875 11.1235 3.24844 7.87041 5.85 5.58994C8.21953 3.51338 11.468 2.36963 15 2.36963ZM15 1.43213C7.69922 1.43213 0.9375 6.11963 0.9375 15.0001C0.9375 23.8313 7.69922 28.5681 15 28.5681C22.3008 28.5681 29.0625 23.7095 29.0625 15.0001C29.0625 6.2415 22.3008 1.43213 15 1.43213Z" fill="#EB8F00"/>
<path d="M14.6296 17.9388C17.3226 17.4091 19.5187 18.431 20.271 19.1974C20.5616 19.495 20.6765 19.8536 20.5827 20.1607C20.5101 20.3927 20.3296 20.5544 20.0835 20.6013C20.0015 20.6177 19.9124 20.62 19.821 20.6107C18.3796 20.4513 16.7788 20.5333 15.1921 20.845C13.6147 21.1544 12.1077 21.6841 10.8374 22.3755C10.7554 22.42 10.6733 22.4505 10.5913 22.4669C10.3452 22.5161 10.1155 22.4341 9.96084 22.2466C9.75693 21.9982 9.72881 21.6208 9.8835 21.2364C10.289 20.2427 11.9343 18.4685 14.6296 17.9388Z" fill="#242424"/>
<path d="M19.392 10.1226C20.374 10.1226 21.267 10.9522 21.267 12.3304C21.267 13.7085 20.374 14.5382 19.392 14.5382C18.4099 14.5382 17.517 13.7085 17.517 12.3304C17.517 10.9522 18.4099 10.1226 19.392 10.1226Z" fill="#242424"/>
<path d="M10.5936 10.1226C9.6116 10.1226 8.71863 10.9522 8.71863 12.3304C8.71863 13.7085 9.6116 14.5382 10.5936 14.5382C11.5757 14.5382 12.4686 13.7085 12.4686 12.3304C12.4686 10.9522 11.5757 10.1226 10.5936 10.1226Z" fill="#242424"/>
<defs>
<linearGradient id="paint0_linear" x1="15" y1="4.62127" x2="15" y2="25.2423" gradientUnits="userSpaceOnUse">
<stop offset="0.5" stop-color="#FEE133"/>
<stop offset="0.612" stop-color="#FEDE32"/>
<stop offset="0.708" stop-color="#FCD32F"/>
<stop offset="0.797" stop-color="#FAC12B"/>
<stop offset="0.883" stop-color="#F7A924"/>
<stop offset="0.9" stop-color="#F6A323"/>
</linearGradient>
</defs>
</svg>
