<svg width="30" height="30" viewBox="0 0 30 30" fill="none" xmlns="http://www.w3.org/2000/svg">
<path d="M15 28.0993C8.45391 28.0993 1.40625 24.0001 1.40625 15.0001C1.40625 6.0001 8.45391 1.90088 15 1.90088C18.6281 1.90088 21.9867 3.10088 24.4594 5.28291C27.1641 7.66885 28.5938 11.0298 28.5938 15.0001C28.5938 18.9517 27.1641 22.3056 24.4594 24.7009C21.9797 26.8923 18.6211 28.0993 15 28.0993Z" fill="url(#paint0_linear)"/>
<path d="M15 2.36963C18.5133 2.36963 21.7641 3.52979 24.1477 5.63447C26.7492 7.929 28.125 11.1681 28.125 15.0001C28.125 18.8134 26.7492 22.0478 24.1477 24.3493C21.7547 26.4657 18.5063 27.6306 15 27.6306C11.475 27.6306 8.22656 26.4798 5.85 24.3915C3.24844 22.1063 1.875 18.8579 1.875 15.0001C1.875 11.1235 3.24844 7.87041 5.85 5.58994C8.21953 3.51338 11.468 2.36963 15 2.36963ZM15 1.43213C7.69922 1.43213 0.9375 6.11963 0.9375 15.0001C0.9375 23.8313 7.69922 28.5681 15 28.5681C22.3008 28.5681 29.0625 23.7095 29.0625 15.0001C29.0625 6.2415 22.3008 1.43213 15 1.43213Z" fill="#EB8F00"/>
<path d="M11.6156 11.9038C11.6156 11.9038 11.6038 11.8874 11.5781 11.8569L11.4796 11.7304C11.4445 11.6929 11.4023 11.6483 11.3531 11.5968C11.3038 11.5405 11.2429 11.4819 11.182 11.421C11.1187 11.3624 11.0531 11.3015 10.9851 11.2522C10.9195 11.1983 10.8468 11.1585 10.7882 11.1257C10.7273 11.0882 10.671 11.0788 10.6359 11.0671C10.6171 11.0601 10.6007 11.0601 10.5867 11.0577C10.5796 11.0601 10.5726 11.0554 10.5656 11.0577L10.5562 11.0601H10.5492C10.5773 11.0601 10.4859 11.0624 10.6124 11.0577L10.4835 11.0624C10.4507 11.0624 10.4718 11.0647 10.4742 11.0647C10.4812 11.0647 10.4859 11.0647 10.4906 11.0624C10.5093 11.0554 10.4906 11.0624 10.4859 11.0624C10.4769 11.0628 10.4681 11.0652 10.4601 11.0694C10.4226 11.0812 10.3663 11.0905 10.3077 11.128C10.2492 11.1608 10.1765 11.2007 10.1109 11.2546C10.0452 11.3062 9.97728 11.3647 9.914 11.4233C9.79212 11.5429 9.68431 11.6624 9.60931 11.7491C9.53197 11.8382 9.48978 11.8897 9.48978 11.8897L9.43587 11.953C9.11478 12.328 8.52415 12.3913 8.11869 12.096C7.84212 11.8944 7.72259 11.5804 7.77415 11.2804C7.77415 11.2804 7.79056 11.1843 7.83744 11.0179C7.88665 10.8515 7.96869 10.6147 8.1304 10.3358C8.29212 10.0593 8.5265 9.7335 8.92259 9.43584C9.11712 9.29053 9.35384 9.14521 9.63509 9.04678C9.70306 9.021 9.77572 8.99756 9.85072 8.97881C9.92806 8.96006 9.989 8.93897 10.0945 8.9249L10.2398 8.90381C10.2843 8.89912 10.3499 8.89209 10.3593 8.89209L10.4882 8.88272L10.5609 8.88037H10.582L10.6124 8.88272L10.6734 8.88506L10.7929 8.89209C10.8726 8.89912 10.9499 8.91318 11.0273 8.9249C11.1796 8.95303 11.332 8.99287 11.4702 9.04443C11.7266 9.13604 11.9671 9.26732 12.1827 9.4335C12.5788 9.73115 12.8132 10.0569 12.9749 10.3335C13.057 10.4718 13.1179 10.603 13.1624 10.7179C13.2117 10.828 13.2468 10.9452 13.2749 11.0319C13.3007 11.1163 13.3007 11.1608 13.3124 11.2007C13.3195 11.2382 13.3218 11.2593 13.3218 11.2593C13.4085 11.7327 13.0593 12.1804 12.546 12.2577C12.1734 12.314 11.8195 12.1663 11.6156 11.9038Z" fill="#242424"/>
<path d="M20.4046 11.9038C20.4046 11.9038 20.3929 11.8874 20.3671 11.8569L20.2687 11.7304C20.2336 11.6929 20.1914 11.6483 20.1421 11.5968C20.0929 11.5405 20.032 11.4819 19.9711 11.421C19.9078 11.3624 19.8421 11.3015 19.7742 11.2522C19.7086 11.1983 19.6359 11.1585 19.5773 11.1257C19.5164 11.0882 19.4601 11.0788 19.425 11.0671C19.4062 11.0601 19.3898 11.0601 19.3757 11.0577C19.3687 11.0601 19.3617 11.0554 19.3546 11.0577L19.3453 11.0601H19.3359C19.364 11.0601 19.2726 11.0624 19.3992 11.0577L19.2703 11.0624C19.2375 11.0624 19.2586 11.0647 19.2609 11.0647C19.2679 11.0647 19.2726 11.0647 19.2773 11.0624C19.2961 11.0554 19.2773 11.0624 19.2726 11.0624C19.2636 11.0628 19.2548 11.0652 19.2468 11.0694C19.2093 11.0812 19.1531 11.0905 19.0945 11.128C19.0359 11.1608 18.9632 11.2007 18.8976 11.2546C18.832 11.3062 18.764 11.3647 18.7007 11.4233C18.5789 11.5429 18.4711 11.6624 18.3961 11.7491C18.3187 11.8382 18.2765 11.8897 18.2765 11.8897L18.2226 11.953C17.9015 12.328 17.3109 12.3913 16.9054 12.096C16.6289 11.8944 16.5093 11.5804 16.5609 11.2804C16.5609 11.2804 16.5773 11.1843 16.6242 11.0179C16.6734 10.8515 16.7554 10.6147 16.9171 10.3358C17.0789 10.0593 17.3132 9.7335 17.7093 9.43584C17.9039 9.29053 18.1406 9.14521 18.4218 9.04678C18.4898 9.021 18.5625 8.99756 18.6375 8.97881C18.7148 8.96006 18.7757 8.93897 18.8812 8.9249L19.0265 8.90381C19.0711 8.89912 19.1367 8.89209 19.1461 8.89209L19.275 8.88272L19.3476 8.88037H19.3687L19.3992 8.88272L19.4601 8.88506L19.5796 8.89209C19.6593 8.89912 19.7367 8.91318 19.814 8.9249C19.9664 8.95303 20.1187 8.99287 20.257 9.04443C20.5134 9.13604 20.7538 9.26732 20.9695 9.4335C21.3656 9.73115 21.6 10.0569 21.7617 10.3335C21.8437 10.4718 21.9046 10.603 21.9492 10.7179C21.9984 10.828 22.0336 10.9452 22.0617 11.0319C22.0875 11.1163 22.0875 11.1608 22.0992 11.2007C22.1062 11.2382 22.1086 11.2593 22.1086 11.2593C22.1953 11.7327 21.8461 12.1804 21.3328 12.2577C20.9601 12.314 20.6062 12.1663 20.4046 11.9038Z" fill="#242424"/>
<path d="M14.9977 16.8845C11.8664 16.8845 8.95316 16.6525 6.52504 16.2541C5.92269 16.1556 5.39066 16.6244 5.51254 17.1564C6.31879 20.658 10.2094 23.5314 14.9953 23.5314C20.2336 23.5314 23.7586 20.5642 24.4899 17.1447C24.6024 16.6173 24.0727 16.1556 23.475 16.2541C21.0446 16.6525 18.1313 16.8845 14.9977 16.8845Z" fill="#FEFFFA" stroke="#F6A323" stroke-width="3.204" stroke-miterlimit="10"/>
<path d="M14.9953 23.9999C10.214 23.9999 5.94135 21.103 5.05541 17.2616C4.97572 16.9194 5.0601 16.5608 5.28275 16.2772C5.53588 15.9608 5.939 15.771 6.36322 15.771C6.44291 15.771 6.5226 15.778 6.59994 15.7897C9.09135 16.1999 11.9953 16.4155 14.9976 16.4155C17.9999 16.4155 20.9062 16.1999 23.3999 15.7897C23.4773 15.778 23.5593 15.771 23.6367 15.771C24.0562 15.771 24.457 15.9562 24.7101 16.2702C24.8204 16.404 24.8992 16.5609 24.9406 16.7293C24.982 16.8977 24.9849 17.0732 24.9492 17.2429C24.5531 19.0944 23.4023 20.7843 21.7054 22.0007C19.8843 23.3085 17.564 23.9999 14.9953 23.9999Z" fill="#FEFFFA"/>
<path d="M23.6368 16.2397C24.1641 16.2397 24.593 16.664 24.4899 17.1444C23.7587 20.564 20.2337 23.5312 14.9954 23.5312C10.2094 23.5312 6.31881 20.6577 5.51256 17.1562C5.40006 16.6733 5.83131 16.2397 6.36335 16.2397C6.41725 16.2397 6.47116 16.2444 6.52506 16.2538C8.95319 16.6522 11.8665 16.8843 14.9977 16.8843C18.1313 16.8843 21.0446 16.6522 23.4751 16.2515C23.529 16.2444 23.5829 16.2397 23.6368 16.2397ZM23.6368 15.3022C23.5313 15.3022 23.4258 15.3116 23.3227 15.328C20.8548 15.7335 17.9766 15.9468 14.9977 15.9468C12.0212 15.9468 9.14303 15.7335 6.67741 15.328C6.57356 15.3112 6.46855 15.3026 6.36335 15.3022C5.7985 15.3022 5.2571 15.5577 4.91725 15.9843C4.76335 16.1754 4.65473 16.3989 4.59952 16.6379C4.54432 16.877 4.54397 17.1255 4.5985 17.3647C5.0485 19.3218 6.33756 21.1194 8.22663 22.4249C10.1298 23.7421 12.5321 24.4663 14.993 24.4663C17.6626 24.4663 20.0766 23.7444 21.9774 22.378C23.768 21.0913 24.9844 19.303 25.404 17.3366C25.5071 16.8562 25.3852 16.3593 25.0712 15.9726C24.7337 15.553 24.1969 15.3022 23.6368 15.3022Z" fill="#EB8F00"/>
<defs>
<linearGradient id="paint0_linear" x1="15" y1="4.62127" x2="15" y2="25.2423" gradientUnits="userSpaceOnUse">
<stop offset="0.5" stop-color="#FEE133"/>
<stop offset="0.612" stop-color="#FEDE32"/>
<stop offset="0.708" stop-color="#FCD32F"/>
<stop offset="0.797" stop-color="#FAC12B"/>
<stop offset="0.883" stop-color="#F7A924"/>
<stop offset="0.9" stop-color="#F6A323"/>
</linearGradient>
</defs>
</svg>
