<svg width="129" height="40" viewBox="0 0 129 40" fill="none" xmlns="http://www.w3.org/2000/svg">
<path d="M30.5288 9.3655L33.5866 6.33789L30.5288 9.3655Z" fill="white"/>
<path d="M30.5287 22.2092V32.3396C30.5287 33.3031 30.1421 34.2272 29.454 34.9086C28.7659 35.5899 27.8325 35.9727 26.8594 35.9727H6.72708C5.75391 35.9727 4.82062 35.5899 4.13249 34.9086C3.44436 34.2272 3.05776 33.3031 3.05776 32.3396V9.36609H17.576L15.1298 11.7882L17.2947 13.9257L21.8874 9.37819L24.9452 6.35059H0V32.3517C0 34.1182 0.708729 35.8124 1.9703 37.0615C3.23187 38.3106 4.94294 39.0124 6.72708 39.0124H26.8777C28.6619 39.0124 30.3729 38.3106 31.6345 37.0615C32.896 35.8124 33.6048 34.1182 33.6048 32.3517V19.1816L30.5287 22.2092Z" fill="white"/>
<path d="M29.2627 6.33809L26.205 9.3657L12.6897 22.7417C12.4116 23.0275 12.258 23.4102 12.262 23.8071C12.2661 24.204 12.4274 24.5835 12.7113 24.8638C12.9952 25.1441 13.3789 25.3027 13.7798 25.3056C14.1806 25.3085 14.5666 25.1553 14.8546 24.8791L30.5287 9.35964L33.5864 6.33203L29.2627 6.33809Z" fill="white"/>
<path d="M26.205 9.36621L12.6897 22.7482L26.205 9.36621Z" fill="white"/>
<path d="M26.2051 9.3655L29.2628 6.33789L26.2051 9.3655Z" fill="white"/>
<path d="M29.8928 16.4203C29.7507 16.2793 29.582 16.1675 29.3963 16.0912C29.2105 16.0149 29.0114 15.9756 28.8103 15.9756C28.6092 15.9756 28.4101 16.0149 28.2244 16.0912C28.0386 16.1675 27.8699 16.2793 27.7279 16.4203L19.8511 24.2194L22.016 26.3751L29.8928 18.576C30.0377 18.4356 30.1529 18.2679 30.2316 18.0828C30.3102 17.8977 30.3507 17.6989 30.3507 17.4981C30.3507 17.2973 30.3102 17.0986 30.2316 16.9135C30.1529 16.7284 30.0377 16.5607 29.8928 16.4203Z" fill="white"/>
<path d="M9.44852 25.9573C9.23423 26.1688 9.08813 26.4386 9.02875 26.7324C8.96937 27.0261 8.99936 27.3307 9.11494 27.6076C9.23052 27.8845 9.42648 28.1212 9.67801 28.2878C9.92953 28.4543 10.2253 28.5432 10.5279 28.5432C10.8305 28.5432 11.1263 28.4543 11.3778 28.2878C11.6293 28.1212 11.8253 27.8845 11.9409 27.6076C12.0564 27.3307 12.0864 27.0261 12.0271 26.7324C11.9677 26.4386 11.8216 26.1688 11.6073 25.9573C11.3207 25.6745 10.9326 25.5156 10.5279 25.5156C10.1233 25.5156 9.73511 25.6745 9.44852 25.9573V25.9573Z" fill="white"/>
<path d="M30.5287 14.3131C30.5377 14.6616 30.6678 14.9964 30.8972 15.2608C31.1266 15.5253 31.4412 15.7033 31.7878 15.7647C32.1344 15.8261 32.4918 15.7672 32.7996 15.5979C33.1074 15.4286 33.3467 15.1592 33.4772 14.8354C33.6076 14.5116 33.6212 14.1532 33.5156 13.8206C33.41 13.488 33.1917 13.2017 32.8976 13.01C32.6035 12.8184 32.2516 12.7331 31.9013 12.7686C31.5511 12.8041 31.2239 12.9583 30.9751 13.205V13.205C30.697 13.4827 30.5372 13.8555 30.5287 14.2465V14.3131Z" fill="white"/>
<path d="M49.5817 33.928C53.8057 33.928 56.4937 31.864 56.4937 29.32C56.4937 27.064 54.8617 26.104 51.7417 26.104H49.3177C47.6377 26.104 47.1097 25.6 47.1097 24.808C47.1097 24.16 47.3977 23.8 47.8297 23.416C48.4057 23.68 49.0777 23.824 49.6777 23.824C52.4377 23.824 54.6217 22.168 54.6217 19.288C54.6217 18.28 54.2617 17.392 53.7577 16.864H56.2777V14.8H51.5977C51.0937 14.608 50.4217 14.464 49.6777 14.464C46.9417 14.464 44.5657 16.216 44.5657 19.192C44.5657 20.776 45.4057 22.024 46.3177 22.72V22.816C45.5737 23.344 44.8297 24.232 44.8297 25.264C44.8297 26.344 45.3577 27.04 46.0297 27.448V27.568C44.8057 28.312 44.1097 29.344 44.1097 30.448C44.1097 32.752 46.4137 33.928 49.5817 33.928ZM49.6777 22.048C48.3097 22.048 47.1817 20.968 47.1817 19.192C47.1817 17.416 48.2857 16.408 49.6777 16.408C51.0697 16.408 52.1737 17.44 52.1737 19.192C52.1737 20.968 51.0457 22.048 49.6777 22.048ZM49.9897 32.104C47.8057 32.104 46.4617 31.336 46.4617 30.04C46.4617 29.368 46.7977 28.696 47.5897 28.12C48.1417 28.24 48.7417 28.312 49.3657 28.312H51.3577C52.9657 28.312 53.8297 28.648 53.8297 29.752C53.8297 30.976 52.2937 32.104 49.9897 32.104ZM58.9447 28H61.7047V14.8H58.9447V28ZM60.3127 12.328C61.3207 12.328 62.0407 11.68 62.0407 10.672C62.0407 9.688 61.3207 9.04 60.3127 9.04C59.3047 9.04 58.6087 9.688 58.6087 10.672C58.6087 11.68 59.3047 12.328 60.3127 12.328ZM70.2753 28.312C71.2353 28.312 72.1233 28.072 72.8673 27.832L72.3633 25.792C71.9793 25.96 71.4033 26.104 70.9473 26.104C69.5793 26.104 69.0273 25.288 69.0273 23.704V17.008H72.4593V14.8H69.0273V11.152H66.7233L66.4113 14.8L64.3473 14.944V17.008H66.2673V23.68C66.2673 26.464 67.2993 28.312 70.2753 28.312ZM80.3285 28.312C81.8405 28.312 83.4005 27.76 84.6245 26.68L83.4725 24.856C82.6805 25.528 81.6965 26.056 80.5925 26.056C78.4085 26.056 76.8725 24.208 76.8725 21.4C76.8725 18.616 78.4565 16.744 80.6885 16.744C81.5765 16.744 82.3205 17.128 83.0405 17.776L84.4085 15.976C83.4485 15.136 82.2245 14.464 80.5445 14.464C77.0645 14.464 74.0165 17.008 74.0165 21.4C74.0165 25.792 76.7525 28.312 80.3285 28.312ZM91.9981 28.312C95.2621 28.312 98.2141 25.792 98.2141 21.4C98.2141 17.008 95.2621 14.464 91.9981 14.464C88.7341 14.464 85.7821 17.008 85.7821 21.4C85.7821 25.792 88.7341 28.312 91.9981 28.312ZM91.9981 26.056C89.9341 26.056 88.6381 24.208 88.6381 21.4C88.6381 18.616 89.9341 16.744 91.9981 16.744C94.0861 16.744 95.3821 18.616 95.3821 21.4C95.3821 24.208 94.0861 26.056 91.9981 26.056ZM106.02 28.312C107.508 28.312 108.876 27.52 109.86 26.512H109.956L110.172 28H112.428V8.872H109.668V13.768L109.788 15.952C108.708 15.04 107.748 14.464 106.236 14.464C103.284 14.464 100.572 17.128 100.572 21.4C100.572 25.792 102.708 28.312 106.02 28.312ZM106.668 26.032C104.604 26.032 103.428 24.376 103.428 21.376C103.428 18.52 104.916 16.768 106.764 16.768C107.748 16.768 108.684 17.08 109.668 17.968V24.424C108.708 25.528 107.772 26.032 106.668 26.032ZM122.074 28.312C123.802 28.312 125.314 27.736 126.538 26.92L125.578 25.168C124.618 25.792 123.61 26.152 122.434 26.152C120.154 26.152 118.57 24.64 118.354 22.12H126.922C126.994 21.784 127.066 21.256 127.066 20.704C127.066 16.984 125.17 14.464 121.666 14.464C118.594 14.464 115.642 17.128 115.642 21.4C115.642 25.768 118.498 28.312 122.074 28.312ZM118.33 20.2C118.594 17.896 120.058 16.624 121.714 16.624C123.634 16.624 124.666 17.944 124.666 20.2H118.33Z" fill="white"/>
</svg>
