<svg width="129" height="26" viewBox="0 0 129 26" fill="none" xmlns="http://www.w3.org/2000/svg">
<path d="M7.216 2.568C10.5227 2.568 13.0613 3.15467 14.832 4.328C16.6027 5.48 17.488 7.37867 17.488 10.024C17.488 12.6907 16.592 14.6213 14.8 15.816C13.008 16.9893 10.448 17.576 7.12 17.576H5.552V25H0.56V3.144C1.648 2.93067 2.8 2.78133 4.016 2.696C5.232 2.61067 6.29867 2.568 7.216 2.568ZM7.536 6.824C7.17333 6.824 6.81067 6.83467 6.448 6.856C6.10667 6.87733 5.808 6.89867 5.552 6.92V13.32H7.12C8.848 13.32 10.1493 13.0853 11.024 12.616C11.8987 12.1467 12.336 11.272 12.336 9.992C12.336 9.37333 12.2187 8.86133 11.984 8.456C11.7707 8.05067 11.4507 7.73067 11.024 7.496C10.6187 7.24 10.1173 7.06933 9.52 6.984C8.92267 6.87733 8.26133 6.824 7.536 6.824ZM30.9778 12.392C30.5511 12.2853 30.0498 12.1787 29.4738 12.072C28.8978 11.944 28.2791 11.88 27.6178 11.88C27.3191 11.88 26.9564 11.912 26.5298 11.976C26.1244 12.0187 25.8151 12.072 25.6018 12.136V25H20.8338V9.064C21.6871 8.76533 22.6898 8.488 23.8418 8.232C25.0151 7.95467 26.3164 7.816 27.7458 7.816C28.0018 7.816 28.3111 7.83733 28.6738 7.88C29.0364 7.90133 29.3991 7.944 29.7618 8.008C30.1244 8.05067 30.4871 8.11467 30.8498 8.2C31.2124 8.264 31.5218 8.34933 31.7778 8.456L30.9778 12.392ZM49.7653 16.552C49.7653 17.8747 49.5733 19.0907 49.1893 20.2C48.8053 21.288 48.2506 22.2267 47.5253 23.016C46.7999 23.784 45.9253 24.3813 44.9013 24.808C43.8986 25.2347 42.7679 25.448 41.5093 25.448C40.2719 25.448 39.1413 25.2347 38.1173 24.808C37.1146 24.3813 36.2506 23.784 35.5253 23.016C34.7999 22.2267 34.2346 21.288 33.8293 20.2C33.4239 19.0907 33.2213 17.8747 33.2213 16.552C33.2213 15.2293 33.4239 14.024 33.8293 12.936C34.2559 11.848 34.8319 10.92 35.5573 10.152C36.3039 9.384 37.1786 8.78667 38.1813 8.36C39.2053 7.93333 40.3146 7.72 41.5093 7.72C42.7253 7.72 43.8346 7.93333 44.8373 8.36C45.8613 8.78667 46.7359 9.384 47.4613 10.152C48.1866 10.92 48.7519 11.848 49.1573 12.936C49.5626 14.024 49.7653 15.2293 49.7653 16.552ZM44.9013 16.552C44.9013 15.08 44.6026 13.928 44.0053 13.096C43.4293 12.2427 42.5973 11.816 41.5093 11.816C40.4213 11.816 39.5786 12.2427 38.9813 13.096C38.3839 13.928 38.0853 15.08 38.0853 16.552C38.0853 18.024 38.3839 19.1973 38.9813 20.072C39.5786 20.9253 40.4213 21.352 41.5093 21.352C42.5973 21.352 43.4293 20.9253 44.0053 20.072C44.6026 19.1973 44.9013 18.024 44.9013 16.552ZM53.2988 3.976L58.0668 3.208V8.168H63.7948V12.136H58.0668V18.056C58.0668 19.0587 58.2374 19.8587 58.5788 20.456C58.9414 21.0533 59.6561 21.352 60.7228 21.352C61.2348 21.352 61.7574 21.3093 62.2908 21.224C62.8454 21.1173 63.3468 20.9787 63.7948 20.808L64.4668 24.52C63.8908 24.7547 63.2508 24.9573 62.5468 25.128C61.8428 25.2987 60.9788 25.384 59.9548 25.384C58.6534 25.384 57.5761 25.2133 56.7228 24.872C55.8694 24.5093 55.1868 24.0187 54.6748 23.4C54.1628 22.76 53.8001 21.992 53.5868 21.096C53.3948 20.2 53.2988 19.208 53.2988 18.12V3.976ZM82.7965 16.552C82.7965 17.8747 82.6045 19.0907 82.2205 20.2C81.8365 21.288 81.2818 22.2267 80.5565 23.016C79.8312 23.784 78.9565 24.3813 77.9325 24.808C76.9298 25.2347 75.7992 25.448 74.5405 25.448C73.3032 25.448 72.1725 25.2347 71.1485 24.808C70.1458 24.3813 69.2818 23.784 68.5565 23.016C67.8312 22.2267 67.2658 21.288 66.8605 20.2C66.4552 19.0907 66.2525 17.8747 66.2525 16.552C66.2525 15.2293 66.4552 14.024 66.8605 12.936C67.2872 11.848 67.8632 10.92 68.5885 10.152C69.3352 9.384 70.2098 8.78667 71.2125 8.36C72.2365 7.93333 73.3458 7.72 74.5405 7.72C75.7565 7.72 76.8658 7.93333 77.8685 8.36C78.8925 8.78667 79.7672 9.384 80.4925 10.152C81.2178 10.92 81.7832 11.848 82.1885 12.936C82.5938 14.024 82.7965 15.2293 82.7965 16.552ZM77.9325 16.552C77.9325 15.08 77.6338 13.928 77.0365 13.096C76.4605 12.2427 75.6285 11.816 74.5405 11.816C73.4525 11.816 72.6098 12.2427 72.0125 13.096C71.4152 13.928 71.1165 15.08 71.1165 16.552C71.1165 18.024 71.4152 19.1973 72.0125 20.072C72.6098 20.9253 73.4525 21.352 74.5405 21.352C75.6285 21.352 76.4605 20.9253 77.0365 20.072C77.6338 19.1973 77.9325 18.024 77.9325 16.552ZM85.69 16.584C85.69 15.368 85.882 14.2267 86.266 13.16C86.6713 12.072 87.2473 11.1333 87.994 10.344C88.7407 9.53333 89.6473 8.89333 90.714 8.424C91.7807 7.95467 92.9967 7.72 94.362 7.72C95.258 7.72 96.0793 7.80533 96.826 7.976C97.5727 8.12533 98.298 8.34933 99.002 8.648L98.01 12.456C97.562 12.2853 97.0713 12.136 96.538 12.008C96.0047 11.88 95.4073 11.816 94.746 11.816C93.338 11.816 92.282 12.2533 91.578 13.128C90.8953 14.0027 90.554 15.1547 90.554 16.584C90.554 18.0987 90.874 19.272 91.514 20.104C92.1753 20.936 93.3167 21.352 94.938 21.352C95.514 21.352 96.1327 21.2987 96.794 21.192C97.4553 21.0853 98.0633 20.9147 98.618 20.68L99.29 24.584C98.7353 24.8187 98.042 25.0213 97.21 25.192C96.378 25.3627 95.4607 25.448 94.458 25.448C92.922 25.448 91.5993 25.224 90.49 24.776C89.3807 24.3067 88.4633 23.6773 87.738 22.888C87.034 22.0987 86.5113 21.1707 86.17 20.104C85.85 19.016 85.69 17.8427 85.69 16.584ZM117.422 16.552C117.422 17.8747 117.23 19.0907 116.846 20.2C116.462 21.288 115.907 22.2267 115.182 23.016C114.456 23.784 113.582 24.3813 112.558 24.808C111.555 25.2347 110.424 25.448 109.166 25.448C107.928 25.448 106.798 25.2347 105.774 24.808C104.771 24.3813 103.907 23.784 103.182 23.016C102.456 22.2267 101.891 21.288 101.486 20.2C101.08 19.0907 100.878 17.8747 100.878 16.552C100.878 15.2293 101.08 14.024 101.486 12.936C101.912 11.848 102.488 10.92 103.214 10.152C103.96 9.384 104.835 8.78667 105.838 8.36C106.862 7.93333 107.971 7.72 109.166 7.72C110.382 7.72 111.491 7.93333 112.494 8.36C113.518 8.78667 114.392 9.384 115.118 10.152C115.843 10.92 116.408 11.848 116.814 12.936C117.219 14.024 117.422 15.2293 117.422 16.552ZM112.558 16.552C112.558 15.08 112.259 13.928 111.662 13.096C111.086 12.2427 110.254 11.816 109.166 11.816C108.078 11.816 107.235 12.2427 106.638 13.096C106.04 13.928 105.742 15.08 105.742 16.552C105.742 18.024 106.04 19.1973 106.638 20.072C107.235 20.9253 108.078 21.352 109.166 21.352C110.254 21.352 111.086 20.9253 111.662 20.072C112.259 19.1973 112.558 18.024 112.558 16.552ZM127.835 25.32C126.448 25.2987 125.318 25.1493 124.443 24.872C123.59 24.5947 122.907 24.2107 122.395 23.72C121.904 23.208 121.563 22.6 121.371 21.896C121.2 21.1707 121.115 20.36 121.115 19.464V0.935999L125.883 0.167999V18.504C125.883 18.9307 125.915 19.3147 125.979 19.656C126.043 19.9973 126.16 20.2853 126.331 20.52C126.523 20.7547 126.79 20.9467 127.131 21.096C127.472 21.2453 127.931 21.3413 128.507 21.384L127.835 25.32Z" fill="white"/>
</svg>
