<svg width="170" height="35" viewBox="0 0 170 35" fill="none" xmlns="http://www.w3.org/2000/svg">
<path d="M62.9593 15.6831C62.9704 16.8027 62.8096 17.9175 62.4823 18.9892C62.1976 19.9424 61.7235 20.8297 61.0879 21.599C60.4777 22.3278 59.7082 22.9096 58.8374 23.3005C57.875 23.7208 56.8313 23.9275 55.7797 23.9061C54.9494 23.9216 54.1225 23.7988 53.3334 23.5427C52.7827 23.3703 52.2534 23.1367 51.7556 22.8464V29.1559H48.9425V8.25333C49.6152 8.08984 50.4592 7.91426 51.4682 7.72049C52.6271 7.51962 53.8021 7.42436 54.9785 7.43589C56.1084 7.41643 57.2315 7.6117 58.287 8.01113C59.2334 8.37164 60.0906 8.92919 60.8005 9.64604C61.5171 10.3889 62.0654 11.2745 62.4089 12.2437C62.7962 13.349 62.9825 14.5134 62.9593 15.6831V15.6831ZM59.9871 15.6831C59.9871 13.8665 59.5285 12.4314 58.605 11.4444C58.1386 10.9482 57.569 10.558 56.9355 10.3008C56.302 10.0436 55.6197 9.92562 54.9357 9.95486C54.2658 9.94555 53.596 9.97588 52.9298 10.0457C52.5419 10.0912 52.1576 10.164 51.7801 10.2637V20.2124C52.2378 20.5574 52.7448 20.8329 53.2845 21.0298C53.9646 21.3 54.6922 21.4338 55.4249 21.4234C56.1491 21.4437 56.8678 21.2943 57.5226 20.9874C58.091 20.7061 58.5805 20.2901 58.9475 19.7764C59.333 19.2291 59.6052 18.6118 59.7486 17.9598C59.9134 17.2121 59.9934 16.4484 59.9871 15.6831Z" fill="white"/>
<path d="M72.8542 7.44797C73.0988 7.44797 73.3801 7.44798 73.6981 7.49036C74.0161 7.53275 74.3097 7.56302 74.6338 7.61146L75.4717 7.76284C75.6636 7.79912 75.8535 7.84561 76.0404 7.90211L75.5512 10.3605C75.1852 10.2385 74.8113 10.1414 74.432 10.0699C73.7709 9.94635 73.0988 9.88955 72.4261 9.90033C71.8957 9.90218 71.3668 9.959 70.8483 10.0699C70.3285 10.1789 69.986 10.2576 69.8209 10.3V23.5548H66.9711V8.43498C67.7923 8.15084 68.6321 7.92223 69.4846 7.75073C70.594 7.53319 71.7234 7.43171 72.8542 7.44797V7.44797Z" fill="white"/>
<path d="M92.8581 15.6526C92.8748 16.8099 92.6886 17.9613 92.3076 19.0556C91.9711 20.0164 91.4452 20.9014 90.7604 21.6593C90.1035 22.3856 89.2935 22.9603 88.3876 23.3427C87.436 23.7344 86.4155 23.9361 85.3849 23.9361C84.3543 23.9361 83.3338 23.7344 82.3822 23.3427C81.4763 22.9603 80.6663 22.3856 80.0093 21.6593C79.3245 20.9014 78.7986 20.0164 78.4621 19.0556C77.7203 16.8546 77.7203 14.4747 78.4621 12.2738C78.7971 11.305 79.323 10.4117 80.0093 9.64579C80.6678 8.92109 81.4774 8.34672 82.3822 7.96245C84.3058 7.17918 86.464 7.17918 88.3876 7.96245C89.2924 8.34672 90.102 8.92109 90.7604 9.64579C91.4468 10.4117 91.9727 11.305 92.3076 12.2738C92.6855 13.3604 92.8717 14.5034 92.8581 15.6526V15.6526ZM89.8859 15.6526C89.9621 14.1447 89.532 12.6543 88.6628 11.4139C88.2662 10.9262 87.7642 10.5327 87.1938 10.2623C86.6233 9.99192 85.999 9.85158 85.3665 9.85158C84.7341 9.85158 84.1097 9.99192 83.5393 10.2623C82.9689 10.5327 82.4669 10.9262 82.0703 11.4139C81.2803 12.6894 80.8622 14.1564 80.8622 15.6526C80.8622 17.1487 81.2803 18.6157 82.0703 19.8912C82.4669 20.3789 82.9689 20.7725 83.5393 21.0428C84.1097 21.3132 84.7341 21.4535 85.3665 21.4535C85.999 21.4535 86.6233 21.3132 87.1938 21.0428C87.7642 20.7725 88.2662 20.3789 88.6628 19.8912C89.5437 18.655 89.9847 17.164 89.9165 15.6526H89.8859Z" fill="white"/>
<path d="M99.5424 7.7684H105.578V10.136H99.5424V17.4022C99.5293 18.0589 99.5908 18.715 99.7258 19.3581C99.8151 19.7976 100.003 20.2115 100.276 20.5691C100.518 20.8526 100.836 21.0625 101.194 21.1746C101.611 21.3033 102.047 21.3646 102.484 21.3563C103.184 21.3783 103.883 21.2821 104.551 21.0717L105.64 20.6599L106.19 22.9972C105.702 23.2084 105.199 23.3844 104.686 23.524C103.891 23.7507 103.066 23.8588 102.239 23.845C101.328 23.8747 100.42 23.7351 99.5607 23.4332C98.8931 23.1905 98.3052 22.7717 97.8606 22.2222C97.4111 21.6229 97.102 20.932 96.9555 20.1997C96.7731 19.2866 96.6871 18.3572 96.6987 17.4265V3.36626L99.5485 2.88184L99.5424 7.7684Z" fill="white"/>
<path d="M122.855 15.6526C122.871 16.8099 122.685 17.9613 122.304 19.0556C121.965 20.0153 121.44 20.8999 120.757 21.6593C120.099 22.3846 119.289 22.9591 118.384 23.3427C117.433 23.7344 116.412 23.9361 115.382 23.9361C114.351 23.9361 113.33 23.7344 112.379 23.3427C111.471 22.961 110.659 22.3864 110 21.6593C109.319 20.8985 108.794 20.0143 108.453 19.0556C107.719 16.8534 107.719 14.476 108.453 12.2738C108.792 11.3071 109.318 10.4147 110 9.64579C110.661 8.92096 111.472 8.34664 112.379 7.96245C114.302 7.17918 116.461 7.17918 118.384 7.96245C119.288 8.34823 120.098 8.92238 120.757 9.64579C121.452 10.4165 121.986 11.3158 122.329 12.2919C122.696 13.3743 122.874 14.5108 122.855 15.6526V15.6526ZM119.883 15.6526C119.962 14.1444 119.531 12.6531 118.659 11.4139C118.263 10.9263 117.762 10.5328 117.192 10.2624C116.622 9.99208 115.998 9.85174 115.366 9.85174C114.734 9.85174 114.11 9.99208 113.54 10.2624C112.971 10.5328 112.469 10.9263 112.073 11.4139C111.279 12.6879 110.859 14.1555 110.859 15.6526C110.859 17.1496 111.279 18.6172 112.073 19.8912C112.469 20.3788 112.971 20.7723 113.54 21.0427C114.11 21.313 114.734 21.4534 115.366 21.4534C115.998 21.4534 116.622 21.313 117.192 21.0427C117.762 20.7723 118.263 20.3788 118.659 19.8912C119.532 18.6524 119.962 17.1608 119.883 15.6526V15.6526Z" fill="white"/>
<path d="M133.795 23.9056C132.636 23.9303 131.484 23.7244 130.407 23.3001C129.475 22.9185 128.64 22.3374 127.961 21.5985C127.287 20.8477 126.781 19.9646 126.475 19.0069C126.138 17.9308 125.973 16.8092 125.986 15.6826C125.972 14.5482 126.154 13.4199 126.524 12.3462C126.853 11.3829 127.368 10.4923 128.041 9.72429C128.704 8.97993 129.525 8.38877 130.444 7.99249C131.448 7.57404 132.529 7.36779 133.618 7.38697C134.335 7.3873 135.051 7.44808 135.758 7.56863C136.463 7.68458 137.152 7.87749 137.813 8.14387L137.202 10.566C136.727 10.3475 136.228 10.1829 135.716 10.0755C135.127 9.95177 134.526 9.89087 133.924 9.89383C133.238 9.85047 132.552 9.96202 131.916 10.2201C131.28 10.4781 130.712 10.876 130.254 11.3834C129.404 12.3765 128.982 13.8055 128.982 15.7189C128.974 16.5075 129.073 17.2936 129.276 18.0562C129.451 18.7184 129.763 19.3372 130.193 19.8728C130.625 20.3862 131.177 20.7873 131.802 21.0415C132.564 21.3322 133.377 21.4701 134.193 21.4472C134.884 21.4556 135.573 21.3845 136.248 21.2352C136.741 21.1337 137.223 20.9815 137.685 20.7811L138.082 23.1487C137.861 23.2732 137.625 23.3688 137.379 23.4333C137.038 23.5342 136.69 23.6151 136.339 23.6755C135.948 23.7481 135.532 23.8087 135.116 23.8632C134.677 23.9024 134.236 23.9165 133.795 23.9056V23.9056Z" fill="white"/>
<path d="M154.814 15.6526C154.832 16.8105 154.644 17.9624 154.258 19.0556C153.921 20.0164 153.396 20.9014 152.711 21.6593C152.054 22.3856 151.244 22.9603 150.338 23.3427C149.386 23.7344 148.366 23.9361 147.335 23.9361C146.305 23.9361 145.284 23.7344 144.332 23.3427C143.427 22.9603 142.617 22.3856 141.96 21.6593C141.275 20.9014 140.749 20.0164 140.412 19.0556C139.678 16.8534 139.678 14.476 140.412 12.2738C140.747 11.305 141.273 10.4117 141.96 9.64579C142.618 8.92109 143.428 8.34672 144.332 7.96245C146.256 7.17918 148.414 7.17918 150.338 7.96245C151.243 8.34672 152.052 8.92109 152.711 9.64579C153.397 10.4117 153.923 11.305 154.258 12.2738C154.641 13.3593 154.829 14.5028 154.814 15.6526V15.6526ZM151.842 15.6526C151.921 14.1444 151.491 12.6531 150.619 11.4139C150.223 10.9263 149.722 10.5328 149.152 10.2624C148.582 9.99208 147.958 9.85174 147.326 9.85174C146.694 9.85174 146.07 9.99208 145.5 10.2624C144.93 10.5328 144.429 10.9263 144.033 11.4139C143.239 12.6879 142.818 14.1555 142.818 15.6526C142.818 17.1496 143.239 18.6172 144.033 19.8912C144.429 20.3788 144.93 20.7723 145.5 21.0427C146.07 21.313 146.694 21.4534 147.326 21.4534C147.958 21.4534 148.582 21.313 149.152 21.0427C149.722 20.7723 150.223 20.3788 150.619 19.8912C151.492 18.6524 151.922 17.1608 151.842 15.6526V15.6526Z" fill="white"/>
<path d="M163.603 23.8454C161.847 23.803 160.6 23.4337 159.866 22.7252C159.132 22.0167 158.765 20.9086 158.765 19.419V0.484409L161.615 0V18.9528C161.604 19.342 161.645 19.7308 161.737 20.1093C161.802 20.3825 161.939 20.6335 162.135 20.836C162.341 21.0317 162.593 21.1732 162.869 21.2477C163.241 21.351 163.622 21.4259 164.006 21.4718L163.603 23.8454Z" fill="white"/>
<path d="M30.547 4.3655L33.6048 1.33789L30.547 4.3655Z" fill="white"/>
<path d="M30.547 17.2092V27.3396C30.547 28.3031 30.1604 29.2272 29.4723 29.9086C28.7842 30.5899 27.8508 30.9727 26.8777 30.9727H6.74539C5.77222 30.9727 4.83894 30.5899 4.15081 29.9086C3.46268 29.2272 3.07607 28.3031 3.07607 27.3396V4.36609H17.5943L15.1481 6.78817L17.313 8.92566L21.9058 4.37819L24.9635 1.35059H0.0183105V27.3517C0.0183105 29.1182 0.72704 30.8124 1.98861 32.0615C3.25018 33.3106 4.96126 34.0124 6.74539 34.0124H26.896C28.6802 34.0124 30.3912 33.3106 31.6528 32.0615C32.9144 30.8124 33.6231 29.1182 33.6231 27.3517V14.1816L30.547 17.2092Z" fill="white"/>
<path d="M29.2812 1.33809L26.2234 4.3657L12.7081 17.7417C12.43 18.0275 12.2764 18.4102 12.2805 18.8071C12.2845 19.204 12.4459 19.5835 12.7297 19.8638C13.0136 20.1441 13.3973 20.3027 13.7982 20.3056C14.1991 20.3085 14.585 20.1553 14.873 19.8791L30.5471 4.35964L33.6048 1.33203L29.2812 1.33809Z" fill="white"/>
<path d="M26.2234 4.36621L12.7081 17.7482L26.2234 4.36621Z" fill="white"/>
<path d="M26.2234 4.3655L29.2812 1.33789L26.2234 4.3655Z" fill="white"/>
<path d="M29.9111 11.4203C29.769 11.2793 29.6003 11.1675 29.4146 11.0912C29.2288 11.0149 29.0297 10.9756 28.8286 10.9756C28.6275 10.9756 28.4284 11.0149 28.2427 11.0912C28.0569 11.1675 27.8882 11.2793 27.7462 11.4203L19.8694 19.2194L22.0343 21.3751L29.9111 13.576C30.056 13.4356 30.1712 13.2679 30.2499 13.0828C30.3285 12.8977 30.369 12.6989 30.369 12.4981C30.369 12.2973 30.3285 12.0986 30.2499 11.9135C30.1712 11.7284 30.056 11.5607 29.9111 11.4203Z" fill="white"/>
<path d="M9.46683 20.9573C9.25254 21.1688 9.10644 21.4386 9.04706 21.7324C8.98768 22.0261 9.01767 22.3307 9.13325 22.6076C9.24883 22.8845 9.44479 23.1212 9.69632 23.2878C9.94784 23.4543 10.2436 23.5432 10.5462 23.5432C10.8488 23.5432 11.1446 23.4543 11.3961 23.2878C11.6476 23.1212 11.8436 22.8845 11.9592 22.6076C12.0748 22.3307 12.1047 22.0261 12.0454 21.7324C11.986 21.4386 11.8399 21.1688 11.6256 20.9573C11.339 20.6745 10.9509 20.5156 10.5462 20.5156C10.1416 20.5156 9.75342 20.6745 9.46683 20.9573V20.9573Z" fill="white"/>
<path d="M30.547 9.31308C30.556 9.66159 30.6862 9.99636 30.9156 10.2608C31.145 10.5253 31.4595 10.7033 31.8061 10.7647C32.1527 10.8261 32.5101 10.7672 32.8179 10.5979C33.1257 10.4286 33.365 10.1592 33.4955 9.83543C33.6259 9.51162 33.6395 9.15316 33.5339 8.82058C33.4283 8.488 33.21 8.20169 32.9159 8.01003C32.6218 7.81837 32.2699 7.7331 31.9196 7.76862C31.5694 7.80414 31.2422 7.95827 30.9935 8.20499V8.20499C30.7154 8.48268 30.5555 8.8555 30.547 9.24648V9.31308Z" fill="white"/>
</svg>
