<svg version="1" xmlns="http://www.w3.org/2000/svg" width="426.667" height="426.667" viewBox="0 0 320.000000 320.000000"><path d="M96 159.4V227h6V98h41.3c36.6 0 41.8.2 46.2 1.7 2.8 1 5.2 2 5.5 2.3.3.3 2.1 1.4 4 2.4 14.3 8 23.6 30.5 18.9 45.5-2 6.2-4.3 11.5-5.6 12.9-.7.7-1.3 1.6-1.3 2 0 .4-1.9 2.8-4.3 5.3-4.3 4.8-14.2 10.9-17.7 10.9-1 0-2.2.4-2.5 1-.4.6-9.1 1-22.9 1-20.5 0-22.4.1-22.8 1.7-1 3.9 0 4.3 10.8 4.3 9.1 0 10.5.2 11 1.7.3 1 .9 2.7 1.4 3.8.4 1.1 1.6 4.9 2.6 8.5.9 3.6 2 6.9 2.4 7.5.4.5 1.5 3.9 2.5 7.5 2.2 7.9 3 9 6.2 9 2.2 0 2.4-.3 1.8-2.3-.4-1.2-.9-3.7-1.2-5.5-.3-1.7-.9-3.2-1.3-3.2s-1-1.8-1.4-4c-.3-2.3-1-4.9-1.5-5.8-.5-.9-1.6-4.4-2.6-7.7-.9-3.3-1.9-6.8-2.1-7.8-.4-1.3.1-1.7 2-1.7 2 0 2.7.7 3.6 3.7.6 2.1 1.5 4.7 1.9 5.8.5 1.1 1.6 4.5 2.5 7.5 1 3 2.1 6.4 2.5 7.5.5 1.1 1.6 4.6 2.6 7.7 1.7 5.3 2.1 5.8 4.7 5.8 2.8 0 2.9-.2 2.3-3.2-.4-1.8-1.1-3.8-1.5-4.3-.4-.6-1.1-2.6-1.5-4.5-.4-1.9-1.1-4.1-1.5-5-1.7-3.4-6.7-19.9-6.2-20.4.3-.3 1.6-.6 2.9-.6 1.8 0 2.3.5 2.3 2.5 0 1.4.4 2.5.9 2.5s1.2 1.6 1.6 3.6c.3 2 1 4.4 1.5 5.3 1.6 3.3 2.9 6.8 4.6 12.6 2.6 9.1 4.1 11.5 6.9 11.5 1.4 0 2.5-.4 2.5-1 0-1-2.5-9.1-3.9-12.5-.5-1.1-1.6-4.5-2.5-7.5-1-3-2.1-6.4-2.6-7.5-.4-1.1-1.5-4.2-2.3-6.8-1.2-4.1-1.3-4.9-.1-5.4 2.5-.9 4.2.5 5.4 4.4.6 2.1 1.5 4.7 2 5.8.4 1.1 1.6 4.5 2.6 7.5s2.1 5.9 2.5 6.5c.4.5 1 2.7 1.4 4.8.4 2 1.1 4 1.6 4.3.5.3.9 1.4.9 2.5s.6 2.7 1.4 3.5c1.8 1.7 5.6 1.9 5.6.2 0-1.3-1.9-7.6-3-9.8-.4-.9-1.1-3.1-1.5-5-.4-1.9-1.1-4.2-1.6-5.2s-1.3-2.7-1.9-3.8c-.5-1-1.3-3.7-1.6-6-.4-2.2-1-4-1.5-4s-.9-.9-.9-2c0-1-.5-3.1-1.2-4.6-1-2.2-1-2.8.4-3.8 5.8-4.3 10.1-8.3 12-11.5 1.2-2 2.4-3.8 2.7-4.1 1.4-1.2 4.1-7 4.1-8.7 0-1 .6-2.5 1.3-3.1 1.6-1.7 1.7-25.3.1-27.3-.6-.8-1.4-2.8-1.8-4.4-.4-1.7-1.8-4.4-3.2-6.2-1.3-1.7-2.4-3.5-2.4-4 0-2.3-12.3-12.3-19.5-15.8l-8-4-46.2-.3-46.3-.3v67.5z"/><path d="M108.7 103.6c-.4.4-.7 28.3-.7 62.1V227h6V109h33.5c22.7 0 34.3.4 36.2 1.1 7.7 3.2 9.5 4.2 13.6 8.2 5.4 5.1 8.2 10.1 9.2 15.7.9 5.2-.3 19.2-1.6 18.4-.5-.3-.9.2-.9 1.1 0 .9-.6 2.3-1.3 3-.6.8-2.5 3-4 4.9-6.7 8.3-15.4 10.5-41.4 10.6H141v2.4c0 1.3.7 2.7 1.6 3 3.1 1.2 31 .6 38.9-.8 9.2-1.7 12.4-3.1 18.3-8.2 6.6-5.6 11.2-13.6 12.4-21.3 1.3-8-.2-18-3.4-24.1-3-5.6-11.7-13.4-18.6-16.7l-5.7-2.7-37.5-.4c-20.6-.2-37.8 0-38.3.4z"/><path d="M120.2 115.8c-.9.7-1.2 12.5-1 55.8l.3 54.9 3.3.3 3.2.3V121h27c24.8 0 27.4.2 30.9 1.9 5 2.6 9.3 7.6 11 12.8 1.2 3.8 1.2 4.9-.4 10-3.9 12.3-8.7 14.3-34.7 14.3H141v2.5c0 1.4.6 2.5 1.3 2.5.6.1 10.1 0 21 0 16.5-.1 20.4-.4 23.5-1.8 5.2-2.4 10-6.9 11.4-10.9.7-1.8 1.6-3.3 2-3.3 1.2 0 1-15.8-.2-16.5-.5-.3-1-1.4-1-2.4 0-2.3-8.3-10.5-12.9-12.8-3.2-1.6-7.3-1.8-34.1-2.1-16.8-.1-31.1.1-31.8.6z"/><path d="M131.6 127.7c-.3.4-.6 22.9-.6 50l.1 49.3h5.9v-47c0-44.1.1-47 1.8-47.1.9 0 10 0 20.2.1 22.5.2 23.5.5 23.5 7.5 0 7.1-1 7.5-23.2 7.5H141v6h18.3c10 0 19.9-.5 22-1.1 5.6-1.5 7.9-5.7 7.4-13.3-.3-5.5-.7-6.2-4.2-9.3l-3.8-3.3h-24.2c-13.3 0-24.5.3-24.9.7z"/></svg>