<svg width="524" height="170" viewBox="0 0 524 170" fill="none" xmlns="http://www.w3.org/2000/svg">
<path d="M247.7 85.109V73.259H263.5V63.7L278.984 79.184L263.5 94.668V85.109H247.7Z" fill="#6A737D"/>
<path fill-rule="evenodd" clip-rule="evenodd" d="M0 3.00001C0 1.34315 1.34315 0 3 0H197C198.657 0 200 1.34315 200 3V167C200 168.657 198.657 170 197 170H3C1.34314 170 0 168.657 0 167V3.00001Z" fill="#ABABB6"/>
<path fill-rule="evenodd" clip-rule="evenodd" d="M50 5C50 3.34315 51.3431 2 53 2H147C148.657 2 150 3.34315 150 5C150 6.65685 148.657 8 147 8H53C51.3431 8 50 6.65685 50 5Z" fill="white"/>
<path fill-rule="evenodd" clip-rule="evenodd" d="M19 7C20.1046 7 21 6.10457 21 5C21 3.89543 20.1046 3 19 3C17.8954 3 17 3.89543 17 5C17 6.10457 17.8954 7 19 7Z" fill="#44B480"/>
<path fill-rule="evenodd" clip-rule="evenodd" d="M12 7C13.1046 7 14 6.10457 14 5C14 3.89543 13.1046 3 12 3C10.8954 3 10 3.89543 10 5C10 6.10457 10.8954 7 12 7Z" fill="#F7C243"/>
<path fill-rule="evenodd" clip-rule="evenodd" d="M5 7C6.10457 7 7 6.10457 7 5C7 3.89543 6.10457 3 5 3C3.89543 3 3 3.89543 3 5C3 6.10457 3.89543 7 5 7Z" fill="#FF6369"/>
<path fill-rule="evenodd" clip-rule="evenodd" d="M0 10H200V170H0V10Z" fill="#E4E4E5"/>
<path fill-rule="evenodd" clip-rule="evenodd" d="M0 10H200V170H0V10Z" fill="#E4E4E5"/>
<path d="M68 33.2193H70.73C71.7616 33.2193 72.5207 33.4431 73.0073 33.8906C73.4983 34.3337 73.7438 34.9541 73.7438 35.7517C73.7438 36.0618 73.674 36.372 73.5344 36.6822C73.3992 36.9923 73.2055 37.2671 72.9532 37.5063C72.7054 37.7412 72.4194 37.9096 72.095 38.0115L74.1155 41.7003H72.3721L70.5881 38.1909H69.5812V41.7003H68V33.2193ZM70.8246 36.8949C71.2706 36.8949 71.604 36.793 71.8247 36.5891C72.0455 36.3853 72.1558 36.1061 72.1558 35.7517C72.1558 35.3529 72.0477 35.056 71.8315 34.861C71.6197 34.6661 71.2841 34.5686 70.8246 34.5686H69.5812V36.8949H70.8246Z" fill="#25292D"/>
<path d="M75.048 41.7003V33.2193H80.6635V34.5287H76.5549V36.6224H79.9607V37.9583H76.5549V40.3909H80.6364V41.7003H75.048Z" fill="#25292D"/>
<path d="M84.4138 37.6326C84.2381 37.6326 84.0715 37.5905 83.9138 37.5063C83.7561 37.4222 83.63 37.3092 83.5354 37.1674C83.4408 37.0211 83.3935 36.8661 83.3935 36.7021C83.3935 36.5382 83.4408 36.3853 83.5354 36.2435C83.63 36.1017 83.7561 35.9887 83.9138 35.9045C84.0715 35.8203 84.2381 35.7782 84.4138 35.7782C84.5805 35.7782 84.745 35.8181 84.9071 35.8979C85.0693 35.9776 85.2 36.0884 85.2991 36.2302C85.4027 36.372 85.4545 36.5293 85.4545 36.7021C85.4545 36.8661 85.4072 37.0211 85.3126 37.1674C85.218 37.3092 85.0896 37.4222 84.9274 37.5063C84.7697 37.5905 84.5985 37.6326 84.4138 37.6326ZM84.4138 41.8798C84.2291 41.8798 84.0579 41.8377 83.9003 41.7535C83.7426 41.6737 83.6187 41.5629 83.5286 41.4211C83.4385 41.2794 83.3935 41.1265 83.3935 40.9625C83.3935 40.7942 83.4408 40.6391 83.5354 40.4973C83.63 40.3511 83.7561 40.2359 83.9138 40.1517C84.0715 40.0675 84.2381 40.0254 84.4138 40.0254C84.5805 40.0254 84.745 40.0675 84.9071 40.1517C85.0693 40.2314 85.2 40.3444 85.2991 40.4906C85.4027 40.6324 85.4545 40.7897 85.4545 40.9625C85.4545 41.1265 85.4072 41.2794 85.3126 41.4211C85.2225 41.5585 85.0963 41.6693 84.9342 41.7535C84.7765 41.8377 84.6031 41.8798 84.4138 41.8798Z" fill="#25292D"/>
<path d="M92.9553 43.8671C92.275 43.8671 91.7164 43.7917 91.2794 43.6411C90.8424 43.4904 90.5091 43.2312 90.2793 42.8634C90.0496 42.4957 89.9347 41.9905 89.9347 41.348L89.9752 40.2048C89.9752 39.775 89.9099 39.4781 89.7793 39.3142C89.6486 39.1458 89.4481 39.0616 89.1778 39.0616H88.5967V37.8453H89.1643C89.4526 37.8453 89.6644 37.7589 89.7995 37.5861C89.9392 37.4133 90.009 37.1386 90.009 36.7619L89.9752 35.4792C89.9752 34.6727 90.1982 34.0634 90.6442 33.6514C91.0947 33.2348 91.7547 33.0266 92.6241 33.0266H93.7459V34.2562H92.3876C92.0903 34.2562 91.8696 34.347 91.7254 34.5287C91.5857 34.7104 91.5159 34.9829 91.5159 35.3462L91.543 36.6091C91.543 37.0079 91.4551 37.3668 91.2794 37.6858C91.1082 38.0004 90.8672 38.2552 90.5564 38.4502C90.8447 38.6318 91.0767 38.8933 91.2524 39.2344C91.4281 39.5756 91.5159 39.9611 91.5159 40.3909L91.4889 41.348C91.4889 41.8089 91.588 42.1434 91.7862 42.3517C91.9844 42.5599 92.3088 42.664 92.7593 42.664H93.7256V43.8671H92.9553Z" fill="#25292D"/>
<path d="M98.9356 40.7233C99.5212 40.7233 100.042 40.3267 100.497 39.5335L101.672 40.2846C101.348 40.8296 100.947 41.2439 100.47 41.5275C99.992 41.8066 99.4469 41.9462 98.8342 41.9462C98.1855 41.9462 97.6044 41.7823 97.0908 41.4544C96.5772 41.1265 96.1718 40.6302 95.8745 39.9656C95.5771 39.2965 95.4285 38.4767 95.4285 37.5063C95.4285 36.4562 95.5997 35.5944 95.942 34.9208C96.2889 34.2473 96.7282 33.7599 97.2598 33.4586C97.7958 33.1529 98.3635 33 98.9626 33C99.6158 33 100.181 33.1706 100.659 33.5118C101.136 33.853 101.506 34.3271 101.767 34.9341L100.645 35.4725L100.632 35.4792V35.4725C100.461 35.0073 100.233 34.6838 99.9492 34.5021C99.6654 34.3204 99.3501 34.2296 99.0032 34.2296C98.3364 34.2296 97.8409 34.5132 97.5165 35.0804C97.1967 35.6475 97.0368 36.434 97.0368 37.4399C97.0368 38.0558 97.1156 38.6141 97.2733 39.1148C97.4354 39.6111 97.6607 40.0032 97.949 40.2912C98.2418 40.5793 98.5707 40.7233 98.9356 40.7233ZM100.47 35.3861C100.47 35.3728 100.476 35.3662 100.49 35.3662C100.503 35.3662 100.524 35.3861 100.551 35.426C100.578 35.4614 100.596 35.4836 100.605 35.4924L100.537 35.5257L100.47 35.3861ZM100.666 35.5722C100.666 35.5811 100.659 35.5766 100.645 35.5589C100.632 35.5412 100.618 35.519 100.605 35.4924L100.632 35.4792L100.666 35.5722Z" fill="#25292D"/>
<path d="M105.45 41.9462C104.77 41.9462 104.184 41.769 103.693 41.4145C103.206 41.0556 102.832 40.5394 102.571 39.8659C102.314 39.1879 102.186 38.3793 102.186 37.4399C102.186 36.5138 102.314 35.7184 102.571 35.0538C102.832 34.3891 103.206 33.8818 103.693 33.5317C104.184 33.1772 104.77 33 105.45 33C106.13 33 106.713 33.1772 107.2 33.5317C107.691 33.8818 108.065 34.3891 108.322 35.0538C108.583 35.7184 108.714 36.5138 108.714 37.4399C108.714 38.3793 108.583 39.1879 108.322 39.8659C108.065 40.5394 107.691 41.0556 107.2 41.4145C106.713 41.769 106.13 41.9462 105.45 41.9462ZM105.45 40.7233C105.792 40.7233 106.087 40.5859 106.335 40.3112C106.587 40.032 106.779 39.6399 106.909 39.1347C107.045 38.6252 107.112 38.0336 107.112 37.3601C107.112 36.7353 107.045 36.1881 106.909 35.7184C106.779 35.2443 106.587 34.8788 106.335 34.6218C106.087 34.3603 105.792 34.2296 105.45 34.2296C105.112 34.2296 104.817 34.3603 104.565 34.6218C104.312 34.8788 104.119 35.2443 103.983 35.7184C103.853 36.1881 103.787 36.7353 103.787 37.3601C103.787 38.0336 103.853 38.6252 103.983 39.1347C104.119 39.6399 104.31 40.032 104.558 40.3112C104.81 40.5859 105.107 40.7233 105.45 40.7233Z" fill="#25292D"/>
<path d="M109.477 33.2193H111.707C112.441 33.2193 113.025 33.3168 113.457 33.5118C113.894 33.7023 114.266 33.9992 114.572 34.4024C115.162 35.1911 115.458 36.2302 115.458 37.5196C115.458 38.8578 115.14 39.8902 114.505 40.6169C113.874 41.3392 112.885 41.7003 111.538 41.7003H109.477V33.2193ZM111.511 40.5039C112.318 40.5039 112.917 40.2536 113.309 39.7529C113.705 39.2522 113.903 38.521 113.903 37.5595C113.903 35.5124 113.153 34.4888 111.653 34.4888H110.984V40.5039H111.511Z" fill="#25292D"/>
<path d="M116.566 41.7003V33.2193H122.181V34.5287H118.073V36.6224H121.478V37.9583H118.073V40.3909H122.154V41.7003H116.566Z" fill="#25292D"/>
<path d="M123.485 43.8671V42.664H124.452C124.902 42.664 125.227 42.5599 125.425 42.3517C125.623 42.1434 125.722 41.8089 125.722 41.348L125.695 40.3909C125.695 39.9611 125.783 39.5756 125.959 39.2344C126.134 38.8933 126.366 38.6318 126.655 38.4502C126.344 38.2552 126.101 38.0004 125.925 37.6858C125.754 37.3668 125.668 37.0079 125.668 36.6091L125.695 35.3462C125.695 34.9829 125.623 34.7104 125.479 34.5287C125.339 34.347 125.121 34.2562 124.823 34.2562H123.465V33.0266H124.587C125.456 33.0266 126.114 33.2348 126.56 33.6514C127.011 34.0634 127.236 34.6727 127.236 35.4792L127.202 36.7619C127.202 37.1386 127.27 37.4133 127.405 37.5861C127.544 37.7589 127.758 37.8453 128.047 37.8453H128.614V39.0616H128.033C127.763 39.0616 127.562 39.1458 127.432 39.3142C127.301 39.4781 127.236 39.775 127.236 40.2048L127.276 41.348C127.276 41.9905 127.161 42.4957 126.932 42.8634C126.702 43.2312 126.369 43.4904 125.932 43.6411C125.495 43.7917 124.936 43.8671 124.256 43.8671H123.485Z" fill="#25292D"/>
<path d="M132.851 37.6326C132.676 37.6326 132.509 37.5905 132.351 37.5063C132.194 37.4222 132.067 37.3092 131.973 37.1674C131.878 37.0211 131.831 36.8661 131.831 36.7021C131.831 36.5382 131.878 36.3853 131.973 36.2435C132.067 36.1017 132.194 35.9887 132.351 35.9045C132.509 35.8203 132.676 35.7782 132.851 35.7782C133.018 35.7782 133.182 35.8181 133.345 35.8979C133.507 35.9776 133.637 36.0884 133.736 36.2302C133.84 36.372 133.892 36.5293 133.892 36.7021C133.892 36.8661 133.845 37.0211 133.75 37.1674C133.655 37.3092 133.527 37.4222 133.365 37.5063C133.207 37.5905 133.036 37.6326 132.851 37.6326ZM131.581 43.3088C131.842 43.0695 132.058 42.8213 132.23 42.5644C132.405 42.3118 132.493 42.1146 132.493 41.9728C132.493 41.9329 132.473 41.8908 132.432 41.8465C132.396 41.8022 132.338 41.7424 132.257 41.6671C132.126 41.5474 132.022 41.4367 131.946 41.3347C131.869 41.2328 131.831 41.1198 131.831 40.9958C131.831 40.8185 131.874 40.6568 131.959 40.5106C132.045 40.3644 132.164 40.2491 132.317 40.165C132.475 40.0808 132.653 40.0387 132.851 40.0387C133.049 40.0387 133.236 40.0941 133.412 40.2048C133.588 40.3112 133.73 40.4596 133.838 40.6502C133.946 40.8407 134 41.0556 134 41.2949C134 41.6538 133.865 42.0548 133.595 42.4979C133.324 42.9454 132.917 43.4461 132.371 44L131.581 43.3088Z" fill="#25292D"/>
<path fill-rule="evenodd" clip-rule="evenodd" d="M80 145C80 141.686 82.6863 139 86 139H114C117.314 139 120 141.686 120 145C120 148.314 117.314 151 114 151H86C82.6863 151 80 148.314 80 145Z" fill="#2E76DF"/>
<path opacity="0.5" fill-rule="evenodd" clip-rule="evenodd" d="M90 144H110V146H90V144Z" fill="white"/>
<path fill-rule="evenodd" clip-rule="evenodd" d="M134 73C134 70.7909 135.791 69 138 69H166C168.209 69 170 70.7909 170 73V115C170 117.209 168.209 119 166 119H138C135.791 119 134 117.209 134 115V73Z" fill="#CDCDD2"/>
<path fill-rule="evenodd" clip-rule="evenodd" d="M70 63C70 60.7909 71.7909 59 74 59H126C128.209 59 130 60.7909 130 63V125C130 127.209 128.209 129 126 129H74C71.7909 129 70 127.209 70 125V63Z" fill="#ABABB6"/>
<path fill-rule="evenodd" clip-rule="evenodd" d="M30 73C30 70.7909 31.7909 69 34 69H62C64.2091 69 66 70.7909 66 73V115C66 117.209 64.2091 119 62 119H34C31.7909 119 30 117.209 30 115V73Z" fill="#CDCDD2"/>
<path fill-rule="evenodd" clip-rule="evenodd" d="M324 3.00001C324 1.34315 325.343 0 327 0H521C522.657 0 524 1.34315 524 3V167C524 168.657 522.657 170 521 170H327C325.343 170 324 168.657 324 167V3.00001Z" fill="#ABABB6"/>
<path fill-rule="evenodd" clip-rule="evenodd" d="M374 5C374 3.34315 375.343 2 377 2H471C472.657 2 474 3.34315 474 5C474 6.65685 472.657 8 471 8H377C375.343 8 374 6.65685 374 5Z" fill="white"/>
<path fill-rule="evenodd" clip-rule="evenodd" d="M343 7C344.105 7 345 6.10457 345 5C345 3.89543 344.105 3 343 3C341.895 3 341 3.89543 341 5C341 6.10457 341.895 7 343 7Z" fill="#44B480"/>
<path fill-rule="evenodd" clip-rule="evenodd" d="M336 7C337.105 7 338 6.10457 338 5C338 3.89543 337.105 3 336 3C334.895 3 334 3.89543 334 5C334 6.10457 334.895 7 336 7Z" fill="#F7C243"/>
<path fill-rule="evenodd" clip-rule="evenodd" d="M329 7C330.105 7 331 6.10457 331 5C331 3.89543 330.105 3 329 3C327.895 3 327 3.89543 327 5C327 6.10457 327.895 7 329 7Z" fill="#FF6369"/>
<path fill-rule="evenodd" clip-rule="evenodd" d="M324 10H524V170H324V10Z" fill="#E4E4E5"/>
<path fill-rule="evenodd" clip-rule="evenodd" d="M324 10H524V170H324V10Z" fill="#E4E4E5"/>
<path opacity="0.2" fill-rule="evenodd" clip-rule="evenodd" d="M384 107H464V111H384V107Z" fill="#2C3238"/>
<path opacity="0.2" fill-rule="evenodd" clip-rule="evenodd" d="M374 99H474V103H374V99Z" fill="#2C3238"/>
<path fill-rule="evenodd" clip-rule="evenodd" d="M424 89C432.284 89 439 82.2843 439 74C439 65.7157 432.284 59 424 59C415.716 59 409 65.7157 409 74C409 82.2843 415.716 89 424 89Z" fill="#2E76DF"/>
<path fill-rule="evenodd" clip-rule="evenodd" d="M421.966 78.9994C421.905 78.9953 421.89 78.9958 421.83 78.9855C421.695 78.9622 421.566 78.9112 421.452 78.8362C421.394 78.7983 421.343 78.7542 421.293 78.7071L417.293 74.7071C417.251 74.6627 417.24 74.6526 417.203 74.6042C417.134 74.5135 417.081 74.411 417.047 74.3025C417.005 74.1722 416.991 74.0337 417.005 73.8977C417.017 73.7844 417.048 73.6733 417.097 73.5705C417.136 73.4882 417.186 73.4114 417.246 73.3428C417.474 73.082 417.829 72.9557 418.17 73.0145C418.327 73.0416 418.477 73.1068 418.604 73.2032C418.653 73.2399 418.663 73.2515 418.707 73.2929L422 76.5857L429.293 69.2928L429.343 69.2462C429.39 69.208 429.401 69.1971 429.452 69.1638C429.547 69.1013 429.653 69.0553 429.763 69.0284C429.896 68.996 430.035 68.9913 430.17 69.0145C430.487 69.0692 430.765 69.2796 430.903 69.5705C430.942 69.6527 430.97 69.7403 430.986 69.83C431.005 69.9423 431.005 70.0577 430.986 70.1699C430.958 70.3271 430.893 70.4771 430.797 70.6042C430.76 70.6526 430.748 70.6627 430.707 70.7071L422.707 78.7071C422.663 78.7485 422.653 78.7601 422.604 78.7968C422.495 78.8794 422.37 78.9392 422.237 78.9716C422.17 78.9879 422.103 78.9947 422.034 78.9994C422.011 78.9994 421.989 78.9994 421.966 78.9994Z" fill="white"/>
</svg>
