<svg width="527" height="170" viewBox="0 0 527 170" fill="none" xmlns="http://www.w3.org/2000/svg">
<path d="M247.7 87.109V75.259H263.5V65.7L278.984 81.184L263.5 96.668V87.109H247.7Z" fill="#6A737D"/>
<path fill-rule="evenodd" clip-rule="evenodd" d="M0 3.00001C0 1.34315 1.34315 0 3 0H197C198.657 0 200 1.34315 200 3V167C200 168.657 198.657 170 197 170H3C1.34314 170 0 168.657 0 167V3.00001Z" fill="#ABABB6"/>
<path fill-rule="evenodd" clip-rule="evenodd" d="M50 5C50 3.34315 51.3431 2 53 2H147C148.657 2 150 3.34315 150 5C150 6.65685 148.657 8 147 8H53C51.3431 8 50 6.65685 50 5Z" fill="white"/>
<path fill-rule="evenodd" clip-rule="evenodd" d="M19 7C20.1046 7 21 6.10457 21 5C21 3.89543 20.1046 3 19 3C17.8954 3 17 3.89543 17 5C17 6.10457 17.8954 7 19 7Z" fill="#44B480"/>
<path fill-rule="evenodd" clip-rule="evenodd" d="M12 7C13.1046 7 14 6.10457 14 5C14 3.89543 13.1046 3 12 3C10.8954 3 10 3.89543 10 5C10 6.10457 10.8954 7 12 7Z" fill="#F7C243"/>
<path fill-rule="evenodd" clip-rule="evenodd" d="M5 7C6.10457 7 7 6.10457 7 5C7 3.89543 6.10457 3 5 3C3.89543 3 3 3.89543 3 5C3 6.10457 3.89543 7 5 7Z" fill="#FF6369"/>
<path fill-rule="evenodd" clip-rule="evenodd" d="M0 10H200V170H0V10Z" fill="#E4E4E5"/>
<path fill-rule="evenodd" clip-rule="evenodd" d="M0 10H200V170H0V10Z" fill="#E4E4E5"/>
<path opacity="0.2" fill-rule="evenodd" clip-rule="evenodd" d="M70 136H150V140H70V136Z" fill="#2C3238"/>
<path opacity="0.2" fill-rule="evenodd" clip-rule="evenodd" d="M70 128H170V132H70V128Z" fill="#2C3238"/>
<path opacity="0.6" fill-rule="evenodd" clip-rule="evenodd" d="M70 120H90V124H70V120Z" fill="#2C3238"/>
<path fill-rule="evenodd" clip-rule="evenodd" d="M30 124C30 121.791 31.7909 120 34 120H56C58.2091 120 60 121.791 60 124V146C60 148.209 58.2091 150 56 150H34C31.7909 150 30 148.209 30 146V124Z" fill="#CDCDD2"/>
<path opacity="0.2" fill-rule="evenodd" clip-rule="evenodd" d="M70 91H150V95H70V91Z" fill="#2C3238"/>
<path opacity="0.2" fill-rule="evenodd" clip-rule="evenodd" d="M70 83H170V87H70V83Z" fill="#2C3238"/>
<path opacity="0.6" fill-rule="evenodd" clip-rule="evenodd" d="M70 75H90V79H70V75Z" fill="#2C3238"/>
<path fill-rule="evenodd" clip-rule="evenodd" d="M30 79C30 76.7909 31.7909 75 34 75H56C58.2091 75 60 76.7909 60 79V101C60 103.209 58.2091 105 56 105H34C31.7909 105 30 103.209 30 101V79Z" fill="#CDCDD2"/>
<path opacity="0.2" fill-rule="evenodd" clip-rule="evenodd" d="M70 46H150V50H70V46Z" fill="#2C3238"/>
<path opacity="0.2" fill-rule="evenodd" clip-rule="evenodd" d="M70 38H170V42H70V38Z" fill="#2C3238"/>
<path opacity="0.6" fill-rule="evenodd" clip-rule="evenodd" d="M70 30H90V34H70V30Z" fill="#2C3238"/>
<path fill-rule="evenodd" clip-rule="evenodd" d="M30 34C30 31.7909 31.7909 30 34 30H56C58.2091 30 60 31.7909 60 34V56C60 58.2091 58.2091 60 56 60H34C31.7909 60 30 58.2091 30 56V34Z" fill="#CDCDD2"/>
<path fill-rule="evenodd" clip-rule="evenodd" d="M327 3.00001C327 1.34315 328.343 0 330 0H524C525.657 0 527 1.34315 527 3V167C527 168.657 525.657 170 524 170H330C328.343 170 327 168.657 327 167V3.00001Z" fill="#ABABB6"/>
<path fill-rule="evenodd" clip-rule="evenodd" d="M377 5C377 3.34315 378.343 2 380 2H474C475.657 2 477 3.34315 477 5C477 6.65685 475.657 8 474 8H380C378.343 8 377 6.65685 377 5Z" fill="white"/>
<path fill-rule="evenodd" clip-rule="evenodd" d="M346 7C347.105 7 348 6.10457 348 5C348 3.89543 347.105 3 346 3C344.895 3 344 3.89543 344 5C344 6.10457 344.895 7 346 7Z" fill="#44B480"/>
<path fill-rule="evenodd" clip-rule="evenodd" d="M339 7C340.105 7 341 6.10457 341 5C341 3.89543 340.105 3 339 3C337.895 3 337 3.89543 337 5C337 6.10457 337.895 7 339 7Z" fill="#F7C243"/>
<path fill-rule="evenodd" clip-rule="evenodd" d="M332 7C333.105 7 334 6.10457 334 5C334 3.89543 333.105 3 332 3C330.895 3 330 3.89543 330 5C330 6.10457 330.895 7 332 7Z" fill="#FF6369"/>
<path fill-rule="evenodd" clip-rule="evenodd" d="M327 10H527V170H327V10Z" fill="#E4E4E5"/>
<path fill-rule="evenodd" clip-rule="evenodd" d="M327 10H527V170H327V10Z" fill="#E4E4E5"/>
<path opacity="0.2" fill-rule="evenodd" clip-rule="evenodd" d="M397 136H477V140H397V136Z" fill="#2C3238"/>
<path opacity="0.2" fill-rule="evenodd" clip-rule="evenodd" d="M397 128H497V132H397V128Z" fill="#2C3238"/>
<path opacity="0.6" fill-rule="evenodd" clip-rule="evenodd" d="M397 120H417V124H397V120Z" fill="#2C3238"/>
<path fill-rule="evenodd" clip-rule="evenodd" d="M357 124C357 121.791 358.791 120 361 120H383C385.209 120 387 121.791 387 124V146C387 148.209 385.209 150 383 150H361C358.791 150 357 148.209 357 146V124Z" fill="#CDCDD2"/>
<path opacity="0.2" fill-rule="evenodd" clip-rule="evenodd" d="M397 91H477V95H397V91Z" fill="#2C3238"/>
<path opacity="0.2" fill-rule="evenodd" clip-rule="evenodd" d="M397 83H497V87H397V83Z" fill="#2C3238"/>
<path opacity="0.6" fill-rule="evenodd" clip-rule="evenodd" d="M397 75H417V79H397V75Z" fill="#2C3238"/>
<path fill-rule="evenodd" clip-rule="evenodd" d="M357 79C357 76.7909 358.791 75 361 75H383C385.209 75 387 76.7909 387 79V101C387 103.209 385.209 105 383 105H361C358.791 105 357 103.209 357 101V79Z" fill="#CDCDD2"/>
<path opacity="0.2" fill-rule="evenodd" clip-rule="evenodd" d="M397 46H477V50H397V46Z" fill="#2C3238"/>
<path opacity="0.2" fill-rule="evenodd" clip-rule="evenodd" d="M397 38H497V42H397V38Z" fill="#2C3238"/>
<path opacity="0.6" fill-rule="evenodd" clip-rule="evenodd" d="M397 30H417V34H397V30Z" fill="#2C3238"/>
<path fill-rule="evenodd" clip-rule="evenodd" d="M357 34C357 31.7909 358.791 30 361 30H383C385.209 30 387 31.7909 387 34V56C387 58.2091 385.209 60 383 60H361C358.791 60 357 58.2091 357 56V34Z" fill="#CDCDD2"/>
<path fill-rule="evenodd" clip-rule="evenodd" d="M500 52C505.523 52 510 47.5228 510 42C510 36.4772 505.523 32 500 32C494.477 32 490 36.4772 490 42C490 47.5228 494.477 52 500 52Z" fill="#2E76DF"/>
<path fill-rule="evenodd" clip-rule="evenodd" d="M498.644 45.333C498.604 45.3303 498.593 45.3306 498.553 45.3237C498.464 45.3082 498.377 45.2742 498.301 45.2242C498.262 45.1989 498.229 45.1695 498.195 45.1382L495.529 42.4715C495.501 42.4419 495.493 42.4352 495.469 42.4029C495.423 42.3424 495.387 42.2741 495.365 42.2017C495.337 42.1149 495.327 42.0225 495.337 41.9319C495.345 41.8564 495.365 41.7823 495.398 41.7137C495.424 41.6589 495.458 41.6077 495.497 41.5619C495.649 41.3881 495.886 41.3039 496.113 41.3431C496.218 41.3612 496.318 41.4046 496.403 41.4689C496.435 41.4933 496.442 41.5011 496.471 41.5287L498.667 43.7239L503.529 38.862L503.562 38.8309C503.593 38.8054 503.6 38.7981 503.634 38.7759C503.698 38.7343 503.768 38.7036 503.842 38.6857C503.931 38.6641 504.023 38.6609 504.113 38.6764C504.325 38.7129 504.51 38.8531 504.602 39.0471C504.628 39.1019 504.647 39.1603 504.657 39.2201C504.67 39.2949 504.67 39.3719 504.657 39.4467C504.639 39.5515 504.595 39.6515 504.531 39.7362C504.507 39.7685 504.499 39.7752 504.471 39.8048L499.138 45.1382C499.109 45.1658 499.102 45.1735 499.069 45.198C498.997 45.253 498.913 45.2929 498.825 45.3145C498.78 45.3254 498.735 45.3299 498.689 45.333C498.674 45.333 498.659 45.333 498.644 45.333Z" fill="white"/>
<path fill-rule="evenodd" clip-rule="evenodd" d="M500 97C505.523 97 510 92.5228 510 87C510 81.4772 505.523 77 500 77C494.477 77 490 81.4772 490 87C490 92.5228 494.477 97 500 97Z" fill="#2E76DF"/>
<path fill-rule="evenodd" clip-rule="evenodd" d="M498.644 90.333C498.604 90.3303 498.593 90.3306 498.553 90.3237C498.464 90.3082 498.377 90.2742 498.301 90.2242C498.262 90.1989 498.229 90.1695 498.195 90.1382L495.529 87.4715C495.501 87.4419 495.493 87.4352 495.469 87.4029C495.423 87.3424 495.387 87.2741 495.365 87.2017C495.337 87.1149 495.327 87.0225 495.337 86.9319C495.345 86.8564 495.365 86.7823 495.398 86.7137C495.424 86.6589 495.458 86.6077 495.497 86.5619C495.649 86.3881 495.886 86.3039 496.113 86.3431C496.218 86.3612 496.318 86.4046 496.403 86.4689C496.435 86.4933 496.442 86.5011 496.471 86.5287L498.667 88.7239L503.529 83.862L503.562 83.8309C503.593 83.8054 503.6 83.7981 503.634 83.7759C503.698 83.7343 503.768 83.7036 503.842 83.6857C503.931 83.6641 504.023 83.6609 504.113 83.6764C504.325 83.7129 504.51 83.8531 504.602 84.0471C504.628 84.1019 504.647 84.1603 504.657 84.2201C504.67 84.2949 504.67 84.3719 504.657 84.4467C504.639 84.5515 504.595 84.6515 504.531 84.7362C504.507 84.7685 504.499 84.7752 504.471 84.8048L499.138 90.1382C499.109 90.1658 499.102 90.1735 499.069 90.198C498.997 90.253 498.913 90.2929 498.825 90.3145C498.78 90.3254 498.735 90.3299 498.689 90.333C498.674 90.333 498.659 90.333 498.644 90.333Z" fill="white"/>
<path fill-rule="evenodd" clip-rule="evenodd" d="M500 140C505.523 140 510 135.523 510 130C510 124.477 505.523 120 500 120C494.477 120 490 124.477 490 130C490 135.523 494.477 140 500 140Z" fill="#2E76DF"/>
<path fill-rule="evenodd" clip-rule="evenodd" d="M498.644 133.333C498.604 133.33 498.593 133.331 498.553 133.324C498.464 133.308 498.377 133.274 498.301 133.224C498.262 133.199 498.229 133.17 498.195 133.138L495.529 130.471C495.501 130.442 495.493 130.435 495.469 130.403C495.423 130.342 495.387 130.274 495.365 130.202C495.337 130.115 495.327 130.023 495.337 129.932C495.345 129.856 495.365 129.782 495.398 129.714C495.424 129.659 495.458 129.608 495.497 129.562C495.649 129.388 495.886 129.304 496.113 129.343C496.218 129.361 496.318 129.405 496.403 129.469C496.435 129.493 496.442 129.501 496.471 129.529L498.667 131.724L503.529 126.862L503.562 126.831C503.593 126.805 503.6 126.798 503.634 126.776C503.698 126.734 503.768 126.704 503.842 126.686C503.931 126.664 504.023 126.661 504.113 126.676C504.325 126.713 504.51 126.853 504.602 127.047C504.628 127.102 504.647 127.16 504.657 127.22C504.67 127.295 504.67 127.372 504.657 127.447C504.639 127.551 504.595 127.651 504.531 127.736C504.507 127.768 504.499 127.775 504.471 127.805L499.138 133.138C499.109 133.166 499.102 133.173 499.069 133.198C498.997 133.253 498.913 133.293 498.825 133.314C498.78 133.325 498.735 133.33 498.689 133.333C498.674 133.333 498.659 133.333 498.644 133.333Z" fill="white"/>
</svg>
