<svg width="18" height="12" viewBox="0 0 18 12" fill="none" xmlns="http://www.w3.org/2000/svg">
<path d="M12.2727 6.54545C12.0355 6.54545 11.7655 6.54545 11.4791 6.58636C12.4282 7.27364 13.0909 8.18182 13.0909 9.40909V11.4545H18V9.40909C18 7.50273 14.1791 6.54545 12.2727 6.54545ZM5.72727 6.54545C3.82091 6.54545 0 7.50273 0 9.40909V11.4545H11.4545V9.40909C11.4545 7.50273 7.63364 6.54545 5.72727 6.54545ZM5.72727 4.90909C6.37826 4.90909 7.00258 4.65049 7.4629 4.19017C7.92322 3.72986 8.18182 3.10553 8.18182 2.45455C8.18182 1.80356 7.92322 1.17924 7.4629 0.71892C7.00258 0.258603 6.37826 0 5.72727 0C5.07629 0 4.45196 0.258603 3.99165 0.71892C3.53133 1.17924 3.27273 1.80356 3.27273 2.45455C3.27273 3.10553 3.53133 3.72986 3.99165 4.19017C4.45196 4.65049 5.07629 4.90909 5.72727 4.90909ZM12.2727 4.90909C12.9237 4.90909 13.548 4.65049 14.0084 4.19017C14.4687 3.72986 14.7273 3.10553 14.7273 2.45455C14.7273 1.80356 14.4687 1.17924 14.0084 0.71892C13.548 0.258603 12.9237 0 12.2727 0C11.6217 0 10.9974 0.258603 10.5371 0.71892C10.0768 1.17924 9.81818 1.80356 9.81818 2.45455C9.81818 3.10553 10.0768 3.72986 10.5371 4.19017C10.9974 4.65049 11.6217 4.90909 12.2727 4.90909Z" fill="white"/>
</svg>
