<svg width="20" height="12" viewBox="0 0 20 12" fill="none" xmlns="http://www.w3.org/2000/svg">
<path d="M10 0C9.27668 0 8.58299 0.287337 8.07153 0.7988C7.56006 1.31026 7.27273 2.00396 7.27273 2.72727C7.27273 3.45059 7.56006 4.14428 8.07153 4.65575C8.58299 5.16721 9.27668 5.45455 10 5.45455C10.7233 5.45455 11.417 5.16721 11.9285 4.65575C12.4399 4.14428 12.7273 3.45059 12.7273 2.72727C12.7273 2.00396 12.4399 1.31026 11.9285 0.7988C11.417 0.287337 10.7233 0 10 0ZM4.54545 1.97273C3.94269 1.97273 3.36461 2.21217 2.93839 2.63839C2.51217 3.06461 2.27273 3.64269 2.27273 4.24545C2.27273 4.54391 2.33151 4.83945 2.44573 5.11519C2.55994 5.39093 2.72735 5.64147 2.93839 5.85252C3.14944 6.06356 3.39998 6.23097 3.67572 6.34518C3.95146 6.4594 4.247 6.51818 4.54545 6.51818C5.34545 6.51818 6.04545 6.1 6.44546 5.48182C5.83636 4.70909 5.45455 3.77273 5.45455 2.72727C5.45455 2.54545 5.45455 2.36364 5.49091 2.18182C5.2 2.04545 4.88182 1.97273 4.54545 1.97273ZM15.4545 1.97273C15.1182 1.97273 14.8 2.04545 14.5091 2.18182C14.5455 2.36364 14.5455 2.54545 14.5455 2.72727C14.5455 3.77273 14.1636 4.70909 13.5545 5.48182C13.9545 6.1 14.6545 6.51818 15.4545 6.51818C15.753 6.51818 16.0485 6.4594 16.3243 6.34518C16.6 6.23097 16.8506 6.06356 17.0616 5.85252C17.2726 5.64147 17.4401 5.39093 17.5543 5.11519C17.6685 4.83945 17.7273 4.54391 17.7273 4.24545C17.7273 3.947 17.6685 3.65146 17.5543 3.37572C17.4401 3.09998 17.2726 2.84944 17.0616 2.63839C16.8506 2.42735 16.6 2.25994 16.3243 2.14573C16.0485 2.03151 15.753 1.97273 15.4545 1.97273ZM10 7.27273C8.18182 7.27273 4.54545 8.18182 4.54545 10V11.8182H15.4545V10C15.4545 8.18182 11.8182 7.27273 10 7.27273ZM3.33636 8.15455C1.81818 8.41818 0 9.12727 0 10.3V11.8182H2.72727V10C2.72727 9.29091 2.99091 8.66364 3.33636 8.15455ZM16.6636 8.15455C17.0091 8.66364 17.2727 9.29091 17.2727 10V11.8182H20V10.3C20 9.12727 18.1818 8.41818 16.6636 8.15455Z" fill="white"/>
</svg>
