<svg xmlns="http://www.w3.org/2000/svg" viewBox="0 0 24 24"><defs><style>.cls-1{fill:#fff;}</style></defs><g id="Layer_2" data-name="Layer 2"><g id="Layer_2-2" data-name="Layer 2"><path class="cls-1" d="M2.4,24h12a2.38,2.38,0,0,0,2.4-2.36V9.81a2.38,2.38,0,0,0-2.4-2.36H2.4A2.39,2.39,0,0,0,0,9.81V21.64A2.39,2.39,0,0,0,2.4,24ZM4.8,12.18H12v2.36H4.8Zm0,4.73H12v2.36H4.8Z"/><path class="cls-1" d="M21.6,0h-12a2.43,2.43,0,0,0-1.7.69,2.36,2.36,0,0,0-.7,1.67V4.73H16.8a2.43,2.43,0,0,1,1.7.69,2.36,2.36,0,0,1,.7,1.67v9.46h2.4a2.43,2.43,0,0,0,1.7-.69,2.33,2.33,0,0,0,.7-1.67V2.36A2.36,2.36,0,0,0,23.3.69,2.43,2.43,0,0,0,21.6,0Z"/></g></g></svg>