<svg xmlns="http://www.w3.org/2000/svg" viewBox="0 0 33.6 33.6"><g id="Layer_2" data-name="Layer 2"><g id="Layer_1-2" data-name="Layer 1"><path d="M30.52,3.12,33.58,0Z"/><path d="M30.52,16.32V26.74a3.75,3.75,0,0,1-1.07,2.64,3.63,3.63,0,0,1-2.59,1.09H6.73a3.64,3.64,0,0,1-2.6-1.09,3.75,3.75,0,0,1-1.07-2.64V3.12H17.57L15.13,5.61l2.16,2.2,4.59-4.68L24.94,0H0V26.75a6.9,6.9,0,0,0,2,4.84,6.64,6.64,0,0,0,4.76,2H26.87a6.64,6.64,0,0,0,4.76-2,6.9,6.9,0,0,0,2-4.84V13.21Z"/><path d="M29.26,0,26.2,3.12,12.69,16.87a1.6,1.6,0,0,0-.43,1.1,1.52,1.52,0,0,0,2.59,1.1l15.67-16L33.58,0Z"/><path d="M26.2,3.12,12.69,16.88Z"/><path d="M26.2,3.12,29.26,0Z"/><path d="M29.89,10.37a1.58,1.58,0,0,0-.5-.34,1.62,1.62,0,0,0-.58-.12,1.72,1.72,0,0,0-.59.12,1.7,1.7,0,0,0-.5.34l-7.87,8L22,20.61l7.88-8a1.75,1.75,0,0,0,.34-.51,1.56,1.56,0,0,0,0-1.2A1.75,1.75,0,0,0,29.89,10.37Z"/><path d="M9.45,20.18A1.49,1.49,0,0,0,9,21a1.61,1.61,0,0,0,.08.9,1.57,1.57,0,0,0,.57.7,1.51,1.51,0,0,0,.85.27,1.54,1.54,0,0,0,1.41-1A1.71,1.71,0,0,0,12,21a1.56,1.56,0,0,0-.42-.79,1.54,1.54,0,0,0-1.08-.46A1.51,1.51,0,0,0,9.45,20.18Z"/><path d="M30.52,8.21a1.58,1.58,0,0,0,.37,1,1.59,1.59,0,0,0,.89.52,1.53,1.53,0,0,0,1-.17,1.58,1.58,0,0,0,.72-1.83,1.48,1.48,0,0,0-.62-.83,1.45,1.45,0,0,0-1-.25,1.47,1.47,0,0,0-.93.45,1.58,1.58,0,0,0-.45,1.07Z"/></g></g></svg>