<svg width="16" height="16" viewBox="0 0 16 16" fill="none" xmlns="http://www.w3.org/2000/svg">
<path d="M10.9091 5.75281C12.6036 5.75281 16 6.59416 16 8.26966V10.0674H11.6364V8.26966C11.6364 7.19101 11.0473 6.39281 10.2109 5.78876L10.9091 5.75281ZM5.09091 5.75281C6.78545 5.75281 10.1818 6.59416 10.1818 8.26966V10.0674H0V8.26966C0 6.59416 3.39636 5.75281 5.09091 5.75281ZM5.09091 4.31461C4.51226 4.31461 3.9573 4.08732 3.54813 3.68275C3.13896 3.27817 2.90909 2.72946 2.90909 2.1573C2.90909 1.58515 3.13896 1.03643 3.54813 0.63186C3.9573 0.227287 4.51226 0 5.09091 0C5.66956 0 6.22452 0.227287 6.63369 0.63186C7.04286 1.03643 7.27273 1.58515 7.27273 2.1573C7.27273 2.72946 7.04286 3.27817 6.63369 3.68275C6.22452 4.08732 5.66956 4.31461 5.09091 4.31461ZM10.9091 4.31461C10.3304 4.31461 9.77548 4.08732 9.36631 3.68275C8.95714 3.27817 8.72727 2.72946 8.72727 2.1573C8.72727 1.58515 8.95714 1.03643 9.36631 0.63186C9.77548 0.227287 10.3304 0 10.9091 0C11.4877 0 12.0427 0.227287 12.4519 0.63186C12.861 1.03643 13.0909 1.58515 13.0909 2.1573C13.0909 2.72946 12.861 3.27817 12.4519 3.68275C12.0427 4.08732 11.4877 4.31461 10.9091 4.31461ZM5.81818 11.3258V12.9438H10.1818V11.3258L12.5455 13.6629L10.1818 16V14.382H5.81818V16L3.45455 13.6629L5.81818 11.3258Z" fill="black"/>
</svg>
