<svg width="12" height="14" viewBox="0 0 12 14" fill="none" xmlns="http://www.w3.org/2000/svg">
<path d="M6 0C6.79565 0 7.55871 0.294999 8.12132 0.820101C8.68393 1.3452 9 2.05739 9 2.8C9 3.54261 8.68393 4.2548 8.12132 4.7799C7.55871 5.305 6.79565 5.6 6 5.6C5.20435 5.6 4.44129 5.305 3.87868 4.7799C3.31607 4.2548 3 3.54261 3 2.8C3 2.05739 3.31607 1.3452 3.87868 0.820101C4.44129 0.294999 5.20435 0 6 0ZM6 7C9.315 7 12 8.253 12 9.8V11.2H0V9.8C0 8.253 2.685 7 6 7ZM2.25 12.6H3.75V14H2.25V12.6ZM5.25 12.6H6.75V14H5.25V12.6ZM8.25 12.6H9.75V14H8.25V12.6Z" fill="black"/>
</svg>
