<svg width="14" height="18" viewBox="0 0 14 18" fill="none" xmlns="http://www.w3.org/2000/svg">
<path fill-rule="evenodd" clip-rule="evenodd" d="M12.2222 13.2001C12.2222 11.2779 12.2222 6.2223 12.2222 6.2223C12.1888 5.35564 11.8444 4.58897 11.1777 3.93341C10.511 3.27786 9.75549 2.9223 8.88882 2.88897C8.88882 2.88897 7.75549 2.88897 7.77771 2.88897V0.666748L4.44438 4.00008L7.77771 7.33341V5.11119H8.88882C9.18882 5.13341 9.42215 5.23341 9.65549 5.45564C9.88882 5.67786 9.98882 5.9223 9.99993 6.2223V13.2001C9.34437 13.5779 8.88882 14.289 8.88882 15.1112C8.88882 16.3445 9.87771 17.3334 11.111 17.3334C12.3444 17.3334 13.3333 16.3445 13.3333 15.1112C13.3333 14.3001 12.8777 13.5779 12.2222 13.2001ZM11.1112 16.4446C10.3778 16.4446 9.77783 15.8335 9.77783 15.1112C9.77783 14.389 10.3889 13.7779 11.1112 13.7779C11.8334 13.7779 12.4445 14.389 12.4445 15.1112C12.4445 15.8335 11.8334 16.4446 11.1112 16.4446ZM4.44444 4.00001C4.44444 2.76668 3.45556 1.77779 2.22222 1.77779C0.988889 1.77779 0 2.76668 0 4.00001C0 4.81112 0.455556 5.53335 1.11111 5.91112C1.11111 7.63335 1.11111 12.0889 1.11111 13.2C0.455556 13.5778 0 14.2889 0 15.1111C0 16.3445 0.988889 17.3333 2.22222 17.3333C3.45556 17.3333 4.44444 16.3445 4.44444 15.1111C4.44444 14.3 3.98889 13.5778 3.33333 13.2V5.91112C3.98889 5.53335 4.44444 4.82224 4.44444 4.00001ZM3.55554 15.1112C3.55554 15.8446 2.94443 16.4446 2.22221 16.4446C1.49999 16.4446 0.888875 15.8335 0.888875 15.1112C0.888875 14.389 1.49999 13.7779 2.22221 13.7779C2.94443 13.7779 3.55554 14.389 3.55554 15.1112ZM2.22221 5.33313C1.48888 5.33313 0.888875 4.72202 0.888875 3.9998C0.888875 3.27757 1.49999 2.66646 2.22221 2.66646C2.94443 2.66646 3.55554 3.27757 3.55554 3.9998C3.55554 4.72202 2.94443 5.33313 2.22221 5.33313Z" fill="black"/>
</svg>
