<svg width="297" height="1024" viewBox="0 0 297 1024" fill="none" xmlns="http://www.w3.org/2000/svg">
<line x1="1.5" y1="6.55671e-08" x2="1.49996" y2="1024" stroke="#D9944A" stroke-width="3"/>
<line x1="22.5" y1="6.55671e-08" x2="22.5" y2="1024" stroke="#E8C45C" stroke-width="3"/>
<line x1="42.5" y1="74" x2="42.5" y2="1024" stroke="#CB5344" stroke-width="3"/>
<line x1="81.5" y1="118" x2="81.5" y2="1024" stroke="#91C963" stroke-width="3"/>
<line x1="102.5" y1="143" x2="102.5" y2="1024" stroke="#5D9AD3" stroke-width="3"/>
<line x1="125.5" y1="163" x2="125.5" y2="1024" stroke="#AD7BCC" stroke-width="3"/>
<line x1="142.5" y1="198" x2="142.5" y2="1024" stroke="#878789" stroke-width="3"/>
<line x1="162.5" y1="198" x2="162.5" y2="1024" stroke="#D9516C" stroke-width="3"/>
<line x1="162.5" y1="198" x2="162.5" y2="1024" stroke="#D9516C" stroke-width="3"/>
<line x1="182.5" y1="318" x2="182.5" y2="1024" stroke="#E59C4D" stroke-width="3"/>
<line x1="203.5" y1="356" x2="203.5" y2="1024" stroke="#F2CD5F" stroke-width="3"/>
<path d="M63 96C63 458.407 63 1024 63 1024" stroke="#83725A" stroke-width="3"/>
<path d="M44.1525 71.0398C44.1525 71.0398 56.0002 73.5 59.4998 81C62.9994 88.5 63.0001 97.5 63.0001 97.5" stroke="#83725A" stroke-width="3"/>
<circle cx="42" cy="72" r="4" fill="#CB5344"/>
<circle cx="63" cy="152" r="4" fill="#83725A"/>
<circle cx="63" cy="177" r="4" fill="#83725A"/>
<circle cx="162" cy="198" r="5" fill="#D9516C"/>
<circle cx="162" cy="227" r="5" fill="#D9516C"/>
<circle cx="162" cy="256" r="5" fill="#D9516C"/>
<circle cx="162" cy="285" r="5" fill="#D9516C"/>
<circle cx="182" cy="315" r="5" fill="#E59C4D"/>
<circle cx="203" cy="352" r="5" fill="#F2CD5F"/>
<circle cx="203" cy="381" r="5" fill="#F2CD5F"/>
<circle cx="203" cy="410" r="5" fill="#F2CD5F"/>
<circle cx="203" cy="439" r="5" fill="#F2CD5F"/>
<circle cx="203" cy="468" r="5" fill="#F2CD5F"/>
<path d="M66.0001 101.5C76.6841 102.03 80.1856 106.809 81.5002 119" stroke="#91C963" stroke-width="3"/>
<path d="M66.9997 152C109 150.5 124.185 151.309 125.5 163.5" stroke="#A474C1" stroke-width="3"/>
<path d="M65.9999 176C116 176 142.5 173.5 142.5 198.5" stroke="#878789" stroke-width="3"/>
<circle cx="63" cy="102" r="4" fill="#83725A"/>
<path d="M65.4995 127C108 121 102.337 144.511 102.337 144.511" stroke="#5D9AD3" stroke-width="3"/>
<circle cx="63" cy="127" r="4" fill="#83725A"/>
<rect x="68" y="61" width="112" height="18" rx="4" fill="#F9EDEC" stroke="#E8AEAB" stroke-width="2"/>
<path d="M93.4826 75V66.2727H96.4315C97.1161 66.2727 97.6758 66.3963 98.1104 66.6435C98.5479 66.8878 98.8718 67.2188 99.082 67.6364C99.2923 68.054 99.3974 68.5199 99.3974 69.0341C99.3974 69.5483 99.2923 70.0156 99.082 70.4361C98.8746 70.8565 98.5536 71.1918 98.119 71.4418C97.6843 71.6889 97.1275 71.8125 96.4485 71.8125H94.5394V75H93.4826ZM94.5394 70.875H96.4144C97.1161 70.875 97.6147 70.6989 97.9102 70.3466C98.2085 69.9943 98.3576 69.5568 98.3576 69.0341C98.3576 68.5085 98.2085 68.0739 97.9102 67.7301C97.6119 67.3835 97.1076 67.2102 96.3974 67.2102H94.5394V70.875ZM105.088 72.3239V68.4545H106.094V75H105.088V73.892H105.02C104.867 74.2244 104.628 74.5071 104.304 74.7401C103.98 74.9702 103.571 75.0852 103.077 75.0852C102.463 75.0852 101.958 74.8821 101.56 74.4759C101.162 74.0696 100.963 73.4489 100.963 72.6136V68.4545H101.969V72.5455C101.969 73.0227 102.103 73.4034 102.37 73.6875C102.64 73.9716 102.983 74.1136 103.401 74.1136C103.651 74.1136 103.905 74.0497 104.164 73.9219C104.425 73.794 104.644 73.598 104.82 73.3338C104.999 73.0696 105.088 72.733 105.088 72.3239ZM108.942 66.2727V75H107.936V66.2727H108.942ZM111.789 66.2727V75H110.784V66.2727H111.789ZM117.143 75V66.2727H120.092C120.773 66.2727 121.333 66.3892 121.771 66.6222C122.208 66.8523 122.532 67.169 122.742 67.5724C122.952 67.9759 123.058 68.4347 123.058 68.9489C123.058 69.5284 122.924 70.0341 122.657 70.4659C122.393 70.8949 121.982 71.2045 121.425 71.3949L123.398 75H122.171L120.33 71.5866C120.259 71.5895 120.185 71.5909 120.109 71.5909H118.2V75H117.143ZM118.2 70.6364H120.075C120.773 70.6364 121.272 70.4858 121.57 70.1847C121.869 69.8835 122.018 69.4716 122.018 68.9489C122.018 68.4233 121.867 68.0028 121.566 67.6875C121.268 67.3693 120.765 67.2102 120.058 67.2102H118.2V70.6364ZM127.356 75.1364C126.725 75.1364 126.181 74.9972 125.724 74.7188C125.27 74.4375 124.919 74.0455 124.672 73.5426C124.427 73.0369 124.305 72.4489 124.305 71.7784C124.305 71.108 124.427 70.517 124.672 70.0057C124.919 69.4915 125.262 69.0909 125.703 68.804C126.146 68.5142 126.663 68.3693 127.254 68.3693C127.595 68.3693 127.931 68.4261 128.264 68.5398C128.596 68.6534 128.899 68.8381 129.172 69.0938C129.444 69.3466 129.662 69.6818 129.824 70.0994C129.985 70.517 130.066 71.0312 130.066 71.642V72.0682H125.315C125.338 72.767 125.535 73.3026 125.907 73.6747C126.282 74.0469 126.765 74.233 127.356 74.233C127.751 74.233 128.091 74.1477 128.375 73.9773C128.659 73.8068 128.865 73.5511 128.993 73.2102L129.964 73.483C129.811 73.9773 129.504 74.3764 129.044 74.6804C128.583 74.9844 128.021 75.1364 127.356 75.1364ZM125.315 71.1989H129.044C129.044 70.6449 128.882 70.1861 128.558 69.8224C128.234 69.456 127.799 69.2727 127.254 69.2727C126.87 69.2727 126.538 69.3622 126.257 69.5412C125.975 69.7202 125.754 69.9574 125.592 70.2528C125.43 70.5455 125.338 70.8608 125.315 71.1989ZM137.068 77.4545V68.4545H136.096V69.4943H135.977C135.903 69.3807 135.799 69.2358 135.666 69.0597C135.535 68.8807 135.345 68.7216 135.095 68.5824C134.848 68.4403 134.511 68.3693 134.085 68.3693C133.534 68.3693 133.048 68.5071 132.627 68.7827C132.207 69.0582 131.879 69.4489 131.643 69.9545C131.407 70.4602 131.289 71.0568 131.289 71.7443C131.289 72.4375 131.407 73.0384 131.643 73.5469C131.879 74.0526 132.206 74.4446 132.623 74.723C133.041 74.9986 133.522 75.1364 134.068 75.1364C134.488 75.1364 134.825 75.0668 135.078 74.9276C135.331 74.7855 135.525 74.625 135.662 74.446C135.798 74.2642 135.903 74.1136 135.977 73.9943H136.062V77.4545H137.068ZM136.079 71.7273C136.079 72.4687 135.917 73.0724 135.593 73.5384C135.272 74.0014 134.809 74.233 134.204 74.233C133.784 74.233 133.431 74.1222 133.147 73.9006C132.866 73.6761 132.653 73.375 132.508 72.9972C132.366 72.6165 132.295 72.1932 132.295 71.7273C132.295 71.267 132.365 70.8523 132.504 70.483C132.646 70.1108 132.858 69.8168 133.139 69.6009C133.423 69.3821 133.778 69.2727 134.204 69.2727C134.818 69.2727 135.284 69.4986 135.602 69.9503C135.92 70.402 136.079 70.9943 136.079 71.7273ZM143.034 72.3239V68.4545H144.039V75H143.034V73.892H142.966C142.812 74.2244 142.574 74.5071 142.25 74.7401C141.926 74.9702 141.517 75.0852 141.022 75.0852C140.409 75.0852 139.903 74.8821 139.505 74.4759C139.108 74.0696 138.909 73.4489 138.909 72.6136V68.4545H139.914V72.5455C139.914 73.0227 140.048 73.4034 140.315 73.6875C140.585 73.9716 140.929 74.1136 141.346 74.1136C141.596 74.1136 141.85 74.0497 142.109 73.9219C142.37 73.794 142.589 73.598 142.765 73.3338C142.944 73.0696 143.034 72.733 143.034 72.3239ZM148.626 75.1364C147.995 75.1364 147.451 74.9972 146.994 74.7188C146.539 74.4375 146.188 74.0455 145.941 73.5426C145.697 73.0369 145.575 72.4489 145.575 71.7784C145.575 71.108 145.697 70.517 145.941 70.0057C146.188 69.4915 146.532 69.0909 146.972 68.804C147.415 68.5142 147.933 68.3693 148.523 68.3693C148.864 68.3693 149.201 68.4261 149.533 68.5398C149.866 68.6534 150.168 68.8381 150.441 69.0938C150.714 69.3466 150.931 69.6818 151.093 70.0994C151.255 70.517 151.336 71.0312 151.336 71.642V72.0682H146.585C146.607 72.767 146.805 73.3026 147.177 73.6747C147.552 74.0469 148.035 74.233 148.626 74.233C149.021 74.233 149.36 74.1477 149.644 73.9773C149.928 73.8068 150.134 73.5511 150.262 73.2102L151.234 73.483C151.08 73.9773 150.773 74.3764 150.313 74.6804C149.853 74.9844 149.29 75.1364 148.626 75.1364ZM146.585 71.1989H150.313C150.313 70.6449 150.151 70.1861 149.827 69.8224C149.504 69.456 149.069 69.2727 148.523 69.2727C148.14 69.2727 147.808 69.3622 147.526 69.5412C147.245 69.7202 147.023 69.9574 146.862 70.2528C146.7 70.5455 146.607 70.8608 146.585 71.1989ZM157.502 69.9205L156.599 70.1761C156.511 69.9489 156.363 69.7358 156.156 69.5369C155.948 69.3381 155.624 69.2386 155.184 69.2386C154.783 69.2386 154.45 69.331 154.183 69.5156C153.918 69.6974 153.786 69.929 153.786 70.2102C153.786 70.4602 153.877 70.6577 154.059 70.8026C154.241 70.9474 154.525 71.0682 154.911 71.1648L155.883 71.4034C157.042 71.6875 157.621 72.2784 157.621 73.1761C157.621 73.5511 157.513 73.8864 157.298 74.1818C157.085 74.4773 156.786 74.7102 156.403 74.8807C156.019 75.0511 155.573 75.1364 155.065 75.1364C154.397 75.1364 153.844 74.9915 153.407 74.7017C152.969 74.4119 152.692 73.9886 152.576 73.4318L153.531 73.1932C153.71 73.8977 154.215 74.25 155.048 74.25C155.516 74.25 155.888 74.1506 156.164 73.9517C156.442 73.75 156.582 73.5085 156.582 73.2273C156.582 72.7642 156.258 72.4574 155.61 72.3068L154.519 72.0511C153.92 71.9091 153.479 71.6889 153.198 71.3906C152.92 71.0895 152.781 70.7131 152.781 70.2614C152.781 69.892 152.884 69.5653 153.092 69.2812C153.302 68.9972 153.587 68.7741 153.948 68.6122C154.312 68.4503 154.724 68.3693 155.184 68.3693C155.832 68.3693 156.34 68.5114 156.71 68.7955C157.082 69.0795 157.346 69.4545 157.502 69.9205ZM161.982 68.4545V69.3068H160.584V73.125C160.584 73.4091 160.625 73.6222 160.708 73.7642C160.793 73.9034 160.901 73.9972 161.032 74.0455C161.165 74.0909 161.306 74.1136 161.453 74.1136C161.564 74.1136 161.655 74.108 161.726 74.0966C161.797 74.0824 161.854 74.071 161.897 74.0625L162.101 74.9659C162.033 74.9915 161.938 75.017 161.816 75.0426C161.694 75.071 161.539 75.0852 161.351 75.0852C161.067 75.0852 160.789 75.0241 160.516 74.902C160.246 74.7798 160.022 74.5938 159.843 74.3438C159.667 74.0938 159.578 73.7784 159.578 73.3977V69.3068H158.59V68.4545H159.578V66.8864H160.584V68.4545H161.982Z" fill="black"/>
<path fill-rule="evenodd" clip-rule="evenodd" d="M83.4206 72.52C83.4206 71.3667 83.4206 68.3333 83.4206 68.3333C83.4004 67.8133 83.1913 67.3533 82.7865 66.96C82.3817 66.5667 81.923 66.3533 81.3968 66.3333C81.3968 66.3333 80.7087 66.3333 80.7222 66.3333V65L78.6984 67L80.7222 69V67.6667H81.3968C81.579 67.68 81.7206 67.74 81.8623 67.8733C82.004 68.0067 82.0647 68.1533 82.0714 68.3333V72.52C81.6734 72.7467 81.3968 73.1733 81.3968 73.6667C81.3968 74.4067 81.9972 75 82.746 75C83.4948 75 84.0952 74.4067 84.0952 73.6667C84.0952 73.18 83.8187 72.7467 83.4206 72.52ZM82.746 74.4667C82.3008 74.4667 81.9365 74.1 81.9365 73.6667C81.9365 73.2333 82.3075 72.8667 82.746 72.8667C83.1845 72.8667 83.5556 73.2333 83.5556 73.6667C83.5556 74.1 83.1845 74.4667 82.746 74.4667ZM78.6984 67C78.6984 66.26 78.098 65.6667 77.3492 65.6667C76.6004 65.6667 76 66.26 76 67C76 67.4867 76.2766 67.92 76.6746 68.1467C76.6746 69.18 76.6746 71.8533 76.6746 72.52C76.2766 72.7467 76 73.1733 76 73.6667C76 74.4067 76.6004 75 77.3492 75C78.098 75 78.6984 74.4067 78.6984 73.6667C78.6984 73.18 78.4218 72.7467 78.0238 72.52V68.1467C78.4218 67.92 78.6984 67.4933 78.6984 67ZM78.1587 73.6667C78.1587 74.1067 77.7877 74.4667 77.3492 74.4667C76.9107 74.4667 76.5397 74.1 76.5397 73.6667C76.5397 73.2333 76.9107 72.8667 77.3492 72.8667C77.7877 72.8667 78.1587 73.2333 78.1587 73.6667ZM77.3492 67.8C76.904 67.8 76.5397 67.4333 76.5397 67C76.5397 66.5667 76.9107 66.2 77.3492 66.2C77.7877 66.2 78.1587 66.5667 78.1587 67C78.1587 67.4333 77.7877 67.8 77.3492 67.8Z" fill="#DD7772"/>
<rect x="99" y="98" width="76" height="18" rx="4" fill="#F5FDF2" stroke="#B1D5A4" stroke-width="2"/>
<path d="M112.242 111V102.273H115.191C115.873 102.273 116.433 102.389 116.87 102.622C117.308 102.852 117.632 103.169 117.842 103.572C118.052 103.976 118.157 104.435 118.157 104.949C118.157 105.528 118.024 106.034 117.757 106.466C117.492 106.895 117.082 107.205 116.525 107.395L118.498 111H117.271L115.43 107.587C115.359 107.589 115.285 107.591 115.208 107.591H113.299V111H112.242ZM113.299 106.636H115.174C115.873 106.636 116.372 106.486 116.67 106.185C116.968 105.884 117.117 105.472 117.117 104.949C117.117 104.423 116.967 104.003 116.666 103.688C116.367 103.369 115.865 103.21 115.157 103.21H113.299V106.636ZM122.456 111.136C121.825 111.136 121.281 110.997 120.824 110.719C120.369 110.438 120.018 110.045 119.771 109.543C119.527 109.037 119.405 108.449 119.405 107.778C119.405 107.108 119.527 106.517 119.771 106.006C120.018 105.491 120.362 105.091 120.802 104.804C121.246 104.514 121.763 104.369 122.354 104.369C122.694 104.369 123.031 104.426 123.363 104.54C123.696 104.653 123.998 104.838 124.271 105.094C124.544 105.347 124.761 105.682 124.923 106.099C125.085 106.517 125.166 107.031 125.166 107.642V108.068H120.415C120.437 108.767 120.635 109.303 121.007 109.675C121.382 110.047 121.865 110.233 122.456 110.233C122.851 110.233 123.19 110.148 123.474 109.977C123.758 109.807 123.964 109.551 124.092 109.21L125.064 109.483C124.91 109.977 124.604 110.376 124.143 110.68C123.683 110.984 123.121 111.136 122.456 111.136ZM120.415 107.199H124.143C124.143 106.645 123.981 106.186 123.657 105.822C123.334 105.456 122.899 105.273 122.354 105.273C121.97 105.273 121.638 105.362 121.356 105.541C121.075 105.72 120.854 105.957 120.692 106.253C120.53 106.545 120.437 106.861 120.415 107.199ZM132.048 104.455L129.628 111H128.605L126.184 104.455H127.275L129.082 109.67H129.15L130.957 104.455H132.048ZM133.786 111V104.455H134.791V111H133.786ZM134.297 103.364C134.101 103.364 133.932 103.297 133.79 103.163C133.651 103.03 133.581 102.869 133.581 102.682C133.581 102.494 133.651 102.334 133.79 102.2C133.932 102.067 134.101 102 134.297 102C134.493 102 134.661 102.067 134.8 102.2C134.942 102.334 135.013 102.494 135.013 102.682C135.013 102.869 134.942 103.03 134.8 103.163C134.661 103.297 134.493 103.364 134.297 103.364ZM139.378 111.136C138.747 111.136 138.203 110.997 137.746 110.719C137.291 110.438 136.94 110.045 136.693 109.543C136.449 109.037 136.327 108.449 136.327 107.778C136.327 107.108 136.449 106.517 136.693 106.006C136.94 105.491 137.284 105.091 137.724 104.804C138.167 104.514 138.684 104.369 139.275 104.369C139.616 104.369 139.953 104.426 140.285 104.54C140.618 104.653 140.92 104.838 141.193 105.094C141.466 105.347 141.683 105.682 141.845 106.099C142.007 106.517 142.088 107.031 142.088 107.642V108.068H137.336C137.359 108.767 137.557 109.303 137.929 109.675C138.304 110.047 138.787 110.233 139.378 110.233C139.773 110.233 140.112 110.148 140.396 109.977C140.68 109.807 140.886 109.551 141.014 109.21L141.986 109.483C141.832 109.977 141.525 110.376 141.065 110.68C140.605 110.984 140.042 111.136 139.378 111.136ZM137.336 107.199H141.065C141.065 106.645 140.903 106.186 140.579 105.822C140.256 105.456 139.821 105.273 139.275 105.273C138.892 105.273 138.559 105.362 138.278 105.541C137.997 105.72 137.775 105.957 137.613 106.253C137.452 106.545 137.359 106.861 137.336 107.199ZM145.101 111L143.106 104.455H144.163L145.578 109.466H145.646L147.044 104.455H148.118L149.498 109.449H149.567L150.981 104.455H152.038L150.044 111H149.055L147.623 105.972H147.521L146.089 111H145.101ZM155.889 111.136C155.259 111.136 154.715 110.997 154.257 110.719C153.803 110.438 153.452 110.045 153.205 109.543C152.96 109.037 152.838 108.449 152.838 107.778C152.838 107.108 152.96 106.517 153.205 106.006C153.452 105.491 153.796 105.091 154.236 104.804C154.679 104.514 155.196 104.369 155.787 104.369C156.128 104.369 156.465 104.426 156.797 104.54C157.129 104.653 157.432 104.838 157.705 105.094C157.977 105.347 158.195 105.682 158.357 106.099C158.519 106.517 158.6 107.031 158.6 107.642V108.068H153.848C153.871 108.767 154.068 109.303 154.441 109.675C154.816 110.047 155.298 110.233 155.889 110.233C156.284 110.233 156.624 110.148 156.908 109.977C157.192 109.807 157.398 109.551 157.526 109.21L158.497 109.483C158.344 109.977 158.037 110.376 157.577 110.68C157.117 110.984 156.554 111.136 155.889 111.136ZM153.848 107.199H157.577C157.577 106.645 157.415 106.186 157.091 105.822C156.767 105.456 156.333 105.273 155.787 105.273C155.404 105.273 155.071 105.362 154.79 105.541C154.509 105.72 154.287 105.957 154.125 106.253C153.963 106.545 153.871 106.861 153.848 107.199ZM160.129 111V104.455H161.101V105.443H161.169C161.286 105.119 161.5 104.857 161.813 104.655C162.125 104.453 162.479 104.352 162.874 104.352C163.056 104.352 163.215 104.374 163.351 104.416C163.487 104.459 163.607 104.517 163.709 104.591L163.368 105.443C163.297 105.406 163.213 105.378 163.117 105.358C163.023 105.335 162.914 105.324 162.789 105.324C162.311 105.324 161.916 105.47 161.604 105.763C161.291 106.053 161.135 106.418 161.135 106.858V111H160.129Z" fill="black"/>
<rect x="181" y="98" width="76" height="18" rx="4" fill="#E9F0FD" stroke="#A6C3F9" stroke-width="2"/>
<path d="M193.053 111V102.273H196.002C196.684 102.273 197.243 102.389 197.681 102.622C198.118 102.852 198.442 103.169 198.652 103.572C198.863 103.976 198.968 104.435 198.968 104.949C198.968 105.528 198.834 106.034 198.567 106.466C198.303 106.895 197.892 107.205 197.336 107.395L199.309 111H198.081L196.24 107.587C196.169 107.589 196.096 107.591 196.019 107.591H194.11V111H193.053ZM194.11 106.636H195.985C196.684 106.636 197.182 106.486 197.48 106.185C197.779 105.884 197.928 105.472 197.928 104.949C197.928 104.423 197.777 104.003 197.476 103.688C197.178 103.369 196.675 103.21 195.968 103.21H194.11V106.636ZM203.266 111.136C202.636 111.136 202.092 110.997 201.634 110.719C201.18 110.438 200.829 110.045 200.582 109.543C200.337 109.037 200.215 108.449 200.215 107.778C200.215 107.108 200.337 106.517 200.582 106.006C200.829 105.491 201.173 105.091 201.613 104.804C202.056 104.514 202.573 104.369 203.164 104.369C203.505 104.369 203.842 104.426 204.174 104.54C204.506 104.653 204.809 104.838 205.082 105.094C205.354 105.347 205.572 105.682 205.734 106.099C205.896 106.517 205.977 107.031 205.977 107.642V108.068H201.225C201.248 108.767 201.445 109.303 201.817 109.675C202.192 110.047 202.675 110.233 203.266 110.233C203.661 110.233 204.001 110.148 204.285 109.977C204.569 109.807 204.775 109.551 204.903 109.21L205.874 109.483C205.721 109.977 205.414 110.376 204.954 110.68C204.494 110.984 203.931 111.136 203.266 111.136ZM201.225 107.199H204.954C204.954 106.645 204.792 106.186 204.468 105.822C204.144 105.456 203.71 105.273 203.164 105.273C202.781 105.273 202.448 105.362 202.167 105.541C201.886 105.72 201.664 105.957 201.502 106.253C201.34 106.545 201.248 106.861 201.225 107.199ZM212.859 104.455L210.438 111H209.415L206.995 104.455H208.086L209.893 109.67H209.961L211.768 104.455H212.859ZM214.596 111V104.455H215.602V111H214.596ZM215.108 103.364C214.912 103.364 214.743 103.297 214.6 103.163C214.461 103.03 214.392 102.869 214.392 102.682C214.392 102.494 214.461 102.334 214.6 102.2C214.743 102.067 214.912 102 215.108 102C215.304 102 215.471 102.067 215.61 102.2C215.752 102.334 215.824 102.494 215.824 102.682C215.824 102.869 215.752 103.03 215.61 103.163C215.471 103.297 215.304 103.364 215.108 103.364ZM220.188 111.136C219.558 111.136 219.013 110.997 218.556 110.719C218.102 110.438 217.751 110.045 217.504 109.543C217.259 109.037 217.137 108.449 217.137 107.778C217.137 107.108 217.259 106.517 217.504 106.006C217.751 105.491 218.094 105.091 218.535 104.804C218.978 104.514 219.495 104.369 220.086 104.369C220.427 104.369 220.763 104.426 221.096 104.54C221.428 104.653 221.731 104.838 222.004 105.094C222.276 105.347 222.494 105.682 222.656 106.099C222.817 106.517 222.898 107.031 222.898 107.642V108.068H218.147C218.17 108.767 218.367 109.303 218.739 109.675C219.114 110.047 219.597 110.233 220.188 110.233C220.583 110.233 220.923 110.148 221.207 109.977C221.491 109.807 221.697 109.551 221.825 109.21L222.796 109.483C222.643 109.977 222.336 110.376 221.876 110.68C221.415 110.984 220.853 111.136 220.188 111.136ZM218.147 107.199H221.876C221.876 106.645 221.714 106.186 221.39 105.822C221.066 105.456 220.631 105.273 220.086 105.273C219.702 105.273 219.37 105.362 219.089 105.541C218.808 105.72 218.586 105.957 218.424 106.253C218.262 106.545 218.17 106.861 218.147 107.199ZM225.911 111L223.917 104.455H224.974L226.388 109.466H226.457L227.854 104.455H228.928L230.309 109.449H230.377L231.792 104.455H232.849L230.854 111H229.866L228.434 105.972H228.332L226.9 111H225.911ZM236.7 111.136C236.069 111.136 235.525 110.997 235.068 110.719C234.613 110.438 234.262 110.045 234.015 109.543C233.771 109.037 233.649 108.449 233.649 107.778C233.649 107.108 233.771 106.517 234.015 106.006C234.262 105.491 234.606 105.091 235.047 104.804C235.49 104.514 236.007 104.369 236.598 104.369C236.939 104.369 237.275 104.426 237.608 104.54C237.94 104.653 238.243 104.838 238.515 105.094C238.788 105.347 239.005 105.682 239.167 106.099C239.329 106.517 239.41 107.031 239.41 107.642V108.068H234.659C234.681 108.767 234.879 109.303 235.251 109.675C235.626 110.047 236.109 110.233 236.7 110.233C237.095 110.233 237.434 110.148 237.718 109.977C238.002 109.807 238.208 109.551 238.336 109.21L239.308 109.483C239.154 109.977 238.848 110.376 238.387 110.68C237.927 110.984 237.365 111.136 236.7 111.136ZM234.659 107.199H238.387C238.387 106.645 238.225 106.186 237.902 105.822C237.578 105.456 237.143 105.273 236.598 105.273C236.214 105.273 235.882 105.362 235.6 105.541C235.319 105.72 235.098 105.957 234.936 106.253C234.774 106.545 234.681 106.861 234.659 107.199ZM243.684 111.136C243.054 111.136 242.51 110.997 242.052 110.719C241.598 110.438 241.247 110.045 241 109.543C240.755 109.037 240.633 108.449 240.633 107.778C240.633 107.108 240.755 106.517 241 106.006C241.247 105.491 241.591 105.091 242.031 104.804C242.474 104.514 242.991 104.369 243.582 104.369C243.923 104.369 244.26 104.426 244.592 104.54C244.924 104.653 245.227 104.838 245.5 105.094C245.772 105.347 245.99 105.682 246.152 106.099C246.314 106.517 246.395 107.031 246.395 107.642V108.068H241.643C241.666 108.767 241.863 109.303 242.235 109.675C242.61 110.047 243.093 110.233 243.684 110.233C244.079 110.233 244.419 110.148 244.703 109.977C244.987 109.807 245.193 109.551 245.321 109.21L246.292 109.483C246.139 109.977 245.832 110.376 245.372 110.68C244.912 110.984 244.349 111.136 243.684 111.136ZM241.643 107.199H245.372C245.372 106.645 245.21 106.186 244.886 105.822C244.562 105.456 244.127 105.273 243.582 105.273C243.199 105.273 242.866 105.362 242.585 105.541C242.304 105.72 242.082 105.957 241.92 106.253C241.758 106.545 241.666 106.861 241.643 107.199Z" fill="black"/>
<rect x="140" y="132" width="76" height="18" rx="4" fill="#FFFBE0" stroke="#F0E492" stroke-width="2"/>
<path d="M153.072 136.273H154.334L157.3 143.517H157.402L160.368 136.273H161.629V145H160.641V138.369H160.555L157.828 145H156.874L154.146 138.369H154.061V145H153.072V136.273ZM165.808 145.153C165.393 145.153 165.016 145.075 164.678 144.919C164.34 144.76 164.072 144.531 163.873 144.233C163.674 143.932 163.575 143.568 163.575 143.142C163.575 142.767 163.648 142.463 163.796 142.23C163.944 141.994 164.141 141.81 164.388 141.676C164.636 141.543 164.908 141.443 165.207 141.378C165.508 141.31 165.81 141.256 166.114 141.216C166.512 141.165 166.835 141.126 167.082 141.101C167.332 141.072 167.513 141.026 167.627 140.96C167.744 140.895 167.802 140.781 167.802 140.619V140.585C167.802 140.165 167.687 139.838 167.457 139.605C167.229 139.372 166.884 139.256 166.421 139.256C165.941 139.256 165.565 139.361 165.292 139.571C165.019 139.781 164.827 140.006 164.717 140.244L163.762 139.903C163.933 139.506 164.16 139.196 164.444 138.974C164.731 138.75 165.043 138.594 165.381 138.506C165.722 138.415 166.058 138.369 166.387 138.369C166.597 138.369 166.839 138.395 167.112 138.446C167.387 138.494 167.653 138.595 167.908 138.749C168.167 138.902 168.381 139.134 168.552 139.443C168.722 139.753 168.808 140.168 168.808 140.688V145H167.802V144.114H167.751C167.683 144.256 167.569 144.408 167.41 144.57C167.251 144.732 167.039 144.869 166.775 144.983C166.511 145.097 166.188 145.153 165.808 145.153ZM165.961 144.25C166.359 144.25 166.694 144.172 166.967 144.016C167.242 143.859 167.45 143.658 167.589 143.411C167.731 143.163 167.802 142.903 167.802 142.631V141.71C167.759 141.761 167.665 141.808 167.521 141.851C167.379 141.891 167.214 141.926 167.026 141.957C166.842 141.986 166.661 142.011 166.485 142.034C166.312 142.054 166.171 142.071 166.063 142.085C165.802 142.119 165.558 142.175 165.33 142.251C165.106 142.325 164.924 142.437 164.785 142.588C164.648 142.736 164.58 142.937 164.58 143.193C164.58 143.543 164.71 143.807 164.968 143.986C165.229 144.162 165.56 144.25 165.961 144.25ZM173.49 138.455V139.307H172.092V143.125C172.092 143.409 172.133 143.622 172.216 143.764C172.301 143.903 172.409 143.997 172.539 144.045C172.673 144.091 172.814 144.114 172.961 144.114C173.072 144.114 173.163 144.108 173.234 144.097C173.305 144.082 173.362 144.071 173.404 144.062L173.609 144.966C173.541 144.991 173.446 145.017 173.324 145.043C173.201 145.071 173.047 145.085 172.859 145.085C172.575 145.085 172.297 145.024 172.024 144.902C171.754 144.78 171.529 144.594 171.35 144.344C171.174 144.094 171.086 143.778 171.086 143.398V139.307H170.098V138.455H171.086V136.886H172.092V138.455H173.49ZM177.591 145.136C176.978 145.136 176.449 144.991 176.006 144.702C175.563 144.412 175.222 144.013 174.983 143.504C174.745 142.996 174.625 142.415 174.625 141.761C174.625 141.097 174.748 140.51 174.992 140.001C175.239 139.49 175.583 139.091 176.023 138.804C176.466 138.514 176.983 138.369 177.574 138.369C178.034 138.369 178.449 138.455 178.819 138.625C179.188 138.795 179.49 139.034 179.726 139.341C179.962 139.648 180.108 140.006 180.165 140.415H179.159C179.083 140.116 178.912 139.852 178.648 139.622C178.387 139.389 178.034 139.273 177.591 139.273C177.003 139.273 176.529 139.497 176.168 139.946C175.81 140.392 175.631 140.986 175.631 141.727C175.631 142.486 175.809 143.094 176.164 143.551C176.519 144.006 176.995 144.233 177.591 144.233C177.983 144.233 178.319 144.132 178.597 143.93C178.878 143.729 179.066 143.449 179.159 143.091H180.165C180.108 143.477 179.968 143.825 179.743 144.135C179.522 144.442 179.228 144.686 178.861 144.868C178.498 145.047 178.074 145.136 177.591 145.136ZM182.641 141.062V145H181.635V136.273H182.641V139.477H182.726C182.88 139.139 183.11 138.871 183.417 138.672C183.726 138.47 184.138 138.369 184.652 138.369C185.323 138.369 185.863 138.571 186.272 138.974C186.681 139.378 186.885 140 186.885 140.841V145H185.88V140.909C185.88 140.389 185.745 139.987 185.475 139.703C185.208 139.416 184.837 139.273 184.363 139.273C183.865 139.273 183.453 139.429 183.127 139.741C182.803 140.051 182.641 140.491 182.641 141.062ZM188.725 145V138.455H189.731V145H188.725ZM189.237 137.364C189.04 137.364 188.871 137.297 188.729 137.163C188.59 137.03 188.521 136.869 188.521 136.682C188.521 136.494 188.59 136.334 188.729 136.2C188.871 136.067 189.04 136 189.237 136C189.433 136 189.6 136.067 189.739 136.2C189.881 136.334 189.952 136.494 189.952 136.682C189.952 136.869 189.881 137.03 189.739 137.163C189.6 137.297 189.433 137.364 189.237 137.364ZM192.578 141.062V145H191.573V138.455H192.544V139.477H192.63C192.783 139.145 193.016 138.878 193.328 138.676C193.641 138.472 194.044 138.369 194.539 138.369C195.201 138.369 195.735 138.572 196.141 138.979C196.55 139.385 196.755 140.006 196.755 140.841V145H195.749V140.909C195.749 140.395 195.615 139.994 195.348 139.707C195.081 139.418 194.715 139.273 194.249 139.273C193.769 139.273 193.37 139.429 193.051 139.741C192.736 140.051 192.578 140.491 192.578 141.062ZM201.234 147.591C200.504 147.591 199.926 147.457 199.5 147.19C199.077 146.926 198.763 146.622 198.558 146.278L199.359 145.716C199.45 145.835 199.565 145.972 199.705 146.125C199.844 146.281 200.034 146.416 200.276 146.53C200.52 146.646 200.839 146.705 201.234 146.705C201.763 146.705 202.199 146.577 202.543 146.321C202.886 146.065 203.058 145.665 203.058 145.119V143.79H202.973C202.899 143.909 202.794 144.057 202.658 144.233C202.524 144.406 202.331 144.561 202.078 144.697C201.828 144.831 201.49 144.898 201.064 144.898C200.536 144.898 200.061 144.773 199.641 144.523C199.223 144.273 198.892 143.909 198.648 143.432C198.406 142.955 198.286 142.375 198.286 141.693C198.286 141.023 198.403 140.439 198.639 139.942C198.875 139.442 199.203 139.055 199.624 138.783C200.044 138.507 200.53 138.369 201.081 138.369C201.507 138.369 201.845 138.44 202.095 138.582C202.348 138.722 202.541 138.881 202.675 139.06C202.811 139.236 202.916 139.381 202.99 139.494H203.092V138.455H204.064V145.188C204.064 145.75 203.936 146.207 203.68 146.56C203.428 146.915 203.087 147.175 202.658 147.339C202.232 147.507 201.757 147.591 201.234 147.591ZM201.2 143.994C201.805 143.994 202.268 143.79 202.589 143.381C202.913 142.969 203.075 142.401 203.075 141.676C203.075 140.969 202.916 140.392 202.598 139.946C202.28 139.497 201.814 139.273 201.2 139.273C200.774 139.273 200.419 139.381 200.135 139.597C199.854 139.812 199.642 140.102 199.5 140.466C199.361 140.83 199.291 141.233 199.291 141.676C199.291 142.358 199.452 142.915 199.773 143.347C200.094 143.778 200.57 143.994 201.2 143.994Z" fill="black"/>
<path d="M167.459 174.328H165.592C165.521 173.848 165.317 173.472 164.979 173.199C164.641 172.923 164.219 172.786 163.713 172.786C163.037 172.786 162.494 173.034 162.085 173.531C161.679 174.026 161.476 174.727 161.476 175.636C161.476 176.568 161.68 177.277 162.089 177.763C162.501 178.246 163.038 178.487 163.7 178.487C164.192 178.487 164.608 178.359 164.949 178.104C165.29 177.845 165.504 177.483 165.592 177.017L167.459 177.026C167.393 177.56 167.203 178.062 166.888 178.534C166.572 179.006 166.143 179.388 165.601 179.68C165.061 179.973 164.418 180.119 163.67 180.119C162.892 180.119 162.196 179.943 161.582 179.591C160.972 179.239 160.489 178.729 160.134 178.061C159.781 177.393 159.605 176.585 159.605 175.636C159.605 174.685 159.784 173.875 160.142 173.207C160.5 172.54 160.986 172.031 161.599 171.682C162.213 171.33 162.903 171.153 163.67 171.153C164.344 171.153 164.95 171.278 165.49 171.528C166.033 171.776 166.476 172.136 166.82 172.611C167.166 173.082 167.379 173.655 167.459 174.328ZM171.705 180.128C171.043 180.128 170.471 179.987 169.988 179.706C169.508 179.422 169.137 179.027 168.876 178.521C168.614 178.013 168.484 177.423 168.484 176.753C168.484 176.077 168.614 175.486 168.876 174.98C169.137 174.472 169.508 174.077 169.988 173.795C170.471 173.511 171.043 173.369 171.705 173.369C172.367 173.369 172.938 173.511 173.418 173.795C173.901 174.077 174.273 174.472 174.535 174.98C174.796 175.486 174.927 176.077 174.927 176.753C174.927 177.423 174.796 178.013 174.535 178.521C174.273 179.027 173.901 179.422 173.418 179.706C172.938 179.987 172.367 180.128 171.705 180.128ZM171.714 178.722C172.163 178.722 172.502 178.534 172.732 178.159C172.965 177.784 173.082 177.311 173.082 176.74C173.082 176.169 172.965 175.696 172.732 175.321C172.502 174.943 172.163 174.754 171.714 174.754C171.256 174.754 170.911 174.943 170.678 175.321C170.445 175.696 170.329 176.169 170.329 176.74C170.329 177.311 170.445 177.784 170.678 178.159C170.911 178.534 171.256 178.722 171.714 178.722ZM178.519 180.107C178.022 180.107 177.573 179.979 177.173 179.723C176.772 179.464 176.454 179.085 176.218 178.585C175.982 178.082 175.864 177.466 175.864 176.736C175.864 175.986 175.985 175.362 176.227 174.865C176.471 174.365 176.793 173.991 177.194 173.744C177.597 173.494 178.038 173.369 178.515 173.369C178.881 173.369 179.187 173.432 179.431 173.557C179.678 173.679 179.877 173.831 180.028 174.013C180.181 174.195 180.298 174.375 180.377 174.554H180.433V171.273H182.244V180H180.454V178.952H180.377C180.295 179.134 180.175 179.314 180.019 179.493C179.863 179.669 179.661 179.815 179.414 179.932C179.17 180.048 178.871 180.107 178.519 180.107ZM179.094 178.662C179.532 178.662 179.87 178.486 180.109 178.134C180.35 177.778 180.471 177.31 180.471 176.727C180.471 176.142 180.352 175.678 180.113 175.334C179.874 174.987 179.535 174.814 179.094 174.814C178.646 174.814 178.303 174.991 178.067 175.347C177.835 175.699 177.718 176.159 177.718 176.727C177.718 177.298 177.836 177.764 178.072 178.125C178.308 178.483 178.648 178.662 179.094 178.662ZM186.719 180.128C186.049 180.128 185.471 179.991 184.985 179.719C184.499 179.443 184.125 179.054 183.864 178.551C183.603 178.045 183.472 177.447 183.472 176.757C183.472 176.084 183.603 175.493 183.864 174.984C184.125 174.476 184.493 174.08 184.968 173.795C185.445 173.511 186.005 173.369 186.647 173.369C187.223 173.369 187.743 173.491 188.206 173.736C188.672 173.98 189.042 174.349 189.314 174.844C189.587 175.335 189.723 175.952 189.723 176.693V177.192H185.266V177.196C185.266 177.685 185.4 178.07 185.667 178.351C185.934 178.632 186.294 178.773 186.749 178.773C187.053 178.773 187.316 178.709 187.537 178.581C187.759 178.453 187.915 178.264 188.006 178.014L189.685 178.125C189.557 178.733 189.233 179.219 188.713 179.582C188.194 179.946 187.529 180.128 186.719 180.128ZM185.266 176.067H188.015C188.012 175.678 187.887 175.357 187.64 175.104C187.392 174.851 187.071 174.724 186.676 174.724C186.273 174.724 185.942 174.855 185.684 175.116C185.425 175.378 185.286 175.695 185.266 176.067ZM193.719 180V171.273H197.163C198.154 171.273 198.923 171.531 199.468 172.048C200.016 172.565 200.29 173.257 200.29 174.124C200.29 174.72 200.157 175.23 199.89 175.653C199.626 176.077 199.245 176.395 198.748 176.608L200.602 180H198.565L196.911 176.906H195.565V180H193.719ZM195.565 175.423H196.817C197.866 175.423 198.39 174.99 198.39 174.124C198.39 173.229 197.863 172.781 196.809 172.781H195.565V175.423ZM204.438 180.128C203.767 180.128 203.189 179.991 202.703 179.719C202.218 179.443 201.844 179.054 201.583 178.551C201.321 178.045 201.191 177.447 201.191 176.757C201.191 176.084 201.321 175.493 201.583 174.984C201.844 174.476 202.212 174.08 202.686 173.795C203.164 173.511 203.723 173.369 204.365 173.369C204.942 173.369 205.462 173.491 205.925 173.736C206.391 173.98 206.76 174.349 207.033 174.844C207.306 175.335 207.442 175.952 207.442 176.693V177.192H202.985V177.196C202.985 177.685 203.118 178.07 203.385 178.351C203.652 178.632 204.013 178.773 204.468 178.773C204.772 178.773 205.034 178.709 205.256 178.581C205.478 178.453 205.634 178.264 205.725 178.014L207.404 178.125C207.276 178.733 206.952 179.219 206.432 179.582C205.912 179.946 205.248 180.128 204.438 180.128ZM202.985 176.067H205.733C205.73 175.678 205.605 175.357 205.358 175.104C205.111 174.851 204.79 174.724 204.395 174.724C203.992 174.724 203.661 174.855 203.402 175.116C203.144 175.378 203.005 175.695 202.985 176.067ZM214.624 173.455L212.335 180H210.29L208.001 173.455H209.919L211.278 178.138H211.347L212.702 173.455H214.624ZM215.752 180V173.455H217.567V180H215.752ZM216.664 172.611C216.397 172.611 216.167 172.521 215.973 172.342C215.78 172.161 215.684 171.943 215.684 171.69C215.684 171.437 215.78 171.222 215.973 171.043C216.167 170.864 216.397 170.774 216.664 170.774C216.934 170.774 217.165 170.864 217.358 171.043C217.551 171.222 217.648 171.437 217.648 171.69C217.648 171.943 217.551 172.161 217.358 172.342C217.165 172.521 216.934 172.611 216.664 172.611ZM222.004 180.128C221.334 180.128 220.756 179.991 220.27 179.719C219.784 179.443 219.411 179.054 219.149 178.551C218.888 178.045 218.757 177.447 218.757 176.757C218.757 176.084 218.888 175.493 219.149 174.984C219.411 174.476 219.778 174.08 220.253 173.795C220.73 173.511 221.29 173.369 221.932 173.369C222.509 173.369 223.028 173.491 223.491 173.736C223.957 173.98 224.327 174.349 224.599 174.844C224.872 175.335 225.009 175.952 225.009 176.693V177.192H220.551V177.196C220.551 177.685 220.685 178.07 220.952 178.351C221.219 178.632 221.58 178.773 222.034 178.773C222.338 178.773 222.601 178.709 222.822 178.581C223.044 178.453 223.2 178.264 223.291 178.014L224.97 178.125C224.842 178.733 224.518 179.219 223.999 179.582C223.479 179.946 222.814 180.128 222.004 180.128ZM220.551 176.067H223.3C223.297 175.678 223.172 175.357 222.925 175.104C222.678 174.851 222.357 174.724 221.962 174.724C221.558 174.724 221.227 174.855 220.969 175.116C220.71 175.378 220.571 175.695 220.551 176.067ZM227.438 180L225.656 173.455H227.493L228.507 177.852H228.567L229.624 173.455H231.426L232.5 177.827H232.555L233.553 173.455H235.385L233.608 180H231.686L230.561 175.884H230.48L229.355 180H227.438Z" fill="#DBDBDC"/>
</svg>
