<svg width="1376" height="74" viewBox="0 0 1376 74" fill="none" xmlns="http://www.w3.org/2000/svg">
<g id="bottom pattern">
<circle id="Ellipse 13" cx="68.1719" cy="21" r="10" transform="rotate(90 68.1719 21)" fill="#78909C"/>
<circle id="Ellipse 14" cx="68.1719" cy="60" r="10" transform="rotate(90 68.1719 60)" fill="#78909C"/>
<circle id="Ellipse 19" cx="435" cy="60" r="10" transform="rotate(90 435 60)" fill="#78909C"/>
<circle id="Ellipse 20" cx="470" cy="60" r="10" transform="rotate(90 470 60)" fill="#78909C"/>
<circle id="Ellipse 15" cx="39.1719" cy="60" r="10" transform="rotate(90 39.1719 60)" fill="#78909C"/>
<circle id="Ellipse 16" cx="10.1719" cy="60" r="10" transform="rotate(90 10.1719 60)" fill="#78909C"/>
<circle id="Ellipse 17" cx="37.1719" cy="21" r="10" transform="rotate(90 37.1719 21)" fill="#78909C"/>
<rect id="Rectangle 16" x="393.172" y="14" width="14" height="306" rx="7" transform="rotate(90 393.172 14)" fill="#DA507A"/>
<rect id="Rectangle 17" x="551.172" y="14" width="14" height="116" rx="7" transform="rotate(90 551.172 14)" fill="#DA507A"/>
<rect id="Rectangle 20" x="1029" y="14" width="14" height="221" rx="7" transform="rotate(90 1029 14)" fill="#DA507A"/>
<rect id="Rectangle 21" x="1376" y="14" width="14" height="221" rx="7" transform="rotate(90 1376 14)" fill="#DA507A"/>
<rect id="Rectangle 22" x="1376" y="54" width="14" height="177" rx="7" transform="rotate(90 1376 54)" fill="#C0D99A"/>
<rect id="Rectangle 18" x="393.172" y="53" width="14" height="306" rx="7" transform="rotate(90 393.172 53)" fill="#C0D99A"/>
<path id="Line 2" d="M414.706 22.9999C407.206 51.4998 402 59.5 386.304 59.7974" stroke="#C0D99A" stroke-width="14"/>
<path id="Line 3" d="M1021 20.9506C1064.38 20.4949 1061.75 47.9145 1066.84 64.6713" stroke="#DA507A" stroke-width="14"/>
<rect id="Rectangle 19" x="1082" y="53" width="14" height="589" rx="7.00001" transform="rotate(90 1082 53)" fill="#C0D99A"/>
<circle id="Ellipse 18" cx="412.172" cy="21" r="10" transform="rotate(90 412.172 21)" fill="#78909C"/>
<circle id="Ellipse 21" cx="674" cy="21" r="10" transform="rotate(90 674 21)" fill="#78909C"/>
<circle id="Ellipse 23" cx="1092" cy="21" r="10" transform="rotate(90 1092 21)" fill="#78909C"/>
<circle id="Ellipse 24" cx="1124" cy="21" r="10" transform="rotate(90 1124 21)" fill="#78909C"/>
<path id="Pull Request" d="M565.217 15.1357V25H566.98V21.7393H569.12C571.116 21.7393 572.511 20.4062 572.511 18.458C572.511 16.4756 571.164 15.1357 569.195 15.1357H565.217ZM566.98 16.5781H568.73C570.002 16.5781 570.72 17.2344 570.72 18.458C570.72 19.6475 569.981 20.3174 568.724 20.3174H566.98V16.5781ZM580.789 17.5283H579.094V21.8828C579.094 23.0107 578.492 23.6943 577.392 23.6943C576.38 23.6943 575.908 23.1338 575.908 21.9717V17.5283H574.213V22.3818C574.213 24.1318 575.17 25.1504 576.804 25.1504C577.945 25.1504 578.677 24.665 579.039 23.8105H579.155V25H580.789V17.5283ZM582.936 25H584.631V14.6367H582.936V25ZM586.846 25H588.541V14.6367H586.846V25ZM596.361 21.2881H598.316L600.251 25H602.268L600.114 21.0215C601.29 20.5977 601.974 19.5107 601.974 18.2051C601.974 16.3184 600.675 15.1357 598.604 15.1357H594.598V25H596.361V21.2881ZM596.361 16.5645H598.357C599.479 16.5645 600.162 17.2002 600.162 18.2393C600.162 19.2988 599.52 19.9072 598.398 19.9072H596.361V16.5645ZM608.577 22.9561C608.331 23.5166 607.75 23.8311 606.909 23.8311C605.795 23.8311 605.077 23.0381 605.036 21.7734V21.6846H610.259V21.1445C610.259 18.7998 608.98 17.3848 606.848 17.3848C604.681 17.3848 603.334 18.8955 603.334 21.2949C603.334 23.6875 604.66 25.1504 606.861 25.1504C608.625 25.1504 609.876 24.3027 610.184 22.9561H608.577ZM606.841 18.7041C607.859 18.7041 608.529 19.4219 608.563 20.5566H605.043C605.118 19.4355 605.829 18.7041 606.841 18.7041ZM614.675 17.4053C612.788 17.4053 611.592 18.9023 611.592 21.2607C611.592 23.6328 612.761 25.123 614.647 25.123C615.707 25.123 616.493 24.6719 616.924 23.8652H617.04V27.4814H618.749V17.5283H617.102V18.7656H616.985C616.575 17.9385 615.687 17.4053 614.675 17.4053ZM615.181 23.7148C614.019 23.7148 613.328 22.7988 613.328 21.2676C613.328 19.7363 614.025 18.8203 615.188 18.8203C616.343 18.8203 617.074 19.7568 617.074 21.2676C617.074 22.7852 616.35 23.7148 615.181 23.7148ZM627.328 17.5283H625.633V21.8828C625.633 23.0107 625.031 23.6943 623.931 23.6943C622.919 23.6943 622.447 23.1338 622.447 21.9717V17.5283H620.752V22.3818C620.752 24.1318 621.709 25.1504 623.343 25.1504C624.484 25.1504 625.216 24.665 625.578 23.8105H625.694V25H627.328V17.5283ZM634.28 22.9561C634.034 23.5166 633.453 23.8311 632.612 23.8311C631.498 23.8311 630.78 23.0381 630.739 21.7734V21.6846H635.962V21.1445C635.962 18.7998 634.684 17.3848 632.551 17.3848C630.384 17.3848 629.037 18.8955 629.037 21.2949C629.037 23.6875 630.363 25.1504 632.564 25.1504C634.328 25.1504 635.579 24.3027 635.887 22.9561H634.28ZM632.544 18.7041C633.562 18.7041 634.232 19.4219 634.267 20.5566H630.746C630.821 19.4355 631.532 18.7041 632.544 18.7041ZM637.493 19.6611C637.493 20.7822 638.17 21.4385 639.605 21.7666L640.932 22.0742C641.643 22.2383 641.964 22.5117 641.964 22.9355C641.964 23.5029 641.369 23.8926 640.515 23.8926C639.667 23.8926 639.141 23.5508 638.977 22.9971H637.302C637.432 24.3438 638.607 25.1504 640.474 25.1504C642.34 25.1504 643.659 24.2002 643.659 22.7715C643.659 21.6709 642.996 21.0625 641.567 20.7344L640.248 20.4404C639.496 20.2627 639.141 19.9961 639.141 19.5723C639.141 19.0186 639.722 18.6426 640.494 18.6426C641.287 18.6426 641.786 18.9844 641.909 19.5107H643.502C643.379 18.1641 642.265 17.3848 640.487 17.3848C638.724 17.3848 637.493 18.3213 637.493 19.6611ZM645.86 15.6963V17.5762H644.678V18.8955H645.86V23.0176C645.86 24.46 646.544 25.0342 648.26 25.0342C648.588 25.0342 648.902 25.0068 649.148 24.959V23.6602C648.943 23.6807 648.813 23.6943 648.574 23.6943C647.863 23.6943 647.549 23.3594 647.549 22.6143V18.8955H649.148V17.5762H647.549V15.6963H645.86Z" fill="#4E4E56"/>
<path id="Code-review" d="M702.332 25.2461C704.608 25.2461 706.276 23.8994 706.509 21.9033H704.772C704.533 23.0107 703.583 23.7148 702.332 23.7148C700.65 23.7148 699.604 22.3135 699.604 20.0645C699.604 17.8223 700.65 16.4209 702.325 16.4209C703.569 16.4209 704.52 17.1934 704.766 18.3828H706.502C706.297 16.3389 704.567 14.8896 702.325 14.8896C699.529 14.8896 697.8 16.8652 697.8 20.0713C697.8 23.2637 699.536 25.2461 702.332 25.2461ZM711.52 25.1504C713.755 25.1504 715.115 23.6875 715.115 21.2607C715.115 18.8477 713.748 17.3848 711.52 17.3848C709.298 17.3848 707.924 18.8545 707.924 21.2607C707.924 23.6875 709.277 25.1504 711.52 25.1504ZM711.52 23.7627C710.337 23.7627 709.66 22.8467 709.66 21.2676C709.66 19.6885 710.337 18.7725 711.52 18.7725C712.695 18.7725 713.372 19.6885 713.372 21.2676C713.372 22.8467 712.702 23.7627 711.52 23.7627ZM719.531 25.123C720.57 25.123 721.432 24.6377 721.855 23.8174H721.972V25H723.612V14.6367H721.917V18.7178H721.801C721.404 17.8975 720.557 17.4053 719.531 17.4053C717.645 17.4053 716.455 18.8955 716.455 21.2607C716.455 23.6328 717.638 25.123 719.531 25.123ZM720.058 18.8203C721.22 18.8203 721.938 19.7568 721.938 21.2676C721.938 22.7852 721.227 23.7148 720.058 23.7148C718.896 23.7148 718.191 22.7988 718.191 21.2676C718.191 19.7432 718.902 18.8203 720.058 18.8203ZM730.626 22.9561C730.38 23.5166 729.799 23.8311 728.958 23.8311C727.844 23.8311 727.126 23.0381 727.085 21.7734V21.6846H732.308V21.1445C732.308 18.7998 731.029 17.3848 728.896 17.3848C726.729 17.3848 725.383 18.8955 725.383 21.2949C725.383 23.6875 726.709 25.1504 728.91 25.1504C730.674 25.1504 731.925 24.3027 732.232 22.9561H730.626ZM728.89 18.7041C729.908 18.7041 730.578 19.4219 730.612 20.5566H727.092C727.167 19.4355 727.878 18.7041 728.89 18.7041ZM738.576 21.8008V20.249H734.085V21.8008H738.576ZM740.736 25H742.432V20.6592C742.432 19.6064 743.197 18.9229 744.298 18.9229C744.585 18.9229 745.036 18.9707 745.166 19.0186V17.4736C745.009 17.4326 744.708 17.4053 744.462 17.4053C743.498 17.4053 742.691 17.9521 742.486 18.6904H742.37V17.5283H740.736V25ZM751.243 22.9561C750.997 23.5166 750.416 23.8311 749.575 23.8311C748.461 23.8311 747.743 23.0381 747.702 21.7734V21.6846H752.925V21.1445C752.925 18.7998 751.646 17.3848 749.514 17.3848C747.347 17.3848 746 18.8955 746 21.2949C746 23.6875 747.326 25.1504 749.527 25.1504C751.291 25.1504 752.542 24.3027 752.85 22.9561H751.243ZM749.507 18.7041C750.525 18.7041 751.195 19.4219 751.229 20.5566H747.709C747.784 19.4355 748.495 18.7041 749.507 18.7041ZM760.971 17.5283H759.18L757.464 23.3389H757.348L755.618 17.5283H753.8L756.459 25H758.325L760.971 17.5283ZM763.268 16.2773C763.828 16.2773 764.286 15.833 764.286 15.2725C764.286 14.7188 763.828 14.2676 763.268 14.2676C762.714 14.2676 762.256 14.7188 762.256 15.2725C762.256 15.833 762.714 16.2773 763.268 16.2773ZM762.427 25H764.115V17.5283H762.427V25ZM771.095 22.9561C770.849 23.5166 770.268 23.8311 769.427 23.8311C768.312 23.8311 767.595 23.0381 767.554 21.7734V21.6846H772.776V21.1445C772.776 18.7998 771.498 17.3848 769.365 17.3848C767.198 17.3848 765.852 18.8955 765.852 21.2949C765.852 23.6875 767.178 25.1504 769.379 25.1504C771.143 25.1504 772.394 24.3027 772.701 22.9561H771.095ZM769.358 18.7041C770.377 18.7041 771.047 19.4219 771.081 20.5566H767.561C767.636 19.4355 768.347 18.7041 769.358 18.7041ZM784.397 17.5283H782.709L781.472 23.1406H781.355L779.906 17.5283H778.286L776.851 23.1406H776.734L775.49 17.5283H773.781L775.805 25H777.568L779.018 19.5859H779.134L780.59 25H782.374L784.397 17.5283Z" fill="#4E4E56"/>
<circle id="Ellipse 22" cx="1072" cy="60" r="10" transform="rotate(90 1072 60)" fill="#78909C"/>
<path id="Source merge" d="M1089.77 61.3271C1089.85 63.1113 1091.35 64.2461 1093.61 64.2461C1096.01 64.2461 1097.49 63.0566 1097.49 61.1426C1097.49 59.6455 1096.65 58.8115 1094.65 58.3535L1093.51 58.0938C1092.29 57.8066 1091.79 57.417 1091.79 56.7402C1091.79 55.8857 1092.54 55.3252 1093.68 55.3252C1094.76 55.3252 1095.52 55.8789 1095.64 56.7607H1097.33C1097.25 55.0723 1095.75 53.8896 1093.68 53.8896C1091.47 53.8896 1090.01 55.0791 1090.01 56.8564C1090.01 58.3193 1090.85 59.2012 1092.64 59.6113L1093.92 59.9053C1095.19 60.1992 1095.73 60.6367 1095.73 61.3545C1095.73 62.1953 1094.89 62.8037 1093.72 62.8037C1092.47 62.8037 1091.6 62.2295 1091.49 61.3271H1089.77ZM1102.52 64.1504C1104.76 64.1504 1106.12 62.6875 1106.12 60.2607C1106.12 57.8477 1104.75 56.3848 1102.52 56.3848C1100.3 56.3848 1098.93 57.8545 1098.93 60.2607C1098.93 62.6875 1100.28 64.1504 1102.52 64.1504ZM1102.52 62.7627C1101.34 62.7627 1100.66 61.8467 1100.66 60.2676C1100.66 58.6885 1101.34 57.7725 1102.52 57.7725C1103.7 57.7725 1104.37 58.6885 1104.37 60.2676C1104.37 61.8467 1103.7 62.7627 1102.52 62.7627ZM1114.33 56.5283H1112.64V60.8828C1112.64 62.0107 1112.04 62.6943 1110.94 62.6943C1109.92 62.6943 1109.45 62.1338 1109.45 60.9717V56.5283H1107.76V61.3818C1107.76 63.1318 1108.71 64.1504 1110.35 64.1504C1111.49 64.1504 1112.22 63.665 1112.58 62.8105H1112.7V64H1114.33V56.5283ZM1116.41 64H1118.11V59.6592C1118.11 58.6064 1118.87 57.9229 1119.97 57.9229C1120.26 57.9229 1120.71 57.9707 1120.84 58.0186V56.4736C1120.68 56.4326 1120.38 56.4053 1120.14 56.4053C1119.17 56.4053 1118.37 56.9521 1118.16 57.6904H1118.05V56.5283H1116.41V64ZM1128.5 59.0234C1128.33 57.4785 1127.17 56.3848 1125.24 56.3848C1123 56.3848 1121.68 57.8271 1121.68 60.2471C1121.68 62.6943 1123 64.1504 1125.25 64.1504C1127.14 64.1504 1128.32 63.0977 1128.5 61.5527H1126.89C1126.71 62.3389 1126.13 62.7559 1125.24 62.7559C1124.09 62.7559 1123.39 61.833 1123.39 60.2471C1123.39 58.6885 1124.08 57.7725 1125.24 57.7725C1126.17 57.7725 1126.73 58.2988 1126.89 59.0234H1128.5ZM1135 61.9561C1134.75 62.5166 1134.17 62.8311 1133.33 62.8311C1132.22 62.8311 1131.5 62.0381 1131.46 60.7734V60.6846H1136.68V60.1445C1136.68 57.7998 1135.4 56.3848 1133.27 56.3848C1131.1 56.3848 1129.76 57.8955 1129.76 60.2949C1129.76 62.6875 1131.08 64.1504 1133.28 64.1504C1135.05 64.1504 1136.3 63.3027 1136.61 61.9561H1135ZM1133.26 57.7041C1134.28 57.7041 1134.95 58.4219 1134.99 59.5566H1131.46C1131.54 58.4355 1132.25 57.7041 1133.26 57.7041ZM1142.12 64H1143.81V59.4541C1143.81 58.5244 1144.43 57.8203 1145.27 57.8203C1146.11 57.8203 1146.63 58.3262 1146.63 59.1533V64H1148.27V59.3311C1148.27 58.4766 1148.86 57.8203 1149.74 57.8203C1150.65 57.8203 1151.1 58.3057 1151.1 59.2764V64H1152.79V58.8594C1152.79 57.3076 1151.89 56.3848 1150.39 56.3848C1149.35 56.3848 1148.49 56.918 1148.12 57.7314H1148.01C1147.69 56.9043 1146.98 56.3848 1145.94 56.3848C1144.95 56.3848 1144.19 56.8906 1143.87 57.7314H1143.75V56.5283H1142.12V64ZM1159.68 61.9561C1159.43 62.5166 1158.85 62.8311 1158.01 62.8311C1156.89 62.8311 1156.18 62.0381 1156.14 60.7734V60.6846H1161.36V60.1445C1161.36 57.7998 1160.08 56.3848 1157.95 56.3848C1155.78 56.3848 1154.43 57.8955 1154.43 60.2949C1154.43 62.6875 1155.76 64.1504 1157.96 64.1504C1159.72 64.1504 1160.98 63.3027 1161.28 61.9561H1159.68ZM1157.94 57.7041C1158.96 57.7041 1159.63 58.4219 1159.66 59.5566H1156.14C1156.22 58.4355 1156.93 57.7041 1157.94 57.7041ZM1163.06 64H1164.76V59.6592C1164.76 58.6064 1165.52 57.9229 1166.62 57.9229C1166.91 57.9229 1167.36 57.9707 1167.49 58.0186V56.4736C1167.33 56.4326 1167.03 56.4053 1166.79 56.4053C1165.82 56.4053 1165.02 56.9521 1164.81 57.6904H1164.69V56.5283H1163.06V64ZM1171.91 66.8438C1174.09 66.8438 1175.47 65.7568 1175.47 64.041V56.5283H1173.83V57.7246H1173.72C1173.31 56.9111 1172.42 56.4053 1171.4 56.4053C1169.49 56.4053 1168.31 57.8955 1168.31 60.1855C1168.31 62.4277 1169.49 63.8906 1171.37 63.8906C1172.41 63.8906 1173.23 63.4531 1173.66 62.6465H1173.77V64.0684C1173.77 65.0186 1173.1 65.5791 1171.93 65.5791C1171 65.5791 1170.4 65.2441 1170.29 64.7178H1168.59C1168.73 66.0029 1169.99 66.8438 1171.91 66.8438ZM1171.91 62.5439C1170.72 62.5439 1170.05 61.6279 1170.05 60.1787C1170.05 58.7363 1170.72 57.8203 1171.91 57.8203C1173.08 57.8203 1173.8 58.7363 1173.8 60.1855C1173.8 61.6279 1173.09 62.5439 1171.91 62.5439ZM1182.43 61.9561C1182.18 62.5166 1181.6 62.8311 1180.76 62.8311C1179.64 62.8311 1178.93 62.0381 1178.89 60.7734V60.6846H1184.11V60.1445C1184.11 57.7998 1182.83 56.3848 1180.7 56.3848C1178.53 56.3848 1177.18 57.8955 1177.18 60.2949C1177.18 62.6875 1178.51 64.1504 1180.71 64.1504C1182.47 64.1504 1183.73 63.3027 1184.03 61.9561H1182.43ZM1180.69 57.7041C1181.71 57.7041 1182.38 58.4219 1182.41 59.5566H1178.89C1178.97 58.4355 1179.68 57.7041 1180.69 57.7041Z" fill="#4E4E56"/>
</g>
</svg>
