<svg width="17" height="22" viewBox="0 0 17 22" fill="none" xmlns="http://www.w3.org/2000/svg">
<path d="M14.5714 0H2.42857C1.78447 0 1.16676 0.255867 0.711312 0.711312C0.255867 1.16676 0 1.78447 0 2.42857V21.8571L8.5 18.2143L17 21.8571V2.42857C17 1.08071 15.9071 0 14.5714 0Z" fill="#E6712F"/>
<path d="M8.5 13.1L7.8475 12.5173C5.53 10.4559 4 9.09193 4 7.42779C4 6.06381 5.089 5 6.475 5C7.258 5 8.0095 5.35755 8.5 5.91815C8.9905 5.35755 9.742 5 10.525 5C11.911 5 13 6.06381 13 7.42779C13 9.09193 11.47 10.4559 9.1525 12.5173L8.5 13.1Z" fill="white"/>
</svg>
