<svg width="10" height="10" viewBox="0 0 10 10" fill="none" xmlns="http://www.w3.org/2000/svg">
<path d="M5 0C5.66304 0 6.29893 0.263392 6.76777 0.732233C7.23661 1.20107 7.5 1.83696 7.5 2.5C7.5 3.16304 7.23661 3.79893 6.76777 4.26777C6.29893 4.73661 5.66304 5 5 5C4.33696 5 3.70107 4.73661 3.23223 4.26777C2.76339 3.79893 2.5 3.16304 2.5 2.5C2.5 1.83696 2.76339 1.20107 3.23223 0.732233C3.70107 0.263392 4.33696 0 5 0V0ZM5 6.25C7.7625 6.25 10 7.36875 10 8.75V10H0V8.75C0 7.36875 2.2375 6.25 5 6.25Z" fill="#E6712F"/>
</svg>
