<svg width="18" height="20" viewBox="0 0 18 20" fill="none" xmlns="http://www.w3.org/2000/svg">
<path fill-rule="evenodd" clip-rule="evenodd" d="M6 3C6 2.20435 6.31607 1.44129 6.87868 0.87868C7.44129 0.31607 8.20435 0 9 0C9.79565 0 10.5587 0.31607 11.1213 0.87868C11.6839 1.44129 12 2.20435 12 3H16C16.5304 3 17.0391 3.21071 17.4142 3.58579C17.7893 3.96086 18 4.46957 18 5V18C18 18.5304 17.7893 19.0391 17.4142 19.4142C17.0391 19.7893 16.5304 20 16 20H2C1.46957 20 0.960859 19.7893 0.585786 19.4142C0.210714 19.0391 0 18.5304 0 18V5C0 4.46957 0.210714 3.96086 0.585786 3.58579C0.960859 3.21071 1.46957 3 2 3H6ZM9 2C8.73478 2 8.48043 2.10536 8.29289 2.29289C8.10536 2.48043 8 2.73478 8 3C8 3.26522 8.10536 3.51957 8.29289 3.70711C8.48043 3.89464 8.73478 4 9 4C9.26522 4 9.51957 3.89464 9.70711 3.70711C9.89464 3.51957 10 3.26522 10 3C10 2.73478 9.89464 2.48043 9.70711 2.29289C9.51957 2.10536 9.26522 2 9 2ZM13.7989 11.57L11.3333 9.10444L12.43 8L16 11.57L12.43 15.1322L11.3333 14.0356L13.7989 11.57ZM4.20111 11.57L6.66667 14.0356L5.57 15.14L2 11.57L5.57 8.00778L6.66667 9.10444L4.20111 11.57ZM9.36664 8L7.44443 14.7309L8.40599 15.0055L10.3282 8.2746L9.36664 8Z" fill="#2E76DF"/>
</svg>
