<svg width="18" height="20" viewBox="0 0 18 20" fill="none" xmlns="http://www.w3.org/2000/svg">
<path d="M6 3C6 2.20435 6.31607 1.44129 6.87868 0.87868C7.44129 0.31607 8.20435 0 9 0C9.79565 0 10.5587 0.31607 11.1213 0.87868C11.6839 1.44129 12 2.20435 12 3H16C16.5304 3 17.0391 3.21071 17.4142 3.58579C17.7893 3.96086 18 4.46957 18 5V18C18 18.5304 17.7893 19.0391 17.4142 19.4142C17.0391 19.7893 16.5304 20 16 20H2C1.46957 20 0.960859 19.7893 0.585786 19.4142C0.210714 19.0391 0 18.5304 0 18V5C0 4.46957 0.210714 3.96086 0.585786 3.58579C0.960859 3.21071 1.46957 3 2 3H6ZM9 2C8.73478 2 8.48043 2.10536 8.29289 2.29289C8.10536 2.48043 8 2.73478 8 3C8 3.26522 8.10536 3.51957 8.29289 3.70711C8.48043 3.89464 8.73478 4 9 4C9.26522 4 9.51957 3.89464 9.70711 3.70711C9.89464 3.51957 10 3.26522 10 3C10 2.73478 9.89464 2.48043 9.70711 2.29289C9.51957 2.10536 9.26522 2 9 2Z" fill="#E6712F"/>
<path fill-rule="evenodd" clip-rule="evenodd" d="M14.0833 15.34C14.0833 13.7542 14.0833 9.58333 14.0833 9.58333C14.0558 8.86833 13.7716 8.23583 13.2216 7.695C12.6716 7.15417 12.0483 6.86083 11.3333 6.83333C11.3333 6.83333 10.3983 6.83333 10.4166 6.83333V5L7.66664 7.75L10.4166 10.5V8.66667H11.3333C11.5808 8.685 11.7733 8.7675 11.9658 8.95083C12.1583 9.13417 12.2408 9.33583 12.25 9.58333V15.34C11.7091 15.6517 11.3333 16.2383 11.3333 16.9167C11.3333 17.9342 12.1491 18.75 13.1666 18.75C14.1841 18.75 15 17.9342 15 16.9167C15 16.2475 14.6241 15.6517 14.0833 15.34ZM13.1666 18.0167C12.5616 18.0167 12.0666 17.5125 12.0666 16.9167C12.0666 16.3209 12.5708 15.8167 13.1666 15.8167C13.7625 15.8167 14.2666 16.3209 14.2666 16.9167C14.2666 17.5125 13.7625 18.0167 13.1666 18.0167ZM7.66667 7.74998C7.66667 6.73248 6.85083 5.91664 5.83333 5.91664C4.81583 5.91664 4 6.73248 4 7.74998C4 8.41914 4.37583 9.01498 4.91667 9.32664C4.91667 10.7475 4.91667 14.4233 4.91667 15.34C4.37583 15.6516 4 16.2383 4 16.9166C4 17.9341 4.81583 18.75 5.83333 18.75C6.85083 18.75 7.66667 17.9341 7.66667 16.9166C7.66667 16.2475 7.29083 15.6516 6.75 15.34V9.32664C7.29083 9.01498 7.66667 8.42831 7.66667 7.74998ZM6.93336 16.9167C6.93336 17.5217 6.42919 18.0167 5.83336 18.0167C5.23752 18.0167 4.73336 17.5125 4.73336 16.9167C4.73336 16.3209 5.23752 15.8167 5.83336 15.8167C6.42919 15.8167 6.93336 16.3209 6.93336 16.9167ZM5.83336 8.85C5.22836 8.85 4.73336 8.34583 4.73336 7.75C4.73336 7.15417 5.23752 6.65 5.83336 6.65C6.42919 6.65 6.93336 7.15417 6.93336 7.75C6.93336 8.34583 6.42919 8.85 5.83336 8.85Z" fill="white"/>
</svg>
