<svg width="49" height="52" viewBox="0 0 49 52" fill="none" xmlns="http://www.w3.org/2000/svg">
<path d="M16.9352 26.1256H30.446C32.5006 26.1256 34.2336 25.4557 35.6449 24.1159C37.0769 22.7762 37.7929 20.8712 37.7929 18.401C37.7929 16.5797 37.0457 14.9469 35.5515 13.5024C34.0572 12.037 32.3554 11.3043 30.446 11.3043H11.2071V52H8.96569V9.04348H30.446C32.978 9.04348 35.209 9.99597 37.1391 11.901C39.0693 13.785 40.0343 15.9517 40.0343 18.401C40.0343 21.4155 39.1004 23.8333 37.2325 25.6546C35.3647 27.4758 33.1025 28.3865 30.446 28.3865H16.9352V26.1256ZM16.9352 30.6473H30.446C33.6836 30.6473 36.4646 29.5064 38.7891 27.2246C41.1135 24.9219 42.2757 21.9807 42.2757 18.401C42.2757 15.3237 41.0824 12.6232 38.6957 10.2995C36.3297 7.95491 33.5798 6.78261 30.446 6.78261H6.72427V52H4.48285V4.52174H30.446C32.9157 4.52174 35.2298 5.16022 37.3882 6.4372C39.5673 7.71417 41.3003 9.43076 42.587 11.587C43.8738 13.7222 44.5172 15.9936 44.5172 18.401C44.5172 22.525 43.1266 25.9791 40.3456 28.7633C37.5853 31.5266 34.2855 32.9082 30.446 32.9082H16.9352V30.6473ZM16.9352 35.1691H30.446C33.3515 35.1691 36.0496 34.4469 38.54 33.0024C41.0305 31.558 43.0229 29.5483 44.5172 26.9734C46.0114 24.3776 46.7586 21.5201 46.7586 18.401C46.7586 15.5749 46.0114 12.9267 44.5172 10.4565C43.0436 7.96538 41.0512 5.97665 38.54 4.49034C36.0288 3.00403 33.3308 2.26087 30.446 2.26087H2.24142V52H0V0H30.446C33.7044 0 36.7656 0.847826 39.6296 2.54348C42.4936 4.2182 44.7662 6.47907 46.4473 9.32609C48.1491 12.1522 49 15.1771 49 18.401C49 22.1272 48.201 25.4034 46.6029 28.2295C45.0256 31.0556 42.8776 33.2641 40.1588 34.8551L45.9492 52H43.5832L38.0419 35.9227C37.2118 36.2576 36.5788 36.4879 36.1429 36.6135L41.3418 52H38.9759L33.9015 37.1473C33.7147 37.1892 33.0506 37.2625 31.9091 37.3671L36.7344 52H34.3685L29.6055 37.43H27.582L32.1271 52H29.7611L25.1849 37.43H16.9352V35.1691ZM15.69 52H13.4485V13.5652H30.446C31.8365 13.5652 33.0299 14.0467 34.026 15.0097C35.043 15.9517 35.5515 17.0821 35.5515 18.401C35.5515 22.0435 33.8496 23.8647 30.446 23.8647H16.9352V21.6039H30.446C31.3384 21.6039 32.0337 21.3736 32.5318 20.913C33.0506 20.4316 33.31 19.5942 33.31 18.401C33.31 17.6683 33.0299 17.0612 32.4695 16.5797C31.9299 16.0773 31.2554 15.8261 30.446 15.8261H15.69V52Z" fill="#F9E04B"/>
</svg>
